<svg width="350" height="390" viewBox="0 0 350 390" fill="none" xmlns="http://www.w3.org/2000/svg">
<path d="M163.993 263.483H31.0952C30.0529 263.483 29.0532 263.014 28.3162 262.179C27.5791 261.344 27.165 260.211 27.165 259.03V47.3142C27.1741 46.1398 27.5922 45.0169 28.3283 44.1901C29.0643 43.3633 30.0588 42.8994 31.0952 42.8994H163.993C165.035 42.8994 166.035 43.3687 166.772 44.2039C167.509 45.0392 167.923 46.172 167.923 47.3532V259.03C167.923 260.211 167.509 261.344 166.772 262.179C166.035 263.014 165.035 263.483 163.993 263.483ZM31.0952 43.0554C30.0991 43.0575 29.1443 43.5068 28.4399 44.3051C27.7355 45.1033 27.3389 46.1853 27.3371 47.3142V259.03C27.3389 260.158 27.7355 261.241 28.4399 262.039C29.1443 262.837 30.0991 263.286 31.0952 263.288H163.993C164.989 263.286 165.944 262.837 166.648 262.039C167.353 261.241 167.749 260.158 167.751 259.03V47.3142C167.749 46.1853 167.353 45.1033 166.648 44.3051C165.944 43.5068 164.989 43.0575 163.993 43.0554H31.0952Z" fill="#EBEBEB"/>
<path d="M312.878 263.483H179.966C178.925 263.481 177.926 263.011 177.189 262.177C176.453 261.342 176.038 260.21 176.036 259.03V47.3142C176.047 46.1404 176.466 45.0187 177.201 44.1923C177.937 43.3659 178.93 42.9014 179.966 42.8994H312.878C313.912 42.9035 314.903 43.3692 315.636 44.1956C316.369 45.022 316.785 46.1425 316.794 47.3142V259.03C316.794 260.208 316.382 261.339 315.648 262.173C314.914 263.008 313.918 263.479 312.878 263.483ZM179.966 43.0554C178.97 43.0575 178.015 43.5068 177.311 44.3051C176.607 45.1033 176.21 46.1853 176.208 47.3142V259.03C176.21 260.158 176.607 261.241 177.311 262.039C178.015 262.837 178.97 263.286 179.966 263.288H312.878C313.874 263.286 314.829 262.837 315.533 262.039C316.237 261.241 316.634 260.158 316.636 259.03V47.3142C316.634 46.1853 316.237 45.1033 315.533 44.3051C314.829 43.5068 313.874 43.0575 312.878 43.0554H179.966Z" fill="#EBEBEB"/>
<path d="M54.0536 305.697H36.1577V305.892H54.0536V305.697Z" fill="#EBEBEB"/>
<path d="M131.761 303.583H100.767V303.778H131.761V303.583Z" fill="#EBEBEB"/>
<path d="M96.5854 312.943H54.7434V313.138H96.5854V312.943Z" fill="#EBEBEB"/>
<path d="M309.719 311.633H296.483V311.828H309.719V311.633Z" fill="#EBEBEB"/>
<path d="M290.351 311.633H252.295V311.828H290.351V311.633Z" fill="#EBEBEB"/>
<path d="M229.049 308.341H177.791V308.536H229.049V308.341Z" fill="#EBEBEB"/>
<path d="M117.626 230.622H80.0581L77.7798 200.803H115.347L117.626 230.622Z" fill="#E6E6E6"/>
<path d="M119.573 230.622H82.0059L79.7207 200.803H117.288L119.573 230.622Z" fill="#F0F0F0"/>
<path d="M87.1441 224.219L85.8914 207.207H112.157L113.41 224.219H87.1441Z" fill="white"/>
<path d="M141.696 230.622H136.334V298.271H141.696V230.622Z" fill="#E6E6E6"/>
<path d="M143.382 230.622H139.658V298.271H143.382V230.622Z" fill="#F0F0F0"/>
<path d="M91.4771 238.087H143.382V230.622H91.4771V238.087Z" fill="#F0F0F0"/>
<path d="M93.3172 238.087H87.9553V298.272H93.3172V238.087Z" fill="#E6E6E6"/>
<path d="M95.0064 238.087H91.2827V298.272H95.0064V238.087Z" fill="#F0F0F0"/>
<path d="M55.1422 238.087H49.7803V298.272H55.1422V238.087Z" fill="#E6E6E6"/>
<path d="M56.8385 238.087H53.1147V298.272H56.8385V238.087Z" fill="#F0F0F0"/>
<path d="M107.757 238.087H102.396V298.272H107.757V238.087Z" fill="#E6E6E6"/>
<path d="M109.454 238.087H105.73V298.272H109.454V238.087Z" fill="#F0F0F0"/>
<path d="M91.4777 230.622H49.7803V238.087H91.4777V230.622Z" fill="#E6E6E6"/>
<path d="M204.077 64.2871H48.3621V165.516H204.077V64.2871Z" fill="#E6E6E6"/>
<path d="M208.234 64.2871H50.3032V165.516H208.234V64.2871Z" fill="#F0F0F0"/>
<path d="M204.077 165.516H48.3621V174.283H204.077V165.516Z" fill="#E6E6E6"/>
<path d="M215.163 165.516H57.2319V174.283H215.163V165.516Z" fill="#F0F0F0"/>
<path d="M202.403 158.909V70.8857L56.1251 70.8857V158.909H202.403Z" fill="#FAFAFA"/>
<path d="M66.874 158.909L101.069 70.8857H117.217L83.0147 158.909H66.874Z" fill="white"/>
<path d="M58.8312 152.341C58.7761 152.341 58.7215 152.329 58.6706 152.305C58.6196 152.281 58.5733 152.246 58.5344 152.202C58.4954 152.158 58.4644 152.105 58.4433 152.047C58.4222 151.99 58.4114 151.928 58.4114 151.865V75.1836C58.4244 75.0688 58.4739 74.9634 58.5505 74.8871C58.6272 74.8107 58.7257 74.7686 58.8278 74.7686C58.9299 74.7686 59.0284 74.8107 59.1051 74.8871C59.1817 74.9634 59.2312 75.0688 59.2442 75.1836V151.865C59.2442 151.99 59.2009 152.11 59.1237 152.199C59.0464 152.288 58.9414 152.339 58.8312 152.341Z" fill="#F0F0F0"/>
<path d="M86.488 158.909L120.69 70.8857H126.981L92.786 158.909H86.488Z" fill="white"/>
<path d="M202.403 158.909V70.8857H201.66V158.909H202.403Z" fill="#E6E6E6"/>
<path opacity="0.6" d="M209.616 80.8466H53.9008L53.3708 73.4521H209.079L209.616 80.8466Z" fill="#EBEBEB"/>
<path opacity="0.6" d="M209.616 92.9598H53.9008L53.3708 85.5732H209.079L209.616 92.9598Z" fill="#EBEBEB"/>
<path opacity="0.6" d="M209.616 105.081H53.9008L53.3708 97.6943H209.079L209.616 105.081Z" fill="#EBEBEB"/>
<path opacity="0.6" d="M209.616 117.202H53.9008L53.3708 109.808H209.079L209.616 117.202Z" fill="#EBEBEB"/>
<path opacity="0.6" d="M209.616 129.324H53.9008L53.3708 121.93H209.079L209.616 129.324Z" fill="#EBEBEB"/>
<path opacity="0.6" d="M209.616 141.437H53.9008L53.3708 134.051H209.079L209.616 141.437Z" fill="#EBEBEB"/>
<path d="M252.382 111.797H294.313V64.2793H252.382V111.797Z" fill="#EBEBEB"/>
<path d="M252.384 64.2871H250.526V111.805H252.384V64.2871Z" fill="#E0E0E0"/>
<path d="M258.07 105.362H288.638V70.7225H258.07V105.362Z" fill="white"/>
<path d="M273.349 99.6325L283.58 88.0391L273.349 76.4456L263.119 88.0391L273.349 99.6325Z" fill="#F5F5F5"/>
<path d="M237.938 174.274H279.87V126.757H237.938V174.274Z" fill="#EBEBEB"/>
<path d="M237.937 126.765H236.079V174.282H237.937V126.765Z" fill="#E0E0E0"/>
<path d="M243.619 167.84H274.187V133.2H243.619V167.84Z" fill="white"/>
<path d="M256.726 157.903H261.076C263.474 157.903 265.419 155.7 265.419 152.982V148.052C265.419 145.334 263.474 143.13 261.076 143.13H256.726C254.327 143.13 252.383 145.334 252.383 148.052V152.982C252.383 155.7 254.327 157.903 256.726 157.903Z" fill="#F5F5F5"/>
<path d="M212.669 197.363H202.214V295.082H212.669V197.363Z" fill="#F0F0F0"/>
<path d="M304.063 295.081H203.667V298.271H304.063V295.081Z" fill="#F0F0F0"/>
<path d="M212.669 295.081H305.507V197.363H212.669V295.081Z" fill="#FAFAFA"/>
<path d="M287.334 254.466H230.845C228.178 254.466 225.62 253.266 223.734 251.129C221.848 248.992 220.789 246.093 220.789 243.071C220.789 240.048 221.848 237.15 223.734 235.013C225.62 232.875 228.178 231.675 230.845 231.675H287.334C290.001 231.675 292.559 232.875 294.445 235.013C296.331 237.15 297.39 240.048 297.39 243.071C297.39 246.093 296.331 248.992 294.445 251.129C292.559 253.266 290.001 254.466 287.334 254.466ZM230.845 232.439C228.357 232.439 225.971 233.559 224.211 235.553C222.452 237.547 221.463 240.251 221.463 243.071C221.463 245.89 222.452 248.594 224.211 250.588C225.971 252.582 228.357 253.702 230.845 253.702H287.334C289.822 253.702 292.208 252.582 293.968 250.588C295.727 248.594 296.716 245.89 296.716 243.071C296.716 240.251 295.727 237.547 293.968 235.553C292.208 233.559 289.822 232.439 287.334 232.439H230.845Z" fill="#F0F0F0"/>
<path d="M287.334 282.82H230.845C228.178 282.82 225.62 281.619 223.734 279.482C221.848 277.345 220.789 274.446 220.789 271.424C220.789 268.402 221.848 265.503 223.734 263.366C225.62 261.229 228.178 260.028 230.845 260.028H287.334C290.001 260.028 292.559 261.229 294.445 263.366C296.331 265.503 297.39 268.402 297.39 271.424C297.39 274.446 296.331 277.345 294.445 279.482C292.559 281.619 290.001 282.82 287.334 282.82ZM230.845 260.793C229.592 260.754 228.345 261.001 227.177 261.517C226.01 262.034 224.946 262.811 224.048 263.802C223.149 264.792 222.435 265.977 221.948 267.285C221.46 268.594 221.209 270 221.209 271.42C221.209 272.841 221.46 274.247 221.948 275.555C222.435 276.864 223.149 278.048 224.048 279.039C224.946 280.03 226.01 280.806 227.177 281.323C228.345 281.84 229.592 282.086 230.845 282.048H287.334C288.587 282.086 289.834 281.84 291.001 281.323C292.169 280.806 293.233 280.03 294.131 279.039C295.03 278.048 295.744 276.864 296.231 275.555C296.718 274.247 296.97 272.841 296.97 271.42C296.97 270 296.718 268.594 296.231 267.285C295.744 265.977 295.03 264.792 294.131 263.802C293.233 262.811 292.169 262.034 291.001 261.517C289.834 261.001 288.587 260.754 287.334 260.793H230.845Z" fill="#F0F0F0"/>
<path d="M267.615 240.613H250.566C250.015 240.601 249.491 240.345 249.105 239.901C248.719 239.456 248.502 238.858 248.501 238.234C248.502 237.611 248.719 237.013 249.105 236.568C249.491 236.123 250.015 235.868 250.566 235.855H267.615C268.171 235.858 268.704 236.109 269.097 236.555C269.491 237 269.712 237.604 269.714 238.234C269.712 238.865 269.491 239.469 269.097 239.914C268.704 240.36 268.171 240.611 267.615 240.613Z" fill="#EBEBEB"/>
<path d="M287.334 226.114H230.845C228.178 226.114 225.62 224.913 223.734 222.776C221.848 220.639 220.789 217.74 220.789 214.718C220.789 211.696 221.848 208.797 223.734 206.66C225.62 204.523 228.178 203.322 230.845 203.322H287.334C290.001 203.322 292.559 204.523 294.445 206.66C296.331 208.797 297.39 211.696 297.39 214.718C297.39 217.74 296.331 220.639 294.445 222.776C292.559 224.913 290.001 226.114 287.334 226.114ZM230.845 204.087C228.357 204.087 225.971 205.207 224.211 207.201C222.452 209.194 221.463 211.898 221.463 214.718C221.463 217.538 222.452 220.242 224.211 222.236C225.971 224.229 228.357 225.349 230.845 225.349H287.334C289.822 225.349 292.208 224.229 293.968 222.236C295.727 220.242 296.716 217.538 296.716 214.718C296.716 211.898 295.727 209.194 293.968 207.201C292.208 205.207 289.822 204.087 287.334 204.087H230.845Z" fill="#F0F0F0"/>
<path d="M267.615 212.261H250.566C250.015 212.249 249.491 211.993 249.105 211.548C248.719 211.104 248.502 210.506 248.501 209.882C248.51 209.265 248.73 208.675 249.115 208.238C249.501 207.802 250.021 207.552 250.566 207.542H267.615C268.165 207.544 268.693 207.79 269.085 208.227C269.478 208.665 269.703 209.258 269.714 209.882C269.712 210.512 269.491 211.116 269.097 211.562C268.704 212.008 268.171 212.259 267.615 212.261Z" fill="#EBEBEB"/>
<path d="M267.615 268.959H250.566C250.021 268.949 249.501 268.7 249.115 268.263C248.73 267.826 248.51 267.237 248.501 266.619C248.511 266.002 248.732 265.414 249.117 264.978C249.502 264.542 250.021 264.291 250.566 264.279H267.615C268.165 264.281 268.693 264.527 269.085 264.964C269.478 265.402 269.703 265.996 269.714 266.619C269.703 267.243 269.478 267.837 269.085 268.274C268.693 268.711 268.165 268.957 267.615 268.959Z" fill="#EBEBEB"/>
<path d="M307.422 192.402H212.677V197.371H307.422V192.402Z" fill="#F0F0F0"/>
<path d="M200.16 197.363H212.667V192.395H200.16V197.363Z" fill="#E6E6E6"/>
<path d="M175 333.496C249.958 333.496 310.723 329.543 310.723 324.666C310.723 319.79 249.958 315.837 175 315.837C100.042 315.837 39.2769 319.79 39.2769 324.666C39.2769 329.543 100.042 333.496 175 333.496Z" fill="#F5F5F5"/>
<path d="M289.549 115.619H184.045C184.045 115.619 165.04 135.119 165.04 182.528C165.04 223.298 179.453 278.577 174.042 301.205C169.961 318.279 150.172 321.212 140.687 321.617H241.109C241.109 321.617 274.135 323.84 279.546 301.205C284.957 278.569 270.544 223.298 270.544 182.52C270.544 135.088 289.549 115.619 289.549 115.619Z" fill="#407BFF"/>
<path opacity="0.7" d="M289.549 115.619H184.045C184.045 115.619 165.04 135.119 165.04 182.528C165.04 223.298 179.453 278.577 174.042 301.205C169.961 318.279 150.172 321.212 140.687 321.617H241.109C241.109 321.617 274.135 323.84 279.546 301.205C284.957 278.569 270.544 223.298 270.544 182.52C270.544 135.088 289.549 115.619 289.549 115.619Z" fill="white"/>
<g opacity="0.8">
<path opacity="0.8" d="M260.847 165.617H176.469C178.856 144.76 185.289 132.623 188.838 127.319H270.199C266.209 136.601 262.443 149.245 260.847 165.617Z" fill="#002BDD"/>
<path opacity="0.8" d="M260.847 165.617H176.469C178.856 144.76 185.289 132.623 188.838 127.319H270.199C266.209 136.601 262.443 149.245 260.847 165.617Z" fill="#012BDD"/>
<path opacity="0.3" d="M260.142 176.678H175.645C175.715 174.782 175.813 172.941 175.953 171.163H260.401C260.284 172.957 260.198 174.795 260.142 176.678Z" fill="#407BFF"/>
<path opacity="0.3" d="M202.14 187.73H175.617C175.57 185.968 175.544 184.233 175.54 182.528V182.224H202.07V182.52C202.07 184.244 202.091 185.983 202.14 187.73Z" fill="#407BFF"/>
<path opacity="0.3" d="M260.646 198.782H176.212C176.065 196.926 175.946 195.085 175.855 193.275H260.324C260.408 195.101 260.516 196.936 260.646 198.782Z" fill="#407BFF"/>
<path opacity="0.3" d="M261.575 209.82H177.211C177.015 207.974 176.833 206.136 176.665 204.306H261.099C261.218 206.162 261.393 208.003 261.575 209.82Z" fill="#407BFF"/>
<path opacity="0.3" d="M262.795 220.896H178.501C178.27 219.056 178.053 217.215 177.843 215.39H262.165C262.361 217.225 262.571 219.061 262.795 220.896Z" fill="#407BFF"/>
<path opacity="0.3" d="M264.187 231.948H179.9C179.657 230.107 179.424 228.272 179.2 226.441H263.48C263.711 228.274 263.949 230.1 264.187 231.948Z" fill="#407BFF"/>
<path opacity="0.3" d="M265.676 243.009H181.417C181.284 242.003 181.144 240.981 181.004 239.959L180.668 237.494H264.927C265.179 239.335 265.424 241.176 265.676 243.009Z" fill="#407BFF"/>
<path opacity="0.3" d="M182.89 254.061C182.656 252.241 182.423 250.406 182.19 248.554H266.435C266.68 250.395 266.932 252.228 267.17 254.061H182.89Z" fill="#407BFF"/>
<path opacity="0.3" d="M184.226 265.114C184.03 263.312 183.813 261.472 183.589 259.607H253.869C254.107 261.464 254.331 263.305 254.569 265.114H184.226Z" fill="#407BFF"/>
<path opacity="0.3" d="M185.264 276.174C185.128 274.375 184.974 272.536 184.802 270.659H269.166C269.355 272.547 269.53 274.388 269.677 276.174H185.264Z" fill="#407BFF"/>
<path opacity="0.3" d="M185.744 287.228C185.744 285.449 185.681 283.608 185.59 281.721H230.103C230.215 283.647 230.278 285.488 230.299 287.228H185.744Z" fill="#407BFF"/>
</g>
<path d="M249.202 315.65C243.847 316.734 238.422 315.907 233.039 315.65C230.458 315.464 227.867 315.54 225.297 315.876C222.777 316.251 220.271 316.984 217.73 316.734C218.57 316.232 219.361 315.633 220.089 314.948C220.122 314.913 220.145 314.868 220.157 314.819C220.169 314.771 220.17 314.719 220.158 314.67C220.147 314.621 220.124 314.576 220.093 314.54C220.061 314.504 220.021 314.478 219.977 314.464C212.074 311.344 204.878 319.784 197.003 317.818C199.236 315.978 202.379 315.939 204.283 313.521C204.319 313.479 204.342 313.427 204.351 313.37C204.36 313.314 204.355 313.255 204.335 313.203C204.315 313.15 204.281 313.104 204.239 313.072C204.196 313.04 204.146 313.022 204.094 313.021C197.052 312.865 190.402 315.9 183.402 316.594C183.066 316.594 183.066 317.21 183.402 317.179C190.157 316.524 196.632 313.645 203.443 313.583C201.406 315.611 198.298 315.681 196.226 317.725C196.194 317.761 196.171 317.806 196.159 317.855C196.147 317.904 196.147 317.956 196.158 318.006C196.169 318.055 196.192 318.1 196.224 318.137C196.255 318.174 196.295 318.201 196.338 318.216C204.276 320.658 211.5 312.218 219.34 314.823C218.523 315.538 217.632 316.143 216.687 316.625C216.643 316.655 216.608 316.698 216.585 316.75C216.563 316.802 216.555 316.86 216.561 316.917C216.568 316.974 216.589 317.028 216.623 317.072C216.657 317.115 216.701 317.147 216.75 317.163C219.333 317.647 221.86 317.031 224.408 316.578C227.261 316.122 230.149 315.997 233.025 316.204C238.464 316.492 243.924 317.311 249.328 316.204C249.685 316.149 249.545 315.58 249.202 315.65Z" fill="#002BDD"/>
<path d="M106.317 144.401C106.758 145.033 107.325 145.774 107.843 146.461C108.361 147.147 108.928 147.841 109.488 148.512C110.615 149.854 111.756 151.172 112.988 152.412C115.273 154.829 117.868 156.853 120.688 158.418C121.031 158.59 121.388 158.746 121.703 158.886C121.859 158.955 122.018 159.015 122.179 159.065C122.328 159.131 122.483 159.181 122.641 159.214C123.313 159.406 124 159.526 124.692 159.572C126.242 159.656 127.795 159.557 129.326 159.276C130.952 159 132.562 158.619 134.149 158.137C135.759 157.669 137.404 157.092 138.937 156.491L140.337 159.611C137.225 161.779 133.856 163.449 130.327 164.572C128.466 165.166 126.549 165.509 124.615 165.594C123.568 165.641 122.519 165.565 121.486 165.368C121.22 165.321 120.947 165.251 120.681 165.181C120.415 165.11 120.135 165.032 119.904 164.947C119.414 164.783 118.938 164.603 118.504 164.401C114.941 162.768 111.662 160.453 108.816 157.56C107.427 156.219 106.102 154.797 104.847 153.301C104.224 152.521 103.615 151.796 103.027 151.016C102.439 150.236 101.879 149.456 101.27 148.559L106.317 144.401Z" fill="#FFB573"/>
<path d="M99.1985 142.194C99.0445 146.562 100.598 154.44 100.598 154.44L110.3 153.13C110.3 153.13 110.657 141.601 108.774 138.817C105.589 134.16 99.3455 138.06 99.1985 142.194Z" fill="#012BDD"/>
<path d="M137.637 157.599L142.18 152.966L142.761 157.958C142.761 157.958 140.878 160.774 138.743 159.588L137.637 157.599Z" fill="#FFB573"/>
<path d="M144.463 153.239L146.388 156.047L142.762 157.958L142.181 152.966L144.463 153.239Z" fill="#FFB573"/>
<path d="M143.313 140.61C143.796 140.61 144.062 140.61 144.405 140.61C144.552 140.599 144.699 140.599 144.846 140.61L145.21 140.665C145.524 140.706 145.824 140.838 146.078 141.047C146.202 141.209 146.284 141.406 146.316 141.616L146.477 142.209L147.128 144.549L148.43 149.284L151.027 158.761C152.742 165.079 154.527 171.381 156.179 177.715C159.574 190.366 162.787 203.065 165.944 215.786C169.101 228.508 172.069 241.285 175.121 254.006C178.173 266.728 180.903 279.598 181.876 292.952C181.911 293.845 181.67 294.724 181.193 295.442C180.717 296.161 180.033 296.675 179.256 296.899C178.48 297.122 177.658 297.042 176.928 296.672C176.198 296.301 175.605 295.663 175.247 294.863C170.277 282.664 167.029 269.973 164.187 257.165C161.345 244.358 158.328 231.659 155.542 218.86C152.756 206.06 150.033 193.19 147.485 180.296C146.176 173.861 144.986 167.387 143.733 160.937L141.878 151.249L140.947 146.405L140.485 143.98L140.366 143.379C140.303 143.176 140.288 142.958 140.324 142.747C140.46 142.438 140.662 142.17 140.912 141.967L141.213 141.718C141.329 141.62 141.45 141.531 141.577 141.452C141.878 141.257 142.095 141.094 142.529 140.86C142.773 140.72 143.04 140.635 143.313 140.61Z" fill="#263238"/>
<path d="M181.202 294.964C181.149 294.753 181.024 294.574 180.854 294.464C180.684 294.355 180.482 294.324 180.292 294.379L178.752 294.824L177.212 295.269C177.021 295.324 176.858 295.46 176.757 295.648C176.656 295.837 176.626 296.062 176.673 296.275C177.632 301.189 176.673 304.707 177.695 309.028C178.752 313.575 183.351 315.907 183.351 315.907L183.204 313.965L183.904 315.744C183.904 315.744 186.907 311.22 185.85 306.672C184.856 302.351 182.504 299.777 181.202 294.964Z" fill="#002BDD"/>
<path d="M182.401 306.243C182.446 306.448 182.436 306.663 182.372 306.862C182.308 307.06 182.192 307.233 182.04 307.358C181.888 307.483 181.705 307.556 181.516 307.566C181.327 307.576 181.14 307.524 180.977 307.415C180.815 307.307 180.685 307.148 180.604 306.957C180.523 306.766 180.494 306.553 180.521 306.345C180.548 306.136 180.63 305.941 180.757 305.784C180.883 305.627 181.049 305.516 181.232 305.463C181.48 305.395 181.742 305.438 181.961 305.585C182.18 305.731 182.338 305.968 182.401 306.243Z" fill="#263238"/>
<path d="M183.26 314.199C183.232 314.208 183.203 314.211 183.175 314.207C183.146 314.204 183.118 314.193 183.093 314.177C183.068 314.161 183.047 314.14 183.03 314.114C183.012 314.088 183 314.058 182.994 314.027L181.258 306.578C181.251 306.547 181.249 306.515 181.252 306.484C181.256 306.452 181.265 306.422 181.28 306.394C181.294 306.367 181.313 306.343 181.336 306.323C181.358 306.304 181.384 306.29 181.412 306.282C181.439 306.272 181.468 306.269 181.497 306.273C181.526 306.277 181.553 306.287 181.578 306.303C181.603 306.319 181.625 306.341 181.642 306.367C181.659 306.392 181.671 306.422 181.678 306.453L183.414 313.902C183.421 313.933 183.423 313.965 183.419 313.997C183.416 314.028 183.406 314.059 183.392 314.086C183.378 314.114 183.359 314.138 183.336 314.157C183.313 314.176 183.287 314.191 183.26 314.199Z" fill="#263238"/>
<path d="M177.593 268.179L168.157 270.901C167.895 270.975 167.618 270.93 167.386 270.776C167.154 270.623 166.985 270.373 166.918 270.082C166.851 269.796 166.886 269.492 167.017 269.234C167.147 268.976 167.363 268.785 167.618 268.702L177.103 265.979C177.36 265.905 177.633 265.944 177.864 266.09C178.095 266.235 178.267 266.476 178.342 266.759C178.379 266.908 178.388 267.062 178.37 267.215C178.352 267.367 178.307 267.514 178.237 267.646C178.167 267.778 178.074 267.894 177.963 267.985C177.853 268.077 177.727 268.143 177.593 268.179Z" fill="#002BDD"/>
<path d="M129.694 125.424C129.526 125.892 129.617 126.384 129.89 126.516C130.163 126.649 130.527 126.376 130.695 125.908C130.863 125.44 130.779 124.948 130.499 124.816C130.219 124.683 129.869 124.956 129.694 125.424Z" fill="#263238"/>
<path d="M130.37 124.8L131.497 124.964C131.497 124.964 130.657 125.58 130.37 124.8Z" fill="#263238"/>
<path d="M129.888 126.048C129.877 127.303 130.018 128.555 130.308 129.768C130.029 129.835 129.74 129.832 129.462 129.761C129.184 129.689 128.923 129.551 128.698 129.355L129.888 126.048Z" fill="#ED893E"/>
<path d="M131.384 122.569C131.341 122.56 131.3 122.538 131.265 122.507C131.014 122.25 130.712 122.062 130.384 121.956C130.056 121.851 129.711 121.831 129.375 121.898C129.307 121.918 129.234 121.906 129.173 121.867C129.111 121.828 129.066 121.764 129.046 121.688C129.029 121.611 129.039 121.53 129.074 121.462C129.11 121.394 129.167 121.343 129.235 121.321C129.656 121.228 130.09 121.246 130.503 121.374C130.917 121.501 131.297 121.734 131.615 122.054C131.64 122.082 131.66 122.115 131.674 122.151C131.687 122.187 131.694 122.226 131.694 122.265C131.694 122.304 131.687 122.343 131.674 122.379C131.66 122.415 131.64 122.448 131.615 122.476C131.587 122.511 131.551 122.539 131.51 122.555C131.47 122.571 131.427 122.576 131.384 122.569Z" fill="#263238"/>
<path d="M114.853 125.182C115.154 128.98 114.02 135.197 111.444 137.311C111.444 137.311 113.383 141.304 119.592 142.232C126.417 143.254 123.211 138.972 123.211 138.972C119.578 137.412 119.97 134.393 120.887 131.617L114.853 125.182Z" fill="#FFB573"/>
<path d="M133.452 145.454C133.991 148.995 134.656 152.669 135.349 156.249C135.72 158.036 136.091 159.83 136.525 161.585C136.959 163.34 137.393 165.095 137.876 166.818C138.142 167.669 138.38 168.534 138.66 169.361L139.08 170.609L139.178 170.913V171.007C139.192 171.055 139.208 171.102 139.227 171.147C139.371 171.425 139.607 171.63 139.885 171.717C140.439 171.936 141.019 172.06 141.607 172.083C143.109 172.129 144.611 171.993 146.087 171.678C147.634 171.366 149.265 170.945 150.784 170.477L152.065 173.636C151.293 174.147 150.499 174.616 149.685 175.04C148.881 175.479 148.056 175.869 147.214 176.21C145.451 176.977 143.602 177.47 141.719 177.676C140.613 177.788 139.497 177.704 138.415 177.426C137.028 177.074 135.779 176.234 134.852 175.032C134.612 174.709 134.397 174.364 134.208 174.002C134.11 173.823 134.033 173.636 133.949 173.456L133.816 173.105L133.27 171.74C132.913 170.827 132.57 169.915 132.269 168.995C131.667 167.154 131.093 165.305 130.596 163.449C130.099 161.592 129.651 159.72 129.196 157.848C128.363 154.089 127.684 150.368 127.18 146.476L133.452 145.454Z" fill="#FFB573"/>
<path d="M150.109 170.694L152.811 168.308L154.029 172.941C154.029 172.941 150.333 175.92 149.346 172.418L150.109 170.694Z" fill="#FFB573"/>
<path d="M155.256 169.127L156.222 172.512L154.031 172.941L152.82 168.308L155.256 169.127Z" fill="#FFB573"/>
<path d="M104.772 317.78L110.421 318.248L112.094 303.794L106.445 303.326L104.772 317.78Z" fill="#FFB573"/>
<path d="M68.5942 299.418L73.4872 302.733L81.6282 291.408L76.7352 288.093L68.5942 299.418Z" fill="#FFB573"/>
<path d="M76.9052 304.402C76.8356 304.414 76.7648 304.414 76.6952 304.402C75.9952 304.402 75.1622 303.186 74.7422 302.468C74.7268 302.444 74.7185 302.415 74.7185 302.386C74.7185 302.357 74.7268 302.328 74.7422 302.304C74.7557 302.279 74.7755 302.259 74.7992 302.247C74.8228 302.234 74.8493 302.23 74.8752 302.234C75.1062 302.289 77.1292 302.764 77.3952 303.513C77.4237 303.596 77.4322 303.686 77.42 303.773C77.4077 303.861 77.375 303.943 77.3252 304.012C77.2312 304.194 77.0823 304.332 76.9052 304.402ZM75.1552 302.632C75.7502 303.568 76.3172 304.122 76.7022 304.129C76.786 304.13 76.8685 304.106 76.9412 304.06C77.0138 304.013 77.0739 303.945 77.1152 303.864C77.1339 303.832 77.1438 303.794 77.1438 303.755C77.1438 303.716 77.1339 303.678 77.1152 303.646C77.0032 303.248 75.9602 302.85 75.1552 302.64V302.632Z" fill="#002BDD"/>
<path d="M76.6046 302.453C76.023 302.629 75.4142 302.663 74.8195 302.554C74.7974 302.546 74.7775 302.531 74.7616 302.512C74.7457 302.493 74.7343 302.47 74.7286 302.445C74.7175 302.424 74.7117 302.399 74.7117 302.375C74.7117 302.35 74.7175 302.326 74.7286 302.304C74.7706 302.25 75.8836 300.978 76.7026 301.017C76.8083 301.019 76.9123 301.047 77.0069 301.1C77.1014 301.152 77.1841 301.228 77.2486 301.322C77.3244 301.405 77.3726 301.514 77.3853 301.632C77.398 301.749 77.3745 301.868 77.3185 301.969C77.1334 302.212 76.883 302.381 76.6046 302.453ZM75.1346 302.312C75.8346 302.398 76.9126 302.172 77.1296 301.813C77.1296 301.751 77.1856 301.665 77.0736 301.509C77.0323 301.449 76.9793 301.4 76.9187 301.367C76.858 301.333 76.7913 301.315 76.7236 301.314C76.1138 301.455 75.5585 301.804 75.1346 302.312Z" fill="#002BDD"/>
<path d="M74.9585 301.517L70.3175 296.541C70.2408 296.453 70.1378 296.4 70.028 296.391C69.9183 296.382 69.8096 296.419 69.7225 296.494L65.7605 299.895C65.665 299.989 65.5886 300.105 65.5362 300.235C65.4839 300.364 65.4568 300.505 65.4568 300.647C65.4568 300.79 65.4839 300.93 65.5362 301.06C65.5886 301.19 65.665 301.306 65.7605 301.4C67.4055 303.108 68.2735 303.841 70.3105 306.033C71.5705 307.383 73.2785 309.489 75.0145 311.353C76.7505 313.217 78.4445 311.454 77.8705 310.51C75.2805 306.283 75.6655 304.699 75.4345 302.539C75.3851 302.148 75.2171 301.787 74.9585 301.517Z" fill="#263238"/>
<path d="M112.872 318.451C112.274 318.439 111.679 318.363 111.094 318.225C111.067 318.219 111.042 318.203 111.023 318.181C111.005 318.159 110.993 318.13 110.989 318.1C110.985 318.069 110.99 318.038 111.002 318.01C111.015 317.982 111.034 317.959 111.059 317.944C111.318 317.796 113.614 316.509 114.286 316.945C114.35 316.982 114.405 317.038 114.443 317.107C114.481 317.176 114.502 317.255 114.503 317.335C114.517 317.471 114.501 317.608 114.456 317.735C114.411 317.861 114.338 317.974 114.244 318.061C113.839 318.36 113.355 318.497 112.872 318.451ZM111.542 318.014C112.788 318.24 113.719 318.186 114.069 317.842C114.131 317.784 114.178 317.709 114.208 317.624C114.237 317.54 114.247 317.449 114.237 317.359C114.239 317.327 114.233 317.296 114.219 317.268C114.205 317.241 114.185 317.218 114.16 317.203C113.782 316.969 112.487 317.515 111.542 318.014Z" fill="#012BDD"/>
<path d="M111.122 318.24C111.097 318.248 111.07 318.248 111.045 318.24C111.025 318.225 111.008 318.204 110.998 318.179C110.988 318.154 110.985 318.126 110.989 318.099C110.989 317.99 111.262 315.416 112.529 315.416H112.634C113.005 315.455 113.11 315.658 113.131 315.829C113.236 316.539 111.864 317.904 111.178 318.247L111.122 318.24ZM112.522 315.689C111.71 315.689 111.388 317.187 111.29 317.826C111.99 317.358 112.921 316.266 112.858 315.861C112.858 315.822 112.858 315.72 112.599 315.697L112.522 315.689Z" fill="#012BDD"/>
<path d="M110.769 317.351H104.42C104.311 317.35 104.204 317.393 104.12 317.472C104.035 317.55 103.978 317.659 103.958 317.78L103.104 323.372C103.087 323.512 103.098 323.655 103.134 323.79C103.171 323.926 103.233 324.051 103.316 324.157C103.4 324.264 103.503 324.349 103.619 324.407C103.734 324.465 103.86 324.496 103.986 324.495C106.198 324.495 107.269 324.308 110.062 324.308C111.777 324.308 115.326 324.503 117.699 324.503C120.072 324.503 120.261 321.89 119.274 321.656C114.871 320.595 113.163 319.129 111.707 317.756C111.448 317.502 111.115 317.358 110.769 317.351Z" fill="#263238"/>
<path opacity="0.2" d="M112.092 303.794L111.161 311.828L105.575 310.783L106.443 303.334L112.092 303.794Z" fill="black"/>
<path opacity="0.2" d="M76.7288 288.093L81.6288 291.416L78.2548 296.096L73.2568 292.921L76.7288 288.093Z" fill="black"/>
<path d="M101.921 175.235L124.79 178.659C133.652 142.919 131.041 141.96 131.041 141.96C130.033 141.425 128.992 140.971 127.926 140.603C126.848 140.166 125.758 139.768 124.657 139.409C122.457 138.682 120.22 138.101 117.958 137.67C113.568 136.829 109.105 136.549 104.658 136.835C104.212 136.87 103.779 137.016 103.392 137.264C103.004 137.511 102.671 137.852 102.418 138.263C102.323 138.415 102.241 138.577 102.173 138.746C101.924 139.34 101.827 139.999 101.893 140.65C103.825 159.432 103.202 165.61 101.921 175.235Z" fill="#012BDD"/>
<path opacity="0.2" d="M127.018 152.88C126.567 156.578 126.994 160.343 128.257 163.8C129.776 156.827 130.602 152.1 131.008 148.824C129.265 148.738 127.452 149.487 127.018 152.88Z" fill="black"/>
<path d="M130.838 141.835C134.758 144.331 137.481 150.282 138.3 153.738L129.956 162.24C129.956 162.24 125.63 151.031 125.98 147.552C126.33 144.073 129.361 140.891 130.838 141.835Z" fill="#012BDD"/>
<path d="M116.089 117.343C114.332 123.255 113.478 125.712 115.018 129.924C117.342 136.266 124.223 137.607 127.527 132.452C130.502 127.811 132.875 118.919 128.64 114.192C127.75 113.137 126.629 112.36 125.387 111.936C124.144 111.512 122.824 111.456 121.557 111.774C120.29 112.092 119.119 112.773 118.16 113.75C117.201 114.727 116.487 115.965 116.089 117.343Z" fill="#FFB573"/>
<path d="M124.791 122.585C124.422 123.67 124.363 124.855 124.623 125.978C124.973 127.538 126.023 127.671 126.674 126.665C127.325 125.659 127.766 123.841 127.066 122.531C126.366 121.22 125.246 121.392 124.791 122.585Z" fill="#FFB573"/>
<path d="M117.996 109.98C114.216 107.64 107.412 114.488 105.704 125.666C104.479 133.668 119.816 137.537 129.504 137.412C128.86 135.525 124.835 129.846 127.404 124.379C129.273 120.408 131.401 121.329 131.541 116.711C131.716 110.892 124.8 106.992 117.996 109.98Z" fill="#263238"/>
<path d="M126.6 112.492C130.996 112.016 135.413 116.828 132.137 121.625C131.337 120.91 130.406 120.4 129.409 120.13C128.412 119.861 127.374 119.839 126.369 120.065C124.36 120.565 126.6 112.492 126.6 112.492Z" fill="#263238"/>
<path d="M118.757 177.754C118.757 177.754 109.902 219.577 105.702 243.609C101.32 268.959 80.3127 295.37 80.3127 295.37L73.2007 290.94C73.2007 290.94 86.4167 266.838 90.7007 243.165C99.4087 195.117 93.5007 185.445 101.901 175.242L118.757 177.754Z" fill="#263238"/>
<path d="M81.0423 296.11L72.1313 290.58L73.4333 287.647L83.4293 292.772L81.0423 296.11Z" fill="#012BDD"/>
<path opacity="0.2" d="M114.033 186.84C107.131 193.525 107.88 217.26 108.601 227.915C111.499 212.721 114.978 195.81 117.001 186.021C116.294 185.413 115.307 185.639 114.033 186.84Z" fill="black"/>
<path d="M124.455 178.674C124.455 178.674 128.452 228.336 126.268 247.275C124 266.978 112.464 309.839 112.464 309.839L104.302 308.669C104.302 308.669 110.924 266.19 112.1 246.69C113.381 225.419 107.69 176.17 107.69 176.17L124.455 178.674Z" fill="#263238"/>
<path d="M114.194 310.361L102.588 308.692L102.763 304.87L115.363 306.227L114.194 310.361Z" fill="#012BDD"/>
<path d="M101.72 173.698L100.474 175.812C100.376 175.976 100.551 176.179 100.81 176.218L124.799 179.806C125.009 179.806 125.191 179.751 125.212 179.611L125.639 177.38C125.639 177.224 125.499 177.06 125.275 177.029L102.112 173.566C102.042 173.549 101.969 173.553 101.901 173.576C101.832 173.599 101.77 173.641 101.72 173.698Z" fill="#407BFF"/>
<path opacity="0.5" d="M101.72 173.698L100.474 175.812C100.376 175.976 100.551 176.179 100.81 176.218L124.799 179.806C125.009 179.806 125.191 179.751 125.212 179.611L125.639 177.38C125.639 177.224 125.499 177.06 125.275 177.029L102.112 173.566C102.042 173.549 101.969 173.553 101.901 173.576C101.832 173.599 101.77 173.641 101.72 173.698Z" fill="black"/>
<path d="M104.562 177.06L103.939 176.966C103.813 176.966 103.729 176.865 103.743 176.779L104.317 173.877C104.317 173.799 104.45 173.745 104.569 173.76L105.192 173.854C105.318 173.854 105.402 173.955 105.388 174.041L104.814 176.943C104.8 176.99 104.681 177.06 104.562 177.06Z" fill="#263238"/>
<path d="M120.225 179.4L119.602 179.306C119.483 179.306 119.392 179.205 119.406 179.119L119.98 176.217C119.98 176.131 120.113 176.077 120.239 176.1L120.855 176.186C120.981 176.186 121.065 176.295 121.051 176.381L120.477 179.275C120.463 179.4 120.344 179.4 120.225 179.4Z" fill="#263238"/>
</svg>
