<svg width="390" height="805" viewBox="0 0 390 805" fill="none" xmlns="http://www.w3.org/2000/svg">
<rect width="390" height="805" fill="#F9FAFB"/>
<path d="M334.951 348.782C338.562 352.241 338.562 357.848 334.951 361.306C331.341 364.765 325.488 364.765 321.878 361.306C318.268 357.848 318.268 352.241 321.878 348.782C325.488 345.324 331.341 345.324 334.951 348.782Z" fill="url(#paint0_linear_650_5014)"/>
<path d="M334.322 349.385C337.584 352.511 337.584 357.578 334.322 360.703C331.059 363.828 325.77 363.828 322.508 360.703C319.245 357.578 319.245 352.511 322.508 349.385C325.77 346.26 331.059 346.26 334.322 349.385Z" stroke="white" stroke-opacity="0.15" stroke-width="1.74423"/>
<g clip-path="url(#clip0_650_5014)">
<path fill-rule="evenodd" clip-rule="evenodd" d="M65.0634 363.9V347.888H69.05V345.724H65.0634V338.439H69.05V334.246H65.0634V333.797C65.0634 332.748 65.4542 331.775 66.2359 331.101C66.9394 330.352 67.9557 329.977 69.05 329.977H73.8184V325.709H64.6725C62.4837 325.709 60.295 326.533 58.8097 328.105C57.1682 329.603 56.3083 331.775 56.3083 333.946H52.5785L52.5779 338.439L56.3083 338.514V345.724H52.5785V347.888H56.3083V363.9H65.0634ZM96.2533 363.9C101.491 363.9 104.383 361.054 105.087 355.288H100.709C100.709 358.134 99.2238 359.632 96.2533 359.632H91.7976C90.6251 359.632 89.4525 359.182 88.6708 358.359C87.8109 357.535 87.3419 356.487 87.3419 355.363V351.095H105.087V342.483C105.087 340.237 104.149 338.065 102.507 336.492C100.865 334.845 98.5984 333.946 96.2533 333.946H87.4201C85.075 333.946 82.808 334.845 81.1665 336.492C79.4467 338.065 78.5087 340.237 78.5087 342.483V355.363C78.5087 360.081 82.4954 363.9 87.4201 363.975H96.2533V363.9ZM95.7061 346.677H87.1074V342.558C87.1074 340.311 89.0617 338.439 91.4068 338.439C92.5793 338.439 93.6737 338.889 94.4554 339.638C95.2371 340.386 95.7061 341.435 95.7061 342.558V346.677ZM126.974 363.9C129.554 363.9 131.117 362.477 131.43 359.707V363.9H140.263V325.709H131.43V334.246H122.597C120.252 334.246 117.985 335.144 116.343 336.717C114.623 338.29 113.685 340.461 113.685 342.708V355.438C113.763 360.081 117.672 363.9 122.597 363.9H126.974ZM127.365 359.407C126.193 359.407 125.098 358.958 124.316 358.134C123.457 357.31 123.066 356.262 123.066 355.139V342.633C123.066 341.51 123.535 340.461 124.316 339.712C125.098 338.889 126.193 338.439 127.365 338.514H131.665V355.288C131.665 356.412 131.195 357.46 130.414 358.284C129.632 358.958 128.46 359.407 127.365 359.407ZM167.388 363.9C172.626 363.9 175.518 361.054 176.222 355.288H171.844C171.844 358.134 170.359 359.632 167.467 359.632H162.933C161.76 359.632 160.588 359.182 159.806 358.359C158.946 357.535 158.477 356.487 158.477 355.363V351.095H176.222V342.483C176.222 340.237 175.284 338.065 173.642 336.492C172 334.845 169.733 333.946 167.388 333.946H158.555C156.21 333.946 153.943 334.845 152.301 336.492C150.582 338.065 149.644 340.237 149.644 342.483V355.363C149.644 360.081 153.63 363.9 158.555 363.975H167.388V363.9ZM166.841 346.677H158.242V342.558C158.242 340.311 160.197 338.439 162.542 338.439C163.714 338.439 164.809 338.889 165.59 339.638C166.372 340.386 166.841 341.435 166.841 342.558V346.677ZM193.575 363.9V346.752C193.575 345.628 194.044 344.505 194.826 343.681C195.608 342.858 196.702 342.408 197.875 342.408H206.708V333.946H202.331C199.751 333.946 197.718 334.62 196.233 336.118C194.748 337.616 193.888 339.638 193.497 342.483V333.946H184.82V363.9H193.575ZM224.687 363.9C227.345 363.9 228.83 362.477 229.143 359.632V363.9H237.976V342.483C237.976 340.237 237.038 338.065 235.397 336.492C233.755 334.845 231.488 333.946 229.143 333.946H220.31C215.072 333.946 212.102 336.792 211.398 342.483H215.854C216.167 339.638 217.652 338.215 220.231 338.215H224.609C227.032 338.215 229.065 340.162 229.065 342.483V346.826H220.153C215.307 346.901 211.32 350.646 211.242 355.363C211.242 360.081 215.229 363.9 220.153 363.975H224.687V363.9ZM225.078 359.407C223.906 359.407 222.811 358.958 222.029 358.134C221.248 357.385 220.779 356.337 220.779 355.213C220.779 352.967 222.733 351.095 225.078 351.095H229.377V355.213C229.377 356.337 228.908 357.385 228.127 358.134C227.345 358.958 226.172 359.407 225.078 359.407ZM265.101 376.63C267.446 376.63 269.713 375.732 271.355 374.084C272.997 372.512 274.013 370.34 273.935 368.094V333.946H256.19C253.845 333.946 251.578 334.845 249.936 336.492C248.216 338.065 247.278 340.237 247.278 342.483V355.288C247.278 360.006 251.265 363.825 256.19 363.825H260.646C263.303 363.825 264.789 362.402 265.101 359.557V368.094C265.101 370.415 263.147 372.362 260.724 372.362C260.724 372.362 260.724 372.362 260.646 372.362H256.268C253.532 372.362 252.047 370.939 251.89 368.019H247.357C248.06 373.71 251.031 376.556 256.268 376.556H265.101V376.63ZM260.255 359.407C259.082 359.407 257.988 358.958 257.206 358.134C256.346 357.31 255.955 356.262 255.955 355.139V342.633C255.955 341.51 256.424 340.461 257.206 339.712C257.988 338.889 259.082 338.439 260.255 338.514H264.554V355.288C264.554 356.412 264.085 357.46 263.303 358.284C262.522 358.958 261.349 359.407 260.255 359.407ZM300.278 363.9C305.515 363.9 308.408 361.054 309.111 355.288H304.734C304.734 358.134 303.248 359.632 300.356 359.632H295.822C294.65 359.632 293.477 359.182 292.695 358.359C291.836 357.535 291.367 356.487 291.367 355.363V351.095H309.111V342.483C309.111 340.237 308.173 338.065 306.532 336.492C304.89 334.845 302.623 333.946 300.278 333.946H291.445C289.1 333.946 286.833 334.845 285.191 336.492C283.471 338.065 282.533 340.237 282.533 342.483V355.363C282.533 360.081 286.52 363.9 291.445 363.975H300.278V363.9ZM299.731 346.677H291.132V342.558C291.132 340.311 293.086 338.439 295.431 338.439C296.604 338.439 297.698 338.889 298.48 339.638C299.262 340.386 299.731 341.435 299.731 342.558V346.677Z" fill="black"/>
</g>
<defs>
<linearGradient id="paint0_linear_650_5014" x1="328.614" y1="367.287" x2="328.426" y2="342.514" gradientUnits="userSpaceOnUse">
<stop stop-color="#0032FF"/>
<stop offset="0.25" stop-color="#012BDD"/>
<stop offset="0.476169" stop-color="#9FBDFF"/>
<stop offset="0.682292" stop-color="#012BDD"/>
<stop offset="0.755208"/>
<stop offset="0.755208"/>
<stop offset="0.755308"/>
</linearGradient>
<clipPath id="clip0_650_5014">
<rect width="258" height="51.7303" fill="white" transform="translate(52 325.709)"/>
</clipPath>
</defs>
</svg>
