<svg width="22" height="22" viewBox="0 0 22 22" fill="none" xmlns="http://www.w3.org/2000/svg">
<path d="M13.625 15.375H18L16.7707 14.1457C16.4373 13.8123 16.25 13.3601 16.25 12.8886V10.125C16.25 7.83912 14.7891 5.89445 12.75 5.17374V4.875C12.75 3.9085 11.9665 3.125 11 3.125C10.0335 3.125 9.25 3.9085 9.25 4.875V5.17374C7.21091 5.89445 5.75 7.83912 5.75 10.125V12.8886C5.75 13.3601 5.5627 13.8123 5.22932 14.1457L4 15.375H8.375M13.625 15.375V16.25C13.625 17.6997 12.4497 18.875 11 18.875C9.55025 18.875 8.375 17.6997 8.375 16.25V15.375M13.625 15.375H8.375" stroke="white" stroke-width="1.75" stroke-linecap="round" stroke-linejoin="round"/>
</svg>
