<svg width="18" height="18" viewBox="0 0 18 18" fill="none" xmlns="http://www.w3.org/2000/svg">
<path fill-rule="evenodd" clip-rule="evenodd" d="M5.39981 1.80005C4.90275 1.80005 4.49981 2.20299 4.49981 2.70005V3.60005H3.59981C2.60569 3.60005 1.7998 4.40594 1.7998 5.40005V14.4001C1.7998 15.3942 2.60569 16.2001 3.59981 16.2001H14.3998C15.3939 16.2001 16.1998 15.3942 16.1998 14.4001V5.40005C16.1998 4.40594 15.3939 3.60005 14.3998 3.60005H13.4998V2.70005C13.4998 2.20299 13.0969 1.80005 12.5998 1.80005C12.1028 1.80005 11.6998 2.20299 11.6998 2.70005V3.60005H6.29981V2.70005C6.29981 2.20299 5.89686 1.80005 5.39981 1.80005ZM5.39981 6.30005C4.90275 6.30005 4.49981 6.703 4.49981 7.20005C4.49981 7.69711 4.90275 8.10005 5.39981 8.10005H12.5998C13.0969 8.10005 13.4998 7.69711 13.4998 7.20005C13.4998 6.703 13.0969 6.30005 12.5998 6.30005H5.39981Z" fill="#52606D"/>
</svg>
