<svg width="18" height="18" viewBox="0 0 18 18" fill="none" xmlns="http://www.w3.org/2000/svg">
<path fill-rule="evenodd" clip-rule="evenodd" d="M5.40005 1.80005C4.90299 1.80005 4.50005 2.20299 4.50005 2.70005V3.60005H3.60005C2.60594 3.60005 1.80005 4.40594 1.80005 5.40005V14.4001C1.80005 15.3942 2.60594 16.2001 3.60005 16.2001H14.4001C15.3942 16.2001 16.2001 15.3942 16.2001 14.4001V5.40005C16.2001 4.40594 15.3942 3.60005 14.4001 3.60005H13.5001V2.70005C13.5001 2.20299 13.0971 1.80005 12.6001 1.80005C12.103 1.80005 11.7001 2.20299 11.7001 2.70005V3.60005H6.30005V2.70005C6.30005 2.20299 5.89711 1.80005 5.40005 1.80005ZM5.40005 6.30005C4.90299 6.30005 4.50005 6.703 4.50005 7.20005C4.50005 7.69711 4.90299 8.10005 5.40005 8.10005H12.6001C13.0971 8.10005 13.5001 7.69711 13.5001 7.20005C13.5001 6.703 13.0971 6.30005 12.6001 6.30005H5.40005Z" fill="#012BDD"/>
</svg>
