<svg width="16" height="17" viewBox="0 0 16 17" fill="none" xmlns="http://www.w3.org/2000/svg">
<path d="M2 4.95414C2 4.21776 2.59695 3.62081 3.33333 3.62081H12.6667C13.403 3.62081 14 4.21776 14 4.95414V12.9541C14 13.6905 13.403 14.2875 12.6667 14.2875H3.33333C2.59695 14.2875 2 13.6905 2 12.9541V4.95414Z" fill="white"/>
<path d="M5.33333 4.95414V2.28748M10.6667 4.95414V2.28748M4.66667 7.62081H11.3333M3.33333 14.2875H12.6667C13.403 14.2875 14 13.6905 14 12.9541V4.95414C14 4.21776 13.403 3.62081 12.6667 3.62081H3.33333C2.59695 3.62081 2 4.21776 2 4.95414V12.9541C2 13.6905 2.59695 14.2875 3.33333 14.2875Z" stroke="#6B7280" stroke-width="1.6" stroke-linecap="round" stroke-linejoin="round"/>
</svg>
