<svg width="16" height="17" viewBox="0 0 16 17" fill="none" xmlns="http://www.w3.org/2000/svg">
<path d="M2 4.95402C2 4.21764 2.59695 3.62069 3.33333 3.62069H12.6667C13.403 3.62069 14 4.21764 14 4.95402V12.954C14 13.6904 13.403 14.2874 12.6667 14.2874H3.33333C2.59695 14.2874 2 13.6904 2 12.954V4.95402Z" fill="white"/>
<path d="M5.33333 4.95402V2.28735M10.6667 4.95402V2.28735M4.66667 7.62069H11.3333M3.33333 14.2874H12.6667C13.403 14.2874 14 13.6904 14 12.954V4.95402C14 4.21764 13.403 3.62069 12.6667 3.62069H3.33333C2.59695 3.62069 2 4.21764 2 4.95402V12.954C2 13.6904 2.59695 14.2874 3.33333 14.2874Z" stroke="#6B7280" stroke-width="1.6" stroke-linecap="round" stroke-linejoin="round"/>
</svg>
