<svg width="20" height="21" viewBox="0 0 20 21" fill="none" xmlns="http://www.w3.org/2000/svg">
<path fill-rule="evenodd" clip-rule="evenodd" d="M4 4.92896C2.89543 4.92896 2 5.82439 2 6.92896V10.929C2 12.0335 2.89543 12.929 4 12.929L4 6.92896H14C14 5.82439 13.1046 4.92896 12 4.92896H4ZM6 10.929C6 9.82439 6.89543 8.92896 8 8.92896H16C17.1046 8.92896 18 9.82439 18 10.929V14.929C18 16.0335 17.1046 16.929 16 16.929H8C6.89543 16.929 6 16.0335 6 14.929V10.929ZM12 14.929C13.1046 14.929 14 14.0335 14 12.929C14 11.8244 13.1046 10.929 12 10.929C10.8954 10.929 10 11.8244 10 12.929C10 14.0335 10.8954 14.929 12 14.929Z" fill="#012BDD"/>
</svg>
