<svg width="21" height="20" viewBox="0 0 21 20" fill="none" xmlns="http://www.w3.org/2000/svg">
<path fill-rule="evenodd" clip-rule="evenodd" d="M4.3335 4C3.22893 4 2.3335 4.89543 2.3335 6V10C2.3335 11.1046 3.22893 12 4.3335 12L4.3335 6H14.3335C14.3335 4.89543 13.4381 4 12.3335 4H4.3335ZM6.3335 10C6.3335 8.89543 7.22893 8 8.3335 8H16.3335C17.4381 8 18.3335 8.89543 18.3335 10V14C18.3335 15.1046 17.4381 16 16.3335 16H8.3335C7.22893 16 6.3335 15.1046 6.3335 14V10ZM12.3335 14C13.4381 14 14.3335 13.1046 14.3335 12C14.3335 10.8954 13.4381 10 12.3335 10C11.2289 10 10.3335 10.8954 10.3335 12C10.3335 13.1046 11.2289 14 12.3335 14Z" fill="#52606D"/>
</svg>
