<svg width="21" height="20" viewBox="0 0 21 20" fill="none" xmlns="http://www.w3.org/2000/svg">
<path fill-rule="evenodd" clip-rule="evenodd" d="M4.66675 4C3.56218 4 2.66675 4.89543 2.66675 6V10C2.66675 11.1046 3.56218 12 4.66675 12L4.66675 6H14.6667C14.6667 4.89543 13.7713 4 12.6667 4H4.66675ZM6.66675 10C6.66675 8.89543 7.56218 8 8.66675 8H16.6667C17.7713 8 18.6667 8.89543 18.6667 10V14C18.6667 15.1046 17.7713 16 16.6667 16H8.66675C7.56218 16 6.66675 15.1046 6.66675 14V10ZM12.6667 14C13.7713 14 14.6667 13.1046 14.6667 12C14.6667 10.8954 13.7713 10 12.6667 10C11.5622 10 10.6667 10.8954 10.6667 12C10.6667 13.1046 11.5622 14 12.6667 14Z" fill="#012BDD"/>
</svg>
