<svg width="21" height="20" viewBox="0 0 21 20" fill="none" xmlns="http://www.w3.org/2000/svg">
<path fill-rule="evenodd" clip-rule="evenodd" d="M4.33325 4C3.22868 4 2.33325 4.89543 2.33325 6V10C2.33325 11.1046 3.22868 12 4.33325 12L4.33325 6H14.3333C14.3333 4.89543 13.4378 4 12.3333 4H4.33325ZM6.33325 10C6.33325 8.89543 7.22868 8 8.33325 8H16.3333C17.4378 8 18.3333 8.89543 18.3333 10V14C18.3333 15.1046 17.4378 16 16.3333 16H8.33325C7.22868 16 6.33325 15.1046 6.33325 14V10ZM12.3333 14C13.4378 14 14.3333 13.1046 14.3333 12C14.3333 10.8954 13.4378 10 12.3333 10C11.2287 10 10.3333 10.8954 10.3333 12C10.3333 13.1046 11.2287 14 12.3333 14Z" fill="#52606D"/>
</svg>
