<svg width="21" height="20" viewBox="0 0 21 20" fill="none" xmlns="http://www.w3.org/2000/svg">
<path fill-rule="evenodd" clip-rule="evenodd" d="M4.6665 4C3.56193 4 2.6665 4.89543 2.6665 6V10C2.6665 11.1046 3.56193 12 4.6665 12L4.6665 6H14.6665C14.6665 4.89543 13.7711 4 12.6665 4H4.6665ZM6.6665 10C6.6665 8.89543 7.56193 8 8.6665 8H16.6665C17.7711 8 18.6665 8.89543 18.6665 10V14C18.6665 15.1046 17.7711 16 16.6665 16H8.6665C7.56193 16 6.6665 15.1046 6.6665 14V10ZM12.6665 14C13.7711 14 14.6665 13.1046 14.6665 12C14.6665 10.8954 13.7711 10 12.6665 10C11.5619 10 10.6665 10.8954 10.6665 12C10.6665 13.1046 11.5619 14 12.6665 14Z" fill="#012BDD"/>
</svg>
