<svg width="24" height="24" viewBox="0 0 24 24" fill="none" xmlns="http://www.w3.org/2000/svg">
<path d="M2.40002 13.2001C2.40002 12.5374 2.93728 12.0001 3.60002 12.0001H6.00002C6.66277 12.0001 7.20002 12.5374 7.20002 13.2001V19.2001C7.20002 19.8628 6.66277 20.4001 6.00002 20.4001H3.60002C2.93728 20.4001 2.40002 19.8628 2.40002 19.2001V13.2001Z" fill="#111827"/>
<path d="M9.60002 8.4001C9.60002 7.73736 10.1373 7.2001 10.8 7.2001H13.2C13.8628 7.2001 14.4 7.73736 14.4 8.4001V19.2001C14.4 19.8628 13.8628 20.4001 13.2 20.4001H10.8C10.1373 20.4001 9.60002 19.8628 9.60002 19.2001V8.4001Z" fill="#111827"/>
<path d="M16.8 4.8001C16.8 4.13736 17.3373 3.6001 18 3.6001H20.4C21.0628 3.6001 21.6 4.13736 21.6 4.8001V19.2001C21.6 19.8628 21.0628 20.4001 20.4 20.4001H18C17.3373 20.4001 16.8 19.8628 16.8 19.2001V4.8001Z" fill="#111827"/>
</svg>
