<svg width="28" height="28" viewBox="0 0 28 28" fill="none" xmlns="http://www.w3.org/2000/svg">
<path d="M2.7998 15.4002C2.7998 14.627 3.42661 14.0002 4.1998 14.0002H6.9998C7.773 14.0002 8.39981 14.627 8.39981 15.4002V22.4002C8.39981 23.1734 7.773 23.8002 6.9998 23.8002H4.1998C3.42661 23.8002 2.7998 23.1734 2.7998 22.4002V15.4002Z" fill="#111827"/>
<path d="M11.1998 9.80019C11.1998 9.027 11.8266 8.4002 12.5998 8.4002H15.3998C16.173 8.4002 16.7998 9.027 16.7998 9.8002V22.4002C16.7998 23.1734 16.173 23.8002 15.3998 23.8002H12.5998C11.8266 23.8002 11.1998 23.1734 11.1998 22.4002V9.80019Z" fill="#111827"/>
<path d="M19.5998 5.6002C19.5998 4.827 20.2266 4.2002 20.9998 4.2002H23.7998C24.573 4.2002 25.1998 4.827 25.1998 5.6002V22.4002C25.1998 23.1734 24.573 23.8002 23.7998 23.8002H20.9998C20.2266 23.8002 19.5998 23.1734 19.5998 22.4002V5.6002Z" fill="#111827"/>
</svg>
