<svg width="28" height="28" viewBox="0 0 28 28" fill="none" xmlns="http://www.w3.org/2000/svg">
<path d="M2.80029 15.4002C2.80029 14.627 3.42709 14.0002 4.20029 14.0002H7.00029C7.77349 14.0002 8.40029 14.627 8.40029 15.4002V22.4002C8.40029 23.1734 7.77349 23.8002 7.00029 23.8002H4.20029C3.42709 23.8002 2.80029 23.1734 2.80029 22.4002V15.4002Z" fill="#111827"/>
<path d="M11.2003 9.80019C11.2003 9.027 11.8271 8.4002 12.6003 8.4002H15.4003C16.1735 8.4002 16.8003 9.027 16.8003 9.8002V22.4002C16.8003 23.1734 16.1735 23.8002 15.4003 23.8002H12.6003C11.8271 23.8002 11.2003 23.1734 11.2003 22.4002V9.80019Z" fill="#111827"/>
<path d="M19.6003 5.6002C19.6003 4.827 20.2271 4.2002 21.0003 4.2002H23.8003C24.5735 4.2002 25.2003 4.827 25.2003 5.6002V22.4002C25.2003 23.1734 24.5735 23.8002 23.8003 23.8002H21.0003C20.2271 23.8002 19.6003 23.1734 19.6003 22.4002V5.6002Z" fill="#111827"/>
</svg>
