<svg width="19" height="20" viewBox="0 0 19 20" fill="none" xmlns="http://www.w3.org/2000/svg">
<path fill-rule="evenodd" clip-rule="evenodd" d="M9.4999 17.8874C13.6973 17.8874 17.0999 14.4847 17.0999 10.2874C17.0999 6.09001 13.6973 2.68738 9.4999 2.68738C5.30254 2.68738 1.8999 6.09001 1.8999 10.2874C1.8999 14.4847 5.30254 17.8874 9.4999 17.8874ZM13.0216 9.05913C13.3926 8.68813 13.3926 8.08662 13.0216 7.71563C12.6507 7.34463 12.0491 7.34463 11.6781 7.71563L8.5499 10.8439L7.32165 9.61563C6.95065 9.24463 6.34915 9.24463 5.97815 9.61563C5.60715 9.98662 5.60715 10.5881 5.97815 10.9591L7.87815 12.8591C8.24915 13.2301 8.85065 13.2301 9.22165 12.8591L13.0216 9.05913Z" fill="#52606D"/>
</svg>
