<svg width="19" height="20" viewBox="0 0 19 20" fill="none" xmlns="http://www.w3.org/2000/svg">
<path d="M3.14112 5.60469C3.4287 5.24534 3.96053 5.24793 4.28597 5.57339V5.57339C4.6114 5.89884 4.60576 6.42348 4.32968 6.79173C3.59933 7.7659 3.16667 8.97613 3.16667 10.2874C3.16667 13.5091 5.77834 16.1207 9 16.1207C12.2217 16.1207 14.8333 13.5091 14.8333 10.2874C14.8333 7.34783 12.659 4.91609 9.83086 4.5128C9.37523 4.44783 9 4.08099 9 3.62075V3.62075C9 3.16051 9.37454 2.78255 9.832 2.83304C13.5826 3.24696 16.5 6.42646 16.5 10.2874C16.5 14.4295 13.1422 17.7874 9 17.7874C4.85787 17.7874 1.5 14.4295 1.5 10.2874C1.5 8.51596 2.11414 6.88796 3.14112 5.60469Z" fill="#012BDD"/>
</svg>
