<svg width="19" height="20" viewBox="0 0 19 20" fill="none" xmlns="http://www.w3.org/2000/svg">
<path fill-rule="evenodd" clip-rule="evenodd" d="M9.4999 17.8873C13.6973 17.8873 17.0999 14.4846 17.0999 10.2873C17.0999 6.08989 13.6973 2.68726 9.4999 2.68726C5.30254 2.68726 1.8999 6.08989 1.8999 10.2873C1.8999 14.4846 5.30254 17.8873 9.4999 17.8873ZM13.0216 9.05901C13.3926 8.68801 13.3926 8.0865 13.0216 7.7155C12.6507 7.34451 12.0491 7.34451 11.6781 7.7155L8.5499 10.8438L7.32165 9.6155C6.95065 9.24451 6.34915 9.24451 5.97815 9.6155C5.60715 9.9865 5.60715 10.588 5.97815 10.959L7.87815 12.859C8.24915 13.23 8.85065 13.23 9.22165 12.859L13.0216 9.05901Z" fill="#52606D"/>
</svg>
