<svg width="19" height="20" viewBox="0 0 19 20" fill="none" xmlns="http://www.w3.org/2000/svg">
<path d="M3.14112 5.60463C3.4287 5.24528 3.96053 5.24787 4.28597 5.57333C4.6114 5.89878 4.60576 6.42342 4.32968 6.79166C3.59933 7.76584 3.16667 8.97607 3.16667 10.2874C3.16667 13.509 5.77834 16.1207 9 16.1207C12.2217 16.1207 14.8333 13.509 14.8333 10.2874C14.8333 7.34776 12.659 4.91603 9.83086 4.51274C9.37523 4.44777 9 4.08092 9 3.62069C9 3.16045 9.37454 2.78249 9.832 2.83298C13.5826 3.2469 16.5 6.4264 16.5 10.2874C16.5 14.4295 13.1422 17.7874 9 17.7874C4.85787 17.7874 1.5 14.4295 1.5 10.2874C1.5 8.5159 2.11414 6.8879 3.14112 5.60463Z" fill="#012BDD"/>
</svg>
