<svg width="19" height="20" viewBox="0 0 19 20" fill="none" xmlns="http://www.w3.org/2000/svg">
<path fill-rule="evenodd" clip-rule="evenodd" d="M9.4999 17.6C13.6973 17.6 17.0999 14.1974 17.0999 9.99999C17.0999 5.80263 13.6973 2.39999 9.4999 2.39999C5.30254 2.39999 1.8999 5.80263 1.8999 9.99999C1.8999 14.1974 5.30254 17.6 9.4999 17.6ZM13.0216 8.77175C13.3926 8.40075 13.3926 7.79924 13.0216 7.42824C12.6507 7.05724 12.0491 7.05724 11.6781 7.42824L8.5499 10.5565L7.32165 9.32824C6.95065 8.95724 6.34915 8.95724 5.97815 9.32824C5.60715 9.69924 5.60715 10.3007 5.97815 10.6717L7.87815 12.5717C8.24915 12.9427 8.85065 12.9427 9.22165 12.5717L13.0216 8.77175Z" fill="#34D399"/>
</svg>
