<svg width="19" height="20" viewBox="0 0 19 20" fill="none" xmlns="http://www.w3.org/2000/svg">
<path fill-rule="evenodd" clip-rule="evenodd" d="M9.4999 17.5999C13.6973 17.5999 17.0999 14.1973 17.0999 9.9999C17.0999 5.80254 13.6973 2.3999 9.4999 2.3999C5.30254 2.3999 1.8999 5.80254 1.8999 9.9999C1.8999 14.1973 5.30254 17.5999 9.4999 17.5999ZM13.0216 8.77165C13.3926 8.40066 13.3926 7.79915 13.0216 7.42815C12.6507 7.05715 12.0491 7.05715 11.6781 7.42815L8.5499 10.5564L7.32165 9.32815C6.95065 8.95715 6.34915 8.95715 5.97815 9.32815C5.60715 9.69915 5.60715 10.3007 5.97815 10.6717L7.87815 12.5717C8.24915 12.9427 8.85065 12.9427 9.22165 12.5717L13.0216 8.77165Z" fill="#52606D"/>
</svg>
