<svg width="18" height="18" viewBox="0 0 18 18" fill="none" xmlns="http://www.w3.org/2000/svg">
<path d="M6.2998 2.69995C5.80275 2.69995 5.3998 3.10289 5.3998 3.59995C5.3998 4.09701 5.80275 4.49995 6.2998 4.49995H11.6998C12.1969 4.49995 12.5998 4.09701 12.5998 3.59995C12.5998 3.10289 12.1969 2.69995 11.6998 2.69995H6.2998Z" fill="#012BDD"/>
<path d="M3.5998 6.29995C3.5998 5.80289 4.00275 5.39995 4.4998 5.39995H13.4998C13.9969 5.39995 14.3998 5.80289 14.3998 6.29995C14.3998 6.79701 13.9969 7.19995 13.4998 7.19995H4.4998C4.00275 7.19995 3.5998 6.79701 3.5998 6.29995Z" fill="#012BDD"/>
<path d="M1.7998 9.89995C1.7998 8.90584 2.60569 8.09995 3.5998 8.09995H14.3998C15.3939 8.09995 16.1998 8.90584 16.1998 9.89995V13.5C16.1998 14.4941 15.3939 15.3 14.3998 15.3H3.5998C2.60569 15.3 1.7998 14.4941 1.7998 13.5V9.89995Z" fill="#012BDD"/>
</svg>
