<svg width="18" height="18" viewBox="0 0 18 18" fill="none" xmlns="http://www.w3.org/2000/svg">
<path d="M6.30005 2.69995C5.80299 2.69995 5.40005 3.10289 5.40005 3.59995C5.40005 4.09701 5.80299 4.49995 6.30005 4.49995H11.7C12.1971 4.49995 12.6 4.09701 12.6 3.59995C12.6 3.10289 12.1971 2.69995 11.7 2.69995H6.30005Z" fill="#012BDD"/>
<path d="M3.60005 6.29995C3.60005 5.80289 4.00299 5.39995 4.50005 5.39995H13.5C13.9971 5.39995 14.4 5.80289 14.4 6.29995C14.4 6.79701 13.9971 7.19995 13.5 7.19995H4.50005C4.00299 7.19995 3.60005 6.79701 3.60005 6.29995Z" fill="#012BDD"/>
<path d="M1.80005 9.89995C1.80005 8.90584 2.60594 8.09995 3.60005 8.09995H14.4C15.3942 8.09995 16.2 8.90584 16.2 9.89995V13.5C16.2 14.4941 15.3942 15.3 14.4 15.3H3.60005C2.60594 15.3 1.80005 14.4941 1.80005 13.5V9.89995Z" fill="#012BDD"/>
</svg>
