<svg width="25" height="24" viewBox="0 0 25 24" fill="none" xmlns="http://www.w3.org/2000/svg">
<path fill-rule="evenodd" clip-rule="evenodd" d="M2.3335 3C2.3335 2.44772 2.78121 2 3.3335 2H10.3335C10.8858 2 11.3335 2.44772 11.3335 3V12C11.3335 12.5523 10.8858 13 10.3335 13H3.3335C2.78121 13 2.3335 12.5523 2.3335 12V3ZM4.3335 4V11H9.3335V4H4.3335Z" fill="#111827"/>
<path fill-rule="evenodd" clip-rule="evenodd" d="M13.3335 3C13.3335 2.44772 13.7812 2 14.3335 2H21.3335C21.8858 2 22.3335 2.44772 22.3335 3V8C22.3335 8.55228 21.8858 9 21.3335 9H14.3335C13.7812 9 13.3335 8.55228 13.3335 8V3ZM15.3335 4V7H20.3335V4H15.3335Z" fill="#111827"/>
<path fill-rule="evenodd" clip-rule="evenodd" d="M13.3335 12C13.3335 11.4477 13.7812 11 14.3335 11H21.3335C21.8858 11 22.3335 11.4477 22.3335 12V21C22.3335 21.5523 21.8858 22 21.3335 22H14.3335C13.7812 22 13.3335 21.5523 13.3335 21V12ZM15.3335 13V20H20.3335V13H15.3335Z" fill="#111827"/>
<path fill-rule="evenodd" clip-rule="evenodd" d="M2.3335 16C2.3335 15.4477 2.78121 15 3.3335 15H10.3335C10.8858 15 11.3335 15.4477 11.3335 16V21C11.3335 21.5523 10.8858 22 10.3335 22H3.3335C2.78121 22 2.3335 21.5523 2.3335 21V16ZM4.3335 17V20H9.3335V17H4.3335Z" fill="#111827"/>
</svg>
