<svg width="24" height="25" viewBox="0 0 24 25" fill="none" xmlns="http://www.w3.org/2000/svg">
<g clip-path="url(#clip0_1003_4267)">
<path fill-rule="evenodd" clip-rule="evenodd" d="M11.2633 1.09845C11.6966 0.792053 12.3034 0.792053 12.7367 1.09845L23.5367 8.73481C23.829 8.94149 24 9.25928 24 9.59593V21.5959C24 22.4639 23.6207 23.2963 22.9456 23.9101C22.2705 24.5238 21.3548 24.8687 20.4 24.8687H3.6C2.64522 24.8687 1.72955 24.5238 1.05442 23.9101C0.379285 23.2963 0 22.4639 0 21.5959V9.59593C0 9.25928 0.170967 8.94149 0.463271 8.73481L11.2633 1.09845ZM2.4 10.1295V21.5959C2.4 21.8853 2.52643 22.1627 2.75147 22.3673C2.97652 22.5719 3.28174 22.6868 3.6 22.6868H20.4C20.7183 22.6868 21.0235 22.5719 21.2485 22.3673C21.4736 22.1627 21.6 21.8853 21.6 21.5959V10.1295L12 3.34159L2.4 10.1295Z" fill="#012BDD"/>
<path fill-rule="evenodd" clip-rule="evenodd" d="M7.2002 12.8687C7.2002 12.2662 7.73745 11.7778 8.4002 11.7778H15.6002C16.2629 11.7778 16.8002 12.2662 16.8002 12.8687V23.7778C16.8002 24.3803 16.2629 24.8687 15.6002 24.8687C14.9375 24.8687 14.4002 24.3803 14.4002 23.7778V13.9597H9.6002V23.7778C9.6002 24.3803 9.06294 24.8687 8.4002 24.8687C7.73745 24.8687 7.2002 24.3803 7.2002 23.7778V12.8687Z" fill="#012BDD"/>
</g>
<defs>
<clipPath id="clip0_1003_4267">
<rect width="24" height="24" fill="white" transform="translate(0 0.868652)"/>
</clipPath>
</defs>
</svg>
