<svg width="24" height="25" viewBox="0 0 24 25" fill="none" xmlns="http://www.w3.org/2000/svg">
<g clip-path="url(#clip0_702_1848)">
<path fill-rule="evenodd" clip-rule="evenodd" d="M11.2633 1.0069C11.6966 0.7005 12.3034 0.7005 12.7367 1.0069L23.5367 8.64326C23.829 8.84994 24 9.16773 24 9.50437V21.5044C24 22.3724 23.6207 23.2048 22.9456 23.8185C22.2705 24.4323 21.3548 24.7771 20.4 24.7771H3.6C2.64522 24.7771 1.72955 24.4323 1.05442 23.8185C0.379285 23.2048 0 22.3724 0 21.5044V9.50437C0 9.16773 0.170967 8.84994 0.463271 8.64326L11.2633 1.0069ZM2.4 10.0379V21.5044C2.4 21.7937 2.52643 22.0712 2.75147 22.2758C2.97652 22.4803 3.28174 22.5953 3.6 22.5953H20.4C20.7183 22.5953 21.0235 22.4803 21.2485 22.2758C21.4736 22.0712 21.6 21.7937 21.6 21.5044V10.0379L12 3.25004L2.4 10.0379Z" fill="#012BDD"/>
<path fill-rule="evenodd" clip-rule="evenodd" d="M7.2002 12.7772C7.2002 12.1747 7.73745 11.6863 8.4002 11.6863H15.6002C16.2629 11.6863 16.8002 12.1747 16.8002 12.7772V23.6863C16.8002 24.2888 16.2629 24.7772 15.6002 24.7772C14.9375 24.7772 14.4002 24.2888 14.4002 23.6863V13.8681H9.6002V23.6863C9.6002 24.2888 9.06294 24.7772 8.4002 24.7772C7.73745 24.7772 7.2002 24.2888 7.2002 23.6863V12.7772Z" fill="#012BDD"/>
</g>
<defs>
<clipPath id="clip0_702_1848">
<rect width="24" height="24" fill="white" transform="translate(0 0.7771)"/>
</clipPath>
</defs>
</svg>
