<svg width="25" height="25" viewBox="0 0 25 25" fill="none" xmlns="http://www.w3.org/2000/svg">
<g clip-path="url(#clip0_1192_2239)">
<path d="M18.3337 6.95991H20.7337C22.0592 6.95991 23.1337 8.03443 23.1337 9.35991V16.5599C23.1337 17.8854 22.0592 18.9599 20.7337 18.9599H18.3337V23.7599L13.5337 18.9599H8.73369C8.07095 18.9599 7.47095 18.6913 7.03664 18.257M7.03664 18.257L11.1337 14.1599H15.9337C17.2592 14.1599 18.3337 13.0854 18.3337 11.7599V4.55991C18.3337 3.23443 17.2592 2.15991 15.9337 2.15991H3.93369C2.60821 2.15991 1.53369 3.23443 1.53369 4.55991V11.7599C1.53369 13.0854 2.60821 14.1599 3.93369 14.1599H6.33369V18.9599L7.03664 18.257Z" stroke="#111827" stroke-width="2.4" stroke-linecap="round" stroke-linejoin="round"/>
</g>
<defs>
<clipPath id="clip0_1192_2239">
<rect width="24" height="24" fill="white" transform="translate(0.333496 0.959961)"/>
</clipPath>
</defs>
</svg>
