<svg width="24" height="25" viewBox="0 0 24 25" fill="none" xmlns="http://www.w3.org/2000/svg">
<path d="M4.23916 19.0666C6.53125 17.7711 9.1793 17.0317 12 17.0317C14.8208 17.0317 17.4688 17.7711 19.7609 19.0666M15.3847 10.2624C15.3847 12.1317 13.8693 13.647 12 13.647C10.1308 13.647 8.61542 12.1317 8.61542 10.2624C8.61542 8.39315 10.1308 6.87781 12 6.87781C13.8693 6.87781 15.3847 8.39315 15.3847 10.2624ZM22.1539 12.5188C22.1539 18.1267 17.6079 22.6727 12 22.6727C6.39222 22.6727 1.84619 18.1267 1.84619 12.5188C1.84619 6.91102 6.39222 2.36499 12 2.36499C17.6079 2.36499 22.1539 6.91102 22.1539 12.5188Z" stroke="#111827" stroke-width="2.44444" stroke-linecap="round" stroke-linejoin="round"/>
</svg>
