<svg width="24" height="24" viewBox="0 0 24 24" fill="none" xmlns="http://www.w3.org/2000/svg">
<g clip-path="url(#clip0_220_23602)">
<path d="M18.0002 5.99995H20.4002C21.7257 5.99995 22.8002 7.07447 22.8002 8.39995V15.6C22.8002 16.9254 21.7257 18 20.4002 18H18.0002V22.8L13.2002 18H8.4002C7.73745 18 7.13745 17.7313 6.70314 17.297M6.70314 17.297L10.8002 13.2H15.6002C16.9257 13.2 18.0002 12.1254 18.0002 10.8V3.59995C18.0002 2.27447 16.9257 1.19995 15.6002 1.19995H3.6002C2.27471 1.19995 1.2002 2.27447 1.2002 3.59995V10.8C1.2002 12.1254 2.27471 13.2 3.6002 13.2H6.0002V18L6.70314 17.297Z" stroke="#111827" stroke-width="2.4" stroke-linecap="round" stroke-linejoin="round"/>
</g>
<defs>
<clipPath id="clip0_220_23602">
<rect width="24" height="24" fill="white"/>
</clipPath>
</defs>
</svg>
