<svg width="25" height="24" viewBox="0 0 25 24" fill="none" xmlns="http://www.w3.org/2000/svg">
<path fill-rule="evenodd" clip-rule="evenodd" d="M2.33301 3C2.33301 2.44772 2.78072 2 3.33301 2H10.333C10.8853 2 11.333 2.44772 11.333 3V12C11.333 12.5523 10.8853 13 10.333 13H3.33301C2.78072 13 2.33301 12.5523 2.33301 12V3ZM4.33301 4V11H9.33301V4H4.33301Z" fill="#111827"/>
<path fill-rule="evenodd" clip-rule="evenodd" d="M13.333 3C13.333 2.44772 13.7807 2 14.333 2H21.333C21.8853 2 22.333 2.44772 22.333 3V8C22.333 8.55228 21.8853 9 21.333 9H14.333C13.7807 9 13.333 8.55228 13.333 8V3ZM15.333 4V7H20.333V4H15.333Z" fill="#111827"/>
<path fill-rule="evenodd" clip-rule="evenodd" d="M13.333 12C13.333 11.4477 13.7807 11 14.333 11H21.333C21.8853 11 22.333 11.4477 22.333 12V21C22.333 21.5523 21.8853 22 21.333 22H14.333C13.7807 22 13.333 21.5523 13.333 21V12ZM15.333 13V20H20.333V13H15.333Z" fill="#111827"/>
<path fill-rule="evenodd" clip-rule="evenodd" d="M2.33301 16C2.33301 15.4477 2.78072 15 3.33301 15H10.333C10.8853 15 11.333 15.4477 11.333 16V21C11.333 21.5523 10.8853 22 10.333 22H3.33301C2.78072 22 2.33301 21.5523 2.33301 21V16ZM4.33301 17V20H9.33301V17H4.33301Z" fill="#111827"/>
</svg>
