<svg width="24" height="25" viewBox="0 0 24 25" fill="none" xmlns="http://www.w3.org/2000/svg">
<g clip-path="url(#clip0_1163_75)">
<path fill-rule="evenodd" clip-rule="evenodd" d="M11.2633 0.517151C11.6966 0.210754 12.3034 0.210754 12.7367 0.517151L23.5367 8.15351C23.829 8.36019 24 8.67798 24 9.01463V21.0146C24 21.8826 23.6207 22.715 22.9456 23.3288C22.2705 23.9426 21.3548 24.2874 20.4 24.2874H3.6C2.64522 24.2874 1.72955 23.9426 1.05442 23.3288C0.379285 22.715 0 21.8826 0 21.0146V9.01463C0 8.67798 0.170967 8.36019 0.463271 8.15351L11.2633 0.517151ZM2.4 9.54817V21.0146C2.4 21.304 2.52643 21.5814 2.75147 21.786C2.97652 21.9906 3.28174 22.1055 3.6 22.1055H20.4C20.7183 22.1055 21.0235 21.9906 21.2485 21.786C21.4736 21.5814 21.6 21.304 21.6 21.0146V9.54817L12 2.76029L2.4 9.54817Z" fill="#111827"/>
<path fill-rule="evenodd" clip-rule="evenodd" d="M7.19995 12.2874C7.19995 11.6849 7.73721 11.1965 8.39995 11.1965H15.6C16.2627 11.1965 16.8 11.6849 16.8 12.2874V23.1965C16.8 23.799 16.2627 24.2874 15.6 24.2874C14.9372 24.2874 14.4 23.799 14.4 23.1965V13.3784H9.59995V23.1965C9.59995 23.799 9.06269 24.2874 8.39995 24.2874C7.73721 24.2874 7.19995 23.799 7.19995 23.1965V12.2874Z" fill="#111827"/>
</g>
<defs>
<clipPath id="clip0_1163_75">
<rect width="24" height="24" fill="white" transform="translate(0 0.287354)"/>
</clipPath>
</defs>
</svg>
