<svg width="25" height="25" viewBox="0 0 25 25" fill="none" xmlns="http://www.w3.org/2000/svg">
<path fill-rule="evenodd" clip-rule="evenodd" d="M2.66675 3.77783C2.66675 3.22555 3.11446 2.77783 3.66675 2.77783H10.6667C11.219 2.77783 11.6667 3.22555 11.6667 3.77783V12.7778C11.6667 13.3301 11.219 13.7778 10.6667 13.7778H3.66675C3.11446 13.7778 2.66675 13.3301 2.66675 12.7778V3.77783ZM4.66675 4.77783V11.7778H9.66675V4.77783H4.66675Z" fill="#111827"/>
<path fill-rule="evenodd" clip-rule="evenodd" d="M13.6667 3.77783C13.6667 3.22555 14.1145 2.77783 14.6667 2.77783H21.6667C22.219 2.77783 22.6667 3.22555 22.6667 3.77783V8.77783C22.6667 9.33012 22.219 9.77783 21.6667 9.77783H14.6667C14.1145 9.77783 13.6667 9.33012 13.6667 8.77783V3.77783ZM15.6667 4.77783V7.77783H20.6667V4.77783H15.6667Z" fill="#111827"/>
<path fill-rule="evenodd" clip-rule="evenodd" d="M13.6667 12.7778C13.6667 12.2255 14.1145 11.7778 14.6667 11.7778H21.6667C22.219 11.7778 22.6667 12.2255 22.6667 12.7778V21.7778C22.6667 22.3301 22.219 22.7778 21.6667 22.7778H14.6667C14.1145 22.7778 13.6667 22.3301 13.6667 21.7778V12.7778ZM15.6667 13.7778V20.7778H20.6667V13.7778H15.6667Z" fill="#111827"/>
<path fill-rule="evenodd" clip-rule="evenodd" d="M2.66675 16.7778C2.66675 16.2255 3.11446 15.7778 3.66675 15.7778H10.6667C11.219 15.7778 11.6667 16.2255 11.6667 16.7778V21.7778C11.6667 22.3301 11.219 22.7778 10.6667 22.7778H3.66675C3.11446 22.7778 2.66675 22.3301 2.66675 21.7778V16.7778ZM4.66675 17.7778V20.7778H9.66675V17.7778H4.66675Z" fill="#111827"/>
</svg>
