<svg width="25" height="25" viewBox="0 0 25 25" fill="none" xmlns="http://www.w3.org/2000/svg">
<g clip-path="url(#clip0_1175_132137)">
<path d="M18.3333 6.77827H20.7333C22.0588 6.77827 23.1333 7.85279 23.1333 9.17827V16.3783C23.1333 17.7038 22.0588 18.7783 20.7333 18.7783H18.3333V23.5783L13.5333 18.7783H8.73333C8.07058 18.7783 7.47058 18.5096 7.03627 18.0753M7.03627 18.0753L11.1333 13.9783H15.9333C17.2588 13.9783 18.3333 12.9038 18.3333 11.5783V4.37827C18.3333 3.05279 17.2588 1.97827 15.9333 1.97827H3.93333C2.60784 1.97827 1.53333 3.05279 1.53333 4.37827V11.5783C1.53333 12.9038 2.60784 13.9783 3.93333 13.9783H6.33333V18.7783L7.03627 18.0753Z" stroke="#111827" stroke-width="2.4" stroke-linecap="round" stroke-linejoin="round"/>
</g>
<defs>
<clipPath id="clip0_1175_132137">
<rect width="24" height="24" fill="white" transform="translate(0.333374 0.77832)"/>
</clipPath>
</defs>
</svg>
