<svg width="25" height="25" viewBox="0 0 25 25" fill="none" xmlns="http://www.w3.org/2000/svg">
<path fill-rule="evenodd" clip-rule="evenodd" d="M2.66663 3.95996C2.66663 3.40768 3.11434 2.95996 3.66663 2.95996H10.6666C11.2189 2.95996 11.6666 3.40768 11.6666 3.95996V12.96C11.6666 13.5122 11.2189 13.96 10.6666 13.96H3.66663C3.11434 13.96 2.66663 13.5122 2.66663 12.96V3.95996ZM4.66663 4.95996V11.96H9.66663V4.95996H4.66663Z" fill="#111827"/>
<path fill-rule="evenodd" clip-rule="evenodd" d="M13.6666 3.95996C13.6666 3.40768 14.1143 2.95996 14.6666 2.95996H21.6666C22.2189 2.95996 22.6666 3.40768 22.6666 3.95996V8.95996C22.6666 9.51225 22.2189 9.95996 21.6666 9.95996H14.6666C14.1143 9.95996 13.6666 9.51225 13.6666 8.95996V3.95996ZM15.6666 4.95996V7.95996H20.6666V4.95996H15.6666Z" fill="#111827"/>
<path fill-rule="evenodd" clip-rule="evenodd" d="M13.6666 12.96C13.6666 12.4077 14.1143 11.96 14.6666 11.96H21.6666C22.2189 11.96 22.6666 12.4077 22.6666 12.96V21.96C22.6666 22.5122 22.2189 22.96 21.6666 22.96H14.6666C14.1143 22.96 13.6666 22.5122 13.6666 21.96V12.96ZM15.6666 13.96V20.96H20.6666V13.96H15.6666Z" fill="#111827"/>
<path fill-rule="evenodd" clip-rule="evenodd" d="M2.66663 16.96C2.66663 16.4077 3.11434 15.96 3.66663 15.96H10.6666C11.2189 15.96 11.6666 16.4077 11.6666 16.96V21.96C11.6666 22.5122 11.2189 22.96 10.6666 22.96H3.66663C3.11434 22.96 2.66663 22.5122 2.66663 21.96V16.96ZM4.66663 17.96V20.96H9.66663V17.96H4.66663Z" fill="#111827"/>
</svg>
