<svg width="25" height="24" viewBox="0 0 25 24" fill="none" xmlns="http://www.w3.org/2000/svg">
<g clip-path="url(#clip0_1003_4179)">
<path d="M18.3337 5.99995H20.7337C22.0592 5.99995 23.1337 7.07447 23.1337 8.39995V15.6C23.1337 16.9254 22.0592 18 20.7337 18H18.3337V22.8L13.5337 18H8.73369C8.07095 18 7.47095 17.7313 7.03664 17.297M7.03664 17.297L11.1337 13.2H15.9337C17.2592 13.2 18.3337 12.1254 18.3337 10.8V3.59995C18.3337 2.27447 17.2592 1.19995 15.9337 1.19995H3.93369C2.60821 1.19995 1.53369 2.27447 1.53369 3.59995V10.8C1.53369 12.1254 2.60821 13.2 3.93369 13.2H6.33369V18L7.03664 17.297Z" stroke="#111827" stroke-width="2.4" stroke-linecap="round" stroke-linejoin="round"/>
</g>
<defs>
<clipPath id="clip0_1003_4179">
<rect width="24" height="24" fill="white" transform="translate(0.333496)"/>
</clipPath>
</defs>
</svg>
