<svg width="25" height="24" viewBox="0 0 25 24" fill="none" xmlns="http://www.w3.org/2000/svg">
<g clip-path="url(#clip0_942_20)">
<path d="M18.6672 5.99995H21.0672C22.3927 5.99995 23.4672 7.07447 23.4672 8.39995V15.6C23.4672 16.9254 22.3927 18 21.0672 18H18.6672V22.8L13.8672 18H9.06719C8.40445 18 7.80445 17.7313 7.37013 17.297M7.37013 17.297L11.4672 13.2H16.2672C17.5927 13.2 18.6672 12.1254 18.6672 10.8V3.59995C18.6672 2.27447 17.5927 1.19995 16.2672 1.19995H4.26719C2.9417 1.19995 1.86719 2.27447 1.86719 3.59995V10.8C1.86719 12.1254 2.9417 13.2 4.26719 13.2H6.66719V18L7.37013 17.297Z" stroke="#111827" stroke-width="2.4" stroke-linecap="round" stroke-linejoin="round"/>
</g>
<defs>
<clipPath id="clip0_942_20">
<rect width="24" height="24" fill="white" transform="translate(0.666992)"/>
</clipPath>
</defs>
</svg>
