<svg width="25" height="25" viewBox="0 0 25 25" fill="none" xmlns="http://www.w3.org/2000/svg">
<path fill-rule="evenodd" clip-rule="evenodd" d="M2.66675 3.28735C2.66675 2.73507 3.11446 2.28735 3.66675 2.28735H10.6667C11.219 2.28735 11.6667 2.73507 11.6667 3.28735V12.2874C11.6667 12.8396 11.219 13.2874 10.6667 13.2874H3.66675C3.11446 13.2874 2.66675 12.8396 2.66675 12.2874V3.28735ZM4.66675 4.28735V11.2874H9.66675V4.28735H4.66675Z" fill="#012BDD"/>
<path fill-rule="evenodd" clip-rule="evenodd" d="M13.6667 3.28735C13.6667 2.73507 14.1145 2.28735 14.6667 2.28735H21.6667C22.219 2.28735 22.6667 2.73507 22.6667 3.28735V8.28735C22.6667 8.83964 22.219 9.28735 21.6667 9.28735H14.6667C14.1145 9.28735 13.6667 8.83964 13.6667 8.28735V3.28735ZM15.6667 4.28735V7.28735H20.6667V4.28735H15.6667Z" fill="#012BDD"/>
<path fill-rule="evenodd" clip-rule="evenodd" d="M13.6667 12.2874C13.6667 11.7351 14.1145 11.2874 14.6667 11.2874H21.6667C22.219 11.2874 22.6667 11.7351 22.6667 12.2874V21.2874C22.6667 21.8396 22.219 22.2874 21.6667 22.2874H14.6667C14.1145 22.2874 13.6667 21.8396 13.6667 21.2874V12.2874ZM15.6667 13.2874V20.2874H20.6667V13.2874H15.6667Z" fill="#012BDD"/>
<path fill-rule="evenodd" clip-rule="evenodd" d="M2.66675 16.2874C2.66675 15.7351 3.11446 15.2874 3.66675 15.2874H10.6667C11.219 15.2874 11.6667 15.7351 11.6667 16.2874V21.2874C11.6667 21.8396 11.219 22.2874 10.6667 22.2874H3.66675C3.11446 22.2874 2.66675 21.8396 2.66675 21.2874V16.2874ZM4.66675 17.2874V20.2874H9.66675V17.2874H4.66675Z" fill="#012BDD"/>
</svg>
