<svg width="25" height="25" viewBox="0 0 25 25" fill="none" xmlns="http://www.w3.org/2000/svg">
<g clip-path="url(#clip0_1003_4339)">
<path d="M18.3333 6.95991H20.7333C22.0588 6.95991 23.1333 8.03443 23.1333 9.35991V16.5599C23.1333 17.8854 22.0588 18.9599 20.7333 18.9599H18.3333V23.7599L13.5333 18.9599H8.73333C8.07058 18.9599 7.47058 18.6913 7.03627 18.257M7.03627 18.257L11.1333 14.1599H15.9333C17.2588 14.1599 18.3333 13.0854 18.3333 11.7599V4.55991C18.3333 3.23443 17.2588 2.15991 15.9333 2.15991H3.93333C2.60784 2.15991 1.53333 3.23443 1.53333 4.55991V11.7599C1.53333 13.0854 2.60784 14.1599 3.93333 14.1599H6.33333V18.9599L7.03627 18.257Z" stroke="#111827" stroke-width="2.4" stroke-linecap="round" stroke-linejoin="round"/>
</g>
<defs>
<clipPath id="clip0_1003_4339">
<rect width="24" height="24" fill="white" transform="translate(0.333374 0.959961)"/>
</clipPath>
</defs>
</svg>
