<svg width="24" height="25" viewBox="0 0 24 25" fill="none" xmlns="http://www.w3.org/2000/svg">
<g clip-path="url(#clip0_702_1864)">
<path d="M4.23916 19.3249C6.53125 18.0294 9.1793 17.29 12 17.29C14.8208 17.29 17.4688 18.0294 19.7609 19.3249M15.3847 10.5207C15.3847 12.39 13.8693 13.9053 12 13.9053C10.1308 13.9053 8.61542 12.39 8.61542 10.5207C8.61542 8.65146 10.1308 7.13611 12 7.13611C13.8693 7.13611 15.3847 8.65146 15.3847 10.5207ZM22.1539 12.7771C22.1539 18.385 17.6079 22.931 12 22.931C6.39222 22.931 1.84619 18.385 1.84619 12.7771C1.84619 7.16932 6.39222 2.62329 12 2.62329C17.6079 2.62329 22.1539 7.16932 22.1539 12.7771Z" stroke="#111827" stroke-width="2.44444" stroke-linecap="round" stroke-linejoin="round"/>
</g>
<defs>
<clipPath id="clip0_702_1864">
<rect width="24" height="24" fill="white" transform="translate(0 0.7771)"/>
</clipPath>
</defs>
</svg>
