<svg width="24" height="25" viewBox="0 0 24 25" fill="none" xmlns="http://www.w3.org/2000/svg">
<g clip-path="url(#clip0_1175_132177)">
<path fill-rule="evenodd" clip-rule="evenodd" d="M11.2633 1.00812C11.6966 0.701721 12.3034 0.701721 12.7367 1.00812L23.5367 8.64448C23.829 8.85116 24 9.16895 24 9.50559V21.5056C24 22.3736 23.6207 23.206 22.9456 23.8198C22.2705 24.4335 21.3548 24.7783 20.4 24.7783H3.6C2.64522 24.7783 1.72955 24.4335 1.05442 23.8198C0.379285 23.206 0 22.3736 0 21.5056V9.50559C0 9.16895 0.170967 8.85116 0.463271 8.64448L11.2633 1.00812ZM2.4 10.0391V21.5056C2.4 21.7949 2.52643 22.0724 2.75147 22.277C2.97652 22.4816 3.28174 22.5965 3.6 22.5965H20.4C20.7183 22.5965 21.0235 22.4816 21.2485 22.277C21.4736 22.0724 21.6 21.7949 21.6 21.5056V10.0391L12 3.25126L2.4 10.0391Z" fill="#012BDD"/>
<path fill-rule="evenodd" clip-rule="evenodd" d="M7.19995 12.7783C7.19995 12.1758 7.73721 11.6874 8.39995 11.6874H15.6C16.2627 11.6874 16.8 12.1758 16.8 12.7783V23.6874C16.8 24.2899 16.2627 24.7783 15.6 24.7783C14.9372 24.7783 14.4 24.2899 14.4 23.6874V13.8692H9.59995V23.6874C9.59995 24.2899 9.06269 24.7783 8.39995 24.7783C7.73721 24.7783 7.19995 24.2899 7.19995 23.6874V12.7783Z" fill="#012BDD"/>
</g>
<defs>
<clipPath id="clip0_1175_132177">
<rect width="24" height="24" fill="white" transform="translate(0 0.77832)"/>
</clipPath>
</defs>
</svg>
