<svg width="24" height="25" viewBox="0 0 24 25" fill="none" xmlns="http://www.w3.org/2000/svg">
<g clip-path="url(#clip0_705_2845)">
<path d="M4.23916 19.5078C6.53125 18.2122 9.1793 17.4728 12 17.4728C14.8208 17.4728 17.4688 18.2122 19.7609 19.5078M15.3847 10.7036C15.3847 12.5729 13.8693 14.0882 12 14.0882C10.1308 14.0882 8.61542 12.5729 8.61542 10.7036C8.61542 8.83432 10.1308 7.31897 12 7.31897C13.8693 7.31897 15.3847 8.83432 15.3847 10.7036ZM22.1539 12.96C22.1539 18.5678 17.6079 23.1138 12 23.1138C6.39222 23.1138 1.84619 18.5678 1.84619 12.96C1.84619 7.35218 6.39222 2.80615 12 2.80615C17.6079 2.80615 22.1539 7.35218 22.1539 12.96Z" stroke="#111827" stroke-width="2.44444" stroke-linecap="round" stroke-linejoin="round"/>
</g>
<defs>
<clipPath id="clip0_705_2845">
<rect width="24" height="24" fill="white" transform="translate(0 0.959961)"/>
</clipPath>
</defs>
</svg>
