<svg width="24" height="25" viewBox="0 0 24 25" fill="none" xmlns="http://www.w3.org/2000/svg">
<g clip-path="url(#clip0_1163_4635)">
<path d="M4.23916 18.8352C6.53125 17.5396 9.1793 16.8002 12 16.8002C14.8208 16.8002 17.4688 17.5396 19.7609 18.8352M15.3847 10.0309C15.3847 11.9002 13.8693 13.4156 12 13.4156C10.1308 13.4156 8.61542 11.9002 8.61542 10.0309C8.61542 8.16168 10.1308 6.64633 12 6.64633C13.8693 6.64633 15.3847 8.16168 15.3847 10.0309ZM22.1539 12.2874C22.1539 17.8952 17.6079 22.4412 12 22.4412C6.39222 22.4412 1.84619 17.8952 1.84619 12.2874C1.84619 6.67955 6.39222 2.13351 12 2.13351C17.6079 2.13351 22.1539 6.67955 22.1539 12.2874Z" stroke="#111827" stroke-width="2.44444" stroke-linecap="round" stroke-linejoin="round"/>
</g>
<defs>
<clipPath id="clip0_1163_4635">
<rect width="24" height="24" fill="white" transform="translate(0 0.287354)"/>
</clipPath>
</defs>
</svg>
