<svg width="24" height="25" viewBox="0 0 24 25" fill="none" xmlns="http://www.w3.org/2000/svg">
<g clip-path="url(#clip0_1175_131972)">
<path d="M4.23916 19.3256C6.53125 18.03 9.1793 17.2906 12 17.2906C14.8208 17.2906 17.4688 18.03 19.7609 19.3256M15.3847 10.5214C15.3847 12.3907 13.8693 13.906 12 13.906C10.1308 13.906 8.61542 12.3907 8.61542 10.5214C8.61542 8.65213 10.1308 7.13678 12 7.13678C13.8693 7.13678 15.3847 8.65213 15.3847 10.5214ZM22.1539 12.7778C22.1539 18.3856 17.6079 22.9317 12 22.9317C6.39222 22.9317 1.84619 18.3856 1.84619 12.7778C1.84619 7.16999 6.39222 2.62396 12 2.62396C17.6079 2.62396 22.1539 7.16999 22.1539 12.7778Z" stroke="#111827" stroke-width="2.44444" stroke-linecap="round" stroke-linejoin="round"/>
</g>
<defs>
<clipPath id="clip0_1175_131972">
<rect width="24" height="24" fill="white" transform="translate(0 0.777832)"/>
</clipPath>
</defs>
</svg>
