<svg width="25" height="25" viewBox="0 0 25 25" fill="none" xmlns="http://www.w3.org/2000/svg">
<g clip-path="url(#clip0_1175_132189)">
<path d="M18.3332 6.77827H20.7332C22.0587 6.77827 23.1332 7.85279 23.1332 9.17827V16.3783C23.1332 17.7038 22.0587 18.7783 20.7332 18.7783H18.3332V23.5783L13.5332 18.7783H8.7332C8.07046 18.7783 7.47046 18.5096 7.03615 18.0753M7.03615 18.0753L11.1332 13.9783H15.9332C17.2587 13.9783 18.3332 12.9038 18.3332 11.5783V4.37827C18.3332 3.05279 17.2587 1.97827 15.9332 1.97827H3.9332C2.60772 1.97827 1.5332 3.05279 1.5332 4.37827V11.5783C1.5332 12.9038 2.60772 13.9783 3.9332 13.9783H6.3332V18.7783L7.03615 18.0753Z" stroke="#111827" stroke-width="2.4" stroke-linecap="round" stroke-linejoin="round"/>
</g>
<defs>
<clipPath id="clip0_1175_132189">
<rect width="24" height="24" fill="white" transform="translate(0.333252 0.77832)"/>
</clipPath>
</defs>
</svg>
