<svg width="25" height="25" viewBox="0 0 25 25" fill="none" xmlns="http://www.w3.org/2000/svg">
<g clip-path="url(#clip0_369_812)">
<path d="M18.6667 6.92891H21.0667C22.3922 6.92891 23.4667 8.00342 23.4667 9.32891V16.5289C23.4667 17.8544 22.3922 18.9289 21.0667 18.9289H18.6667V23.7289L13.8667 18.9289H9.0667C8.40396 18.9289 7.80396 18.6603 7.36964 18.226M7.36964 18.226L11.4667 14.1289H16.2667C17.5922 14.1289 18.6667 13.0544 18.6667 11.7289V4.52891C18.6667 3.20342 17.5922 2.12891 16.2667 2.12891H4.2667C2.94122 2.12891 1.8667 3.20342 1.8667 4.52891V11.7289C1.8667 13.0544 2.94122 14.1289 4.2667 14.1289H6.6667V18.9289L7.36964 18.226Z" stroke="#111827" stroke-width="2.4" stroke-linecap="round" stroke-linejoin="round"/>
</g>
<defs>
<clipPath id="clip0_369_812">
<rect width="24" height="24" fill="white" transform="translate(0.666748 0.928955)"/>
</clipPath>
</defs>
</svg>
