<svg width="25" height="25" viewBox="0 0 25 25" fill="none" xmlns="http://www.w3.org/2000/svg">
<g clip-path="url(#clip0_702_1853)">
<path d="M18.6667 6.77705H21.0667C22.3922 6.77705 23.4667 7.85157 23.4667 9.17705V16.3771C23.4667 17.7025 22.3922 18.7771 21.0667 18.7771H18.6667V23.5771L13.8667 18.7771H9.0667C8.40396 18.7771 7.80396 18.5084 7.36964 18.0741M7.36964 18.0741L11.4667 13.9771H16.2667C17.5922 13.9771 18.6667 12.9025 18.6667 11.5771V4.37705C18.6667 3.05157 17.5922 1.97705 16.2667 1.97705H4.2667C2.94122 1.97705 1.8667 3.05157 1.8667 4.37705V11.5771C1.8667 12.9025 2.94122 13.9771 4.2667 13.9771H6.6667V18.7771L7.36964 18.0741Z" stroke="#111827" stroke-width="2.4" stroke-linecap="round" stroke-linejoin="round"/>
</g>
<defs>
<clipPath id="clip0_702_1853">
<rect width="24" height="24" fill="white" transform="translate(0.666504 0.7771)"/>
</clipPath>
</defs>
</svg>
