<svg width="25" height="25" viewBox="0 0 25 25" fill="none" xmlns="http://www.w3.org/2000/svg">
<g clip-path="url(#clip0_1175_132056)">
<path d="M18.3337 6.77784H20.7337C22.0592 6.77784 23.1337 7.85236 23.1337 9.17784V16.3778C23.1337 17.7033 22.0592 18.7778 20.7337 18.7778H18.3337V23.5778L13.5337 18.7778H8.73369C8.07095 18.7778 7.47095 18.5092 7.03664 18.0749M7.03664 18.0749L11.1337 13.9778H15.9337C17.2592 13.9778 18.3337 12.9033 18.3337 11.5778V4.37784C18.3337 3.05236 17.2592 1.97784 15.9337 1.97784H3.93369C2.60821 1.97784 1.53369 3.05236 1.53369 4.37784V11.5778C1.53369 12.9033 2.60821 13.9778 3.93369 13.9778H6.33369V18.7778L7.03664 18.0749Z" stroke="#111827" stroke-width="2.4" stroke-linecap="round" stroke-linejoin="round"/>
</g>
<defs>
<clipPath id="clip0_1175_132056">
<rect width="24" height="24" fill="white" transform="translate(0.333496 0.777832)"/>
</clipPath>
</defs>
</svg>
