<svg width="25" height="25" viewBox="0 0 25 25" fill="none" xmlns="http://www.w3.org/2000/svg">
<path fill-rule="evenodd" clip-rule="evenodd" d="M2.6665 3.5188C2.6665 2.96651 3.11422 2.5188 3.6665 2.5188H10.6665C11.2188 2.5188 11.6665 2.96651 11.6665 3.5188V12.5188C11.6665 13.0711 11.2188 13.5188 10.6665 13.5188H3.6665C3.11422 13.5188 2.6665 13.0711 2.6665 12.5188V3.5188ZM4.6665 4.5188V11.5188H9.6665V4.5188H4.6665Z" fill="#111827"/>
<path fill-rule="evenodd" clip-rule="evenodd" d="M13.6665 3.5188C13.6665 2.96651 14.1142 2.5188 14.6665 2.5188H21.6665C22.2188 2.5188 22.6665 2.96651 22.6665 3.5188V8.5188C22.6665 9.07108 22.2188 9.5188 21.6665 9.5188H14.6665C14.1142 9.5188 13.6665 9.07108 13.6665 8.5188V3.5188ZM15.6665 4.5188V7.5188H20.6665V4.5188H15.6665Z" fill="#111827"/>
<path fill-rule="evenodd" clip-rule="evenodd" d="M13.6665 12.5188C13.6665 11.9665 14.1142 11.5188 14.6665 11.5188H21.6665C22.2188 11.5188 22.6665 11.9665 22.6665 12.5188V21.5188C22.6665 22.0711 22.2188 22.5188 21.6665 22.5188H14.6665C14.1142 22.5188 13.6665 22.0711 13.6665 21.5188V12.5188ZM15.6665 13.5188V20.5188H20.6665V13.5188H15.6665Z" fill="#111827"/>
<path fill-rule="evenodd" clip-rule="evenodd" d="M2.6665 16.5188C2.6665 15.9665 3.11422 15.5188 3.6665 15.5188H10.6665C11.2188 15.5188 11.6665 15.9665 11.6665 16.5188V21.5188C11.6665 22.0711 11.2188 22.5188 10.6665 22.5188H3.6665C3.11422 22.5188 2.6665 22.0711 2.6665 21.5188V16.5188ZM4.6665 17.5188V20.5188H9.6665V17.5188H4.6665Z" fill="#111827"/>
</svg>
