<svg width="25" height="25" viewBox="0 0 25 25" fill="none" xmlns="http://www.w3.org/2000/svg">
<path fill-rule="evenodd" clip-rule="evenodd" d="M2.6665 3.86865C2.6665 3.31637 3.11422 2.86865 3.6665 2.86865H10.6665C11.2188 2.86865 11.6665 3.31637 11.6665 3.86865V12.8687C11.6665 13.4209 11.2188 13.8687 10.6665 13.8687H3.6665C3.11422 13.8687 2.6665 13.4209 2.6665 12.8687V3.86865ZM4.6665 4.86865V11.8687H9.6665V4.86865H4.6665Z" fill="#111827"/>
<path fill-rule="evenodd" clip-rule="evenodd" d="M13.6665 3.86865C13.6665 3.31637 14.1142 2.86865 14.6665 2.86865H21.6665C22.2188 2.86865 22.6665 3.31637 22.6665 3.86865V8.86865C22.6665 9.42094 22.2188 9.86865 21.6665 9.86865H14.6665C14.1142 9.86865 13.6665 9.42094 13.6665 8.86865V3.86865ZM15.6665 4.86865V7.86865H20.6665V4.86865H15.6665Z" fill="#111827"/>
<path fill-rule="evenodd" clip-rule="evenodd" d="M13.6665 12.8687C13.6665 12.3164 14.1142 11.8687 14.6665 11.8687H21.6665C22.2188 11.8687 22.6665 12.3164 22.6665 12.8687V21.8687C22.6665 22.4209 22.2188 22.8687 21.6665 22.8687H14.6665C14.1142 22.8687 13.6665 22.4209 13.6665 21.8687V12.8687ZM15.6665 13.8687V20.8687H20.6665V13.8687H15.6665Z" fill="#111827"/>
<path fill-rule="evenodd" clip-rule="evenodd" d="M2.6665 16.8687C2.6665 16.3164 3.11422 15.8687 3.6665 15.8687H10.6665C11.2188 15.8687 11.6665 16.3164 11.6665 16.8687V21.8687C11.6665 22.4209 11.2188 22.8687 10.6665 22.8687H3.6665C3.11422 22.8687 2.6665 22.4209 2.6665 21.8687V16.8687ZM4.6665 17.8687V20.8687H9.6665V17.8687H4.6665Z" fill="#111827"/>
</svg>
