<svg width="25" height="25" viewBox="0 0 25 25" fill="none" xmlns="http://www.w3.org/2000/svg">
<g clip-path="url(#clip0_1163_3771)">
<path d="M18.3337 6.51875H20.7337C22.0592 6.51875 23.1337 7.59327 23.1337 8.91875V16.1188C23.1337 17.4442 22.0592 18.5188 20.7337 18.5188H18.3337V23.3188L13.5337 18.5188H8.73369C8.07095 18.5188 7.47095 18.2501 7.03664 17.8158M7.03664 17.8158L11.1337 13.7188H15.9337C17.2592 13.7188 18.3337 12.6442 18.3337 11.3188V4.11875C18.3337 2.79327 17.2592 1.71875 15.9337 1.71875H3.93369C2.60821 1.71875 1.53369 2.79327 1.53369 4.11875V11.3188C1.53369 12.6442 2.60821 13.7188 3.93369 13.7188H6.33369V18.5188L7.03664 17.8158Z" stroke="#111827" stroke-width="2.4" stroke-linecap="round" stroke-linejoin="round"/>
</g>
<defs>
<clipPath id="clip0_1163_3771">
<rect width="24" height="24" fill="white" transform="translate(0.333496 0.518799)"/>
</clipPath>
</defs>
</svg>
