<svg width="25" height="25" viewBox="0 0 25 25" fill="none" xmlns="http://www.w3.org/2000/svg">
<path fill-rule="evenodd" clip-rule="evenodd" d="M2.6665 3.92896C2.6665 3.37667 3.11422 2.92896 3.6665 2.92896H10.6665C11.2188 2.92896 11.6665 3.37667 11.6665 3.92896V12.929C11.6665 13.4812 11.2188 13.929 10.6665 13.929H3.6665C3.11422 13.929 2.6665 13.4812 2.6665 12.929V3.92896ZM4.6665 4.92896V11.929H9.6665V4.92896H4.6665Z" fill="#012BDD"/>
<path fill-rule="evenodd" clip-rule="evenodd" d="M13.6665 3.92896C13.6665 3.37667 14.1142 2.92896 14.6665 2.92896H21.6665C22.2188 2.92896 22.6665 3.37667 22.6665 3.92896V8.92896C22.6665 9.48124 22.2188 9.92896 21.6665 9.92896H14.6665C14.1142 9.92896 13.6665 9.48124 13.6665 8.92896V3.92896ZM15.6665 4.92896V7.92896H20.6665V4.92896H15.6665Z" fill="#012BDD"/>
<path fill-rule="evenodd" clip-rule="evenodd" d="M13.6665 12.929C13.6665 12.3767 14.1142 11.929 14.6665 11.929H21.6665C22.2188 11.929 22.6665 12.3767 22.6665 12.929V21.929C22.6665 22.4812 22.2188 22.929 21.6665 22.929H14.6665C14.1142 22.929 13.6665 22.4812 13.6665 21.929V12.929ZM15.6665 13.929V20.929H20.6665V13.929H15.6665Z" fill="#012BDD"/>
<path fill-rule="evenodd" clip-rule="evenodd" d="M2.6665 16.929C2.6665 16.3767 3.11422 15.929 3.6665 15.929H10.6665C11.2188 15.929 11.6665 16.3767 11.6665 16.929V21.929C11.6665 22.4812 11.2188 22.929 10.6665 22.929H3.6665C3.11422 22.929 2.6665 22.4812 2.6665 21.929V16.929ZM4.6665 17.929V20.929H9.6665V17.929H4.6665Z" fill="#012BDD"/>
</svg>
