<svg width="25" height="25" viewBox="0 0 25 25" fill="none" xmlns="http://www.w3.org/2000/svg">
<path fill-rule="evenodd" clip-rule="evenodd" d="M2.3335 3.92896C2.3335 3.37667 2.78121 2.92896 3.3335 2.92896H10.3335C10.8858 2.92896 11.3335 3.37667 11.3335 3.92896V12.929C11.3335 13.4812 10.8858 13.929 10.3335 13.929H3.3335C2.78121 13.929 2.3335 13.4812 2.3335 12.929V3.92896ZM4.3335 4.92896V11.929H9.3335V4.92896H4.3335Z" fill="#012BDD"/>
<path fill-rule="evenodd" clip-rule="evenodd" d="M13.3335 3.92896C13.3335 3.37667 13.7812 2.92896 14.3335 2.92896H21.3335C21.8858 2.92896 22.3335 3.37667 22.3335 3.92896V8.92896C22.3335 9.48124 21.8858 9.92896 21.3335 9.92896H14.3335C13.7812 9.92896 13.3335 9.48124 13.3335 8.92896V3.92896ZM15.3335 4.92896V7.92896H20.3335V4.92896H15.3335Z" fill="#012BDD"/>
<path fill-rule="evenodd" clip-rule="evenodd" d="M13.3335 12.929C13.3335 12.3767 13.7812 11.929 14.3335 11.929H21.3335C21.8858 11.929 22.3335 12.3767 22.3335 12.929V21.929C22.3335 22.4812 21.8858 22.929 21.3335 22.929H14.3335C13.7812 22.929 13.3335 22.4812 13.3335 21.929V12.929ZM15.3335 13.929V20.929H20.3335V13.929H15.3335Z" fill="#012BDD"/>
<path fill-rule="evenodd" clip-rule="evenodd" d="M2.3335 16.929C2.3335 16.3767 2.78121 15.929 3.3335 15.929H10.3335C10.8858 15.929 11.3335 16.3767 11.3335 16.929V21.929C11.3335 22.4812 10.8858 22.929 10.3335 22.929H3.3335C2.78121 22.929 2.3335 22.4812 2.3335 21.929V16.929ZM4.3335 17.929V20.929H9.3335V17.929H4.3335Z" fill="#012BDD"/>
</svg>
