<svg width="25" height="25" viewBox="0 0 25 25" fill="none" xmlns="http://www.w3.org/2000/svg">
<g clip-path="url(#clip0_1163_4631)">
<path d="M18.3337 6.28737H20.7337C22.0592 6.28737 23.1337 7.36188 23.1337 8.68737V15.8874C23.1337 17.2128 22.0592 18.2874 20.7337 18.2874H18.3337V23.0874L13.5337 18.2874H8.73369C8.07095 18.2874 7.47095 18.0187 7.03664 17.5844M7.03664 17.5844L11.1337 13.4874H15.9337C17.2592 13.4874 18.3337 12.4128 18.3337 11.0874V3.88737C18.3337 2.56188 17.2592 1.48737 15.9337 1.48737H3.93369C2.60821 1.48737 1.53369 2.56188 1.53369 3.88737V11.0874C1.53369 12.4128 2.60821 13.4874 3.93369 13.4874H6.33369V18.2874L7.03664 17.5844Z" stroke="#111827" stroke-width="2.4" stroke-linecap="round" stroke-linejoin="round"/>
</g>
<defs>
<clipPath id="clip0_1163_4631">
<rect width="24" height="24" fill="white" transform="translate(0.333496 0.287354)"/>
</clipPath>
</defs>
</svg>
