<svg width="25" height="24" viewBox="0 0 25 24" fill="none" xmlns="http://www.w3.org/2000/svg">
<path fill-rule="evenodd" clip-rule="evenodd" d="M2.6665 3C2.6665 2.44772 3.11422 2 3.6665 2H10.6665C11.2188 2 11.6665 2.44772 11.6665 3V12C11.6665 12.5523 11.2188 13 10.6665 13H3.6665C3.11422 13 2.6665 12.5523 2.6665 12V3ZM4.6665 4V11H9.6665V4H4.6665Z" fill="#012BDD"/>
<path fill-rule="evenodd" clip-rule="evenodd" d="M13.6665 3C13.6665 2.44772 14.1142 2 14.6665 2H21.6665C22.2188 2 22.6665 2.44772 22.6665 3V8C22.6665 8.55228 22.2188 9 21.6665 9H14.6665C14.1142 9 13.6665 8.55228 13.6665 8V3ZM15.6665 4V7H20.6665V4H15.6665Z" fill="#012BDD"/>
<path fill-rule="evenodd" clip-rule="evenodd" d="M13.6665 12C13.6665 11.4477 14.1142 11 14.6665 11H21.6665C22.2188 11 22.6665 11.4477 22.6665 12V21C22.6665 21.5523 22.2188 22 21.6665 22H14.6665C14.1142 22 13.6665 21.5523 13.6665 21V12ZM15.6665 13V20H20.6665V13H15.6665Z" fill="#012BDD"/>
<path fill-rule="evenodd" clip-rule="evenodd" d="M2.6665 16C2.6665 15.4477 3.11422 15 3.6665 15H10.6665C11.2188 15 11.6665 15.4477 11.6665 16V21C11.6665 21.5523 11.2188 22 10.6665 22H3.6665C3.11422 22 2.6665 21.5523 2.6665 21V16ZM4.6665 17V20H9.6665V17H4.6665Z" fill="#012BDD"/>
</svg>
