<svg width="24" height="24" viewBox="0 0 24 24" fill="none" xmlns="http://www.w3.org/2000/svg">
<g clip-path="url(#clip0_12_2093)">
<path fill-rule="evenodd" clip-rule="evenodd" d="M11.2633 0.229798C11.6966 -0.0765992 12.3034 -0.0765992 12.7367 0.229798L23.5367 7.86616C23.829 8.07284 24 8.39063 24 8.72727V20.7273C24 21.5953 23.6207 22.4277 22.9456 23.0414C22.2705 23.6552 21.3548 24 20.4 24H3.6C2.64522 24 1.72955 23.6552 1.05442 23.0414C0.379285 22.4277 0 21.5953 0 20.7273V8.72727C0 8.39063 0.170967 8.07284 0.463271 7.86616L11.2633 0.229798ZM2.4 9.26082V20.7273C2.4 21.0166 2.52643 21.2941 2.75147 21.4987C2.97652 21.7032 3.28174 21.8182 3.6 21.8182H20.4C20.7183 21.8182 21.0235 21.7032 21.2485 21.4987C21.4736 21.2941 21.6 21.0166 21.6 20.7273V9.26082L12 2.47294L2.4 9.26082Z" fill="#111827"/>
<path fill-rule="evenodd" clip-rule="evenodd" d="M7.19995 12C7.19995 11.3975 7.73721 10.9091 8.39995 10.9091H15.6C16.2627 10.9091 16.8 11.3975 16.8 12V22.9091C16.8 23.5116 16.2627 24 15.6 24C14.9372 24 14.4 23.5116 14.4 22.9091V13.0909H9.59995V22.9091C9.59995 23.5116 9.06269 24 8.39995 24C7.73721 24 7.19995 23.5116 7.19995 22.9091V12Z" fill="#111827"/>
</g>
<defs>
<clipPath id="clip0_12_2093">
<rect width="24" height="24" fill="white"/>
</clipPath>
</defs>
</svg>
