<svg width="24" height="24" viewBox="0 0 24 24" fill="none" xmlns="http://www.w3.org/2000/svg">
<g clip-path="url(#clip0_942_31)">
<path d="M4.23867 18.5478C6.53076 17.2523 9.17881 16.5129 11.9996 16.5129C14.8203 16.5129 17.4683 17.2523 19.7604 18.5478M15.3842 9.74363C15.3842 11.6129 13.8688 13.1282 11.9995 13.1282C10.1303 13.1282 8.61493 11.6129 8.61493 9.74363C8.61493 7.87436 10.1303 6.35901 11.9995 6.35901C13.8688 6.35901 15.3842 7.87436 15.3842 9.74363ZM22.1534 12C22.1534 17.6079 17.6074 22.1539 11.9995 22.1539C6.39173 22.1539 1.8457 17.6079 1.8457 12C1.8457 6.39222 6.39173 1.84619 11.9995 1.84619C17.6074 1.84619 22.1534 6.39222 22.1534 12Z" stroke="#111827" stroke-width="2.44444" stroke-linecap="round" stroke-linejoin="round"/>
</g>
<defs>
<clipPath id="clip0_942_31">
<rect width="24" height="24" fill="white"/>
</clipPath>
</defs>
</svg>
