<svg width="25" height="24" viewBox="0 0 25 24" fill="none" xmlns="http://www.w3.org/2000/svg">
<g clip-path="url(#clip0_328_1030)">
<path d="M18.6667 6.00001H21.0667C22.3922 6.00001 23.4667 7.07453 23.4667 8.40001V15.6C23.4667 16.9255 22.3922 18 21.0667 18H18.6667V22.8L13.8667 18H9.0667C8.40396 18 7.80396 17.7314 7.36964 17.2971M7.36964 17.2971L11.4667 13.2H16.2667C17.5922 13.2 18.6667 12.1255 18.6667 10.8V3.60001C18.6667 2.27453 17.5922 1.20001 16.2667 1.20001H4.2667C2.94122 1.20001 1.8667 2.27453 1.8667 3.60001V10.8C1.8667 12.1255 2.94122 13.2 4.2667 13.2H6.6667V18L7.36964 17.2971Z" stroke="#111827" stroke-width="2.4" stroke-linecap="round" stroke-linejoin="round"/>
</g>
<defs>
<clipPath id="clip0_328_1030">
<rect width="24" height="24" fill="white" transform="translate(0.666748)"/>
</clipPath>
</defs>
</svg>
