<svg width="24" height="25" viewBox="0 0 24 25" fill="none" xmlns="http://www.w3.org/2000/svg">
<g clip-path="url(#clip0_1003_4283)">
<path d="M4.23916 19.4165C6.53125 18.1209 9.1793 17.3815 12 17.3815C14.8208 17.3815 17.4688 18.1209 19.7609 19.4165M15.3847 10.6123C15.3847 12.4816 13.8693 13.9969 12 13.9969C10.1308 13.9969 8.61542 12.4816 8.61542 10.6123C8.61542 8.74301 10.1308 7.22766 12 7.22766C13.8693 7.22766 15.3847 8.74301 15.3847 10.6123ZM22.1539 12.8687C22.1539 18.4765 17.6079 23.0225 12 23.0225C6.39222 23.0225 1.84619 18.4765 1.84619 12.8687C1.84619 7.26088 6.39222 2.71484 12 2.71484C17.6079 2.71484 22.1539 7.26088 22.1539 12.8687Z" stroke="#111827" stroke-width="2.44444" stroke-linecap="round" stroke-linejoin="round"/>
</g>
<defs>
<clipPath id="clip0_1003_4283">
<rect width="24" height="24" fill="white" transform="translate(0 0.868652)"/>
</clipPath>
</defs>
</svg>
