<svg width="25" height="25" viewBox="0 0 25 25" fill="none" xmlns="http://www.w3.org/2000/svg">
<path fill-rule="evenodd" clip-rule="evenodd" d="M2.6665 3.77783C2.6665 3.22555 3.11422 2.77783 3.6665 2.77783H10.6665C11.2188 2.77783 11.6665 3.22555 11.6665 3.77783V12.7778C11.6665 13.3301 11.2188 13.7778 10.6665 13.7778H3.6665C3.11422 13.7778 2.6665 13.3301 2.6665 12.7778V3.77783ZM4.6665 4.77783V11.7778H9.6665V4.77783H4.6665Z" fill="#111827"/>
<path fill-rule="evenodd" clip-rule="evenodd" d="M13.6665 3.77783C13.6665 3.22555 14.1142 2.77783 14.6665 2.77783H21.6665C22.2188 2.77783 22.6665 3.22555 22.6665 3.77783V8.77783C22.6665 9.33012 22.2188 9.77783 21.6665 9.77783H14.6665C14.1142 9.77783 13.6665 9.33012 13.6665 8.77783V3.77783ZM15.6665 4.77783V7.77783H20.6665V4.77783H15.6665Z" fill="#111827"/>
<path fill-rule="evenodd" clip-rule="evenodd" d="M13.6665 12.7778C13.6665 12.2255 14.1142 11.7778 14.6665 11.7778H21.6665C22.2188 11.7778 22.6665 12.2255 22.6665 12.7778V21.7778C22.6665 22.3301 22.2188 22.7778 21.6665 22.7778H14.6665C14.1142 22.7778 13.6665 22.3301 13.6665 21.7778V12.7778ZM15.6665 13.7778V20.7778H20.6665V13.7778H15.6665Z" fill="#111827"/>
<path fill-rule="evenodd" clip-rule="evenodd" d="M2.6665 16.7778C2.6665 16.2255 3.11422 15.7778 3.6665 15.7778H10.6665C11.2188 15.7778 11.6665 16.2255 11.6665 16.7778V21.7778C11.6665 22.3301 11.2188 22.7778 10.6665 22.7778H3.6665C3.11422 22.7778 2.6665 22.3301 2.6665 21.7778V16.7778ZM4.6665 17.7778V20.7778H9.6665V17.7778H4.6665Z" fill="#111827"/>
</svg>
