<svg width="25" height="25" viewBox="0 0 25 25" fill="none" xmlns="http://www.w3.org/2000/svg">
<path fill-rule="evenodd" clip-rule="evenodd" d="M2.3335 3.7771C2.3335 3.22481 2.78121 2.7771 3.3335 2.7771H10.3335C10.8858 2.7771 11.3335 3.22481 11.3335 3.7771V12.7771C11.3335 13.3294 10.8858 13.7771 10.3335 13.7771H3.3335C2.78121 13.7771 2.3335 13.3294 2.3335 12.7771V3.7771ZM4.3335 4.7771V11.7771H9.3335V4.7771H4.3335Z" fill="#111827"/>
<path fill-rule="evenodd" clip-rule="evenodd" d="M13.3335 3.7771C13.3335 3.22481 13.7812 2.7771 14.3335 2.7771H21.3335C21.8858 2.7771 22.3335 3.22481 22.3335 3.7771V8.7771C22.3335 9.32938 21.8858 9.7771 21.3335 9.7771H14.3335C13.7812 9.7771 13.3335 9.32938 13.3335 8.7771V3.7771ZM15.3335 4.7771V7.7771H20.3335V4.7771H15.3335Z" fill="#111827"/>
<path fill-rule="evenodd" clip-rule="evenodd" d="M13.3335 12.7771C13.3335 12.2248 13.7812 11.7771 14.3335 11.7771H21.3335C21.8858 11.7771 22.3335 12.2248 22.3335 12.7771V21.7771C22.3335 22.3294 21.8858 22.7771 21.3335 22.7771H14.3335C13.7812 22.7771 13.3335 22.3294 13.3335 21.7771V12.7771ZM15.3335 13.7771V20.7771H20.3335V13.7771H15.3335Z" fill="#111827"/>
<path fill-rule="evenodd" clip-rule="evenodd" d="M2.3335 16.7771C2.3335 16.2248 2.78121 15.7771 3.3335 15.7771H10.3335C10.8858 15.7771 11.3335 16.2248 11.3335 16.7771V21.7771C11.3335 22.3294 10.8858 22.7771 10.3335 22.7771H3.3335C2.78121 22.7771 2.3335 22.3294 2.3335 21.7771V16.7771ZM4.3335 17.7771V20.7771H9.3335V17.7771H4.3335Z" fill="#111827"/>
</svg>
