<svg width="25" height="25" viewBox="0 0 25 25" fill="none" xmlns="http://www.w3.org/2000/svg">
<g clip-path="url(#clip0_1003_4279)">
<path d="M18.3337 6.8686H20.7337C22.0592 6.8686 23.1337 7.94312 23.1337 9.2686V16.4686C23.1337 17.7941 22.0592 18.8686 20.7337 18.8686H18.3337V23.6686L13.5337 18.8686H8.73369C8.07095 18.8686 7.47095 18.6 7.03664 18.1657M7.03664 18.1657L11.1337 14.0686H15.9337C17.2592 14.0686 18.3337 12.9941 18.3337 11.6686V4.4686C18.3337 3.14312 17.2592 2.0686 15.9337 2.0686H3.93369C2.60821 2.0686 1.53369 3.14312 1.53369 4.4686V11.6686C1.53369 12.9941 2.60821 14.0686 3.93369 14.0686H6.33369V18.8686L7.03664 18.1657Z" stroke="#111827" stroke-width="2.4" stroke-linecap="round" stroke-linejoin="round"/>
</g>
<defs>
<clipPath id="clip0_1003_4279">
<rect width="24" height="24" fill="white" transform="translate(0.333496 0.868652)"/>
</clipPath>
</defs>
</svg>
