<svg width="25" height="25" viewBox="0 0 25 25" fill="none" xmlns="http://www.w3.org/2000/svg">
<path fill-rule="evenodd" clip-rule="evenodd" d="M2.33337 3.95996C2.33337 3.40768 2.78109 2.95996 3.33337 2.95996H10.3334C10.8857 2.95996 11.3334 3.40768 11.3334 3.95996V12.96C11.3334 13.5122 10.8857 13.96 10.3334 13.96H3.33337C2.78109 13.96 2.33337 13.5122 2.33337 12.96V3.95996ZM4.33337 4.95996V11.96H9.33337V4.95996H4.33337Z" fill="#111827"/>
<path fill-rule="evenodd" clip-rule="evenodd" d="M13.3334 3.95996C13.3334 3.40768 13.7811 2.95996 14.3334 2.95996H21.3334C21.8857 2.95996 22.3334 3.40768 22.3334 3.95996V8.95996C22.3334 9.51225 21.8857 9.95996 21.3334 9.95996H14.3334C13.7811 9.95996 13.3334 9.51225 13.3334 8.95996V3.95996ZM15.3334 4.95996V7.95996H20.3334V4.95996H15.3334Z" fill="#111827"/>
<path fill-rule="evenodd" clip-rule="evenodd" d="M13.3334 12.96C13.3334 12.4077 13.7811 11.96 14.3334 11.96H21.3334C21.8857 11.96 22.3334 12.4077 22.3334 12.96V21.96C22.3334 22.5122 21.8857 22.96 21.3334 22.96H14.3334C13.7811 22.96 13.3334 22.5122 13.3334 21.96V12.96ZM15.3334 13.96V20.96H20.3334V13.96H15.3334Z" fill="#111827"/>
<path fill-rule="evenodd" clip-rule="evenodd" d="M2.33337 16.96C2.33337 16.4077 2.78109 15.96 3.33337 15.96H10.3334C10.8857 15.96 11.3334 16.4077 11.3334 16.96V21.96C11.3334 22.5122 10.8857 22.96 10.3334 22.96H3.33337C2.78109 22.96 2.33337 22.5122 2.33337 21.96V16.96ZM4.33337 17.96V20.96H9.33337V17.96H4.33337Z" fill="#111827"/>
</svg>
