<svg width="25" height="24" viewBox="0 0 25 24" fill="none" xmlns="http://www.w3.org/2000/svg">
<path fill-rule="evenodd" clip-rule="evenodd" d="M2.66675 3C2.66675 2.44772 3.11446 2 3.66675 2H10.6667C11.219 2 11.6667 2.44772 11.6667 3V12C11.6667 12.5523 11.219 13 10.6667 13H3.66675C3.11446 13 2.66675 12.5523 2.66675 12V3ZM4.66675 4V11H9.66675V4H4.66675Z" fill="#012BDD"/>
<path fill-rule="evenodd" clip-rule="evenodd" d="M13.6667 3C13.6667 2.44772 14.1145 2 14.6667 2H21.6667C22.219 2 22.6667 2.44772 22.6667 3V8C22.6667 8.55228 22.219 9 21.6667 9H14.6667C14.1145 9 13.6667 8.55228 13.6667 8V3ZM15.6667 4V7H20.6667V4H15.6667Z" fill="#012BDD"/>
<path fill-rule="evenodd" clip-rule="evenodd" d="M13.6667 12C13.6667 11.4477 14.1145 11 14.6667 11H21.6667C22.219 11 22.6667 11.4477 22.6667 12V21C22.6667 21.5523 22.219 22 21.6667 22H14.6667C14.1145 22 13.6667 21.5523 13.6667 21V12ZM15.6667 13V20H20.6667V13H15.6667Z" fill="#012BDD"/>
<path fill-rule="evenodd" clip-rule="evenodd" d="M2.66675 16C2.66675 15.4477 3.11446 15 3.66675 15H10.6667C11.219 15 11.6667 15.4477 11.6667 16V21C11.6667 21.5523 11.219 22 10.6667 22H3.66675C3.11446 22 2.66675 21.5523 2.66675 21V16ZM4.66675 17V20H9.66675V17H4.66675Z" fill="#012BDD"/>
</svg>
