<svg width="25" height="25" viewBox="0 0 25 25" fill="none" xmlns="http://www.w3.org/2000/svg">
<path fill-rule="evenodd" clip-rule="evenodd" d="M2.66675 3.77832C2.66675 3.22604 3.11446 2.77832 3.66675 2.77832H10.6667C11.219 2.77832 11.6667 3.22604 11.6667 3.77832V12.7783C11.6667 13.3306 11.219 13.7783 10.6667 13.7783H3.66675C3.11446 13.7783 2.66675 13.3306 2.66675 12.7783V3.77832ZM4.66675 4.77832V11.7783H9.66675V4.77832H4.66675Z" fill="#111827"/>
<path fill-rule="evenodd" clip-rule="evenodd" d="M13.6667 3.77832C13.6667 3.22604 14.1145 2.77832 14.6667 2.77832H21.6667C22.219 2.77832 22.6667 3.22604 22.6667 3.77832V8.77832C22.6667 9.33061 22.219 9.77832 21.6667 9.77832H14.6667C14.1145 9.77832 13.6667 9.33061 13.6667 8.77832V3.77832ZM15.6667 4.77832V7.77832H20.6667V4.77832H15.6667Z" fill="#111827"/>
<path fill-rule="evenodd" clip-rule="evenodd" d="M13.6667 12.7783C13.6667 12.226 14.1145 11.7783 14.6667 11.7783H21.6667C22.219 11.7783 22.6667 12.226 22.6667 12.7783V21.7783C22.6667 22.3306 22.219 22.7783 21.6667 22.7783H14.6667C14.1145 22.7783 13.6667 22.3306 13.6667 21.7783V12.7783ZM15.6667 13.7783V20.7783H20.6667V13.7783H15.6667Z" fill="#111827"/>
<path fill-rule="evenodd" clip-rule="evenodd" d="M2.66675 16.7783C2.66675 16.226 3.11446 15.7783 3.66675 15.7783H10.6667C11.219 15.7783 11.6667 16.226 11.6667 16.7783V21.7783C11.6667 22.3306 11.219 22.7783 10.6667 22.7783H3.66675C3.11446 22.7783 2.66675 22.3306 2.66675 21.7783V16.7783ZM4.66675 17.7783V20.7783H9.66675V17.7783H4.66675Z" fill="#111827"/>
</svg>
