<svg width="25" height="25" viewBox="0 0 25 25" fill="none" xmlns="http://www.w3.org/2000/svg">
<path fill-rule="evenodd" clip-rule="evenodd" d="M2.66663 3.77832C2.66663 3.22604 3.11434 2.77832 3.66663 2.77832H10.6666C11.2189 2.77832 11.6666 3.22604 11.6666 3.77832V12.7783C11.6666 13.3306 11.2189 13.7783 10.6666 13.7783H3.66663C3.11434 13.7783 2.66663 13.3306 2.66663 12.7783V3.77832ZM4.66663 4.77832V11.7783H9.66663V4.77832H4.66663Z" fill="#111827"/>
<path fill-rule="evenodd" clip-rule="evenodd" d="M13.6666 3.77832C13.6666 3.22604 14.1143 2.77832 14.6666 2.77832H21.6666C22.2189 2.77832 22.6666 3.22604 22.6666 3.77832V8.77832C22.6666 9.33061 22.2189 9.77832 21.6666 9.77832H14.6666C14.1143 9.77832 13.6666 9.33061 13.6666 8.77832V3.77832ZM15.6666 4.77832V7.77832H20.6666V4.77832H15.6666Z" fill="#111827"/>
<path fill-rule="evenodd" clip-rule="evenodd" d="M13.6666 12.7783C13.6666 12.226 14.1143 11.7783 14.6666 11.7783H21.6666C22.2189 11.7783 22.6666 12.226 22.6666 12.7783V21.7783C22.6666 22.3306 22.2189 22.7783 21.6666 22.7783H14.6666C14.1143 22.7783 13.6666 22.3306 13.6666 21.7783V12.7783ZM15.6666 13.7783V20.7783H20.6666V13.7783H15.6666Z" fill="#111827"/>
<path fill-rule="evenodd" clip-rule="evenodd" d="M2.66663 16.7783C2.66663 16.226 3.11434 15.7783 3.66663 15.7783H10.6666C11.2189 15.7783 11.6666 16.226 11.6666 16.7783V21.7783C11.6666 22.3306 11.2189 22.7783 10.6666 22.7783H3.66663C3.11434 22.7783 2.66663 22.3306 2.66663 21.7783V16.7783ZM4.66663 17.7783V20.7783H9.66663V17.7783H4.66663Z" fill="#111827"/>
</svg>
