<svg width="24" height="25" viewBox="0 0 24 25" fill="none" xmlns="http://www.w3.org/2000/svg">
<g clip-path="url(#clip0_1163_3759)">
<path fill-rule="evenodd" clip-rule="evenodd" d="M11.2633 0.748596C11.6966 0.4422 12.3034 0.4422 12.7367 0.748596L23.5367 8.38496C23.829 8.59164 24 8.90943 24 9.24607V21.2461C24 22.1141 23.6207 22.9465 22.9456 23.5602C22.2705 24.174 21.3548 24.5188 20.4 24.5188H3.6C2.64522 24.5188 1.72955 24.174 1.05442 23.5602C0.379285 22.9465 0 22.1141 0 21.2461V9.24607C0 8.90943 0.170967 8.59164 0.463271 8.38496L11.2633 0.748596ZM2.4 9.77962V21.2461C2.4 21.5354 2.52643 21.8129 2.75147 22.0175C2.97652 22.222 3.28174 22.337 3.6 22.337H20.4C20.7183 22.337 21.0235 22.222 21.2485 22.0175C21.4736 21.8129 21.6 21.5354 21.6 21.2461V9.77962L12 2.99174L2.4 9.77962Z" fill="#012BDD"/>
<path fill-rule="evenodd" clip-rule="evenodd" d="M7.2002 12.5189C7.2002 11.9164 7.73745 11.428 8.4002 11.428H15.6002C16.2629 11.428 16.8002 11.9164 16.8002 12.5189V23.428C16.8002 24.0305 16.2629 24.5189 15.6002 24.5189C14.9375 24.5189 14.4002 24.0305 14.4002 23.428V13.6098H9.6002V23.428C9.6002 24.0305 9.06294 24.5189 8.4002 24.5189C7.73745 24.5189 7.2002 24.0305 7.2002 23.428V12.5189Z" fill="#012BDD"/>
</g>
<defs>
<clipPath id="clip0_1163_3759">
<rect width="24" height="24" fill="white" transform="translate(0 0.518799)"/>
</clipPath>
</defs>
</svg>
