<svg width="24" height="24" viewBox="0 0 24 24" fill="none" xmlns="http://www.w3.org/2000/svg">
<g clip-path="url(#clip0_104_3976)">
<path d="M4.23916 18.5478C6.53125 17.2522 9.1793 16.5128 12 16.5128C14.8208 16.5128 17.4688 17.2522 19.7609 18.5478M15.3847 9.7436C15.3847 11.6129 13.8693 13.1282 12 13.1282C10.1308 13.1282 8.61542 11.6129 8.61542 9.7436C8.61542 7.87432 10.1308 6.35898 12 6.35898C13.8693 6.35898 15.3847 7.87432 15.3847 9.7436ZM22.1539 12C22.1539 17.6078 17.6079 22.1539 12 22.1539C6.39222 22.1539 1.84619 17.6078 1.84619 12C1.84619 6.39219 6.39222 1.84616 12 1.84616C17.6079 1.84616 22.1539 6.39219 22.1539 12Z" stroke="#111827" stroke-width="2.44444" stroke-linecap="round" stroke-linejoin="round"/>
</g>
<defs>
<clipPath id="clip0_104_3976">
<rect width="24" height="24" fill="white"/>
</clipPath>
</defs>
</svg>
