<svg width="24" height="25" viewBox="0 0 24 25" fill="none" xmlns="http://www.w3.org/2000/svg">
<g clip-path="url(#clip0_369_823)">
<path d="M4.23916 19.4768C6.53125 18.1812 9.1793 17.4418 12 17.4418C14.8208 17.4418 17.4688 18.1812 19.7609 19.4768M15.3847 10.6726C15.3847 12.5419 13.8693 14.0572 12 14.0572C10.1308 14.0572 8.61542 12.5419 8.61542 10.6726C8.61542 8.80331 10.1308 7.28797 12 7.28797C13.8693 7.28797 15.3847 8.80331 15.3847 10.6726ZM22.1539 12.929C22.1539 18.5368 17.6079 23.0828 12 23.0828C6.39222 23.0828 1.84619 18.5368 1.84619 12.929C1.84619 7.32118 6.39222 2.77515 12 2.77515C17.6079 2.77515 22.1539 7.32118 22.1539 12.929Z" stroke="#111827" stroke-width="2.44444" stroke-linecap="round" stroke-linejoin="round"/>
</g>
<defs>
<clipPath id="clip0_369_823">
<rect width="24" height="24" fill="white" transform="translate(0 0.928955)"/>
</clipPath>
</defs>
</svg>
