<svg width="25" height="25" viewBox="0 0 25 25" fill="none" xmlns="http://www.w3.org/2000/svg">
<g clip-path="url(#clip0_705_2834)">
<path d="M18.6666 6.95991H21.0666C22.3921 6.95991 23.4666 8.03443 23.4666 9.35991V16.5599C23.4666 17.8854 22.3921 18.9599 21.0666 18.9599H18.6666V23.7599L13.8666 18.9599H9.06658C8.40384 18.9599 7.80384 18.6913 7.36952 18.257M7.36952 18.257L11.4666 14.1599H16.2666C17.5921 14.1599 18.6666 13.0854 18.6666 11.7599V4.55991C18.6666 3.23443 17.5921 2.15991 16.2666 2.15991H4.26658C2.94109 2.15991 1.86658 3.23443 1.86658 4.55991V11.7599C1.86658 13.0854 2.94109 14.1599 4.26658 14.1599H6.66658V18.9599L7.36952 18.257Z" stroke="#111827" stroke-width="2.4" stroke-linecap="round" stroke-linejoin="round"/>
</g>
<defs>
<clipPath id="clip0_705_2834">
<rect width="24" height="24" fill="white" transform="translate(0.666626 0.959961)"/>
</clipPath>
</defs>
</svg>
