<svg width="24" height="25" viewBox="0 0 24 25" fill="none" xmlns="http://www.w3.org/2000/svg">
<g clip-path="url(#clip0_1003_4527)">
<path fill-rule="evenodd" clip-rule="evenodd" d="M11.2633 1.15875C11.6966 0.852356 12.3034 0.852356 12.7367 1.15875L23.5367 8.79512C23.829 9.0018 24 9.31958 24 9.65623V21.6562C24 22.5242 23.6207 23.3566 22.9456 23.9704C22.2705 24.5842 21.3548 24.929 20.4 24.929H3.6C2.64522 24.929 1.72955 24.5842 1.05442 23.9704C0.379285 23.3566 0 22.5242 0 21.6562V9.65623C0 9.31958 0.170967 9.0018 0.463271 8.79512L11.2633 1.15875ZM2.4 10.1898V21.6562C2.4 21.9456 2.52643 22.223 2.75147 22.4276C2.97652 22.6322 3.28174 22.7471 3.6 22.7471H20.4C20.7183 22.7471 21.0235 22.6322 21.2485 22.4276C21.4736 22.223 21.6 21.9456 21.6 21.6562V10.1898L12 3.40189L2.4 10.1898Z" fill="#111827"/>
<path fill-rule="evenodd" clip-rule="evenodd" d="M7.2002 12.929C7.2002 12.3266 7.73745 11.8381 8.4002 11.8381H15.6002C16.2629 11.8381 16.8002 12.3266 16.8002 12.929V23.8381C16.8002 24.4406 16.2629 24.929 15.6002 24.929C14.9375 24.929 14.4002 24.4406 14.4002 23.8381V14.02H9.6002V23.8381C9.6002 24.4406 9.06294 24.929 8.4002 24.929C7.73745 24.929 7.2002 24.4406 7.2002 23.8381V12.929Z" fill="#111827"/>
</g>
<defs>
<clipPath id="clip0_1003_4527">
<rect width="24" height="24" fill="white" transform="translate(0 0.928955)"/>
</clipPath>
</defs>
</svg>
