<svg width="24" height="24" viewBox="0 0 24 24" fill="none" xmlns="http://www.w3.org/2000/svg">
<g clip-path="url(#clip0_214_1867)">
<path d="M18 5.99995H20.4C21.7254 5.99995 22.8 7.07447 22.8 8.39995V15.6C22.8 16.9254 21.7254 18 20.4 18H18V22.8L13.2 18H8.39995C7.73721 18 7.13721 17.7313 6.7029 17.297M6.7029 17.297L10.8 13.2H15.6C16.9254 13.2 18 12.1254 18 10.8V3.59995C18 2.27447 16.9254 1.19995 15.6 1.19995H3.59995C2.27447 1.19995 1.19995 2.27447 1.19995 3.59995V10.8C1.19995 12.1254 2.27447 13.2 3.59995 13.2H5.99995V18L6.7029 17.297Z" stroke="#111827" stroke-width="2.4" stroke-linecap="round" stroke-linejoin="round"/>
</g>
<defs>
<clipPath id="clip0_214_1867">
<rect width="24" height="24" fill="white"/>
</clipPath>
</defs>
</svg>
