<svg width="25" height="24" viewBox="0 0 25 24" fill="none" xmlns="http://www.w3.org/2000/svg">
<path fill-rule="evenodd" clip-rule="evenodd" d="M2.66663 3C2.66663 2.44772 3.11434 2 3.66663 2H10.6666C11.2189 2 11.6666 2.44772 11.6666 3V12C11.6666 12.5523 11.2189 13 10.6666 13H3.66663C3.11434 13 2.66663 12.5523 2.66663 12V3ZM4.66663 4V11H9.66663V4H4.66663Z" fill="#012BDD"/>
<path fill-rule="evenodd" clip-rule="evenodd" d="M13.6666 3C13.6666 2.44772 14.1143 2 14.6666 2H21.6666C22.2189 2 22.6666 2.44772 22.6666 3V8C22.6666 8.55228 22.2189 9 21.6666 9H14.6666C14.1143 9 13.6666 8.55228 13.6666 8V3ZM15.6666 4V7H20.6666V4H15.6666Z" fill="#012BDD"/>
<path fill-rule="evenodd" clip-rule="evenodd" d="M13.6666 12C13.6666 11.4477 14.1143 11 14.6666 11H21.6666C22.2189 11 22.6666 11.4477 22.6666 12V21C22.6666 21.5523 22.2189 22 21.6666 22H14.6666C14.1143 22 13.6666 21.5523 13.6666 21V12ZM15.6666 13V20H20.6666V13H15.6666Z" fill="#012BDD"/>
<path fill-rule="evenodd" clip-rule="evenodd" d="M2.66663 16C2.66663 15.4477 3.11434 15 3.66663 15H10.6666C11.2189 15 11.6666 15.4477 11.6666 16V21C11.6666 21.5523 11.2189 22 10.6666 22H3.66663C3.11434 22 2.66663 21.5523 2.66663 21V16ZM4.66663 17V20H9.66663V17H4.66663Z" fill="#012BDD"/>
</svg>
