<svg width="25" height="24" viewBox="0 0 25 24" fill="none" xmlns="http://www.w3.org/2000/svg">
<path fill-rule="evenodd" clip-rule="evenodd" d="M2.66699 3C2.66699 2.44772 3.11471 2 3.66699 2H10.667C11.2193 2 11.667 2.44772 11.667 3V12C11.667 12.5523 11.2193 13 10.667 13H3.66699C3.11471 13 2.66699 12.5523 2.66699 12V3ZM4.66699 4V11H9.66699V4H4.66699Z" fill="#111827"/>
<path fill-rule="evenodd" clip-rule="evenodd" d="M13.667 3C13.667 2.44772 14.1147 2 14.667 2H21.667C22.2193 2 22.667 2.44772 22.667 3V8C22.667 8.55228 22.2193 9 21.667 9H14.667C14.1147 9 13.667 8.55228 13.667 8V3ZM15.667 4V7H20.667V4H15.667Z" fill="#111827"/>
<path fill-rule="evenodd" clip-rule="evenodd" d="M13.667 12C13.667 11.4477 14.1147 11 14.667 11H21.667C22.2193 11 22.667 11.4477 22.667 12V21C22.667 21.5523 22.2193 22 21.667 22H14.667C14.1147 22 13.667 21.5523 13.667 21V12ZM15.667 13V20H20.667V13H15.667Z" fill="#111827"/>
<path fill-rule="evenodd" clip-rule="evenodd" d="M2.66699 16C2.66699 15.4477 3.11471 15 3.66699 15H10.667C11.2193 15 11.667 15.4477 11.667 16V21C11.667 21.5523 11.2193 22 10.667 22H3.66699C3.11471 22 2.66699 21.5523 2.66699 21V16ZM4.66699 17V20H9.66699V17H4.66699Z" fill="#111827"/>
</svg>
