<svg width="25" height="25" viewBox="0 0 25 25" fill="none" xmlns="http://www.w3.org/2000/svg">
<g clip-path="url(#clip0_1163_3027)">
<path d="M18.3332 6.2873H20.7332C22.0587 6.2873 23.1332 7.36182 23.1332 8.6873V15.8873C23.1332 17.2128 22.0587 18.2873 20.7332 18.2873H18.3332V23.0873L13.5332 18.2873H8.7332C8.07046 18.2873 7.47046 18.0187 7.03615 17.5844M7.03615 17.5844L11.1332 13.4873H15.9332C17.2587 13.4873 18.3332 12.4128 18.3332 11.0873V3.8873C18.3332 2.56182 17.2587 1.4873 15.9332 1.4873H3.9332C2.60772 1.4873 1.5332 2.56182 1.5332 3.88731V11.0873C1.5332 12.4128 2.60772 13.4873 3.9332 13.4873H6.3332V18.2873L7.03615 17.5844Z" stroke="#111827" stroke-width="2.4" stroke-linecap="round" stroke-linejoin="round"/>
</g>
<defs>
<clipPath id="clip0_1163_3027">
<rect width="24" height="24" fill="white" transform="translate(0.333252 0.287354)"/>
</clipPath>
</defs>
</svg>
