<svg width="24" height="25" viewBox="0 0 24 25" fill="none" xmlns="http://www.w3.org/2000/svg">
<g clip-path="url(#clip0_1192_2227)">
<path fill-rule="evenodd" clip-rule="evenodd" d="M11.2633 1.18976C11.6966 0.883362 12.3034 0.883362 12.7367 1.18976L23.5367 8.82612C23.829 9.0328 24 9.35059 24 9.68723V21.6872C24 22.5552 23.6207 23.3876 22.9456 24.0014C22.2705 24.6152 21.3548 24.96 20.4 24.96H3.6C2.64522 24.96 1.72955 24.6152 1.05442 24.0014C0.379285 23.3876 0 22.5552 0 21.6872V9.68723C0 9.35059 0.170967 9.0328 0.463271 8.82612L11.2633 1.18976ZM2.4 10.2208V21.6872C2.4 21.9766 2.52643 22.254 2.75147 22.4586C2.97652 22.6632 3.28174 22.7781 3.6 22.7781H20.4C20.7183 22.7781 21.0235 22.6632 21.2485 22.4586C21.4736 22.254 21.6 21.9766 21.6 21.6872V10.2208L12 3.4329L2.4 10.2208Z" fill="#012BDD"/>
<path fill-rule="evenodd" clip-rule="evenodd" d="M7.2002 12.96C7.2002 12.3576 7.73745 11.8691 8.4002 11.8691H15.6002C16.2629 11.8691 16.8002 12.3576 16.8002 12.96V23.8691C16.8002 24.4716 16.2629 24.9601 15.6002 24.9601C14.9375 24.9601 14.4002 24.4716 14.4002 23.8691V14.051H9.6002V23.8691C9.6002 24.4716 9.06294 24.9601 8.4002 24.9601C7.73745 24.9601 7.2002 24.4716 7.2002 23.8691V12.96Z" fill="#012BDD"/>
</g>
<defs>
<clipPath id="clip0_1192_2227">
<rect width="24" height="24" fill="white" transform="translate(0 0.959961)"/>
</clipPath>
</defs>
</svg>
