<svg width="25" height="25" viewBox="0 0 25 25" fill="none" xmlns="http://www.w3.org/2000/svg">
<g clip-path="url(#clip0_1003_4539)">
<path d="M18.3337 6.92891H20.7337C22.0592 6.92891 23.1337 8.00342 23.1337 9.32891V16.5289C23.1337 17.8544 22.0592 18.9289 20.7337 18.9289H18.3337V23.7289L13.5337 18.9289H8.73369C8.07095 18.9289 7.47095 18.6603 7.03664 18.226M7.03664 18.226L11.1337 14.1289H15.9337C17.2592 14.1289 18.3337 13.0544 18.3337 11.7289V4.52891C18.3337 3.20342 17.2592 2.12891 15.9337 2.12891H3.93369C2.60821 2.12891 1.53369 3.20342 1.53369 4.52891V11.7289C1.53369 13.0544 2.60821 14.1289 3.93369 14.1289H6.33369V18.9289L7.03664 18.226Z" stroke="#111827" stroke-width="2.4" stroke-linecap="round" stroke-linejoin="round"/>
</g>
<defs>
<clipPath id="clip0_1003_4539">
<rect width="24" height="24" fill="white" transform="translate(0.333496 0.928955)"/>
</clipPath>
</defs>
</svg>
