<svg width="24" height="25" viewBox="0 0 24 25" fill="none" xmlns="http://www.w3.org/2000/svg">
<g clip-path="url(#clip0_1175_132141)">
<path d="M4.23916 19.3262C6.53125 18.0306 9.1793 17.2912 12 17.2912C14.8208 17.2912 17.4688 18.0306 19.7609 19.3262M15.3847 10.5219C15.3847 12.3912 13.8693 13.9066 12 13.9066C10.1308 13.9066 8.61542 12.3912 8.61542 10.5219C8.61542 8.65268 10.1308 7.13733 12 7.13733C13.8693 7.13733 15.3847 8.65268 15.3847 10.5219ZM22.1539 12.7784C22.1539 18.3862 17.6079 22.9322 12 22.9322C6.39222 22.9322 1.84619 18.3862 1.84619 12.7784C1.84619 7.17054 6.39222 2.62451 12 2.62451C17.6079 2.62451 22.1539 7.17054 22.1539 12.7784Z" stroke="#111827" stroke-width="2.44444" stroke-linecap="round" stroke-linejoin="round"/>
</g>
<defs>
<clipPath id="clip0_1175_132141">
<rect width="24" height="24" fill="white" transform="translate(0 0.77832)"/>
</clipPath>
</defs>
</svg>
