<svg width="24" height="25" viewBox="0 0 24 25" fill="none" xmlns="http://www.w3.org/2000/svg">
<g clip-path="url(#clip0_1175_132000)">
<path fill-rule="evenodd" clip-rule="evenodd" d="M11.2633 1.00763C11.6966 0.701233 12.3034 0.701233 12.7367 1.00763L23.5367 8.64399C23.829 8.85067 24 9.16846 24 9.50511V21.5051C24 22.3731 23.6207 23.2055 22.9456 23.8193C22.2705 24.433 21.3548 24.7778 20.4 24.7778H3.6C2.64522 24.7778 1.72955 24.433 1.05442 23.8193C0.379285 23.2055 0 22.3731 0 21.5051V9.50511C0 9.16846 0.170967 8.85067 0.463271 8.64399L11.2633 1.00763ZM2.4 10.0387V21.5051C2.4 21.7944 2.52643 22.0719 2.75147 22.2765C2.97652 22.4811 3.28174 22.596 3.6 22.596H20.4C20.7183 22.596 21.0235 22.4811 21.2485 22.2765C21.4736 22.0719 21.6 21.7944 21.6 21.5051V10.0387L12 3.25077L2.4 10.0387Z" fill="#012BDD"/>
<path fill-rule="evenodd" clip-rule="evenodd" d="M7.19995 12.7779C7.19995 12.1754 7.73721 11.687 8.39995 11.687H15.6C16.2627 11.687 16.8 12.1754 16.8 12.7779V23.687C16.8 24.2894 16.2627 24.7779 15.6 24.7779C14.9372 24.7779 14.4 24.2894 14.4 23.687V13.8688H9.59995V23.687C9.59995 24.2894 9.06269 24.7779 8.39995 24.7779C7.73721 24.7779 7.19995 24.2894 7.19995 23.687V12.7779Z" fill="#012BDD"/>
</g>
<defs>
<clipPath id="clip0_1175_132000">
<rect width="24" height="24" fill="white" transform="translate(0 0.777832)"/>
</clipPath>
</defs>
</svg>
