<svg width="25" height="24" viewBox="0 0 25 24" fill="none" xmlns="http://www.w3.org/2000/svg">
<g clip-path="url(#clip0_1163_536)">
<path d="M18.3333 5.99995H20.7333C22.0588 5.99995 23.1333 7.07447 23.1333 8.39995V15.6C23.1333 16.9254 22.0588 18 20.7333 18H18.3333V22.8L13.5333 18H8.73333C8.07058 18 7.47058 17.7313 7.03627 17.297M7.03627 17.297L11.1333 13.2H15.9333C17.2588 13.2 18.3333 12.1254 18.3333 10.8V3.59995C18.3333 2.27447 17.2588 1.19995 15.9333 1.19995H3.93333C2.60784 1.19995 1.53333 2.27447 1.53333 3.59995V10.8C1.53333 12.1254 2.60784 13.2 3.93333 13.2H6.33333V18L7.03627 17.297Z" stroke="#111827" stroke-width="2.4" stroke-linecap="round" stroke-linejoin="round"/>
</g>
<defs>
<clipPath id="clip0_1163_536">
<rect width="24" height="24" fill="white" transform="translate(0.333374)"/>
</clipPath>
</defs>
</svg>
