<svg width="25" height="24" viewBox="0 0 25 24" fill="none" xmlns="http://www.w3.org/2000/svg">
<g clip-path="url(#clip0_1003_4399)">
<path d="M18.3332 5.99995H20.7332C22.0587 5.99995 23.1332 7.07447 23.1332 8.39995V15.6C23.1332 16.9254 22.0587 18 20.7332 18H18.3332V22.8L13.5332 18H8.7332C8.07046 18 7.47046 17.7313 7.03615 17.297M7.03615 17.297L11.1332 13.2H15.9332C17.2587 13.2 18.3332 12.1254 18.3332 10.8V3.59995C18.3332 2.27447 17.2587 1.19995 15.9332 1.19995H3.9332C2.60772 1.19995 1.5332 2.27447 1.5332 3.59995V10.8C1.5332 12.1254 2.60772 13.2 3.9332 13.2H6.3332V18L7.03615 17.297Z" stroke="#111827" stroke-width="2.4" stroke-linecap="round" stroke-linejoin="round"/>
</g>
<defs>
<clipPath id="clip0_1003_4399">
<rect width="24" height="24" fill="white" transform="translate(0.333008)"/>
</clipPath>
</defs>
</svg>
