<svg width="25" height="25" viewBox="0 0 25 25" fill="none" xmlns="http://www.w3.org/2000/svg">
<g clip-path="url(#clip0_1175_132012)">
<path d="M18.3332 6.77784H20.7332C22.0587 6.77784 23.1332 7.85236 23.1332 9.17784V16.3778C23.1332 17.7033 22.0587 18.7778 20.7332 18.7778H18.3332V23.5778L13.5332 18.7778H8.7332C8.07046 18.7778 7.47046 18.5092 7.03615 18.0749M7.03615 18.0749L11.1332 13.9778H15.9332C17.2587 13.9778 18.3332 12.9033 18.3332 11.5778V4.37784C18.3332 3.05236 17.2587 1.97784 15.9332 1.97784H3.9332C2.60772 1.97784 1.5332 3.05236 1.5332 4.37784V11.5778C1.5332 12.9033 2.60772 13.9778 3.9332 13.9778H6.3332V18.7778L7.03615 18.0749Z" stroke="#111827" stroke-width="2.4" stroke-linecap="round" stroke-linejoin="round"/>
</g>
<defs>
<clipPath id="clip0_1175_132012">
<rect width="24" height="24" fill="white" transform="translate(0.333252 0.777832)"/>
</clipPath>
</defs>
</svg>
