<svg width="25" height="24" viewBox="0 0 25 24" fill="none" xmlns="http://www.w3.org/2000/svg">
<path fill-rule="evenodd" clip-rule="evenodd" d="M2.33325 3C2.33325 2.44772 2.78097 2 3.33325 2H10.3333C10.8855 2 11.3333 2.44772 11.3333 3V12C11.3333 12.5523 10.8855 13 10.3333 13H3.33325C2.78097 13 2.33325 12.5523 2.33325 12V3ZM4.33325 4V11H9.33325V4H4.33325Z" fill="#111827"/>
<path fill-rule="evenodd" clip-rule="evenodd" d="M13.3333 3C13.3333 2.44772 13.781 2 14.3333 2H21.3333C21.8855 2 22.3333 2.44772 22.3333 3V8C22.3333 8.55228 21.8855 9 21.3333 9H14.3333C13.781 9 13.3333 8.55228 13.3333 8V3ZM15.3333 4V7H20.3333V4H15.3333Z" fill="#111827"/>
<path fill-rule="evenodd" clip-rule="evenodd" d="M13.3333 12C13.3333 11.4477 13.781 11 14.3333 11H21.3333C21.8855 11 22.3333 11.4477 22.3333 12V21C22.3333 21.5523 21.8855 22 21.3333 22H14.3333C13.781 22 13.3333 21.5523 13.3333 21V12ZM15.3333 13V20H20.3333V13H15.3333Z" fill="#111827"/>
<path fill-rule="evenodd" clip-rule="evenodd" d="M2.33325 16C2.33325 15.4477 2.78097 15 3.33325 15H10.3333C10.8855 15 11.3333 15.4477 11.3333 16V21C11.3333 21.5523 10.8855 22 10.3333 22H3.33325C2.78097 22 2.33325 21.5523 2.33325 21V16ZM4.33325 17V20H9.33325V17H4.33325Z" fill="#111827"/>
</svg>
