<svg width="40" height="40" viewBox="0 0 40 40" fill="none" xmlns="http://www.w3.org/2000/svg">
<rect width="40" height="40" rx="8" fill="#EEF2FF"/>
<path d="M25 17V15C25 13.8954 24.1046 13 23 13H13C11.8954 13 11 13.8954 11 15V21C11 22.1046 11.8954 23 13 23H15M17 27H27C28.1046 27 29 26.1046 29 25V19C29 17.8954 28.1046 17 27 17H17C15.8954 17 15 17.8954 15 19V25C15 26.1046 15.8954 27 17 27ZM24 22C24 23.1046 23.1046 24 22 24C20.8954 24 20 23.1046 20 22C20 20.8954 20.8954 20 22 20C23.1046 20 24 20.8954 24 22Z" stroke="#012BDD" strokeWidth="2" strokeLinecap="round" strokeLinejoin="round"/>
</svg>
