<svg width="20" height="21" viewBox="0 0 20 21" fill="none" xmlns="http://www.w3.org/2000/svg">
<path fill-rule="evenodd" clip-rule="evenodd" d="M4 4.91992C4 3.81535 4.89543 2.91992 6 2.91992H10.5858C11.1162 2.91992 11.6249 3.13064 12 3.50571L15.4142 6.91992C15.7893 7.295 16 7.8037 16 8.33414V16.9199C16 18.0245 15.1046 18.9199 14 18.9199H6C4.89543 18.9199 4 18.0245 4 16.9199V4.91992ZM6 10.9199C6 10.3676 6.44772 9.91992 7 9.91992H13C13.5523 9.91992 14 10.3676 14 10.9199C14 11.4722 13.5523 11.9199 13 11.9199H7C6.44772 11.9199 6 11.4722 6 10.9199ZM7 13.9199C6.44772 13.9199 6 14.3676 6 14.9199C6 15.4722 6.44772 15.9199 7 15.9199H13C13.5523 15.9199 14 15.4722 14 14.9199C14 14.3676 13.5523 13.9199 13 13.9199H7Z" fill="#111827"/>
</svg>
