<svg width="23" height="23" viewBox="0 0 23 23" fill="none" xmlns="http://www.w3.org/2000/svg">
<path d="M7.01314 11.3867C7.01314 12.5796 6.04613 13.5466 4.85325 13.5466C3.66038 13.5466 2.69336 12.5796 2.69336 11.3867C2.69336 10.1939 3.66038 9.22685 4.85325 9.22685C6.04613 9.22685 7.01314 10.1939 7.01314 11.3867Z" fill="#012BDD"/>
<path d="M13.4928 11.3867C13.4928 12.5796 12.5258 13.5466 11.3329 13.5466C10.1401 13.5466 9.17304 12.5796 9.17304 11.3867C9.17304 10.1939 10.1401 9.22685 11.3329 9.22685C12.5258 9.22685 13.4928 10.1939 13.4928 11.3867Z" fill="#012BDD"/>
<path d="M19.9725 11.3867C19.9725 12.5796 19.0055 13.5466 17.8126 13.5466C16.6197 13.5466 15.6527 12.5796 15.6527 11.3867C15.6527 10.1939 16.6197 9.22685 17.8126 9.22685C19.0055 9.22685 19.9725 10.1939 19.9725 11.3867Z" fill="#012BDD"/>
</svg>
