<svg width="22" height="23" viewBox="0 0 22 23" fill="none" xmlns="http://www.w3.org/2000/svg">
<path d="M6.88033 11.7193C6.88033 12.9121 5.91331 13.8792 4.72044 13.8792C3.52756 13.8792 2.56055 12.9121 2.56055 11.7193C2.56055 10.5264 3.52756 9.55937 4.72044 9.55937C5.91331 9.55937 6.88033 10.5264 6.88033 11.7193Z" fill="#111827"/>
<path d="M13.36 11.7193C13.36 12.9121 12.393 13.8792 11.2001 13.8792C10.0072 13.8792 9.04022 12.9121 9.04022 11.7193C9.04022 10.5264 10.0072 9.55937 11.2001 9.55937C12.393 9.55937 13.36 10.5264 13.36 11.7193Z" fill="#111827"/>
<path d="M19.8397 11.7193C19.8397 12.9121 18.8727 13.8791 17.6798 13.8791C16.4869 13.8791 15.5199 12.9121 15.5199 11.7193C15.5199 10.5264 16.4869 9.55937 17.6798 9.55937C18.8727 9.55937 19.8397 10.5264 19.8397 11.7193Z" fill="#111827"/>
</svg>
