<svg width="23" height="23" viewBox="0 0 23 23" fill="none" xmlns="http://www.w3.org/2000/svg">
<path d="M7.01314 11.3504C7.01314 12.5432 6.04613 13.5103 4.85325 13.5103C3.66038 13.5103 2.69336 12.5432 2.69336 11.3504C2.69336 10.1575 3.66038 9.19047 4.85325 9.19047C6.04613 9.19047 7.01314 10.1575 7.01314 11.3504Z" fill="#012BDD"/>
<path d="M13.4928 11.3504C13.4928 12.5432 12.5258 13.5103 11.3329 13.5103C10.1401 13.5103 9.17304 12.5432 9.17304 11.3504C9.17304 10.1575 10.1401 9.19047 11.3329 9.19047C12.5258 9.19047 13.4928 10.1575 13.4928 11.3504Z" fill="#012BDD"/>
<path d="M19.9725 11.3504C19.9725 12.5432 19.0055 13.5103 17.8126 13.5103C16.6197 13.5103 15.6527 12.5432 15.6527 11.3504C15.6527 10.1575 16.6197 9.19047 17.8126 9.19047C19.0055 9.19047 19.9725 10.1575 19.9725 11.3504Z" fill="#012BDD"/>
</svg>
