<svg width="23" height="22" viewBox="0 0 23 22" fill="none" xmlns="http://www.w3.org/2000/svg">
<path d="M7.01314 11.1309C7.01314 12.3238 6.04613 13.2908 4.85325 13.2908C3.66038 13.2908 2.69336 12.3238 2.69336 11.1309C2.69336 9.938 3.66038 8.97099 4.85325 8.97099C6.04613 8.97099 7.01314 9.938 7.01314 11.1309Z" fill="#012BDD"/>
<path d="M13.4928 11.1309C13.4928 12.3238 12.5258 13.2908 11.3329 13.2908C10.1401 13.2908 9.17304 12.3238 9.17304 11.1309C9.17304 9.938 10.1401 8.97099 11.3329 8.97099C12.5258 8.97099 13.4928 9.938 13.4928 11.1309Z" fill="#012BDD"/>
<path d="M19.9725 11.1309C19.9725 12.3238 19.0055 13.2908 17.8126 13.2908C16.6197 13.2908 15.6527 12.3238 15.6527 11.1309C15.6527 9.938 16.6197 8.97099 17.8126 8.97099C19.0055 8.97099 19.9725 9.938 19.9725 11.1309Z" fill="#012BDD"/>
</svg>
