<svg width="40" height="40" viewBox="0 0 40 40" fill="none" xmlns="http://www.w3.org/2000/svg">
<rect width="40" height="40" rx="8" fill="#EEF2FF"/>
<path d="M20 12.3542C20.7329 11.5238 21.8053 11 23 11C25.2091 11 27 12.7909 27 15C27 17.2091 25.2091 19 23 19C21.8053 19 20.7329 18.4762 20 17.6458M23 29H11V28C11 24.6863 13.6863 22 17 22C20.3137 22 23 24.6863 23 28V29ZM23 29H29V28C29 24.6863 26.3137 22 23 22C21.9071 22 20.8825 22.2922 20 22.8027M21 15C21 17.2091 19.2091 19 17 19C14.7909 19 13 17.2091 13 15C13 12.7909 14.7909 11 17 11C19.2091 11 21 12.7909 21 15Z" stroke="#012BDD" strokeWidth="2" strokeLinecap="round" strokeLinejoin="round"/>
</svg>
