<svg width="21" height="21" viewBox="0 0 21 21" fill="none" xmlns="http://www.w3.org/2000/svg">
<path d="M11.5 3.95996C10.9477 3.95996 10.5 4.40768 10.5 4.95996C10.5 5.51225 10.9477 5.95996 11.5 5.95996H14.0858L7.79289 12.2529C7.40237 12.6434 7.40237 13.2765 7.79289 13.6671C8.18342 14.0576 8.81658 14.0576 9.20711 13.6671L15.5 7.37417V9.95996C15.5 10.5122 15.9477 10.96 16.5 10.96C17.0523 10.96 17.5 10.5122 17.5 9.95996V4.95996C17.5 4.40768 17.0523 3.95996 16.5 3.95996H11.5Z" fill="#52606D"/>
<path d="M5.5 5.95996C4.39543 5.95996 3.5 6.85539 3.5 7.95996V15.96C3.5 17.0645 4.39543 17.96 5.5 17.96H13.5C14.6046 17.96 15.5 17.0645 15.5 15.96V12.96C15.5 12.4077 15.0523 11.96 14.5 11.96C13.9477 11.96 13.5 12.4077 13.5 12.96V15.96H5.5V7.95996L8.5 7.95996C9.05228 7.95996 9.5 7.51225 9.5 6.95996C9.5 6.40768 9.05228 5.95996 8.5 5.95996H5.5Z" fill="#52606D"/>
</svg>
