<svg width="20" height="21" viewBox="0 0 20 21" fill="none" xmlns="http://www.w3.org/2000/svg">
<path d="M11 3.95996C10.4477 3.95996 10 4.40768 10 4.95996C10 5.51225 10.4477 5.95996 11 5.95996H13.5858L7.29289 12.2529C6.90237 12.6434 6.90237 13.2765 7.29289 13.6671C7.68342 14.0576 8.31658 14.0576 8.70711 13.6671L15 7.37417V9.95996C15 10.5122 15.4477 10.96 16 10.96C16.5523 10.96 17 10.5122 17 9.95996V4.95996C17 4.40768 16.5523 3.95996 16 3.95996H11Z" fill="#52606D"/>
<path d="M5 5.95996C3.89543 5.95996 3 6.85539 3 7.95996V15.96C3 17.0645 3.89543 17.96 5 17.96H13C14.1046 17.96 15 17.0645 15 15.96V12.96C15 12.4077 14.5523 11.96 14 11.96C13.4477 11.96 13 12.4077 13 12.96V15.96H5V7.95996L8 7.95996C8.55228 7.95996 9 7.51225 9 6.95996C9 6.40768 8.55228 5.95996 8 5.95996H5Z" fill="#52606D"/>
</svg>
