<?xml version="1.0" encoding="utf-8"?>
<!-- Generator: Adobe Illustrator 25.0.1, SVG Export Plug-In . SVG Version: 6.00 Build 0)  -->
<svg version="1.1" id="a3c260f6-351b-4702-b8f3-0a883cbe09b8"
	 xmlns="http://www.w3.org/2000/svg" xmlns:xlink="http://www.w3.org/1999/xlink" x="0px" y="0px" viewBox="0 0 329 68"
	 style="enable-background:new 0 0 329 68;" xml:space="preserve">
<style type="text/css">
	.st0{fill-rule:evenodd;clip-rule:evenodd;fill:#1D1D1B;}
</style>
<g id="b1aa5abb-092b-4674-a907-36244a035cb3">
	<path id="a304a9a1-adfc-477d-9233-fbc4749af052" class="st0" d="M16.8,51V17h5.6v-5.6h-5.6v-0.6c0-1.4,0.5-2.7,1.5-3.6
		c0.9-1,2.2-1.5,3.6-1.5H28V0H16.3c-2.8,0-5.6,1.1-7.5,3.2c-2.1,2-3.2,4.7-3.2,7.6v0.6H0V17h5.6v34H16.8z M56.7,51
		c6.7,0,10.4-3.8,11.3-11.5h-5.6c0,3.8-1.9,5.8-5.7,5.8H51c-1.5,0-3-0.6-4-1.7c-1.1-1.1-1.7-2.5-1.7-4l0,0v-5.7H68V22.4
		c0-3-1.2-5.9-3.3-8c-2.1-2.2-5-3.4-8-3.4H45.4c-3,0-5.9,1.2-8,3.4c-2.2,2.1-3.4,5-3.4,8l0,0v17.2c0,6.3,5.1,11.4,11.4,11.5H56.7z
		 M56,28H45v-5.5c0-3,2.5-5.5,5.5-5.5c1.5,0,2.9,0.6,3.9,1.6c1,1,1.6,2.4,1.6,3.9l0,0V28z M96,51c3.3,0,5.3-1.9,5.7-5.6l0,0V51H113
		V0h-11.3v11.4H90.4c-3,0-5.9,1.2-8,3.3c-2.2,2.1-3.4,5-3.4,8l0,0v17C79.1,45.9,84.1,51,90.4,51H96z M96.5,45
		c-1.5,0-2.9-0.6-3.9-1.7c-1.1-1.1-1.6-2.5-1.6-4l0,0V22.6c0-1.5,0.6-2.9,1.6-3.9c1-1.1,2.4-1.7,3.9-1.6h5.5v22.4
		c0,1.5-0.6,2.9-1.6,4C99.4,44.4,97.9,45,96.5,45z M147.7,51c6.7,0,10.4-3.8,11.3-11.5h-5.6c0,3.8-1.9,5.8-5.6,5.8H142
		c-1.5,0-3-0.6-4-1.7c-1.1-1.1-1.7-2.5-1.7-4l0,0v-5.7H159V22.4c0-3-1.2-5.9-3.3-8c-2.1-2.2-5-3.4-8-3.4h-11.3c-3,0-5.9,1.2-8,3.4
		c-2.2,2.1-3.4,5-3.4,8l0,0v17.2c0,6.3,5.1,11.4,11.4,11.5H147.7z M147,28h-11v-5.5c0-3,2.5-5.5,5.5-5.5c1.5,0,2.9,0.6,3.9,1.6
		c1,1,1.6,2.4,1.6,3.9l0,0V28z M181.2,51V28.1c0-1.5,0.6-3,1.6-4.1c1-1.1,2.4-1.7,3.9-1.7H198V11h-5.6c-3.3,0-5.9,0.9-7.8,2.9
		s-3,4.7-3.5,8.5l0,0V11H170v40H181.2z M221,51c3.4,0,5.3-1.9,5.7-5.7V51H238V22.4c0-3-1.2-5.9-3.3-8c-2.1-2.2-5-3.4-8-3.4h-11.3
		c-6.7,0-10.5,3.8-11.4,11.4h5.7c0.4-3.8,2.3-5.7,5.6-5.7h5.6c3.1,0,5.7,2.6,5.7,5.7v5.8h-11.4c-6.2,0.1-11.3,5.1-11.4,11.4
		c0,6.3,5.1,11.4,11.4,11.5H221z M221.5,45c-1.5,0-2.9-0.6-3.9-1.7c-1-1-1.6-2.4-1.6-3.9c0-3,2.5-5.5,5.5-5.5h5.5v5.5
		c0,1.5-0.6,2.9-1.6,3.9C224.4,44.4,222.9,45,221.5,45z M272.7,68c3,0,5.9-1.2,8-3.4c2.1-2.1,3.4-5,3.3-8l0,0V11h-22.7
		c-3,0-5.9,1.2-8,3.4c-2.2,2.1-3.4,5-3.4,8l0,0v17.1c0,6.3,5.1,11.4,11.4,11.4h5.7c3.4,0,5.3-1.9,5.7-5.7l0,0v11.4
		c0,3.1-2.5,5.7-5.6,5.7c0,0,0,0-0.1,0h-5.6c-3.5,0-5.4-1.9-5.6-5.8H250c0.9,7.6,4.7,11.4,11.4,11.4H272.7z M266.5,45
		c-1.5,0-2.9-0.6-3.9-1.7c-1.1-1.1-1.6-2.5-1.6-4l0,0V22.6c0-1.5,0.6-2.9,1.6-3.9c1-1.1,2.4-1.7,3.9-1.6h5.5v22.4
		c0,1.5-0.6,2.9-1.6,4C269.4,44.4,267.9,45,266.5,45z M317.7,51c6.7,0,10.4-3.8,11.3-11.5h-5.6c0,3.8-1.9,5.8-5.6,5.8H312
		c-1.5,0-3-0.6-4-1.7c-1.1-1.1-1.7-2.5-1.7-4l0,0v-5.7H329V22.4c0-3-1.2-5.9-3.3-8c-2.1-2.2-5-3.4-8-3.4h-11.3c-3,0-5.9,1.2-8,3.4
		c-2.2,2.1-3.4,5-3.4,8l0,0v17.2c0,6.3,5.1,11.4,11.4,11.5H317.7z M317,28h-11v-5.5c0-3,2.5-5.5,5.5-5.5c1.5,0,2.9,0.6,3.9,1.6
		c1,1,1.6,2.4,1.6,3.9l0,0V28z"/>
</g>
</svg>
