<svg width="58" height="161" viewBox="0 0 58 161" fill="none" xmlns="http://www.w3.org/2000/svg">
<path d="M13.0489 154.204L9.06702 153.266L11.2706 143.705L15.2473 144.643L13.0489 154.204Z" fill="#B55B52"/>
<path d="M43.5987 156.676H39.4404L38.9479 147.038H43.1113L43.5987 156.676Z" fill="#B55B52"/>
<path d="M38.7554 156.195H43.8313C43.9137 156.196 43.9936 156.224 44.0576 156.276C44.1217 156.328 44.1662 156.4 44.1839 156.48L45.0135 160.182C45.0322 160.272 45.0304 160.365 45.0081 160.455C44.9859 160.544 44.9438 160.627 44.885 160.698C44.8262 160.769 44.7522 160.825 44.6685 160.863C44.5849 160.902 44.4936 160.92 44.4017 160.918C42.7736 160.893 41.5811 160.794 39.5228 160.794C38.2577 160.794 35.4786 160.929 33.7313 160.929C31.984 160.929 31.7559 159.202 32.4714 159.042C35.6756 158.342 37.06 157.377 38.0866 156.449C38.2723 156.288 38.5094 156.198 38.7554 156.195Z" fill="#263238"/>
<path d="M8.88159 152.778L13.3094 153.815C13.3894 153.835 13.4604 153.881 13.5112 153.945C13.5619 154.01 13.5895 154.09 13.5894 154.173L13.5479 157.963C13.5475 158.055 13.5262 158.145 13.4857 158.227C13.4452 158.31 13.3866 158.382 13.3142 158.438C13.2418 158.495 13.1576 158.534 13.0679 158.553C12.9781 158.572 12.8852 158.571 12.7961 158.549C11.2044 158.149 8.91789 157.512 6.91137 157.045C4.56783 156.501 4.52116 156.589 1.76803 155.946C0.103704 155.557 0.0363056 153.768 0.767364 153.779C4.1012 153.825 4.69745 153.919 7.83427 152.871C8.16768 152.742 8.53065 152.71 8.88159 152.778Z" fill="#263238"/>
<path d="M30.3129 28.4469C28.4256 30.9926 26.6472 33.5539 24.9259 36.193C24.0652 37.5151 23.2149 38.8425 22.4009 40.1957C21.5868 41.5489 20.7676 42.9177 20.0003 44.3435L19.7099 44.862L19.5648 45.1264L19.3418 45.5723C19.1535 45.9768 19.0176 46.4037 18.9374 46.8426C18.8129 47.5208 18.8683 48.2198 19.0981 48.8699C19.356 49.5633 19.8145 50.1643 20.4151 50.5964C20.8056 50.8797 21.24 51.0968 21.7009 51.2393L25.6051 46.2878C27.0568 44.0895 28.576 41.8963 30.1158 39.7083L35.4199 32.154L30.3129 28.4469Z" fill="#B65B52"/>
<path opacity="0.2" d="M11.2745 143.705L10.139 148.636L14.121 149.574L15.2564 144.648L11.2745 143.705Z" fill="black"/>
<path d="M38.1304 29.3496C39.2607 33.1657 32.5774 40.4814 32.5774 40.4814L24.4891 35.3329C25.9457 32.925 27.5455 30.6067 29.2799 28.3904C32.6967 23.9522 36.7616 24.73 38.1304 29.3496Z" fill="#012BDD"/>
<path opacity="0.2" d="M43.1113 147.044H38.9479L39.2019 152.011H43.3653L43.1113 147.044Z" fill="black"/>
<path d="M55.1296 30.8013C50.2506 45.6351 49.8307 61.0599 49.3381 64.2848C46.0924 63.9426 33.8718 62.6257 27.2093 61.905C25.4465 42.2546 30.3928 30.231 32.1608 26.6483C32.3322 26.2988 32.5915 25.9998 32.9133 25.7807C33.235 25.5617 33.6082 25.43 33.9963 25.3988C34.5718 25.3521 35.3184 25.3054 36.1583 25.2795C36.7701 25.2795 37.4286 25.2484 38.113 25.2795C38.4915 25.2795 38.8752 25.2795 39.264 25.321C42.4155 25.5874 45.5489 26.0358 48.6485 26.6639C49.2344 26.7779 49.8307 26.9075 50.401 27.0423C50.9713 27.1772 51.438 27.3068 51.9564 27.4416C52.5734 27.6127 53.1593 27.7838 53.6726 27.9601C53.9554 28.0501 54.2176 28.1952 54.4441 28.387C54.6706 28.5787 54.8569 28.8134 54.9924 29.0775C55.1278 29.3416 55.2096 29.6299 55.2332 29.9257C55.2567 30.2216 55.2215 30.5191 55.1296 30.8013Z" fill="#012BDD"/>
<path d="M37.9481 25.2694H38.1089C38.4874 25.2694 38.871 25.2694 39.2599 25.3057C42.4113 25.5798 45.5446 26.0334 48.6444 26.6641C49.0955 26.7523 49.5466 26.8508 49.9925 26.9545L49.2614 27.473C47.1045 29.0751 44.5951 30.5216 41.1005 30.2779L40.6494 30.2416C38.8607 30.0446 37.7511 29.381 37.3467 28.2559C37.205 27.7459 37.1856 27.2096 37.2901 26.6907C37.3946 26.1718 37.6201 25.6848 37.9481 25.2694Z" fill="#407BFF"/>
<path d="M49.2249 15.9825C48.188 18.912 46.8036 24.3456 48.6235 26.6633C46.7466 28.0528 44.3357 29.6238 40.7374 29.2297C37.1391 28.8357 38.145 26.4662 39.2597 25.3048C42.7335 24.9886 43.0083 22.4843 42.7647 20.0578L49.2249 15.9825Z" fill="#B55B52"/>
<path opacity="0.2" d="M46.5681 17.6473L42.7417 20.053C42.8087 20.6191 42.8243 21.19 42.7884 21.7588C44.1001 21.7588 46.0703 20.6078 46.4177 19.2805C46.5639 18.7492 46.6148 18.1963 46.5681 17.6473Z" fill="black"/>
<path d="M42.5953 11.5397L44.1248 11.7471C46.0847 11.7004 49.6985 7.75477 48.4023 4.34316C44.0211 3.58618 39.4326 5.74825 42.5953 11.5397Z" fill="#263238"/>
<path d="M52.1525 13.6744C50.0112 17.2001 48.9327 19.3777 46.107 20.2799C41.8503 21.6331 38.2261 17.5941 39.2734 13.493C40.2171 9.80656 43.5665 4.67878 47.901 5.08319C48.8576 5.17242 49.7755 5.50494 50.5673 6.04913C51.3591 6.59331 51.9985 7.33106 52.4246 8.19217C52.8508 9.05327 53.0495 10.0091 53.0018 10.9687C52.9542 11.9283 52.6618 12.8597 52.1525 13.6744Z" fill="#B55B52"/>
<path d="M54.6402 8.48645L53.0847 8.52274C51.1612 8.88568 48.2214 13.355 50.0516 16.5177C54.4379 17.2695 59.7939 13.1839 54.6402 8.48645Z" fill="#263238"/>
<path d="M51.9716 9.96303C48 9.12309 44.1425 4.56046 44.3395 1.73473C44.5469 -1.25172 48.7414 0.324467 49.5243 1.2681C49.3999 -0.380667 50.5613 0.00819194 51.3546 1.01923C52.1478 2.03027 53.1381 5.68556 56.1298 8.32981C58.1311 10.0978 56.5186 10.9274 51.9716 9.96303Z" fill="#263238"/>
<path d="M55.5851 9.92761C55.5851 9.92761 57.239 10.5913 57.6279 10.0572C57.9338 11.2031 56.7361 11.0631 55.5851 9.92761Z" fill="#263238"/>
<path d="M51.6838 18.5593C51.2381 18.8179 50.7458 18.9858 50.2351 19.0534C49.7243 19.1211 49.2052 19.0871 48.7077 18.9534C47.3804 18.5905 47.427 17.232 48.3862 16.361C49.2469 15.5625 50.9786 14.8055 52.0156 15.6351C53.0526 16.4647 52.7933 17.9164 51.6838 18.5593Z" fill="#B55B52"/>
<path d="M27.6914 106.364C30.3305 97.4982 41.7527 63.4806 41.7527 63.4806L27.2041 61.9252C27.2041 61.9252 18.9084 92.3082 16.8344 104.835C14.6413 117.859 8.74097 146.469 8.74097 146.469L15.8545 148.429C15.8545 148.429 25.0472 115.22 27.6914 106.364Z" fill="#407BFF"/>
<path opacity="0.2" d="M36.3312 71.89C32.7381 77.4792 30.8871 89.7568 30.7627 96.6474C33.1218 89.3887 36.186 80.1545 38.4725 73.2795C37.7931 72.7653 37.0775 72.3009 36.3312 71.89Z" fill="black"/>
<path d="M35.0537 62.7501C35.0537 62.7501 33.8664 96.9232 34.3434 109.108C34.8618 122.453 37.2883 151.053 37.2883 151.053H44.91C44.91 151.053 44.1997 122.562 44.8167 109.574C45.5218 94.7612 49.3326 64.3056 49.3326 64.3056L35.0537 62.7501Z" fill="#407BFF"/>
<path d="M36.6626 151.213H45.6375V148.533L36.2063 148.102L36.6626 151.213Z" fill="#407BFF"/>
<path opacity="0.5" d="M36.6626 151.213H45.6375V148.533L36.2063 148.102L36.6626 151.213Z" fill="white"/>
<path d="M7.91614 147.299L16.0926 149.212L16.7096 146.568L8.40351 144.178L7.91614 147.299Z" fill="#407BFF"/>
<path opacity="0.5" d="M7.91614 147.299L16.0926 149.212L16.7096 146.568L8.40351 144.178L7.91614 147.299Z" fill="white"/>
<path d="M46.0867 11.7778C45.9312 12.0785 45.646 12.234 45.449 12.1303C45.252 12.0266 45.226 11.7052 45.3816 11.4096C45.5371 11.1141 45.8223 10.9534 46.0193 11.0571C46.2163 11.1608 46.2423 11.4822 46.0867 11.7778Z" fill="#263238"/>
<path d="M42.7229 10.0093C42.5674 10.31 42.2822 10.4655 42.0904 10.3618C41.8985 10.2581 41.8623 9.93667 42.023 9.64114C42.1837 9.34561 42.4637 9.18488 42.6555 9.28857C42.8474 9.39227 42.8785 9.71373 42.7229 10.0093Z" fill="#263238"/>
<path d="M43.7118 10.7205C42.8793 11.4426 41.9511 12.0463 40.9535 12.5144C41.0804 12.7661 41.2607 12.9869 41.482 13.1616C41.7032 13.3362 41.9599 13.4604 42.2341 13.5254L43.7118 10.7205Z" fill="#A02724"/>
<path d="M43.0729 14.9829C43.4247 15.1166 43.7999 15.1777 44.1759 15.1625C44.5519 15.1474 44.921 15.0563 45.2609 14.8948C45.2725 14.8886 45.2827 14.8803 45.2911 14.8702C45.2994 14.8601 45.3057 14.8485 45.3096 14.836C45.3134 14.8234 45.3148 14.8103 45.3135 14.7973C45.3123 14.7842 45.3085 14.7715 45.3024 14.76C45.2963 14.7484 45.2879 14.7381 45.2778 14.7298C45.2677 14.7214 45.2561 14.7152 45.2436 14.7113C45.2311 14.7075 45.2179 14.7061 45.2049 14.7073C45.1918 14.7086 45.1792 14.7124 45.1676 14.7185C44.7877 14.8932 44.3721 14.9762 43.9542 14.9609C43.5364 14.9456 43.1279 14.8324 42.7618 14.6304C42.739 14.6193 42.7129 14.6174 42.6887 14.6251C42.6646 14.6328 42.6443 14.6496 42.6322 14.6718C42.6252 14.6828 42.6206 14.6951 42.6189 14.708C42.6172 14.7209 42.6184 14.734 42.6224 14.7464C42.6263 14.7588 42.633 14.7702 42.6419 14.7797C42.6507 14.7892 42.6616 14.7966 42.6737 14.8014C42.8022 14.8716 42.9356 14.9323 43.0729 14.9829Z" fill="#263238"/>
<path d="M48.4174 10.3684C48.4515 10.3763 48.487 10.3763 48.5211 10.3684C48.5721 10.3583 48.6172 10.329 48.6471 10.2865C48.677 10.244 48.6895 10.1917 48.6818 10.1403C48.6385 9.83072 48.5218 9.53602 48.3414 9.28077C48.161 9.02552 47.9222 8.81712 47.6449 8.67295C47.621 8.66268 47.5954 8.65722 47.5695 8.65688C47.5435 8.65653 47.5178 8.66132 47.4937 8.67095C47.4696 8.68059 47.4477 8.69488 47.4291 8.71302C47.4106 8.73116 47.3958 8.75278 47.3856 8.77665C47.3659 8.82427 47.3651 8.87763 47.3834 8.92582C47.4017 8.974 47.4378 9.01337 47.4841 9.03589C47.7035 9.15209 47.8918 9.31908 48.0334 9.52293C48.175 9.72678 48.2658 9.96156 48.2981 10.2077C48.3007 10.243 48.3133 10.2769 48.3344 10.3054C48.3555 10.3338 48.3843 10.3557 48.4174 10.3684Z" fill="#263238"/>
<path d="M43.8242 7.92564C43.7997 7.90433 43.7701 7.88978 43.7383 7.88342C43.7065 7.87705 43.6735 7.8791 43.6427 7.88934C43.4069 7.96516 43.1563 7.98355 42.9119 7.94296C42.6675 7.90238 42.4363 7.80401 42.2376 7.65603C42.2 7.61991 42.1498 7.59973 42.0977 7.59973C42.0455 7.59973 41.9953 7.61991 41.9577 7.65603C41.9219 7.69281 41.9019 7.74211 41.9019 7.79343C41.9019 7.84475 41.9219 7.89404 41.9577 7.93082C42.2069 8.1206 42.4979 8.24789 42.8064 8.30202C43.115 8.35614 43.432 8.33553 43.7309 8.24191C43.7811 8.22745 43.8234 8.19366 43.8487 8.14797C43.874 8.10227 43.8801 8.04842 43.8657 7.99822C43.8577 7.97113 43.8435 7.94628 43.8242 7.92564Z" fill="#263238"/>
<path d="M37.3834 156.927C37.7508 156.916 38.1159 156.866 38.4723 156.776C38.4912 156.771 38.5083 156.761 38.5212 156.746C38.5342 156.731 38.5424 156.713 38.5448 156.693C38.5488 156.675 38.547 156.655 38.5396 156.638C38.5322 156.62 38.5195 156.605 38.5034 156.595C38.3478 156.502 37.005 155.677 36.5487 155.91C36.4977 155.937 36.4548 155.978 36.4247 156.027C36.3946 156.076 36.3783 156.133 36.3776 156.19C36.3675 156.287 36.3806 156.384 36.4157 156.474C36.4509 156.564 36.5072 156.645 36.5798 156.709C36.8163 156.868 37.0989 156.945 37.3834 156.927ZM38.1871 156.636C37.4819 156.776 36.9376 156.75 36.7094 156.559C36.6592 156.516 36.6206 156.461 36.597 156.399C36.5735 156.338 36.5658 156.271 36.5746 156.206C36.5731 156.182 36.5781 156.159 36.589 156.138C36.6 156.117 36.6165 156.099 36.6368 156.087C36.8753 155.962 37.6427 156.32 38.1871 156.657V156.636Z" fill="#407BFF"/>
<path d="M38.4491 156.776C38.4661 156.781 38.484 156.781 38.501 156.776C38.5155 156.767 38.5274 156.754 38.5356 156.738C38.5437 156.723 38.5479 156.706 38.5476 156.688C38.5476 156.636 38.4439 155.434 37.9566 155.04C37.8999 154.989 37.8329 154.952 37.7604 154.931C37.6878 154.909 37.6114 154.904 37.5366 154.915C37.4633 154.915 37.3923 154.94 37.3355 154.986C37.2788 155.033 37.2399 155.097 37.2255 155.169C37.1374 155.636 37.9669 156.548 38.4024 156.782L38.4491 156.776ZM37.6092 155.102C37.6921 155.101 37.7719 155.133 37.8321 155.19C38.1345 155.56 38.3155 156.015 38.3506 156.491C37.9203 156.165 37.3914 155.454 37.4432 155.205C37.4432 155.18 37.4432 155.117 37.5884 155.102H37.6351H37.6092Z" fill="#407BFF"/>
<path d="M8.35417 153.246C8.37224 153.244 8.38942 153.237 8.40398 153.226C8.41854 153.215 8.42998 153.2 8.43713 153.184C8.44377 153.164 8.44434 153.144 8.43877 153.124C8.43321 153.105 8.42177 153.087 8.40602 153.075C8.24529 152.935 6.80909 151.727 6.25431 151.887C6.202 151.901 6.15429 151.929 6.11604 151.967C6.07778 152.005 6.05036 152.053 6.03656 152.105C6.00338 152.19 5.99215 152.282 6.00393 152.373C6.01571 152.464 6.05012 152.55 6.10396 152.624C6.45653 153.142 7.6594 153.235 8.33861 153.256L8.35417 153.246ZM6.34765 152.069C6.67429 152.038 7.48311 152.587 8.05344 153.033C7.12017 152.976 6.4669 152.779 6.26469 152.515C6.23085 152.467 6.20933 152.412 6.2021 152.354C6.19486 152.296 6.20211 152.237 6.2232 152.183C6.22737 152.162 6.23736 152.143 6.25203 152.127C6.2667 152.111 6.28546 152.1 6.30616 152.095L6.34765 152.069Z" fill="#407BFF"/>
<path d="M8.35286 153.245C8.36844 153.237 8.38213 153.226 8.39291 153.213C8.40368 153.199 8.41126 153.184 8.41508 153.167C8.41508 153.12 8.56543 152 8.15064 151.456C8.0891 151.375 8.01112 151.307 7.92178 151.258C7.83245 151.209 7.73377 151.179 7.63216 151.171C7.36255 151.134 7.25886 151.248 7.21219 151.352C7.03073 151.793 7.79808 152.908 8.24916 153.229C8.2629 153.242 8.28013 153.25 8.29862 153.253C8.31711 153.256 8.33601 153.253 8.35286 153.245ZM7.55439 151.357H7.6581C7.73009 151.365 7.79957 151.389 7.86208 151.425C7.9246 151.462 7.97874 151.511 8.02102 151.57C8.24011 151.994 8.32337 152.476 8.25952 152.949C7.83437 152.529 7.33664 151.689 7.44552 151.425C7.4507 151.404 7.46625 151.363 7.55439 151.357Z" fill="#407BFF"/>
<path d="M56.3023 34.3323C55.8927 35.11 55.5038 35.7633 55.0786 36.4529C54.6535 37.1425 54.2491 37.8061 53.798 38.4594C52.9166 39.7763 51.9781 41.0518 51.0034 42.3117C50.0286 43.5716 49.002 44.7797 47.8925 45.9411L47.4725 46.4025C47.1742 46.7379 46.8344 47.0341 46.4615 47.2839C46.1888 47.4592 45.8964 47.6019 45.5904 47.7091C45.2093 47.8453 44.8078 47.9154 44.4031 47.9165C43.6441 47.9182 42.9025 47.6885 42.2773 47.258C41.892 46.9935 41.5508 46.6697 41.2663 46.2988C41.063 46.0428 40.8809 45.7705 40.7219 45.4848C40.4734 45.0329 40.2585 44.5632 40.079 44.0797C39.5195 42.4878 39.1082 40.8476 38.8502 39.1801C38.5754 37.6246 38.3836 36.0433 38.2332 34.4826C37.9273 31.3718 37.7821 28.2868 37.7821 25.15L40.893 24.8804C41.453 27.8461 42.044 30.8429 42.6869 33.7671C43.0136 35.2344 43.3558 36.6862 43.7239 38.0965C44.0663 39.4287 44.5118 40.7323 45.0564 41.9954C45.1602 42.2233 45.2833 42.4419 45.4245 42.6487C45.4764 42.7213 45.523 42.7732 45.5386 42.7732C45.5541 42.7732 45.5386 42.7265 45.3571 42.5969C45.0488 42.3952 44.6886 42.2872 44.3202 42.2858C43.9732 42.2831 43.6323 42.3764 43.335 42.5554C43.1847 42.6487 43.1639 42.685 43.1639 42.6643L43.4802 42.2495C44.3513 41.0725 45.2171 39.88 46.0363 38.6564C46.8555 37.4328 47.6747 36.2092 48.468 34.97L49.645 33.1035L50.7597 31.2681L56.3023 34.3323Z" fill="#B65B52"/>
<path d="M21.6882 51.2395C22.2793 51.4171 22.8912 51.5165 23.5081 51.535C24.4341 51.5655 25.361 51.51 26.2768 51.3691C27.1323 51.2447 27.9463 51.0839 28.7499 50.9077C31.878 50.1734 34.9405 49.1832 37.9063 47.9471L37.2323 44.9607C35.7287 45.1888 33.9918 45.4273 32.483 45.6295C30.9742 45.8317 29.4706 46.0391 27.9982 46.148C27.2619 46.2154 26.536 46.2673 25.8361 46.2776H25.5924" fill="#B65B52"/>
<path d="M36.3418 45.0903L39.6756 44.3852L40.3963 49.3315C40.3963 49.3315 36.6944 49.9018 35.5641 47.0917L36.3418 45.0903Z" fill="#B55B52"/>
<path d="M43.4379 45.9199L42.8002 48.953L40.3997 49.3211L39.679 44.3852L43.4379 45.9199Z" fill="#B55B52"/>
<path d="M56.9936 31.0758C58.7876 34.6274 53.525 43.0008 53.525 43.0008L44.6434 39.3715C45.6494 36.7484 46.8111 34.1877 48.1224 31.7031C50.6785 26.7413 54.816 26.7776 56.9936 31.0758Z" fill="#012BDD"/>
<path d="M41.3242 25.8959L41.6353 21.6806L36.7201 22.5672C36.7201 22.5672 36.9016 26.4351 38.9392 26.741L41.3242 25.8959Z" fill="#B55B52"/>
<path d="M40.1975 17.7189L36.0186 19.2485L36.7237 22.5667L41.6337 21.6801L40.1975 17.7189Z" fill="#B55B52"/>
</svg>
