<svg width="18" height="18" viewBox="0 0 18 18" fill="none" xmlns="http://www.w3.org/2000/svg">
<path fill-rule="evenodd" clip-rule="evenodd" d="M3.67471 8.09999H5.42581C5.5061 6.70823 5.7711 5.42615 6.17984 4.39404C4.87581 5.1942 3.93767 6.53262 3.67471 8.09999ZM9.00005 1.79999C5.0236 1.79999 1.80005 5.02354 1.80005 8.99999C1.80005 12.9764 5.0236 16.2 9.00005 16.2C12.9765 16.2 16.2 12.9764 16.2 8.99999C16.2 5.02354 12.9765 1.79999 9.00005 1.79999ZM9.00005 3.59999C8.9316 3.59999 8.79113 3.62854 8.58128 3.83565C8.36756 4.04657 8.13381 4.3964 7.91809 4.89974C7.56827 5.71598 7.31246 6.82701 7.22918 8.09999H10.7709C10.6876 6.82701 10.4318 5.71598 10.082 4.89974C9.86629 4.3964 9.63254 4.04657 9.41882 3.83565C9.20897 3.62854 9.06849 3.59999 9.00005 3.59999ZM12.5743 8.09999C12.494 6.70823 12.229 5.42615 11.8203 4.39404C13.1243 5.1942 14.0624 6.53262 14.3254 8.09999H12.5743ZM10.7709 9.89999H7.22918C7.31246 11.173 7.56827 12.284 7.91809 13.1002C8.13381 13.6036 8.36756 13.9534 8.58128 14.1643C8.79113 14.3714 8.9316 14.4 9.00005 14.4C9.06849 14.4 9.20897 14.3714 9.41882 14.1643C9.63254 13.9534 9.86629 13.6036 10.082 13.1002C10.4318 12.284 10.6876 11.173 10.7709 9.89999ZM11.8203 13.6059C12.229 12.5738 12.494 11.2917 12.5743 9.89999H14.3254C14.0624 11.4674 13.1243 12.8058 11.8203 13.6059ZM6.17985 13.6059C5.7711 12.5738 5.5061 11.2917 5.42581 9.89999H3.67471C3.93767 11.4674 4.87581 12.8058 6.17985 13.6059Z" fill="#52606D"/>
</svg>
