<svg width="18" height="18" viewBox="0 0 18 18" fill="none" xmlns="http://www.w3.org/2000/svg">
<path fill-rule="evenodd" clip-rule="evenodd" d="M3.67465 8.09999H5.42575C5.50604 6.70823 5.77104 5.42615 6.17978 4.39404C4.87575 5.1942 3.9376 6.53262 3.67465 8.09999ZM8.99999 1.79999C5.02354 1.79999 1.79999 5.02354 1.79999 8.99999C1.79999 12.9764 5.02354 16.2 8.99999 16.2C12.9764 16.2 16.2 12.9764 16.2 8.99999C16.2 5.02354 12.9764 1.79999 8.99999 1.79999ZM8.99999 3.59999C8.93154 3.59999 8.79107 3.62854 8.58122 3.83565C8.3675 4.04657 8.13375 4.3964 7.91803 4.89974C7.56821 5.71598 7.3124 6.82701 7.22912 8.09999H10.7709C10.6876 6.82701 10.4318 5.71598 10.0819 4.89974C9.86623 4.3964 9.63248 4.04657 9.41876 3.83565C9.20891 3.62854 9.06843 3.59999 8.99999 3.59999ZM12.5742 8.09999C12.4939 6.70823 12.2289 5.42615 11.8202 4.39404C13.1242 5.1942 14.0624 6.53262 14.3253 8.09999H12.5742ZM10.7709 9.89999H7.22912C7.3124 11.173 7.56821 12.284 7.91803 13.1002C8.13375 13.6036 8.3675 13.9534 8.58122 14.1643C8.79107 14.3714 8.93154 14.4 8.99999 14.4C9.06843 14.4 9.20891 14.3714 9.41876 14.1643C9.63248 13.9534 9.86623 13.6036 10.0819 13.1002C10.4318 12.284 10.6876 11.173 10.7709 9.89999ZM11.8202 13.6059C12.2289 12.5738 12.4939 11.2917 12.5742 9.89999H14.3253C14.0624 11.4674 13.1242 12.8058 11.8202 13.6059ZM6.17979 13.6059C5.77104 12.5738 5.50604 11.2917 5.42575 9.89999H3.67465C3.93761 11.4674 4.87575 12.8058 6.17979 13.6059Z" fill="#52606D"/>
</svg>
