<svg width="68" height="13" viewBox="0 0 68 13" fill="none" xmlns="http://www.w3.org/2000/svg">
<rect opacity="0.35" x="43.5026" y="1.33472" width="21" height="10.3333" rx="2.16667" stroke="black"/>
<path opacity="0.4" d="M66.0027 4.50146V8.50146C66.8074 8.16269 67.3307 7.3746 67.3307 6.50146C67.3307 5.62833 66.8074 4.84024 66.0027 4.50146Z" fill="black"/>
<rect x="45.0026" y="2.83472" width="18" height="7.33333" rx="1.33333" fill="black"/>
<path fill-rule="evenodd" clip-rule="evenodd" d="M30.3364 3.11651C32.5611 3.11661 34.7008 3.97072 36.3131 5.50231C36.4345 5.62055 36.6286 5.61906 36.7482 5.49897L37.9088 4.32864C37.9694 4.26772 38.0031 4.18521 38.0026 4.09936C38.0021 4.01351 37.9674 3.93141 37.9061 3.8712C33.6742 -0.181026 26.9979 -0.181026 22.766 3.8712C22.7047 3.93136 22.6699 4.01345 22.6693 4.09929C22.6688 4.18514 22.7025 4.26768 22.763 4.32864L23.9239 5.49897C24.0434 5.61924 24.2376 5.62074 24.359 5.50231C25.9715 3.97062 28.1114 3.1165 30.3364 3.11651ZM30.3364 6.92409C31.5587 6.92402 32.7375 7.37797 33.6435 8.19775C33.7661 8.31409 33.9591 8.31157 34.0786 8.19206L35.2379 7.02173C35.2989 6.96034 35.3328 6.87707 35.3319 6.79053C35.331 6.704 35.2955 6.62142 35.2332 6.56129C32.474 3.99688 28.2011 3.99688 25.4419 6.56129C25.3796 6.62142 25.344 6.70404 25.3432 6.7906C25.3424 6.87716 25.3764 6.96043 25.4376 7.02173L26.5965 8.19206C26.716 8.31157 26.909 8.31409 27.0316 8.19775C27.9371 7.37851 29.1148 6.9246 30.3364 6.92409ZM32.6586 9.48593C32.6604 9.57271 32.6262 9.65637 32.5642 9.71717L30.5589 11.7392C30.5001 11.7986 30.42 11.832 30.3364 11.832C30.2528 11.832 30.1726 11.7986 30.1138 11.7392L28.1082 9.71717C28.0462 9.65633 28.0122 9.57264 28.014 9.48586C28.0158 9.39908 28.0534 9.3169 28.1179 9.25873C29.3986 8.17646 31.2742 8.17646 32.5549 9.25873C32.6193 9.31695 32.6568 9.39915 32.6586 9.48593Z" fill="black"/>
<path fill-rule="evenodd" clip-rule="evenodd" d="M16.6693 1.16797H15.6693C15.117 1.16797 14.6693 1.61568 14.6693 2.16797V10.8346C14.6693 11.3869 15.117 11.8346 15.6693 11.8346H16.6693C17.2216 11.8346 17.6693 11.3869 17.6693 10.8346V2.16797C17.6693 1.61568 17.2216 1.16797 16.6693 1.16797ZM11.0026 3.5013H12.0026C12.5549 3.5013 13.0026 3.94902 13.0026 4.5013V10.8346C13.0026 11.3869 12.5549 11.8346 12.0026 11.8346H11.0026C10.4504 11.8346 10.0026 11.3869 10.0026 10.8346V4.5013C10.0026 3.94902 10.4504 3.5013 11.0026 3.5013ZM7.33598 5.83464H6.33598C5.78369 5.83464 5.33598 6.28235 5.33598 6.83464V10.8346C5.33598 11.3869 5.78369 11.8346 6.33598 11.8346H7.33598C7.88826 11.8346 8.33598 11.3869 8.33598 10.8346V6.83464C8.33598 6.28235 7.88826 5.83464 7.33598 5.83464ZM2.66931 7.83464H1.66931C1.11703 7.83464 0.669312 8.28235 0.669312 8.83464V10.8346C0.669312 11.3869 1.11703 11.8346 1.66931 11.8346H2.66931C3.2216 11.8346 3.66931 11.3869 3.66931 10.8346V8.83464C3.66931 8.28235 3.2216 7.83464 2.66931 7.83464Z" fill="black"/>
</svg>
