<svg width="67" height="13" viewBox="0 0 67 13" fill="none" xmlns="http://www.w3.org/2000/svg">
<rect opacity="0.35" x="43.1719" y="1.33472" width="21" height="10.3333" rx="2.16667" stroke="black"/>
<path opacity="0.4" d="M65.6719 4.50134V8.50134C66.4766 8.16257 66.9999 7.37448 66.9999 6.50134C66.9999 5.62821 66.4766 4.84012 65.6719 4.50134Z" fill="black"/>
<rect x="44.6719" y="2.83472" width="18" height="7.33333" rx="1.33333" fill="black"/>
<path fill-rule="evenodd" clip-rule="evenodd" d="M30.0057 3.11651C32.2304 3.11661 34.3701 3.97072 35.9824 5.50231C36.1039 5.62055 36.2979 5.61906 36.4175 5.49897L37.5781 4.32864C37.6387 4.26772 37.6724 4.18521 37.6719 4.09936C37.6714 4.01351 37.6367 3.93141 37.5754 3.8712C33.3435 -0.181026 26.6672 -0.181026 22.4353 3.8712C22.374 3.93136 22.3392 4.01345 22.3386 4.09929C22.3381 4.18514 22.3718 4.26768 22.4323 4.32864L23.5932 5.49897C23.7127 5.61924 23.9069 5.62074 24.0283 5.50231C25.6408 3.97062 27.7807 3.1165 30.0057 3.11651ZM30.0057 6.92409C31.228 6.92402 32.4068 7.37797 33.3128 8.19775C33.4354 8.31409 33.6284 8.31157 33.7479 8.19206L34.9072 7.02173C34.9682 6.96034 35.0021 6.87707 35.0012 6.79053C35.0003 6.704 34.9648 6.62142 34.9025 6.56129C32.1433 3.99688 27.8704 3.99688 25.1112 6.56129C25.0489 6.62142 25.0134 6.70404 25.0125 6.7906C25.0117 6.87716 25.0457 6.96043 25.1069 7.02173L26.2658 8.19206C26.3853 8.31157 26.5783 8.31409 26.7009 8.19775C27.6064 7.37851 28.7842 6.9246 30.0057 6.92409ZM32.3279 9.48593C32.3297 9.57271 32.2955 9.65637 32.2335 9.71717L30.2282 11.7392C30.1695 11.7986 30.0893 11.832 30.0057 11.832C29.9221 11.832 29.8419 11.7986 29.7831 11.7392L27.7775 9.71717C27.7155 9.65633 27.6815 9.57264 27.6833 9.48586C27.6851 9.39908 27.7227 9.3169 27.7872 9.25873C29.0679 8.17646 30.9435 8.17646 32.2242 9.25873C32.2886 9.31695 32.3261 9.39915 32.3279 9.48593Z" fill="black"/>
<path fill-rule="evenodd" clip-rule="evenodd" d="M16.3386 1.16797H15.3386C14.7863 1.16797 14.3386 1.61568 14.3386 2.16797V10.8346C14.3386 11.3869 14.7863 11.8346 15.3386 11.8346H16.3386C16.8909 11.8346 17.3386 11.3869 17.3386 10.8346V2.16797C17.3386 1.61568 16.8909 1.16797 16.3386 1.16797ZM10.672 3.5013H11.672C12.2242 3.5013 12.672 3.94902 12.672 4.5013V10.8346C12.672 11.3869 12.2242 11.8346 11.672 11.8346H10.672C10.1197 11.8346 9.67196 11.3869 9.67196 10.8346V4.5013C9.67196 3.94902 10.1197 3.5013 10.672 3.5013ZM7.00529 5.83464H6.00529C5.453 5.83464 5.00529 6.28235 5.00529 6.83464V10.8346C5.00529 11.3869 5.453 11.8346 6.00529 11.8346H7.00529C7.55757 11.8346 8.00529 11.3869 8.00529 10.8346V6.83464C8.00529 6.28235 7.55757 5.83464 7.00529 5.83464ZM2.33862 7.83464H1.33862C0.786338 7.83464 0.338623 8.28235 0.338623 8.83464V10.8346C0.338623 11.3869 0.786338 11.8346 1.33862 11.8346H2.33862C2.89091 11.8346 3.33862 11.3869 3.33862 10.8346V8.83464C3.33862 8.28235 2.89091 7.83464 2.33862 7.83464Z" fill="black"/>
</svg>
