<svg width="67" height="13" viewBox="0 0 67 13" fill="none" xmlns="http://www.w3.org/2000/svg">
<rect opacity="0.35" x="43.1724" y="1.33472" width="21" height="10.3333" rx="2.16667" stroke="black"/>
<path opacity="0.4" d="M65.6724 4.50134V8.50134C66.4771 8.16257 67.0004 7.37448 67.0004 6.50134C67.0004 5.62821 66.4771 4.84012 65.6724 4.50134" fill="black"/>
<rect x="44.6724" y="2.83472" width="18" height="7.33333" rx="1.33333" fill="black"/>
<path fill-rule="evenodd" clip-rule="evenodd" d="M30.0059 3.11651C32.2307 3.11661 34.3703 3.97072 35.9827 5.50231C36.1041 5.62055 36.2982 5.61906 36.4177 5.49897L37.5784 4.32864C37.6389 4.26772 37.6727 4.18521 37.6722 4.09936C37.6717 4.01351 37.6369 3.93141 37.5757 3.8712C33.3438 -0.181026 26.6674 -0.181026 22.4355 3.8712C22.3742 3.93136 22.3394 4.01345 22.3389 4.09929C22.3383 4.18514 22.372 4.26768 22.4325 4.32864L23.5935 5.49897C23.713 5.61924 23.9072 5.62074 24.0285 5.50231C25.6411 3.97062 27.781 3.1165 30.0059 3.11651ZM30.0059 6.92409C31.2283 6.92402 32.407 7.37797 33.3131 8.19775C33.4356 8.31409 33.6287 8.31157 33.7481 8.19206L34.9074 7.02173C34.9685 6.96034 35.0023 6.87707 35.0015 6.79053C35.0006 6.704 34.965 6.62142 34.9027 6.56129C32.1436 3.99688 27.8707 3.99688 25.1115 6.56129C25.0492 6.62142 25.0136 6.70404 25.0128 6.7906C25.012 6.87716 25.046 6.96043 25.1071 7.02173L26.2661 8.19206C26.3855 8.31157 26.5786 8.31409 26.7011 8.19775C27.6066 7.37851 28.7844 6.9246 30.0059 6.92409ZM32.3282 9.48593C32.3299 9.57271 32.2958 9.65637 32.2338 9.71717L30.2285 11.7392C30.1697 11.7986 30.0896 11.832 30.0059 11.832C29.9223 11.832 29.8422 11.7986 29.7834 11.7392L27.7778 9.71717C27.7158 9.65633 27.6817 9.57264 27.6835 9.48586C27.6854 9.39908 27.723 9.3169 27.7875 9.25873C29.0681 8.17646 30.9438 8.17646 32.2244 9.25873C32.2888 9.31695 32.3264 9.39915 32.3282 9.48593Z" fill="black"/>
<path fill-rule="evenodd" clip-rule="evenodd" d="M16.3389 1.16797H15.3389C14.7866 1.16797 14.3389 1.61568 14.3389 2.16797V10.8346C14.3389 11.3869 14.7866 11.8346 15.3389 11.8346H16.3389C16.8912 11.8346 17.3389 11.3869 17.3389 10.8346V2.16797C17.3389 1.61568 16.8912 1.16797 16.3389 1.16797ZM10.6722 3.5013H11.6722C12.2245 3.5013 12.6722 3.94902 12.6722 4.5013V10.8346C12.6722 11.3869 12.2245 11.8346 11.6722 11.8346H10.6722C10.1199 11.8346 9.6722 11.3869 9.6722 10.8346V4.5013C9.6722 3.94902 10.1199 3.5013 10.6722 3.5013ZM7.00553 5.83464H6.00553C5.45325 5.83464 5.00553 6.28235 5.00553 6.83464V10.8346C5.00553 11.3869 5.45325 11.8346 6.00553 11.8346H7.00553C7.55782 11.8346 8.00553 11.3869 8.00553 10.8346V6.83464C8.00553 6.28235 7.55782 5.83464 7.00553 5.83464ZM2.33887 7.83464H1.33887C0.786582 7.83464 0.338867 8.28235 0.338867 8.83464V10.8346C0.338867 11.3869 0.786582 11.8346 1.33887 11.8346H2.33887C2.89115 11.8346 3.33887 11.3869 3.33887 10.8346V8.83464C3.33887 8.28235 2.89115 7.83464 2.33887 7.83464Z" fill="black"/>
</svg>
