<svg width="10" height="18" viewBox="0 0 10 18" fill="none" xmlns="http://www.w3.org/2000/svg">
<path d="M9.64495 8.99993C9.64495 9.22726 9.55464 9.44528 9.3939 9.60602L2.1208 16.8791C1.96005 17.0399 1.74204 17.1302 1.51471 17.1302C1.28738 17.1302 1.06936 17.0399 0.908618 16.8791C0.747872 16.7184 0.657565 16.5004 0.657565 16.273C0.657565 16.0457 0.747872 15.8277 0.908617 15.6669L7.57562 8.99993L0.908618 2.33292C0.747872 2.17218 0.657567 1.95416 0.657567 1.72683C0.657567 1.4995 0.747872 1.28149 0.908618 1.12074C1.06936 0.959994 1.28738 0.869689 1.51471 0.869689C1.74204 0.869689 1.96006 0.959994 2.1208 1.12074L9.3939 8.39384C9.55464 8.55458 9.64495 8.7726 9.64495 8.99993Z" fill="#6B7280"/>
</svg>
