<svg width="12" height="12" viewBox="0 0 12 12" fill="none" xmlns="http://www.w3.org/2000/svg">
<path d="M7.69548 3.50964C8.30913 3.50964 8.80659 4.0071 8.80659 4.62075M11.0288 4.62075C11.0288 6.4617 9.53642 7.95408 7.69548 7.95408C7.35871 7.95408 7.03361 7.90414 6.72718 7.81126L5.47325 9.06519H4.36214V10.1763H3.25103V11.2874H1.58436C1.27754 11.2874 1.02881 11.0387 1.02881 10.7319V9.29531C1.02881 9.14797 1.08734 9.00666 1.19153 8.90247L4.50496 5.58904C4.41208 5.28261 4.36214 4.95751 4.36214 4.62075C4.36214 2.7798 5.85453 1.28741 7.69548 1.28741C9.53642 1.28741 11.0288 2.7798 11.0288 4.62075Z" stroke="#6B7280" stroke-width="1.11111" stroke-linecap="round" stroke-linejoin="round"/>
</svg>
