<svg width="12" height="12" viewBox="0 0 12 12" fill="none" xmlns="http://www.w3.org/2000/svg">
<path d="M7.66667 3.50958C8.28032 3.50958 8.77778 4.00704 8.77778 4.62069M11 4.62069C11 6.46164 9.50762 7.95402 7.66667 7.95402C7.3299 7.95402 7.00481 7.90408 6.69837 7.8112L5.44444 9.06513H4.33333V10.1762H3.22222V11.2874H1.55556C1.24873 11.2874 1 11.0386 1 10.7318V9.29525C1 9.14791 1.05853 9.0066 1.16272 8.90241L4.47615 5.58898C4.38327 5.28255 4.33333 4.95745 4.33333 4.62069C4.33333 2.77974 5.82572 1.28735 7.66667 1.28735C9.50762 1.28735 11 2.77974 11 4.62069Z" stroke="#6B7280" stroke-width="1.11111" stroke-linecap="round" stroke-linejoin="round"/>
</svg>
