<svg width="12" height="12" viewBox="0 0 12 12" fill="none" xmlns="http://www.w3.org/2000/svg">
<path d="M7.66667 3.22222C8.28032 3.22222 8.77778 3.71968 8.77778 4.33333M11 4.33333C11 6.17428 9.50762 7.66667 7.66667 7.66667C7.3299 7.66667 7.00481 7.61673 6.69837 7.52385L5.44444 8.77778H4.33333V9.88889H3.22222V11H1.55556C1.24873 11 1 10.7513 1 10.4444V9.0079C1 8.86055 1.05853 8.71925 1.16272 8.61506L4.47615 5.30163C4.38327 4.99519 4.33333 4.6701 4.33333 4.33333C4.33333 2.49238 5.82572 1 7.66667 1C9.50762 1 11 2.49238 11 4.33333Z" stroke="#6B7280" stroke-width="1.11111" stroke-linecap="round" stroke-linejoin="round"/>
</svg>
