<svg width="12" height="12" viewBox="0 0 12 12" fill="none" xmlns="http://www.w3.org/2000/svg">
<path d="M11.3338 0.666212H12C12 0.489521 11.9298 0.320068 11.8049 0.195129C11.6799 0.0701899 11.5105 0 11.3338 0V0.666212ZM10.6676 8.66075C10.6676 8.83744 10.7378 9.0069 10.8627 9.13184C10.9876 9.25678 11.1571 9.32697 11.3338 9.32697C11.5105 9.32697 11.6799 9.25678 11.8049 9.13184C11.9298 9.0069 12 8.83744 12 8.66075H10.6676ZM3.33925 0C3.16256 0 2.9931 0.0701899 2.86816 0.195129C2.74322 0.320068 2.67303 0.489521 2.67303 0.666212C2.67303 0.842902 2.74322 1.01236 2.86816 1.13729C2.9931 1.26223 3.16256 1.33242 3.33925 1.33242V0ZM0.203387 10.8546C0.139757 10.916 0.0890031 10.9896 0.0540877 11.0708C0.0191722 11.1521 0.00079384 11.2395 2.5154e-05 11.328C-0.000743532 11.4165 0.0161128 11.5042 0.0496105 11.5861C0.0831082 11.6679 0.132577 11.7423 0.195129 11.8049C0.257681 11.8674 0.332065 11.9169 0.41394 11.9504C0.495815 11.9839 0.583542 12.0007 0.672001 12C0.76046 11.9992 0.84788 11.9808 0.929161 11.9459C1.01044 11.911 1.08395 11.8602 1.14541 11.7966L0.203387 10.8546ZM10.6676 0.666212V8.66075H12V0.666212H10.6676ZM11.3338 0H3.33925V1.33242H11.3338V0ZM10.8628 0.1952L0.203387 10.8546L1.14541 11.7966L11.8048 1.13722L10.8628 0.1952Z" fill="#6B7280"/>
</svg>
