<svg width="12" height="12" viewBox="0 0 12 12" fill="none" xmlns="http://www.w3.org/2000/svg">
<path d="M7.69548 3.22222C8.30913 3.22222 8.80659 3.71968 8.80659 4.33333M11.0288 4.33333C11.0288 6.17428 9.53642 7.66667 7.69548 7.66667C7.35871 7.66667 7.03361 7.61673 6.72718 7.52385L5.47325 8.77778H4.36214V9.88889H3.25103V11H1.58436C1.27754 11 1.02881 10.7513 1.02881 10.4444V9.0079C1.02881 8.86055 1.08734 8.71925 1.19153 8.61506L4.50496 5.30163C4.41208 4.99519 4.36214 4.6701 4.36214 4.33333C4.36214 2.49238 5.85453 1 7.69548 1C9.53642 1 11.0288 2.49238 11.0288 4.33333Z" stroke="#6B7280" stroke-width="1.11111" stroke-linecap="round" stroke-linejoin="round"/>
</svg>
