<svg width="12" height="12" viewBox="0 0 12 12" fill="none" xmlns="http://www.w3.org/2000/svg">
<path d="M7.6956 3.22222C8.30925 3.22222 8.80671 3.71968 8.80671 4.33333M11.0289 4.33333C11.0289 6.17428 9.53655 7.66667 7.6956 7.66667C7.35884 7.66667 7.03374 7.61673 6.7273 7.52385L5.47338 8.77778H4.36226V9.88889H3.25115V11H1.58449C1.27766 11 1.02893 10.7513 1.02893 10.4444V9.0079C1.02893 8.86055 1.08746 8.71925 1.19165 8.61506L4.50508 5.30163C4.4122 4.99519 4.36226 4.6701 4.36226 4.33333C4.36226 2.49238 5.85465 1 7.6956 1C9.53655 1 11.0289 2.49238 11.0289 4.33333Z" stroke="#6B7280" stroke-width="1.11111" stroke-linecap="round" stroke-linejoin="round"/>
</svg>
