<svg width="16" height="16" viewBox="0 0 16 16" fill="none" xmlns="http://www.w3.org/2000/svg">
<rect width="16" height="16" rx="4" fill="#012BDD"/>
<path d="M12.207 4.79303C12.3945 4.98056 12.4998 5.23487 12.4998 5.50003C12.4998 5.76519 12.3945 6.0195 12.207 6.20703L7.20704 11.207C7.01951 11.3945 6.76521 11.4998 6.50004 11.4998C6.23488 11.4998 5.98057 11.3945 5.79304 11.207L3.79304 9.20703C3.61088 9.01843 3.51009 8.76583 3.51237 8.50363C3.51465 8.24143 3.61981 7.99062 3.80522 7.80521C3.99063 7.6198 4.24144 7.51463 4.50364 7.51236C4.76584 7.51008 5.01844 7.61087 5.20704 7.79303L6.50004 9.08603L10.793 4.79303C10.9806 4.60556 11.2349 4.50024 11.5 4.50024C11.7652 4.50024 12.0195 4.60556 12.207 4.79303Z" fill="white"/>
</svg>
