<svg width="20" height="21" viewBox="0 0 20 21" fill="none" xmlns="http://www.w3.org/2000/svg">
<path fill-rule="evenodd" clip-rule="evenodd" d="M10.4963 2.65056C10.1889 2.47488 9.81146 2.47488 9.50403 2.65056L2.50403 6.65056C2.02451 6.92457 1.85792 7.53542 2.13193 8.01494C2.31631 8.33761 2.65322 8.51859 3 8.51897V15.5188C2.44772 15.5188 2 15.9665 2 16.5188C2 17.0711 2.44772 17.5188 3 17.5188H17C17.5523 17.5188 18 17.0711 18 16.5188C18 15.9665 17.5523 15.5188 17 15.5188V8.51897C17.3469 8.51871 17.684 8.33772 17.8684 8.01494C18.1424 7.53542 17.9758 6.92457 17.4963 6.65056L10.4963 2.65056ZM6 9.5188C5.44772 9.5188 5 9.96651 5 10.5188V13.5188C5 14.0711 5.44772 14.5188 6 14.5188C6.55228 14.5188 7 14.0711 7 13.5188V10.5188C7 9.96651 6.55228 9.5188 6 9.5188ZM9 10.5188C9 9.96651 9.44772 9.5188 10 9.5188C10.5523 9.5188 11 9.96651 11 10.5188V13.5188C11 14.0711 10.5523 14.5188 10 14.5188C9.44772 14.5188 9 14.0711 9 13.5188V10.5188ZM14 9.5188C13.4477 9.5188 13 9.96651 13 10.5188V13.5188C13 14.0711 13.4477 14.5188 14 14.5188C14.5523 14.5188 15 14.0711 15 13.5188V10.5188C15 9.96651 14.5523 9.5188 14 9.5188Z" fill="#111827"/>
</svg>
