<svg width="20" height="20" viewBox="0 0 20 20" fill="none" xmlns="http://www.w3.org/2000/svg">
<path d="M8.88525 3C7.91876 3 7.13525 3.7835 7.13525 4.75V11.75C7.13525 12.7165 7.91875 13.5 8.88525 13.5H14.1353C15.1018 13.5 15.8853 12.7165 15.8853 11.75V6.86244C15.8853 6.39831 15.7009 5.95319 15.3727 5.625L13.2603 3.51256C12.9321 3.18437 12.4869 3 12.0228 3H8.88525Z" fill="#012BDD"/>
<path d="M3.63525 8.25C3.63525 7.2835 4.41876 6.5 5.38525 6.5V15.25H12.3853C12.3853 16.2165 11.6018 17 10.6353 17H5.38525C4.41876 17 3.63525 16.2165 3.63525 15.25V8.25Z" fill="#012BDD"/>
</svg>
