<svg width="20" height="20" viewBox="0 0 20 20" fill="none" xmlns="http://www.w3.org/2000/svg">
<path d="M8.88501 3C7.91851 3 7.13501 3.7835 7.13501 4.75V11.75C7.13501 12.7165 7.91851 13.5 8.88501 13.5H14.135C15.1015 13.5 15.885 12.7165 15.885 11.75V6.86244C15.885 6.39831 15.7006 5.95319 15.3724 5.625L13.26 3.51256C12.9318 3.18437 12.4867 3 12.0226 3H8.88501Z" fill="#012BDD"/>
<path d="M3.63501 8.25C3.63501 7.2835 4.41851 6.5 5.38501 6.5V15.25H12.385C12.385 16.2165 11.6015 17 10.635 17H5.38501C4.41851 17 3.63501 16.2165 3.63501 15.25V8.25Z" fill="#012BDD"/>
</svg>
