<?xml version="1.0" standalone="no"?>
<!DOCTYPE svg PUBLIC "-//W3C//DTD SVG 20010904//EN"
 "http://www.w3.org/TR/2001/REC-SVG-20010904/DTD/svg10.dtd">
<svg version="1.0" xmlns="http://www.w3.org/2000/svg"
 width="1984.000000pt" height="1164.000000pt" viewBox="0 0 1984.000000 1164.000000"
 preserveAspectRatio="xMidYMid meet">

<g transform="translate(0.000000,1164.000000) scale(0.100000,-0.100000)"
fill="#000000" stroke="none">
<path d="M11575 6044 c-2843 -2390 -5180 -4354 -5193 -4364 -20 -16 -21 -21
-10 -39 7 -12 16 -21 21 -21 7 0 10308 8649 10360 8699 27 27 28 28 10 48 -18
21 -48 -4 -5188 -4323z"/>
<path d="M16825 9749 c-132 -111 -241 -202 -242 -203 -5 -5 899 -1076 908
-1076 5 0 117 91 249 201 l240 201 -26 32 c-15 17 -39 46 -55 64 l-29 32 -127
-107 c-71 -59 -151 -127 -180 -150 l-51 -44 -133 158 c-73 87 -141 168 -151
179 l-20 22 129 107 c70 59 129 110 130 114 2 3 -19 31 -45 62 l-48 56 -129
-108 c-72 -60 -132 -109 -135 -108 -5 0 -252 292 -278 328 -11 16 -1 28 95
107 59 49 140 116 179 150 l72 60 -49 60 c-27 32 -53 60 -57 62 -4 1 -115 -88
-247 -199z"/>
<path d="M16328 9332 c-31 -26 -57 -51 -57 -57 0 -5 153 -192 341 -415 190
-226 349 -424 360 -449 45 -99 2 -209 -103 -264 -68 -36 -137 -34 -197 6 -29
19 -633 722 -718 836 -10 13 -21 7 -77 -39 -38 -30 -63 -58 -60 -64 14 -23
628 -753 672 -799 130 -136 291 -171 445 -98 77 37 157 118 194 198 23 50 27
71 27 149 0 145 -14 167 -411 639 -185 220 -342 401 -348 402 -6 1 -37 -19
-68 -45z"/>
<path d="M15490 8614 c-69 -19 -135 -61 -195 -125 -68 -73 -90 -127 -90 -224
0 -95 20 -158 76 -246 58 -89 373 -461 464 -548 140 -133 266 -169 399 -116
l67 27 105 -47 104 -46 75 62 c52 43 72 65 63 70 -7 4 -58 24 -113 44 l-101
36 30 60 c40 82 45 155 17 248 -28 92 -72 155 -288 411 -258 307 -320 361
-448 394 -71 19 -94 19 -165 0z m187 -190 c48 -28 107 -92 337 -368 180 -215
218 -278 218 -354 0 -59 -18 -97 -70 -144 -48 -43 -101 -62 -153 -55 -80 11
-130 57 -360 331 -120 143 -231 283 -246 311 -39 71 -39 155 -1 211 70 100
176 126 275 68z"/>
<path d="M14570 5353 c-1829 -1542 -3563 -3005 -3854 -3250 l-528 -445 21 -21
c18 -19 22 -19 38 -5 10 8 1730 1459 3823 3223 2093 1764 3818 3220 3835 3236
29 29 29 29 10 48 -20 19 -57 -13 -3345 -2786z"/>
<path d="M14813 8067 c-51 -43 -59 -54 -50 -67 48 -66 891 -1060 899 -1060 6
0 37 23 69 50 l58 51 -451 537 c-248 295 -453 538 -457 539 -3 1 -34 -21 -68
-50z"/>
<path d="M14345 7674 c-148 -125 -269 -232 -267 -237 4 -14 93 -117 101 -117
3 0 49 36 101 80 52 44 98 80 101 80 4 0 186 -213 405 -474 l397 -474 63 51
c34 29 63 56 63 60 1 4 -173 216 -386 469 -214 254 -392 468 -396 475 -6 9 3
22 25 41 190 158 181 140 106 225 l-43 47 -270 -226z"/>
<path d="M6393 4739 l-3743 -3120 17 -25 c16 -25 16 -25 37 -6 12 11 1697
1416 3746 3122 2049 1707 3727 3105 3730 3107 8 7 -16 38 -31 40 -8 1 -1698
-1402 -3756 -3118z"/>
<path d="M17985 7509 c-132 -111 -241 -202 -242 -203 -5 -5 899 -1076 908
-1076 5 0 117 91 249 201 l240 201 -26 32 c-15 17 -39 46 -55 64 l-29 32 -127
-107 c-71 -59 -151 -127 -180 -150 l-51 -44 -133 158 c-73 87 -141 168 -151
179 l-20 22 129 107 c70 59 129 110 130 114 2 3 -19 31 -45 62 l-48 56 -129
-108 c-72 -60 -132 -109 -135 -108 -5 0 -252 292 -278 328 -11 16 -1 28 95
107 59 49 140 116 179 150 l72 60 -49 60 c-27 32 -53 60 -57 62 -4 1 -115 -88
-247 -199z"/>
<path d="M10165 7309 c-132 -111 -241 -202 -242 -203 -5 -5 899 -1076 908
-1076 5 0 117 91 249 201 l240 201 -26 32 c-15 17 -39 46 -55 64 l-29 32 -127
-107 c-71 -59 -151 -127 -180 -150 l-51 -44 -133 158 c-73 87 -141 168 -151
179 l-20 22 129 107 c70 59 129 110 130 114 2 3 -19 31 -45 62 l-48 56 -129
-108 c-72 -60 -132 -109 -135 -108 -5 0 -252 292 -278 328 -11 16 -1 28 95
107 59 49 140 116 179 150 l72 60 -49 60 c-27 32 -53 60 -57 62 -4 1 -115 -88
-247 -199z"/>
<path d="M13863 7267 c-51 -43 -59 -54 -50 -67 48 -66 891 -1060 899 -1060 6
0 37 23 69 50 l58 51 -451 537 c-248 295 -453 538 -457 539 -3 1 -34 -21 -68
-50z"/>
<path d="M17213 6867 c-51 -43 -59 -54 -50 -67 45 -62 891 -1060 898 -1060 16
0 454 373 451 383 -4 14 -93 117 -101 117 -3 0 -46 -34 -96 -76 -49 -41 -122
-102 -161 -134 l-72 -59 -398 474 c-219 261 -400 475 -403 474 -3 0 -34 -23
-68 -52z"/>
<path d="M9630 6804 c-77 -21 -111 -43 -279 -184 -126 -105 -147 -127 -137
-140 53 -74 890 -1060 899 -1060 7 0 38 24 69 53 l58 52 -131 155 -131 155 58
51 c57 51 60 52 89 40 16 -7 112 -48 213 -91 l182 -77 33 25 c67 53 112 95
107 100 -3 3 -106 46 -230 95 -146 59 -224 95 -223 104 1 7 12 40 24 73 38
108 9 221 -94 358 -179 239 -347 335 -507 291z m177 -194 c54 -31 167 -152
231 -249 48 -70 55 -154 20 -216 -21 -35 -170 -175 -187 -175 -5 0 -340 393
-413 486 -17 21 -16 23 58 85 42 34 93 71 112 81 55 27 117 23 179 -12z"/>
<path d="M13273 6767 c-51 -43 -59 -54 -50 -67 45 -62 891 -1060 898 -1060 16
0 454 373 451 383 -4 14 -93 117 -101 117 -3 0 -46 -34 -96 -76 -49 -41 -122
-102 -161 -134 l-72 -59 -398 474 c-219 261 -400 475 -403 474 -3 0 -34 -23
-68 -52z"/>
<path d="M12904 6420 c-112 -22 -223 -110 -276 -218 -60 -122 -46 -268 38
-384 52 -73 399 -485 468 -556 37 -38 85 -75 121 -93 285 -140 619 143 527
448 -12 38 -34 88 -49 110 -43 63 -468 567 -508 602 -47 41 -118 76 -183 90
-59 12 -79 12 -138 1z m153 -185 c43 -22 85 -67 289 -310 240 -285 284 -350
284 -415 -1 -74 -65 -162 -142 -194 -80 -34 -163 -11 -234 65 -96 103 -453
538 -474 578 -45 88 -13 201 74 259 70 48 131 53 203 17z"/>
<path d="M16623 6367 c-51 -43 -59 -54 -50 -67 45 -62 891 -1060 898 -1060 16
0 454 373 451 383 -4 14 -93 117 -101 117 -3 0 -46 -34 -96 -76 -49 -41 -122
-102 -161 -134 l-72 -59 -398 474 c-219 261 -400 475 -403 474 -3 0 -34 -23
-68 -52z"/>
<path d="M8933 6277 c-51 -43 -59 -54 -50 -67 48 -66 891 -1060 899 -1060 6 0
37 23 69 50 l58 51 -451 537 c-248 295 -453 538 -457 539 -3 1 -34 -21 -68
-50z"/>
<path d="M16303 6097 c-51 -43 -59 -54 -50 -67 48 -66 891 -1060 899 -1060 6
0 37 23 69 50 l58 51 -451 537 c-248 295 -453 538 -457 539 -3 1 -34 -21 -68
-50z"/>
<path d="M4360 5993 c-42 -34 -64 -60 -62 -71 5 -25 71 -254 74 -258 2 -1 25
17 52 40 l49 43 -22 148 c-11 82 -22 149 -24 151 -1 1 -31 -23 -67 -53z"/>
<path d="M8574 5930 c-112 -22 -223 -110 -276 -218 -60 -122 -46 -268 38 -384
52 -73 399 -485 468 -556 37 -38 85 -75 121 -93 285 -140 619 143 527 448 -12
38 -34 88 -49 110 -43 63 -468 567 -508 602 -47 41 -118 76 -183 90 -59 12
-79 12 -138 1z m153 -185 c43 -22 85 -67 289 -310 240 -285 284 -350 284 -415
-1 -74 -65 -162 -142 -194 -80 -34 -163 -11 -234 65 -96 103 -453 538 -474
578 -45 88 -13 201 74 259 70 48 131 53 203 17z"/>
<path d="M16057 5887 c-32 -28 -57 -56 -57 -60 0 -5 115 -232 256 -504 140
-272 254 -497 252 -499 -2 -2 -197 144 -433 323 -237 179 -440 332 -452 340
-22 14 -26 12 -88 -38 -53 -43 -63 -55 -53 -66 7 -7 269 -201 583 -432 425
-313 573 -417 585 -411 8 5 39 31 68 57 l53 48 -320 648 c-176 356 -324 647
-328 647 -4 0 -34 -24 -66 -53z"/>
<path d="M4515 5619 c-132 -111 -241 -202 -242 -203 -5 -5 899 -1076 908
-1076 5 0 117 91 249 201 l240 201 -26 32 c-15 17 -39 46 -55 64 l-29 32 -127
-107 c-71 -59 -151 -127 -180 -150 l-51 -44 -133 158 c-73 87 -141 168 -151
179 l-20 22 129 107 c70 59 129 110 130 114 2 3 -19 31 -45 62 l-48 56 -129
-108 c-72 -60 -132 -109 -135 -108 -5 0 -252 292 -278 328 -11 16 -1 28 95
107 59 49 140 116 179 150 l72 60 -49 60 c-27 32 -53 60 -57 62 -4 1 -115 -88
-247 -199z"/>
<path d="M12142 5790 c-62 -22 -87 -40 -259 -185 -110 -92 -129 -112 -119
-125 53 -74 890 -1060 899 -1060 7 0 38 24 69 53 l58 52 -122 144 -122 144 54
46 c95 79 165 154 189 204 49 101 34 239 -38 362 -49 83 -187 241 -259 294
-115 87 -237 112 -350 71z m206 -176 c67 -33 223 -207 271 -301 56 -111 37
-179 -82 -288 -45 -41 -87 -75 -94 -75 -6 0 -105 111 -219 248 -114 136 -213
254 -221 263 -12 14 -5 23 59 76 132 109 191 125 286 77z"/>
<path d="M7765 5294 c-148 -125 -269 -232 -267 -237 4 -14 93 -117 101 -117 3
0 49 36 101 80 52 44 98 80 101 80 4 0 186 -213 405 -474 l397 -474 63 51 c34
29 63 56 63 60 1 4 -173 216 -386 469 -214 254 -392 468 -396 475 -6 9 3 22
25 41 190 158 181 140 106 225 l-43 47 -270 -226z"/>
<path d="M3865 5074 c-148 -125 -269 -232 -267 -237 4 -14 93 -117 101 -117 3
0 49 36 101 80 52 44 98 80 101 80 4 0 186 -213 405 -474 l397 -474 63 51 c34
29 63 56 63 60 1 4 -173 216 -386 469 -214 254 -392 468 -396 475 -6 9 3 22
25 41 190 158 181 140 106 225 l-43 47 -270 -226z"/>
<path d="M16070 3409 c-1026 -869 -1906 -1616 -1956 -1658 l-92 -77 18 -24 17
-23 1957 1657 c1076 912 1956 1663 1956 1670 0 12 -20 36 -29 36 -4 0 -845
-712 -1871 -1581z"/>
<path d="M11021 4882 c-38 -31 -70 -60 -70 -64 -1 -6 600 -1269 617 -1298 9
-15 25 -6 111 67 l33 29 -71 142 c-39 78 -71 144 -71 146 0 2 68 61 150 131
91 76 157 125 165 121 8 -3 67 -44 131 -92 132 -97 117 -96 207 -21 38 33 45
43 35 53 -7 7 -233 171 -503 364 -269 194 -529 381 -577 416 l-87 64 -70 -58z
m467 -421 c144 -107 262 -197 262 -200 -1 -10 -250 -214 -255 -209 -6 5 -305
619 -305 625 0 5 -10 13 298 -216z"/>
<path d="M14821 4862 c-38 -31 -70 -60 -70 -64 -1 -6 600 -1269 617 -1298 9
-15 25 -6 111 67 l33 29 -71 142 c-39 78 -71 144 -71 146 0 2 68 61 150 131
91 76 157 125 165 121 8 -3 67 -44 131 -92 132 -97 117 -96 207 -21 38 33 45
43 35 53 -7 7 -233 171 -503 364 -269 194 -529 381 -577 416 l-87 64 -70 -58z
m467 -421 c144 -107 262 -197 262 -200 -1 -10 -250 -214 -255 -209 -6 5 -305
619 -305 625 0 5 -10 13 298 -216z"/>
<path d="M7297 4870 c-149 -38 -290 -186 -312 -327 -14 -89 42 -222 125 -297
105 -94 227 -114 498 -80 194 24 280 11 356 -56 125 -110 92 -278 -69 -351
-72 -33 -139 -20 -209 42 -52 46 -40 48 -129 -25 l-48 -40 48 -48 c26 -27 77
-63 113 -81 57 -28 75 -32 145 -32 68 0 90 5 145 31 173 82 284 261 251 407
-28 120 -125 244 -229 290 -107 49 -192 52 -452 17 -41 -5 -96 -10 -121 -10
-267 -1 -344 285 -104 386 64 27 138 7 204 -55 l33 -31 59 51 c32 28 59 56 59
61 0 19 -85 89 -145 118 -67 33 -156 45 -218 30z"/>
<path d="M3383 4667 c-51 -43 -59 -54 -50 -67 48 -66 891 -1060 899 -1060 6 0
37 23 69 50 l58 51 -451 537 c-248 295 -453 538 -457 539 -3 1 -34 -21 -68
-50z"/>
<path d="M3052 4398 c-35 -28 -61 -56 -58 -62 50 -120 376 -917 376 -920 0 -3
-170 103 -377 236 -208 133 -399 254 -425 270 l-48 29 -64 -52 c-54 -45 -62
-56 -53 -69 48 -66 891 -1060 899 -1060 6 0 37 23 69 50 l58 51 -288 343
c-296 352 -315 376 -290 361 8 -5 155 -98 327 -207 172 -109 316 -198 320
-198 4 1 26 18 50 39 l43 38 -145 353 c-81 194 -144 355 -142 357 3 3 511
-595 581 -684 8 -9 24 -1 70 38 33 27 60 55 60 62 0 12 -884 1075 -895 1076
-3 1 -33 -22 -68 -51z"/>
<path d="M6633 4337 c-51 -43 -59 -54 -50 -67 48 -66 891 -1060 899 -1060 6 0
37 23 69 50 l58 51 -451 537 c-248 295 -453 538 -457 539 -3 1 -34 -21 -68
-50z"/>
<path d="M10213 4207 c-51 -43 -59 -54 -50 -67 45 -62 891 -1060 898 -1060 16
0 454 373 451 383 -4 14 -93 117 -101 117 -3 0 -46 -34 -96 -76 -49 -41 -122
-102 -161 -134 l-72 -59 -398 474 c-219 261 -400 475 -403 474 -3 0 -34 -23
-68 -52z"/>
<path d="M14023 4187 c-51 -43 -59 -54 -50 -67 45 -62 891 -1060 898 -1060 16
0 454 373 451 383 -4 14 -93 117 -101 117 -3 0 -46 -34 -96 -76 -49 -41 -122
-102 -161 -134 l-72 -59 -398 474 c-219 261 -400 475 -403 474 -3 0 -34 -23
-68 -52z"/>
<path d="M6350 4097 c-14 -12 -43 -36 -64 -54 l-39 -32 196 -234 c109 -129
197 -239 197 -243 -1 -7 -180 -161 -275 -236 l-24 -18 -182 217 c-100 120
-190 226 -200 237 -17 18 -19 17 -82 -35 -55 -45 -63 -56 -54 -69 54 -74 891
-1060 900 -1060 7 0 38 24 69 53 l58 52 -200 237 c-110 130 -200 241 -200 246
0 11 285 252 297 251 4 0 98 -108 207 -240 110 -131 202 -239 205 -239 3 1 33
25 66 54 54 50 58 55 45 72 -47 59 -847 1014 -869 1036 l-26 27 -25 -22z"/>
<path d="M9475 3579 c-132 -111 -241 -202 -242 -203 -5 -5 899 -1076 908
-1076 5 0 117 91 249 201 l240 201 -26 32 c-15 17 -39 46 -55 64 l-29 32 -127
-107 c-71 -59 -151 -127 -180 -150 l-51 -44 -133 158 c-73 87 -141 168 -151
179 l-20 22 129 107 c70 59 129 110 130 114 2 3 -19 31 -45 62 l-48 56 -129
-108 c-72 -60 -132 -109 -135 -108 -5 0 -252 292 -278 328 -11 16 -1 28 95
107 59 49 140 116 179 150 l72 60 -49 60 c-27 32 -53 60 -57 62 -4 1 -115 -88
-247 -199z"/>
<path d="M13295 3569 c-132 -111 -241 -202 -242 -203 -5 -5 899 -1076 908
-1076 5 0 117 91 249 201 l240 201 -26 32 c-15 17 -39 46 -55 64 l-29 32 -127
-107 c-71 -59 -151 -127 -180 -150 l-51 -44 -133 158 c-73 87 -141 168 -151
179 l-20 22 129 107 c70 59 129 110 130 114 2 3 -19 31 -45 62 l-48 56 -129
-108 c-72 -60 -132 -109 -135 -108 -5 0 -252 292 -278 328 -11 16 -1 28 95
107 59 49 140 116 179 150 l72 60 -49 60 c-27 32 -53 60 -57 62 -4 1 -115 -88
-247 -199z"/>
<path d="M2094 3550 c-112 -22 -223 -110 -276 -218 -60 -122 -46 -268 38 -384
52 -73 399 -485 468 -556 37 -38 85 -75 121 -93 285 -140 619 143 527 448 -12
38 -34 88 -49 110 -43 63 -468 567 -508 602 -47 41 -118 76 -183 90 -59 12
-79 12 -138 1z m153 -185 c43 -22 85 -67 289 -310 240 -285 284 -350 284 -415
-1 -74 -65 -162 -142 -194 -80 -34 -163 -11 -234 65 -96 103 -453 538 -474
578 -45 88 -13 201 74 259 70 48 131 53 203 17z"/>
<path d="M5613 3487 c-36 -29 -61 -58 -59 -67 2 -8 50 -126 107 -262 69 -165
107 -244 115 -240 6 4 28 22 49 41 l38 33 -88 274 c-49 151 -91 274 -94 274
-3 0 -34 -24 -68 -53z"/>
<path d="M5173 3065 c-67 -20 -107 -48 -274 -188 -132 -111 -155 -134 -145
-147 46 -64 890 -1060 898 -1060 13 0 306 249 346 294 61 69 77 112 77 206 0
76 -4 93 -33 155 -18 38 -52 95 -75 125 -66 88 -347 420 -402 475 -130 132
-265 180 -392 140z m195 -192 c32 -19 102 -94 216 -228 276 -328 316 -387 316
-474 0 -65 -31 -111 -136 -198 -84 -69 -89 -72 -105 -56 -9 10 -160 189 -334
398 -175 209 -324 387 -332 396 -11 14 -3 24 69 85 147 123 207 138 306 77z"/>
<path d="M8913 3065 c-67 -20 -107 -48 -274 -188 -132 -111 -155 -134 -145
-147 46 -64 890 -1060 898 -1060 13 0 306 249 346 294 61 69 77 112 77 206 0
76 -4 93 -33 155 -18 38 -52 95 -75 125 -66 88 -347 420 -402 475 -130 132
-265 180 -392 140z m195 -192 c32 -19 102 -94 216 -228 276 -328 316 -387 316
-474 0 -65 -31 -111 -136 -198 -84 -69 -89 -72 -105 -56 -9 10 -160 189 -334
398 -175 209 -324 387 -332 396 -11 14 -3 24 69 85 147 123 207 138 306 77z"/>
<path d="M12743 3065 c-67 -20 -107 -48 -274 -188 -132 -111 -155 -134 -145
-147 46 -64 890 -1060 898 -1060 13 0 306 249 346 294 61 69 77 112 77 206 0
76 -4 93 -33 155 -18 38 -52 95 -75 125 -66 88 -347 420 -402 475 -130 132
-265 180 -392 140z m195 -192 c32 -19 102 -94 216 -228 276 -328 316 -387 316
-474 0 -65 -31 -111 -136 -198 -84 -69 -89 -72 -105 -56 -9 10 -160 189 -334
398 -175 209 -324 387 -332 396 -11 14 -3 24 69 85 147 123 207 138 306 77z"/>
<path d="M1374 2950 c-112 -22 -223 -110 -276 -218 -60 -122 -46 -268 38 -384
52 -73 399 -485 468 -556 170 -175 402 -174 566 4 139 151 131 344 -22 534
l-26 34 -34 -26 c-18 -15 -49 -39 -67 -56 l-35 -29 37 -45 c46 -56 77 -123 77
-168 0 -74 -65 -162 -142 -194 -80 -34 -163 -11 -234 65 -96 103 -453 538
-474 578 -17 35 -21 56 -18 102 5 69 34 117 97 159 94 63 187 47 278 -48 l52
-55 58 48 c32 27 62 52 66 55 15 13 -100 126 -160 157 -89 47 -163 60 -249 43z"/>
</g>
</svg>
