<svg width="175" height="36" viewBox="0 0 175 36" fill="none" xmlns="http://www.w3.org/2000/svg">
<path fill-rule="evenodd" clip-rule="evenodd" d="M8.50749 27V15.6796H11.2241V14.1502H8.50749V9.84706H11.2241V6.77336H8.50749V5.71765C8.50749 4.97647 8.77382 4.28823 9.30649 3.81176C9.7859 3.28235 10.4784 3.01765 11.2241 3.01765H14.4734V0H8.24115C6.74967 0 5.25819 0.582353 4.24611 1.69412C3.1275 2.75294 2.54156 5.23807 2.54156 6.77336H0L0.000421685 9.84706H2.54156V14.1502H0V15.6796H2.54156V27H8.50749ZM29.7611 27C33.33 27 35.3009 24.9882 35.7803 20.9118H32.7973C32.7973 22.9235 31.7852 23.9824 29.7611 23.9824H26.7249C25.9259 23.9824 25.1268 23.6647 24.5942 23.0824C24.0082 22.5 23.6886 21.7588 23.6886 20.9647V17.9471H35.7803V11.8588C35.7803 10.2706 35.1411 8.73529 34.0225 7.62353C32.9038 6.45882 31.3591 5.82353 29.7611 5.82353H23.7419C22.1439 5.82353 20.5991 6.45882 19.4805 7.62353C18.3087 8.73529 17.6694 10.2706 17.6694 11.8588V20.9647C17.6694 24.3 20.3861 27 23.7419 27.0529H29.7611V27ZM29.3882 14.8235H23.5288V11.9118C23.5288 10.3235 24.8605 9 26.4585 9C27.2575 9 28.0033 9.31765 28.5359 9.84706C29.0686 10.3765 29.3882 11.1176 29.3882 11.9118V14.8235ZM50.6951 27C52.4529 27 53.5182 25.9941 53.7313 24.0353V27H59.7505V0H53.7313V6.03529H47.7121C46.1141 6.03529 44.5694 6.67059 43.4508 7.78235C42.2789 8.89412 41.6397 10.4294 41.6397 12.0176V21.0176C41.6929 24.3 44.3563 27 47.7121 27H50.6951ZM50.9614 23.8235C50.1624 23.8235 49.4167 23.5059 48.884 22.9235C48.2981 22.3412 48.0317 21.6 48.0317 20.8059V11.9647C48.0317 11.1706 48.3513 10.4294 48.884 9.9C49.4167 9.31765 50.1624 9 50.9614 9.05294H53.8911V20.9118C53.8911 21.7059 53.5715 22.4471 53.0388 23.0294C52.5062 23.5059 51.7072 23.8235 50.9614 23.8235ZM78.2342 27C81.8031 27 83.774 24.9882 84.2534 20.9118H81.2704C81.2704 22.9235 80.2584 23.9824 78.2875 23.9824H75.198C74.399 23.9824 73.6 23.6647 73.0673 23.0824C72.4814 22.5 72.1618 21.7588 72.1618 20.9647V17.9471H84.2534V11.8588C84.2534 10.2706 83.6142 8.73529 82.4956 7.62353C81.377 6.45882 79.8322 5.82353 78.2342 5.82353H72.215C70.617 5.82353 69.0723 6.45882 67.9536 7.62353C66.7818 8.73529 66.1426 10.2706 66.1426 11.8588V20.9647C66.1426 24.3 68.8592 27 72.215 27.0529H78.2342V27ZM77.8613 14.8235H72.002V11.9118C72.002 10.3235 73.3336 9 74.9316 9C75.7307 9 76.4764 9.31765 77.0091 9.84706C77.5417 10.3765 77.8613 11.1176 77.8613 11.9118V14.8235ZM96.0787 27V14.8765C96.0787 14.0824 96.3983 13.2882 96.931 12.7059C97.4637 12.1235 98.2094 11.8059 99.0084 11.8059H105.028V5.82353H102.045C100.287 5.82353 98.9019 6.3 97.8898 7.35882C96.8777 8.41765 96.2918 9.84706 96.0255 11.8588V5.82353H90.1128V27H96.0787ZM117.279 27C119.09 27 120.102 25.9941 120.315 23.9824V27H126.334V11.8588C126.334 10.2706 125.695 8.73529 124.577 7.62353C123.458 6.45882 121.913 5.82353 120.315 5.82353H114.296C110.727 5.82353 108.703 7.83529 108.224 11.8588H111.26C111.473 9.84706 112.485 8.84118 114.243 8.84118H117.226C118.877 8.84118 120.262 10.2176 120.262 11.8588V14.9294H114.19C110.887 14.9824 108.17 17.6294 108.117 20.9647C108.117 24.3 110.834 27 114.19 27.0529H117.279V27ZM117.545 23.8235C116.746 23.8235 116.001 23.5059 115.468 22.9235C114.935 22.3941 114.616 21.6529 114.616 20.8588C114.616 19.2706 115.947 17.9471 117.545 17.9471H120.475V20.8588C120.475 21.6529 120.155 22.3941 119.623 22.9235C119.09 23.5059 118.291 23.8235 117.545 23.8235ZM144.818 36C146.416 36 147.961 35.3647 149.08 34.2C150.198 33.0882 150.891 31.5529 150.837 29.9647V5.82353H138.746C137.148 5.82353 135.603 6.45882 134.484 7.62353C133.312 8.73529 132.673 10.2706 132.673 11.8588V20.9118C132.673 24.2471 135.39 26.9471 138.746 26.9471H141.782C143.593 26.9471 144.605 25.9412 144.818 23.9294V29.9647C144.818 31.6059 143.486 32.9824 141.835 32.9824C141.835 32.9824 141.835 32.9824 141.782 32.9824H138.799C136.935 32.9824 135.923 31.9765 135.816 29.9118H132.727C133.206 33.9353 135.23 35.9471 138.799 35.9471H144.818V36ZM141.516 23.8235C140.717 23.8235 139.971 23.5059 139.438 22.9235C138.852 22.3412 138.586 21.6 138.586 20.8059V11.9647C138.586 11.1706 138.906 10.4294 139.438 9.9C139.971 9.31765 140.717 9 141.516 9.05294H144.445V20.9118C144.445 21.7059 144.126 22.4471 143.593 23.0294C143.06 23.5059 142.261 23.8235 141.516 23.8235ZM168.788 27C172.357 27 174.328 24.9882 174.808 20.9118H171.825C171.825 22.9235 170.813 23.9824 168.842 23.9824H165.752C164.953 23.9824 164.154 23.6647 163.621 23.0824C163.036 22.5 162.716 21.7588 162.716 20.9647V17.9471H174.808V11.8588C174.808 10.2706 174.168 8.73529 173.05 7.62353C171.931 6.45882 170.386 5.82353 168.788 5.82353H162.769C161.171 5.82353 159.626 6.45882 158.508 7.62353C157.336 8.73529 156.697 10.2706 156.697 11.8588V20.9647C156.697 24.3 159.413 27 162.769 27.0529H168.788V27ZM168.416 14.8235H162.556V11.9118C162.556 10.3235 163.888 9 165.486 9C166.285 9 167.031 9.31765 167.563 9.84706C168.096 10.3765 168.416 11.1176 168.416 11.9118V14.8235Z" fill="#111827"/>
</svg>
