<?xml version="1.0" encoding="UTF-8"?>
<!DOCTYPE svg PUBLIC "-//W3C//DTD SVG 1.1//EN" "http://www.w3.org/Graphics/SVG/1.1/DTD/svg11.dtd">
<svg xmlns="http://www.w3.org/2000/svg" version="1.1" width="200px" height="92px" style="shape-rendering:geometricPrecision; text-rendering:geometricPrecision; image-rendering:optimizeQuality; fill-rule:evenodd; clip-rule:evenodd" xmlns:xlink="http://www.w3.org/1999/xlink">
<g><path style="opacity:1" fill="#fafafa" d="M -0.5,-0.5 C 13.1667,-0.5 26.8333,-0.5 40.5,-0.5C 40.5,15.8333 40.5,32.1667 40.5,48.5C 43.7131,48.81 46.7131,48.4767 49.5,47.5C 47.3926,46.5318 45.0593,46.1984 42.5,46.5C 42.5,31.5 42.5,16.5 42.5,1.5C 50.84,1.3336 59.1733,1.50027 67.5,2C 76.2876,4.73988 79.4543,10.5732 77,19.5C 74.5923,25.4678 70.0923,28.6345 63.5,29C 58.8333,29.3333 54.1667,29.6667 49.5,30C 56.5564,30.7881 63.5564,30.4548 70.5,29C 79.3572,23.4287 81.5239,15.9287 77,6.5C 73.7749,2.97931 69.9416,0.645981 65.5,-0.5C 110.167,-0.5 154.833,-0.5 199.5,-0.5C 199.5,8.5 199.5,17.5 199.5,26.5C 197.164,24.6093 194.498,24.1093 191.5,25C 188.657,28.6187 188.99,31.952 192.5,35C 195.065,35.6089 197.399,35.1089 199.5,33.5C 199.5,52.8333 199.5,72.1667 199.5,91.5C 157.5,91.5 115.5,91.5 73.5,91.5C 84.3779,87.7593 88.5446,80.0927 86,68.5C 82.0991,59.6311 75.2657,56.1311 65.5,58C 62.6384,58.9305 60.305,60.5971 58.5,63C 62.1217,61.0504 66.1217,59.8838 70.5,59.5C 82.9684,61.0636 87.4684,68.0636 84,80.5C 82.8951,83.9371 80.7284,86.4371 77.5,88C 64.6547,92.9876 55.8214,89.1543 51,76.5C 51.5866,83.9275 55.42,88.9275 62.5,91.5C 41.5,91.5 20.5,91.5 -0.5,91.5C -0.5,84.5 -0.5,77.5 -0.5,70.5C 2.5,70.5 5.5,70.5 8.5,70.5C 9.67348,66.1453 11.0068,61.8119 12.5,57.5C 18.8072,56.3361 25.1405,56.1694 31.5,57C 33.1314,60.7275 34.4648,64.5609 35.5,68.5C 36.6936,69.7773 38.3603,70.4439 40.5,70.5C 42.1667,70.1667 43.8333,69.8333 45.5,69.5C 45.3764,68.8933 45.0431,68.56 44.5,68.5C 39.2337,53.0362 33.5671,37.7029 27.5,22.5C 24.5541,21.3452 21.5541,21.1786 18.5,22C 21.9267,30.7777 25.26,39.6111 28.5,48.5C 24.1667,49.8333 19.8333,49.8333 15.5,48.5C 17.2887,45.3453 18.1221,42.0119 18,38.5C 16.2157,42.0121 14.7157,45.6787 13.5,49.5C 18.8333,50.1667 24.1667,50.8333 29.5,51.5C 29.8333,52.1667 30.1667,52.8333 30.5,53.5C 24.1667,54.1667 17.8333,54.8333 11.5,55.5C 9.7578,59.7254 8.42446,64.0587 7.5,68.5C 4.83333,68.5 2.16667,68.5 -0.5,68.5C -0.5,45.5 -0.5,22.5 -0.5,-0.5 Z"/></g>
<g><path style="opacity:1" fill="#6e6e6e" d="M 42.5,1.5 C 42.5,16.5 42.5,31.5 42.5,46.5C 45.0593,46.1984 47.3926,46.5318 49.5,47.5C 46.8333,47.5 44.1667,47.5 41.5,47.5C 41.1705,31.9909 41.5038,16.6576 42.5,1.5 Z"/></g>
<g><path style="opacity:1" fill="#323232" d="M 40.5,-0.5 C 48.8333,-0.5 57.1667,-0.5 65.5,-0.5C 69.9416,0.645981 73.7749,2.97931 77,6.5C 81.5239,15.9287 79.3572,23.4287 70.5,29C 63.5564,30.4548 56.5564,30.7881 49.5,30C 54.1667,29.6667 58.8333,29.3333 63.5,29C 70.0923,28.6345 74.5923,25.4678 77,19.5C 79.4543,10.5732 76.2876,4.73988 67.5,2C 59.1733,1.50027 50.84,1.3336 42.5,1.5C 41.5038,16.6576 41.1705,31.9909 41.5,47.5C 44.1667,47.5 46.8333,47.5 49.5,47.5C 46.7131,48.4767 43.7131,48.81 40.5,48.5C 40.5,32.1667 40.5,15.8333 40.5,-0.5 Z"/></g>
<g><path style="opacity:1" fill="#3a3a3a" d="M 49.5,5.5 C 55.7114,5.0161 61.7114,5.84943 67.5,8C 70.9148,12.0638 71.4148,16.5638 69,21.5C 64.4828,24.391 59.6494,25.0577 54.5,23.5C 58.9072,22.8754 63.2406,22.042 67.5,21C 70.9163,15.536 69.9163,11.2027 64.5,8C 59.0675,8.1184 54.0675,7.28507 49.5,5.5 Z"/></g>
<g><path style="opacity:1" fill="#2a2a2a" d="M 128.5,20.5 C 129.675,20.281 130.675,20.6143 131.5,21.5C 129.948,22.7979 128.948,22.4646 128.5,20.5 Z"/></g>
<g><path style="opacity:1" fill="#2c2c2c" d="M 119.5,21.5 C 119.343,22.8734 119.51,24.2068 120,25.5C 124.786,23.2538 126.953,24.7538 126.5,30C 126.167,31.5 125.833,33 125.5,34.5C 124.682,31.8929 124.182,29.2263 124,26.5C 122.887,25.2889 121.72,25.2889 120.5,26.5C 119.52,29.0865 119.187,31.7531 119.5,34.5C 118.2,32.777 117.533,30.6103 117.5,28C 117.533,25.3897 118.2,23.223 119.5,21.5 Z"/></g>
<g><path style="opacity:1" fill="#363636" d="M 105.5,26.5 C 109.208,23.5645 112.541,23.8978 115.5,27.5C 115.167,27.8333 114.833,28.1667 114.5,28.5C 111.237,24.3068 108.904,24.8068 107.5,30C 107.261,32.259 108.261,33.4257 110.5,33.5C 112.397,33.2718 113.73,32.2718 114.5,30.5C 115.583,31.365 115.749,32.365 115,33.5C 108.268,36.6384 105.101,34.3051 105.5,26.5 Z"/></g>
<g><path style="opacity:1" fill="#3e3e3e" d="M 105.5,26.5 C 104.167,26.5 102.833,26.5 101.5,26.5C 101.817,29.5719 101.484,32.5719 100.5,35.5C 99.3414,31.878 99.1747,28.2113 100,24.5C 101.25,25.5733 102.584,25.5733 104,24.5C 105.03,24.8361 105.53,25.5028 105.5,26.5 Z"/></g>
<g><path style="opacity:1" fill="#3b3b3c" d="M 132.5,26.5 C 132.5,25.8333 132.5,25.1667 132.5,24.5C 133.859,23.9935 134.859,22.9935 135.5,21.5C 136.386,22.325 136.719,23.325 136.5,24.5C 140.5,25.1667 140.5,25.8333 136.5,26.5C 136.5,28.8333 136.5,31.1667 136.5,33.5C 137.675,33.281 138.675,33.6143 139.5,34.5C 137.994,35.7472 136.494,35.7472 135,34.5C 135.053,31.3248 134.22,28.6581 132.5,26.5 Z"/></g>
<g><path style="opacity:1" fill="#3b3b3b" d="M 164.5,22.5 C 166.213,23.305 167.879,24.305 169.5,25.5C 168.675,26.3857 167.675,26.719 166.5,26.5C 166.5,28.8333 166.5,31.1667 166.5,33.5C 167.675,33.281 168.675,33.6143 169.5,34.5C 168.224,35.6446 166.891,35.6446 165.5,34.5C 164.953,31.2976 163.953,28.2976 162.5,25.5C 163.612,24.7348 164.279,23.7348 164.5,22.5 Z"/></g>
<g><path style="opacity:1" fill="#3d3d3d" d="M 142.5,24.5 C 147.836,23.1845 150.503,25.1845 150.5,30.5C 147.753,30.1866 145.086,30.52 142.5,31.5C 144.705,34.0531 147.038,34.0531 149.5,31.5C 150.571,33.3255 149.904,34.4921 147.5,35C 142.992,35.9962 140.659,34.1629 140.5,29.5C 140.437,27.4861 141.103,25.8194 142.5,24.5 Z"/></g>
<g><path style="opacity:1" fill="#eaeaea" d="M 144.5,25.5 C 146.196,25.6854 147.529,26.5187 148.5,28C 146.5,28.6667 144.5,28.6667 142.5,28C 143.381,27.2917 144.047,26.4584 144.5,25.5 Z"/></g>
<g><path style="opacity:1" fill="#383838" d="M 185.5,27.5 C 185.083,30.1589 184.083,32.4922 182.5,34.5C 182.18,31.1016 182.513,27.7683 183.5,24.5C 185.235,25.057 186.902,25.3903 188.5,25.5C 187.398,26.1757 186.398,26.8423 185.5,27.5 Z"/></g>
<g><path style="opacity:1" fill="#78787a" d="M 132.5,24.5 C 132.5,25.1667 132.5,25.8333 132.5,26.5C 131.523,29.2869 131.19,32.2869 131.5,35.5C 130.5,35.5 129.5,35.5 128.5,35.5C 128.5,31.8333 128.5,28.1667 128.5,24.5C 129.833,24.5 131.167,24.5 132.5,24.5 Z"/></g>
<g><path style="opacity:1" fill="#3a3a3b" d="M 89.5,20.5 C 90.8333,20.5 92.1667,20.5 93.5,20.5C 94.5342,24.9079 95.8676,29.2413 97.5,33.5C 97.2668,34.9317 96.6001,35.4317 95.5,35C 94.6198,33.6439 94.2865,32.1439 94.5,30.5C 90.542,29.5723 87.8754,30.9056 86.5,34.5C 86.1667,33.8333 85.8333,33.1667 85.5,32.5C 87.0408,28.5442 88.3741,24.5442 89.5,20.5 Z"/></g>
<g><path style="opacity:1" fill="#d0d0d2" d="M 90.5,23.5 C 92.6138,24.784 93.6138,26.784 93.5,29.5C 92.1667,29.5 90.8333,29.5 89.5,29.5C 89.5172,27.4352 89.8505,25.4352 90.5,23.5 Z"/></g>
<g><path style="opacity:1" fill="#969696" d="M 185.5,27.5 C 185.5,30.1667 185.5,32.8333 185.5,35.5C 184.209,35.7373 183.209,35.404 182.5,34.5C 184.083,32.4922 185.083,30.1589 185.5,27.5 Z"/></g>
<g><path style="opacity:1" fill="#f1f1f2" d="M 199.5,30.5 C 199.5,30.8333 199.5,31.1667 199.5,31.5C 197.723,31.7863 196.056,32.4529 194.5,33.5C 193,33.5472 192,32.8805 191.5,31.5C 194.086,30.52 196.753,30.1866 199.5,30.5 Z"/></g>
<g><path style="opacity:1" fill="#454545" d="M 154.5,24.5 C 157.596,23.9066 159.929,24.9066 161.5,27.5C 161.167,27.8333 160.833,28.1667 160.5,28.5C 159.327,25.7211 157.493,25.0545 155,26.5C 153.218,32.899 155.051,34.5656 160.5,31.5C 161.594,32.868 161.26,34.0347 159.5,35C 153.171,35.6675 150.671,32.8342 152,26.5C 152.995,25.9341 153.828,25.2674 154.5,24.5 Z"/></g>
<g><path style="opacity:1" fill="#bbbbbb" d="M 119.5,21.5 C 118.2,23.223 117.533,25.3897 117.5,28C 117.533,30.6103 118.2,32.777 119.5,34.5C 118.791,35.404 117.791,35.7373 116.5,35.5C 116.5,30.5 116.5,25.5 116.5,20.5C 117.791,20.2627 118.791,20.596 119.5,21.5 Z"/></g>
<g><path style="opacity:1" fill="#3f3f3f" d="M 171.5,24.5 C 173.388,26.9878 174.055,29.9878 173.5,33.5C 175.144,33.7135 176.644,33.3802 178,32.5C 178.182,29.7737 178.682,27.1071 179.5,24.5C 180.833,28.1667 180.833,31.8333 179.5,35.5C 178.033,34.3047 176.533,34.3047 175,35.5C 173.739,35.2409 172.739,34.5742 172,33.5C 171.502,30.5184 171.335,27.5184 171.5,24.5 Z"/></g>
<g><path style="opacity:1" fill="#3a3a3a" d="M 199.5,26.5 C 199.5,27.8333 199.5,29.1667 199.5,30.5C 196.753,30.1866 194.086,30.52 191.5,31.5C 192,32.8805 193,33.5472 194.5,33.5C 196.056,32.4529 197.723,31.7863 199.5,31.5C 199.5,32.1667 199.5,32.8333 199.5,33.5C 197.399,35.1089 195.065,35.6089 192.5,35C 188.99,31.952 188.657,28.6187 191.5,25C 194.498,24.1093 197.164,24.6093 199.5,26.5 Z"/></g>
<g><path style="opacity:1" fill="#e3e3e4" d="M 193.5,25.5 C 195.196,25.6854 196.529,26.5187 197.5,28C 195.421,28.8077 193.421,28.641 191.5,27.5C 192.243,26.8182 192.909,26.1515 193.5,25.5 Z"/></g>
<g><path style="opacity:1" fill="#323232" d="M 141.5,44.5 C 141.813,47.2469 141.48,49.9135 140.5,52.5C 138.328,52.3241 135.995,52.1575 133.5,52C 132.009,49.9783 132.342,48.3117 134.5,47C 136.134,46.5065 137.801,46.3398 139.5,46.5C 139.5,45.5 139.5,44.5 139.5,43.5C 137.278,43.178 135.444,43.8446 134,45.5C 133.536,44.9056 133.369,44.2389 133.5,43.5C 136.558,40.5967 139.224,40.9301 141.5,44.5 Z"/></g>
<g><path style="opacity:1" fill="#2c2c2c" d="M 158.5,41.5 C 162.693,41.3617 165.027,43.3617 165.5,47.5C 162.753,47.1866 160.086,47.52 157.5,48.5C 158.212,50.0459 159.378,51.0459 161,51.5C 162.393,50.3849 163.893,49.8849 165.5,50C 163.316,52.3679 160.649,53.0346 157.5,52C 154.64,48.1508 154.973,44.6508 158.5,41.5 Z"/></g>
<g><path style="opacity:1" fill="#d7d7d7" d="M 158.5,43.5 C 160.665,43.1159 162.332,43.7826 163.5,45.5C 161.5,46.8333 159.5,46.8333 157.5,45.5C 157.863,44.8165 158.196,44.1499 158.5,43.5 Z"/></g>
<g><path style="opacity:1" fill="#303030" d="M 91.5,38.5 C 95.0071,37.9935 98.1737,38.6602 101,40.5C 101.852,46.0366 99.3516,48.3699 93.5,47.5C 93.7852,49.288 93.4519,50.9547 92.5,52.5C 91.5067,47.8804 91.1734,43.2137 91.5,38.5 Z"/></g>
<g><path style="opacity:1" fill="#e9e9e9" d="M 93.5,40.5 C 95.1992,40.3398 96.8659,40.5065 98.5,41C 99.8333,42.3333 99.8333,43.6667 98.5,45C 96.8659,45.4935 95.1992,45.6602 93.5,45.5C 93.5,43.8333 93.5,42.1667 93.5,40.5 Z"/></g>
<g><path style="opacity:1" fill="#ececec" d="M 114.5,42.5 C 113.503,42.4701 112.836,42.9701 112.5,44C 114.53,47.2211 115.53,50.7211 115.5,54.5C 114.325,54.281 113.325,54.6143 112.5,55.5C 114.259,56.754 115.759,56.4206 117,54.5C 119.388,50.5427 120.554,46.5427 120.5,42.5C 120.56,41.9569 120.893,41.6236 121.5,41.5C 122.182,42.2427 122.849,42.9094 123.5,43.5C 123.351,44.552 123.517,45.552 124,46.5C 125.78,47.5937 127.614,48.5937 129.5,49.5C 127.764,52.1047 125.931,52.1047 124,49.5C 123.652,51.9227 124.818,52.9227 127.5,52.5C 129.955,52.888 131.288,51.888 131.5,49.5C 129.796,47.4857 127.796,45.8191 125.5,44.5C 127.259,43.246 128.759,43.5794 130,45.5C 130.464,44.9056 130.631,44.2389 130.5,43.5C 131.5,44.8333 132.5,44.8333 133.5,43.5C 133.369,44.2389 133.536,44.9056 134,45.5C 135.444,43.8446 137.278,43.178 139.5,43.5C 139.5,44.5 139.5,45.5 139.5,46.5C 137.801,46.3398 136.134,46.5065 134.5,47C 132.342,48.3117 132.009,49.9783 133.5,52C 135.995,52.1575 138.328,52.3241 140.5,52.5C 141.48,49.9135 141.813,47.2469 141.5,44.5C 142.167,45.1667 142.833,45.8333 143.5,46.5C 143.286,48.1439 143.62,49.6439 144.5,51C 146.841,52.4004 149.174,52.9004 151.5,52.5C 149.901,54.7288 147.901,55.0622 145.5,53.5C 144.479,54.0016 144.312,54.6683 145,55.5C 146.699,56.4061 148.533,56.7394 150.5,56.5C 149.89,57.391 149.557,58.391 149.5,59.5C 147.031,60.0671 144.698,60.0671 142.5,59.5C 141.549,60.9187 141.216,62.5853 141.5,64.5C 140.833,66.1667 140.167,67.8333 139.5,69.5C 139.664,66.8127 139.497,64.146 139,61.5C 136.021,58.7601 133.188,58.9267 130.5,62C 132.886,61.6487 135.219,61.8153 137.5,62.5C 135.5,63.3333 133.5,64.1667 131.5,65C 130.62,66.3561 130.286,67.8561 130.5,69.5C 129.798,70.1157 128.798,70.1157 127.5,69.5C 129.953,66.6975 130.12,63.6975 128,60.5C 126,59.1667 124,59.1667 122,60.5C 120.785,54.0255 119.619,54.0255 118.5,60.5C 118.167,60.5 117.833,60.5 117.5,60.5C 115.881,59.9284 114.215,59.5951 112.5,59.5C 111.513,62.7683 111.18,66.1016 111.5,69.5C 110.833,68.1667 110.167,66.8333 109.5,65.5C 110.055,61.9878 109.388,58.9878 107.5,56.5C 107.833,55.1667 108.167,53.8333 108.5,52.5C 108.905,51.4502 109.571,51.4502 110.5,52.5C 111.484,49.5719 111.817,46.5719 111.5,43.5C 112.053,41.4482 113.053,41.1148 114.5,42.5 Z"/></g>
<g><path style="opacity:1" fill="#e3e3e3" d="M 135.5,47.5 C 140.467,47.5843 140.8,48.9177 136.5,51.5C 134.358,50.5629 134.024,49.2296 135.5,47.5 Z"/></g>
<g><path style="opacity:1" fill="#393939" d="M 114.5,42.5 C 116.553,50.4114 118.553,50.4114 120.5,42.5C 120.554,46.5427 119.388,50.5427 117,54.5C 115.759,56.4206 114.259,56.754 112.5,55.5C 113.325,54.6143 114.325,54.281 115.5,54.5C 115.53,50.7211 114.53,47.2211 112.5,44C 112.836,42.9701 113.503,42.4701 114.5,42.5 Z"/></g>
<g><path style="opacity:1" fill="#313131" d="M 150.5,56.5 C 148.533,56.7394 146.699,56.4061 145,55.5C 144.312,54.6683 144.479,54.0016 145.5,53.5C 147.901,55.0622 149.901,54.7288 151.5,52.5C 149.174,52.9004 146.841,52.4004 144.5,51C 143.62,49.6439 143.286,48.1439 143.5,46.5C 143.297,44.6096 143.963,43.1096 145.5,42C 147.926,42.0479 150.259,41.8812 152.5,41.5C 153.661,45.7953 153.828,50.1287 153,54.5C 152.292,55.3805 151.458,56.0472 150.5,56.5 Z"/></g>
<g><path style="opacity:1" fill="#e8e8e8" d="M 146.5,43.5 C 151.328,43.3852 152.661,45.5519 150.5,50C 145.57,50.427 144.237,48.2604 146.5,43.5 Z"/></g>
<g><path style="opacity:1" fill="#3b3b3b" d="M 111.5,43.5 C 111.817,46.5719 111.484,49.5719 110.5,52.5C 109.571,51.4502 108.905,51.4502 108.5,52.5C 103.333,53.5081 101.666,51.6748 103.5,47C 105.577,46.8078 107.577,46.3078 109.5,45.5C 109.333,45.1667 109.167,44.8333 109,44.5C 106.645,43.8686 104.478,43.8686 102.5,44.5C 105.029,40.8589 108.029,40.5255 111.5,43.5 Z"/></g>
<g><path style="opacity:1" fill="#e9e9e9" d="M 105.5,47.5 C 110.276,47.6708 110.609,48.6708 106.5,50.5C 104.197,50.1237 103.863,49.1237 105.5,47.5 Z"/></g>
<g><path style="opacity:1" fill="#393939" d="M 130.5,43.5 C 130.631,44.2389 130.464,44.9056 130,45.5C 128.759,43.5794 127.259,43.246 125.5,44.5C 127.796,45.8191 129.796,47.4857 131.5,49.5C 131.288,51.888 129.955,52.888 127.5,52.5C 124.818,52.9227 123.652,51.9227 124,49.5C 125.931,52.1047 127.764,52.1047 129.5,49.5C 127.614,48.5937 125.78,47.5937 124,46.5C 123.517,45.552 123.351,44.552 123.5,43.5C 125.833,40.8333 128.167,40.8333 130.5,43.5 Z"/></g>
<g><path style="opacity:1" fill="#2e2c2d" d="M 44.5,68.5 C 41.6038,69.7752 38.6038,69.7752 35.5,68.5C 34.4648,64.5609 33.1314,60.7275 31.5,57C 25.1405,56.1694 18.8072,56.3361 12.5,57.5C 11.0068,61.8119 9.67348,66.1453 8.5,70.5C 5.5,70.5 2.5,70.5 -0.5,70.5C -0.5,69.8333 -0.5,69.1667 -0.5,68.5C 2.16667,68.5 4.83333,68.5 7.5,68.5C 8.42446,64.0587 9.7578,59.7254 11.5,55.5C 17.8333,54.8333 24.1667,54.1667 30.5,53.5C 30.1667,52.8333 29.8333,52.1667 29.5,51.5C 24.1667,50.8333 18.8333,50.1667 13.5,49.5C 14.7157,45.6787 16.2157,42.0121 18,38.5C 18.1221,42.0119 17.2887,45.3453 15.5,48.5C 19.8333,49.8333 24.1667,49.8333 28.5,48.5C 25.26,39.6111 21.9267,30.7777 18.5,22C 21.5541,21.1786 24.5541,21.3452 27.5,22.5C 33.5671,37.7029 39.2337,53.0362 44.5,68.5 Z"/></g>
<g><path style="opacity:1" fill="#414141" d="M 153.5,55.5 C 156.957,55.6672 157.29,56.6672 154.5,58.5C 153.614,57.675 153.281,56.675 153.5,55.5 Z"/></g>
<g><path style="opacity:1" fill="#373737" d="M 159.5,59.5 C 161.199,59.3398 162.866,59.5065 164.5,60C 165.711,60.8928 165.711,61.7261 164.5,62.5C 162.668,60.0428 161.001,60.0428 159.5,62.5C 161.304,63.7681 163.304,64.4348 165.5,64.5C 165.081,70.7721 162.415,71.9388 157.5,68C 159.425,68.1349 161.425,68.3016 163.5,68.5C 163.5,67.5 163.5,66.5 163.5,65.5C 158.155,65.5504 156.822,63.5504 159.5,59.5 Z"/></g>
<g><path style="opacity:1" fill="#3b3b3b" d="M 139.5,69.5 C 136.721,70.2255 133.721,70.2255 130.5,69.5C 130.286,67.8561 130.62,66.3561 131.5,65C 133.5,64.1667 135.5,63.3333 137.5,62.5C 135.219,61.8153 132.886,61.6487 130.5,62C 133.188,58.9267 136.021,58.7601 139,61.5C 139.497,64.146 139.664,66.8127 139.5,69.5 Z"/></g>
<g><path style="opacity:1" fill="#2f2f30" d="M 142.5,59.5 C 144.698,60.0671 147.031,60.0671 149.5,59.5C 151.632,62.5676 151.965,65.9009 150.5,69.5C 149.52,66.9135 149.187,64.2469 149.5,61.5C 147.585,61.2155 145.919,61.5489 144.5,62.5C 143.686,64.631 143.186,66.9644 143,69.5C 142.502,66.1832 142.335,62.8499 142.5,59.5 Z"/></g>
<g><path style="opacity:1" fill="#373737" d="M 182.5,61.5 C 182.664,64.1873 182.497,66.854 182,69.5C 181.817,66.6353 181.317,63.9686 180.5,61.5C 179.178,61.33 178.011,61.6634 177,62.5C 175.63,71.5423 174.797,71.209 174.5,61.5C 172.856,61.2865 171.356,61.6198 170,62.5C 169.818,65.2263 169.318,67.8929 168.5,70.5C 167.167,66.8333 167.167,63.1667 168.5,59.5C 172.138,59.6526 175.805,59.6526 179.5,59.5C 181.038,59.4534 182.038,60.1201 182.5,61.5 Z"/></g>
<g><path style="opacity:1" fill="#363636" d="M 59.5,69.5 C 56.8333,69.5 54.1667,69.5 51.5,69.5C 51.5,68.1667 51.5,66.8333 51.5,65.5C 51.6724,57.4551 52.3391,49.4551 53.5,41.5C 63.8333,41.5 74.1667,41.5 84.5,41.5C 84.8076,43.924 84.4742,46.2573 83.5,48.5C 82.5344,46.604 82.2011,44.604 82.5,42.5C 73.1667,42.5 63.8333,42.5 54.5,42.5C 53.8539,51.1517 53.5205,59.8184 53.5,68.5C 55.1992,68.6602 56.8659,68.4935 58.5,68C 65.1853,61.9094 71.6853,62.0761 78,68.5C 80.3725,76.7493 77.7058,82.416 70,85.5C 69.5,85.1667 69,84.8333 68.5,84.5C 76.446,81.8602 78.946,76.5269 76,68.5C 74.1367,66.051 71.6367,65.051 68.5,65.5C 64.6345,65.0628 61.6345,66.3961 59.5,69.5 Z"/></g>
<g><path style="opacity:1" fill="#4f4f4f" d="M 127.5,69.5 C 124.825,70.147 122.158,70.4804 119.5,70.5C 118.513,67.2317 118.18,63.8984 118.5,60.5C 119.619,54.0255 120.785,54.0255 122,60.5C 124,59.1667 126,59.1667 128,60.5C 130.12,63.6975 129.953,66.6975 127.5,69.5 Z"/></g>
<g><path style="opacity:1" fill="#fafafa" d="M 122.5,61.5 C 123.833,61.5 125.167,61.5 126.5,61.5C 126.662,63.5273 126.495,65.5273 126,67.5C 124.667,68.8333 123.333,68.8333 122,67.5C 121.322,65.4024 121.489,63.4024 122.5,61.5 Z"/></g>
<g><path style="opacity:1" fill="#404040" d="M 187.5,59.5 C 192.206,58.8811 194.873,60.8811 195.5,65.5C 192.753,65.1866 190.086,65.52 187.5,66.5C 189.4,69.1289 191.4,69.1289 193.5,66.5C 194.594,67.868 194.26,69.0347 192.5,70C 184.088,69.8117 182.421,66.3117 187.5,59.5 Z"/></g>
<g><path style="opacity:1" fill="#f2f2f2" d="M 187.5,61.5 C 189.288,61.2148 190.955,61.5481 192.5,62.5C 191.667,62.8333 190.833,63.1667 190,63.5C 188.624,63.3158 187.791,62.6491 187.5,61.5 Z"/></g>
<g><path style="opacity:1" fill="#2b2b2b" d="M 117.5,60.5 C 116.469,61.2485 115.302,61.9152 114,62.5C 114.03,65.3615 113.197,67.6948 111.5,69.5C 111.18,66.1016 111.513,62.7683 112.5,59.5C 114.215,59.5951 115.881,59.9284 117.5,60.5 Z"/></g>
<g><path style="opacity:1" fill="#e4e4e5" d="M 132.5,65.5 C 134.288,65.2148 135.955,65.5481 137.5,66.5C 136.332,68.2174 134.665,68.8841 132.5,68.5C 132.5,67.5 132.5,66.5 132.5,65.5 Z"/></g>
<g><path style="opacity:1" fill="#3d3d3d" d="M 153.5,59.5 C 154.787,60.8714 155.453,62.7047 155.5,65C 155.167,66.8333 154.833,68.6667 154.5,70.5C 153.511,66.8927 153.177,63.226 153.5,59.5 Z"/></g>
<g><path style="opacity:1" fill="#8c8c8d" d="M 142.5,59.5 C 142.335,62.8499 142.502,66.1832 143,69.5C 143.186,66.9644 143.686,64.631 144.5,62.5C 144.5,65.1667 144.5,67.8333 144.5,70.5C 143.5,70.5 142.5,70.5 141.5,70.5C 141.5,68.5 141.5,66.5 141.5,64.5C 141.216,62.5853 141.549,60.9187 142.5,59.5 Z"/></g>
<g><path style="opacity:1" fill="#797979" d="M 180.5,61.5 C 181.317,63.9686 181.817,66.6353 182,69.5C 182.497,66.854 182.664,64.1873 182.5,61.5C 183.477,64.2869 183.81,67.2869 183.5,70.5C 182.5,70.5 181.5,70.5 180.5,70.5C 180.5,67.5 180.5,64.5 180.5,61.5 Z"/></g>
<g><path style="opacity:1" fill="#3d3d3d" d="M 107.5,56.5 C 109.388,58.9878 110.055,61.9878 109.5,65.5C 106.63,71.2843 102.797,71.9509 98,67.5C 97.5014,63.8484 97.3347,60.1817 97.5,56.5C 98.5,56.5 99.5,56.5 100.5,56.5C 100.335,60.1817 100.501,63.8484 101,67.5C 103.267,68.9348 105.267,68.6015 107,66.5C 107.498,63.1832 107.665,59.8499 107.5,56.5 Z"/></g>
<g><path style="opacity:1" fill="#868686" d="M 35.5,68.5 C 38.6038,69.7752 41.6038,69.7752 44.5,68.5C 45.0431,68.56 45.3764,68.8933 45.5,69.5C 43.8333,69.8333 42.1667,70.1667 40.5,70.5C 38.3603,70.4439 36.6936,69.7773 35.5,68.5 Z"/></g>
<g><path style="opacity:1" fill="#8c8c8c" d="M 51.5,65.5 C 51.5,66.8333 51.5,68.1667 51.5,69.5C 54.1667,69.5 56.8333,69.5 59.5,69.5C 56.7131,70.4767 53.7131,70.81 50.5,70.5C 50.2155,68.5853 50.5489,66.9187 51.5,65.5 Z"/></g>
<g><path style="opacity:1" fill="#3a3a3a" d="M 73.5,91.5 C 69.8333,91.5 66.1667,91.5 62.5,91.5C 55.42,88.9275 51.5866,83.9275 51,76.5C 55.8214,89.1543 64.6547,92.9876 77.5,88C 80.7284,86.4371 82.8951,83.9371 84,80.5C 87.4684,68.0636 82.9684,61.0636 70.5,59.5C 66.1217,59.8838 62.1217,61.0504 58.5,63C 60.305,60.5971 62.6384,58.9305 65.5,58C 75.2657,56.1311 82.0991,59.6311 86,68.5C 88.5446,80.0927 84.3779,87.7593 73.5,91.5 Z"/></g>
</svg>
