<svg width="20" height="21" viewBox="0 0 20 21" fill="none" xmlns="http://www.w3.org/2000/svg">
<path fill-rule="evenodd" clip-rule="evenodd" d="M8 4.28735C6.34315 4.28735 5 5.6305 5 7.28735V11.2874C5 14.0488 7.23858 16.2874 10 16.2874C12.7614 16.2874 15 14.0488 15 11.2874V7.28735C15 6.73507 15.4477 6.28735 16 6.28735C16.5523 6.28735 17 6.73507 17 7.28735V11.2874C17 15.1533 13.866 18.2874 10 18.2874C6.13401 18.2874 3 15.1533 3 11.2874V7.28735C3 4.52593 5.23858 2.28735 8 2.28735C10.7614 2.28735 13 4.52593 13 7.28735V11.2874C13 12.9442 11.6569 14.2874 10 14.2874C8.34315 14.2874 7 12.9442 7 11.2874V7.28735C7 6.73507 7.44772 6.28735 8 6.28735C8.55228 6.28735 9 6.73507 9 7.28735V11.2874C9 11.8396 9.44772 12.2874 10 12.2874C10.5523 12.2874 11 11.8396 11 11.2874V7.28735C11 5.6305 9.65685 4.28735 8 4.28735Z" fill="#9CA3AF"/>
</svg>
