<svg width="20" height="21" viewBox="0 0 20 21" fill="none" xmlns="http://www.w3.org/2000/svg">
<path fill-rule="evenodd" clip-rule="evenodd" d="M8 4.28748C6.34315 4.28748 5 5.63062 5 7.28748V11.2875C5 14.0489 7.23858 16.2875 10 16.2875C12.7614 16.2875 15 14.0489 15 11.2875V7.28748C15 6.73519 15.4477 6.28748 16 6.28748C16.5523 6.28748 17 6.73519 17 7.28748V11.2875C17 15.1535 13.866 18.2875 10 18.2875C6.13401 18.2875 3 15.1535 3 11.2875V7.28748C3 4.52605 5.23858 2.28748 8 2.28748C10.7614 2.28748 13 4.52605 13 7.28748V11.2875C13 12.9443 11.6569 14.2875 10 14.2875C8.34315 14.2875 7 12.9443 7 11.2875V7.28748C7 6.73519 7.44772 6.28748 8 6.28748C8.55228 6.28748 9 6.73519 9 7.28748V11.2875C9 11.8398 9.44772 12.2875 10 12.2875C10.5523 12.2875 11 11.8398 11 11.2875V7.28748C11 5.63062 9.65685 4.28748 8 4.28748Z" fill="#9CA3AF"/>
</svg>
