<svg width="20" height="21" viewBox="0 0 20 21" fill="none" xmlns="http://www.w3.org/2000/svg">
<path fill-rule="evenodd" clip-rule="evenodd" d="M10 3.28735C10.2652 3.28735 10.5196 3.39271 10.7071 3.58025L13.7071 6.58025C14.0976 6.97077 14.0976 7.60394 13.7071 7.99446C13.3166 8.38498 12.6834 8.38498 12.2929 7.99446L10 5.70157L7.70711 7.99446C7.31658 8.38498 6.68342 8.38498 6.29289 7.99446C5.90237 7.60394 5.90237 6.97077 6.29289 6.58025L9.29289 3.58025C9.48043 3.39271 9.73478 3.28735 10 3.28735ZM6.29289 12.5802C6.68342 12.1897 7.31658 12.1897 7.70711 12.5802L10 14.8731L12.2929 12.5802C12.6834 12.1897 13.3166 12.1897 13.7071 12.5802C14.0976 12.9708 14.0976 13.6039 13.7071 13.9945L10.7071 16.9945C10.3166 17.385 9.68342 17.385 9.29289 16.9945L6.29289 13.9945C5.90237 13.6039 5.90237 12.9708 6.29289 12.5802Z" fill="#52606D"/>
</svg>
