<svg width="18" height="18" viewBox="0 0 18 18" fill="none" xmlns="http://www.w3.org/2000/svg">
<path fill-rule="evenodd" clip-rule="evenodd" d="M1.95028 4.49998C4.65772 4.46325 7.12454 3.43026 9.00078 1.75098C10.877 3.43026 13.3438 4.46325 16.0513 4.49998C16.1496 5.08568 16.2008 5.68736 16.2008 6.30099C16.2008 11.0034 13.1955 15.0038 9.00078 16.4864C4.80609 15.0038 1.80078 11.0034 1.80078 6.30099C1.80078 5.68736 1.85196 5.08568 1.95028 4.49998ZM12.3372 7.83747C12.6886 7.486 12.6886 6.91615 12.3372 6.56468C11.9857 6.21321 11.4159 6.21321 11.0644 6.56468L8.10078 9.52828L6.93718 8.36468C6.58571 8.01321 6.01586 8.01321 5.66439 8.36468C5.31291 8.71615 5.31291 9.286 5.66439 9.63747L7.46439 11.4375C7.81586 11.7889 8.38571 11.7889 8.73718 11.4375L12.3372 7.83747Z" fill="#52606D"/>
</svg>
