<svg width="24" height="24" viewBox="0 0 24 24" fill="none" xmlns="http://www.w3.org/2000/svg">
<g clip-path="url(#clip0_647_2885)">
<path d="M10.8587 3.51246C11.218 2.40689 12.782 2.40689 13.1413 3.51246L14.4248 7.46262C14.5854 7.95704 15.0461 8.2918 15.566 8.2918H19.7195C20.8819 8.2918 21.3653 9.77933 20.4248 10.4626L17.0646 12.9039C16.644 13.2095 16.468 13.7512 16.6287 14.2456L17.9122 18.1957C18.2714 19.3013 17.006 20.2207 16.0655 19.5374L12.7053 17.0961C12.2848 16.7905 11.7152 16.7905 11.2947 17.0961L7.93446 19.5374C6.994 20.2207 5.72862 19.3013 6.08784 18.1957L7.37133 14.2456C7.53198 13.7512 7.35599 13.2095 6.9354 12.9039L3.5752 10.4626C2.63474 9.77934 3.11807 8.2918 4.28054 8.2918H8.43398C8.95385 8.2918 9.4146 7.95704 9.57525 7.46262L10.8587 3.51246Z" fill="#111827"/>
</g>
<defs>
<clipPath id="clip0_647_2885">
<rect width="24" height="24" fill="white"/>
</clipPath>
</defs>
</svg>
