<svg width="350" height="330" viewBox="0 0 350 330" fill="none" xmlns="http://www.w3.org/2000/svg">
<g clip-path="url(#clip0_579_5260)">
<path d="M338.4 223.133H186.135C184.826 223.131 183.571 222.653 182.646 221.803C181.72 220.953 181.199 219.801 181.197 218.599V14.8834C181.202 13.6828 181.724 12.5327 182.649 11.6845C183.574 10.8363 184.827 10.359 186.135 10.3569H338.4C339.707 10.359 340.96 10.8363 341.886 11.6845C342.811 12.5327 343.333 13.6828 343.337 14.8834V218.599C343.335 219.801 342.814 220.953 341.889 221.803C340.963 222.653 339.709 223.131 338.4 223.133ZM186.135 10.5504C185.512 10.5463 184.894 10.6553 184.318 10.8711C183.741 11.087 183.216 11.4054 182.774 11.808C182.331 12.2107 181.98 12.6897 181.74 13.2175C181.499 13.7453 181.375 14.3114 181.374 14.8834V218.599C181.374 219.75 181.872 220.854 182.759 221.668C183.645 222.482 184.847 222.94 186.101 222.94H338.4C339.653 222.94 340.856 222.482 341.742 221.668C342.629 220.854 343.127 219.75 343.127 218.599V14.8834C343.127 13.7322 342.629 12.6281 341.742 11.814C340.856 11 339.653 10.5426 338.4 10.5426L186.135 10.5504Z" fill="#E0E0E0"/>
<path d="M162.771 223.135H10.4723C9.16341 223.133 7.90881 222.654 6.98332 221.805C6.05782 220.955 5.5369 219.803 5.53467 218.601V14.8853C5.5369 13.6834 6.05782 12.5313 6.98332 11.6814C7.90881 10.8315 9.16341 10.3531 10.4723 10.3511H162.771C164.08 10.3531 165.334 10.8315 166.26 11.6814C167.185 12.5313 167.706 13.6834 167.708 14.8853V218.601C167.706 219.803 167.185 220.955 166.26 221.805C165.334 222.654 164.08 223.133 162.771 223.135ZM10.4723 10.5523C9.22006 10.5523 8.01902 11.0085 7.13278 11.8209C6.24655 12.6333 5.74755 13.7354 5.74532 14.8853V218.601C5.74532 219.752 6.24333 220.856 7.12981 221.67C8.01628 222.484 9.2186 222.941 10.4723 222.941H162.771C164.025 222.941 165.227 222.484 166.113 221.67C167 220.856 167.498 219.752 167.498 218.601V14.8853C167.498 13.7341 167 12.63 166.113 11.8159C165.227 11.0018 164.025 10.5445 162.771 10.5445L10.4723 10.5523Z" fill="#E0E0E0"/>
<path d="M385.647 270.388H-35.6497V270.581H385.647V270.388Z" fill="#E0E0E0"/>
<path d="M151.14 162.875V31.104L92.5463 31.104V162.875H151.14Z" fill="#E0E0E0"/>
<path d="M147.917 34.051H95.7522V159.911H147.917V34.051Z" fill="#F0F0F0"/>
<path d="M147.917 34.051V40.45L95.7522 88.3457V75.5323L140.932 34.051H147.917Z" fill="#FAFAFA"/>
<path d="M147.917 73.5359V92.2918L95.7522 140.188V121.439L147.917 73.5359Z" fill="#FAFAFA"/>
<path d="M124.672 31.095H120.788V162.866H124.672V31.095Z" fill="#E0E0E0"/>
<path d="M252.844 162.866V31.095L194.25 31.095V162.866H252.844Z" fill="#E0E0E0"/>
<path d="M249.642 34.051H197.477V159.911H249.642V34.051Z" fill="#F0F0F0"/>
<path d="M249.642 34.051V40.45L197.477 88.3457V75.5323L242.657 34.051H249.642Z" fill="#FAFAFA"/>
<path d="M249.642 73.5359V92.2918L197.477 140.188V121.439L249.642 73.5359Z" fill="#FAFAFA"/>
<path d="M226.38 31.095H222.496V162.866H226.38V31.095Z" fill="#E0E0E0"/>
<path d="M49.5948 61.3884C59.1205 61.3884 66.8427 54.2971 66.8427 45.5495C66.8427 36.802 59.1205 29.7107 49.5948 29.7107C40.0691 29.7107 32.3469 36.802 32.3469 45.5495C32.3469 54.2971 40.0691 61.3884 49.5948 61.3884Z" fill="#E0E0E0"/>
<path d="M65.0796 48.8467C67.0628 40.9956 61.7398 33.1546 53.1903 31.3334C44.6408 29.5122 36.1023 34.4003 34.1191 42.2514C32.1358 50.1025 37.4588 57.9434 46.0083 59.7647C54.5578 61.5859 63.0963 56.6977 65.0796 48.8467Z" fill="#FAFAFA"/>
<path d="M49.6466 32.2791H49.0483V35.3199H49.6466V32.2791Z" fill="#E0E0E0"/>
<path d="M49.6466 55.6936H49.0483V58.7345H49.6466V55.6936Z" fill="#E0E0E0"/>
<path d="M38.245 45.2317H34.9336V45.7811H38.245V45.2317Z" fill="#E0E0E0"/>
<path d="M63.7403 45.2317H60.429V45.7811H63.7403V45.2317Z" fill="#E0E0E0"/>
<path d="M59.3188 35.9665L56.9773 38.1167L57.4003 38.5052L59.7418 36.3549L59.3188 35.9665Z" fill="#E0E0E0"/>
<path d="M41.2955 52.5063L38.9548 54.6572L39.378 55.0456L41.7187 52.8946L41.2955 52.5063Z" fill="#E0E0E0"/>
<path d="M39.3695 35.9621L38.9465 36.3506L41.2884 38.5004L41.7114 38.1119L39.3695 35.9621Z" fill="#E0E0E0"/>
<path d="M57.3962 52.5296L56.9731 52.918L59.3142 55.0686L59.7373 54.6802L57.3962 52.5296Z" fill="#E0E0E0"/>
<path d="M49.2294 45.1449L49.0442 45.5769L54.6656 47.6093L54.8508 47.1773L49.2294 45.1449Z" fill="#E0E0E0"/>
<path d="M49.5905 45.7423H40.322V45.2703H49.085V38.6702H49.5905V45.7423Z" fill="#E0E0E0"/>
<path d="M266.186 48.9539L265.68 48.2189L295.162 31.1575L323.929 48.598L323.406 49.3253L295.154 32.1943L266.186 48.9539Z" fill="#E6E6E6"/>
<path d="M324.56 48.2583H265.174V82.3656H324.56V48.2583Z" fill="#E0E0E0"/>
<path d="M322.908 80.8631V49.7734H266.817V80.8631H322.908Z" fill="white"/>
<path d="M274.785 59.5151H271.204V62.8036H274.785V59.5151Z" fill="#F5F5F5"/>
<path d="M280.312 59.5151H276.731V62.8036H280.312V59.5151Z" fill="#F5F5F5"/>
<path d="M285.836 59.5151H282.255V62.8036H285.836V59.5151Z" fill="#F5F5F5"/>
<path d="M291.36 59.5151H287.779V62.8036H291.36V59.5151Z" fill="#F5F5F5"/>
<path d="M296.888 59.5151H293.307V62.8036H296.888V59.5151Z" fill="#F5F5F5"/>
<path d="M302.411 59.5151H298.83V62.8036H302.411V59.5151Z" fill="#F5F5F5"/>
<path d="M307.931 59.5151H304.35V62.8036H307.931V59.5151Z" fill="#F5F5F5"/>
<path d="M313.458 59.5151H309.877V62.8036H313.458V59.5151Z" fill="#F5F5F5"/>
<path d="M318.99 59.5151H315.409V62.8036H318.99V59.5151Z" fill="#F5F5F5"/>
<path d="M274.785 64.05H271.204V67.3385H274.785V64.05Z" fill="#F5F5F5"/>
<path d="M280.312 64.05H276.731V67.3385H280.312V64.05Z" fill="#F5F5F5"/>
<path d="M285.836 64.05H282.255V67.3385H285.836V64.05Z" fill="#F5F5F5"/>
<path d="M291.36 64.05H287.779V67.3385H291.36V64.05Z" fill="#F5F5F5"/>
<path d="M296.888 64.05H293.307V67.3385H296.888V64.05Z" fill="#F5F5F5"/>
<path d="M302.411 64.05H298.83V67.3385H302.411V64.05Z" fill="#F5F5F5"/>
<path d="M307.931 64.05H304.35V67.3385H307.931V64.05Z" fill="#F5F5F5"/>
<path d="M313.458 64.05H309.877V67.3385H313.458V64.05Z" fill="#F5F5F5"/>
<path d="M318.99 64.05H315.409V67.3385H318.99V64.05Z" fill="#F5F5F5"/>
<path d="M274.785 68.5757H271.204V71.8642H274.785V68.5757Z" fill="#F5F5F5"/>
<path d="M280.312 68.5757H276.731V71.8642H280.312V68.5757Z" fill="#F5F5F5"/>
<path d="M285.836 68.5757H282.255V71.8642H285.836V68.5757Z" fill="#F5F5F5"/>
<path d="M291.36 68.5757H287.779V71.8642H291.36V68.5757Z" fill="#F5F5F5"/>
<path d="M296.888 68.5757H293.307V71.8642H296.888V68.5757Z" fill="#F5F5F5"/>
<path d="M302.411 68.5757H298.83V71.8642H302.411V68.5757Z" fill="#F5F5F5"/>
<path d="M307.931 68.5757H304.35V71.8642H307.931V68.5757Z" fill="#F5F5F5"/>
<path d="M313.458 68.5757H309.877V71.8642H313.458V68.5757Z" fill="#F5F5F5"/>
<path d="M318.99 68.5757H315.409V71.8642H318.99V68.5757Z" fill="#F5F5F5"/>
<path d="M274.785 73.4517H271.204V76.7401H274.785V73.4517Z" fill="#F5F5F5"/>
<path d="M280.312 73.4517H276.731V76.7401H280.312V73.4517Z" fill="#F5F5F5"/>
<path d="M285.836 73.4517H282.255V76.7401H285.836V73.4517Z" fill="#F5F5F5"/>
<path d="M291.36 73.4517H287.779V76.7401H291.36V73.4517Z" fill="#F5F5F5"/>
<path d="M311.042 52.8157H279.158V55.6631H311.042V52.8157Z" fill="#E0E0E0"/>
<path d="M297.056 31.4676C297.056 31.7951 296.951 32.1152 296.753 32.3875C296.554 32.6599 296.273 32.8721 295.943 32.9974C295.614 33.1227 295.251 33.1555 294.902 33.0916C294.552 33.0277 294.23 32.87 293.978 32.6385C293.726 32.4069 293.554 32.1119 293.485 31.7907C293.415 31.4695 293.451 31.1365 293.587 30.834C293.724 30.5314 293.955 30.2728 294.252 30.0908C294.548 29.9089 294.897 29.8118 295.253 29.8118C295.732 29.8118 296.19 29.9862 296.528 30.2968C296.866 30.6073 297.056 31.0285 297.056 31.4676Z" fill="#E0E0E0"/>
<path d="M324.976 299.521C324.976 301.745 259.512 303.554 178.767 303.554C98.022 303.554 32.551 301.745 32.551 299.521C32.551 297.297 98.001 295.481 178.767 295.481C259.533 295.481 324.976 297.29 324.976 299.521Z" fill="#F5F5F5"/>
<path d="M51.639 155.787L53.676 155.235L52.381 150.984L50.022 151.642C49.3502 150.923 48.5054 150.366 47.558 150.017V147.78H42.854V150.017C42.1156 150.285 41.4367 150.68 40.852 151.181L38.752 150.234L36.687 154.182L38.752 155.129C38.752 155.294 38.752 155.452 38.752 155.616C38.7532 156.649 39.0351 157.663 39.571 158.564L38.031 160.393L41.706 163.157L43.211 161.38C43.8555 161.576 44.5287 161.676 45.206 161.676C45.7009 161.678 46.1942 161.625 46.676 161.519L48.034 163.315L51.87 160.755L50.547 158.998C51.2343 158.05 51.6136 156.935 51.639 155.787ZM40.971 155.629C40.971 154.849 41.2173 154.085 41.6788 153.436C42.1403 152.787 42.7963 152.281 43.5637 151.982C44.3312 151.683 45.1757 151.605 45.9904 151.757C46.8051 151.91 47.5535 152.286 48.1409 152.838C48.7282 153.39 49.1283 154.093 49.2903 154.859C49.4524 155.625 49.3692 156.419 49.0513 157.14C48.7334 157.862 48.1951 158.478 47.5044 158.912C46.8137 159.346 46.0017 159.577 45.171 159.577C44.0641 159.567 43.0052 159.151 42.2205 158.417C41.4358 157.683 40.9874 156.69 40.971 155.649V155.629Z" fill="#002BDD"/>
<path opacity="0.6" d="M51.639 155.787L53.676 155.235L52.381 150.984L50.022 151.642C49.3502 150.923 48.5054 150.366 47.558 150.017V147.78H42.854V150.017C42.1156 150.285 41.4367 150.68 40.852 151.181L38.752 150.234L36.687 154.182L38.752 155.129C38.752 155.294 38.752 155.452 38.752 155.616C38.7532 156.649 39.0351 157.663 39.571 158.564L38.031 160.393L41.706 163.157L43.211 161.38C43.8555 161.576 44.5287 161.676 45.206 161.676C45.7009 161.678 46.1942 161.625 46.676 161.519L48.034 163.315L51.87 160.755L50.547 158.998C51.2343 158.05 51.6136 156.935 51.639 155.787ZM40.971 155.629C40.971 154.849 41.2173 154.085 41.6788 153.436C42.1403 152.787 42.7963 152.281 43.5637 151.982C44.3312 151.683 45.1757 151.605 45.9904 151.757C46.8051 151.91 47.5535 152.286 48.1409 152.838C48.7282 153.39 49.1283 154.093 49.2903 154.859C49.4524 155.625 49.3692 156.419 49.0513 157.14C48.7334 157.862 48.1951 158.478 47.5044 158.912C46.8137 159.346 46.0017 159.577 45.171 159.577C44.0641 159.567 43.0052 159.151 42.2205 158.417C41.4358 157.683 40.9874 156.69 40.971 155.649V155.629Z" fill="#002BDD"/>
<path d="M321.663 86.3357L323.7 85.783L322.405 81.5324L320.053 82.1904C319.376 81.4755 318.529 80.9209 317.582 80.5717V78.3345H312.899V80.5717C312.16 80.8417 311.481 81.2389 310.897 81.7429L308.811 80.7757L306.711 84.7237L308.811 85.6712C308.811 85.8357 308.811 85.9936 308.811 86.1581C308.812 87.1903 309.094 88.205 309.63 89.1059L308.083 90.9286L311.758 93.6922L313.263 91.9156C313.907 92.1113 314.58 92.2113 315.258 92.2117C315.755 92.2131 316.251 92.1601 316.735 92.0538L318.086 93.8501L321.922 91.2839L320.599 89.5468C321.276 88.5956 321.646 87.4803 321.663 86.3357ZM311.002 86.1778C311.002 85.397 311.248 84.6337 311.71 83.9844C312.171 83.3352 312.827 82.8292 313.594 82.5304C314.362 82.2315 315.206 82.1534 316.021 82.3057C316.836 82.458 317.584 82.834 318.172 83.3862C318.759 83.9383 319.159 84.6418 319.321 85.4076C319.483 86.1735 319.4 86.9673 319.082 87.6887C318.764 88.4101 318.226 89.0267 317.535 89.4605C316.844 89.8943 316.032 90.1258 315.202 90.1258C314.088 90.1258 313.019 89.7099 312.232 88.9695C311.444 88.2291 311.002 87.2249 311.002 86.1778Z" fill="#002BDD"/>
<path opacity="0.6" d="M321.663 86.3357L323.7 85.783L322.405 81.5324L320.053 82.1904C319.376 81.4755 318.529 80.9209 317.582 80.5717V78.3345H312.899V80.5717C312.16 80.8417 311.481 81.2389 310.897 81.7429L308.811 80.7757L306.711 84.7237L308.811 85.6712C308.811 85.8357 308.811 85.9936 308.811 86.1581C308.812 87.1903 309.094 88.205 309.63 89.1059L308.083 90.9286L311.758 93.6922L313.263 91.9156C313.907 92.1113 314.58 92.2113 315.258 92.2117C315.755 92.2131 316.251 92.1601 316.735 92.0538L318.086 93.8501L321.922 91.2839L320.599 89.5468C321.276 88.5956 321.646 87.4803 321.663 86.3357ZM311.002 86.1778C311.002 85.397 311.248 84.6337 311.71 83.9844C312.171 83.3352 312.827 82.8292 313.594 82.5304C314.362 82.2315 315.206 82.1534 316.021 82.3057C316.836 82.458 317.584 82.834 318.172 83.3862C318.759 83.9383 319.159 84.6418 319.321 85.4076C319.483 86.1735 319.4 86.9673 319.082 87.6887C318.764 88.4101 318.226 89.0267 317.535 89.4605C316.844 89.8943 316.032 90.1258 315.202 90.1258C314.088 90.1258 313.019 89.7099 312.232 88.9695C311.444 88.2291 311.002 87.2249 311.002 86.1778Z" fill="#002BDD"/>
<path d="M142.308 139.594C142.308 139.594 121.028 149.682 114.623 174.942C109.954 193.366 111.368 228.135 119.782 230.925C128.196 233.715 129.134 212.185 129.204 204.532C129.274 196.88 136.904 187.536 143.701 186.977C143.701 186.977 145.031 146.576 142.308 139.594Z" fill="#012BDD"/>
<path d="M215.212 139.594C215.212 139.594 236.492 149.682 242.897 174.942C247.566 193.366 246.152 228.135 237.738 230.925C229.324 233.715 228.386 212.185 228.316 204.532C228.246 196.88 220.616 187.536 213.819 186.977C213.819 186.977 212.489 146.576 215.212 139.594Z" fill="#002BDD"/>
<path d="M207.896 216.363H149.096C149.096 216.363 138.33 177.476 142.551 133.87C143.689 122.315 146.81 111.009 151.791 100.391C151.861 100.226 151.938 100.062 152.015 99.904C153.247 97.272 154.542 94.7913 155.872 92.4291C161.095 83.1351 167.608 74.5344 175.241 66.8526C175.678 66.3843 176.216 66.009 176.819 65.7519C177.423 65.4948 178.078 65.3618 178.741 65.3618C179.403 65.3618 180.058 65.4948 180.662 65.7519C181.266 66.009 181.804 66.3843 182.241 66.8526C190.117 74.7805 196.801 83.6848 202.107 93.3174C203.437 95.7322 204.732 98.2787 205.957 100.95L206.174 101.424C210.871 111.745 213.828 122.692 214.938 133.87C219.152 177.502 207.896 216.363 207.896 216.363Z" fill="#407BFF"/>
<g opacity="0.5">
<path d="M207.899 216.364H149.099C149.099 216.364 138.333 177.476 142.554 133.87C143.693 122.315 146.813 111.009 151.794 100.391C151.864 100.227 151.941 100.062 152.018 99.9045C153.25 97.2725 154.545 94.7918 155.875 92.4296C161.098 83.1356 167.611 74.5349 175.244 66.8531C175.681 66.3848 176.219 66.0095 176.823 65.7524C177.426 65.4953 178.081 65.3623 178.744 65.3623C179.406 65.3623 180.062 65.4953 180.665 65.7524C181.269 66.0095 181.807 66.3848 182.244 66.8531C190.12 74.781 196.804 83.6853 202.11 93.3179C203.44 95.7327 204.735 98.2792 205.96 100.951L206.177 101.424C210.874 111.746 213.831 122.693 214.941 133.87C219.155 177.502 207.899 216.364 207.899 216.364Z" fill="white"/>
</g>
<path d="M201.394 210.823H157.301V211.455H201.394V210.823Z" fill="#407BFF"/>
<path d="M209.237 231.169H149.8C145.565 225.438 150.045 216.364 150.045 216.364H208.033C208.033 216.364 212.492 223.766 209.237 231.169Z" fill="#263238"/>
<path d="M194.22 236.367H164.498C162.398 233.498 164.624 228.964 164.624 228.964H193.618C193.618 228.964 195.844 232.662 194.22 236.367Z" fill="#263238"/>
<path d="M194.235 236.367H164.597C158.598 239.361 143.674 246.507 145.76 258.614H213.835C215.921 246.507 200.234 239.354 194.235 236.367Z" fill="#002BDD"/>
<path d="M215.884 256.054H143.203V261.325H215.884V256.054Z" fill="#263238"/>
<path d="M202.108 93.3173C196.746 96.9232 188.542 100.963 178.742 100.963C170.244 100.918 162.076 97.8634 155.866 92.4093C156.426 91.4135 156.991 90.4441 157.56 89.5009L157.833 89.0601C162.687 81.0353 168.527 73.575 175.235 66.8328C175.672 66.3645 176.21 65.9892 176.814 65.7321C177.417 65.475 178.072 65.342 178.735 65.342C179.398 65.342 180.053 65.475 180.656 65.7321C181.26 65.9892 181.798 66.3645 182.235 66.8328C188.963 73.59 194.818 81.0707 199.679 89.1193L199.952 89.5733C200.685 90.7884 201.403 92.0364 202.108 93.3173Z" fill="#002BDD"/>
<path opacity="0.2" d="M199.961 89.5931C198.24 90.7541 196.416 91.7734 194.508 92.6396C187.786 95.6922 180.222 96.7128 172.857 95.5611C167.337 94.6667 162.106 92.6009 157.562 89.5207L157.835 89.0798C159.681 90.3386 161.65 91.4292 163.715 92.3369C170.428 95.3109 177.963 96.2314 185.261 94.9689C190.465 94.042 195.39 92.0543 199.688 89.1456L199.961 89.5931Z" fill="#002BDD"/>
<path d="M206.926 140.831C204.231 115.248 202.124 105.009 201.879 103.884C202.894 103.364 203.846 102.838 204.679 102.325C205.19 102.029 205.68 101.726 206.149 101.423L205.932 100.95C205.435 101.265 204.924 101.608 204.392 101.897C198.792 105.22 189.797 109.188 178.961 109.188C170.421 109.192 162.086 106.73 155.084 102.134C153.929 101.384 152.9 100.627 151.983 99.9033C151.906 100.061 151.829 100.226 151.759 100.39C152.648 101.088 153.649 101.812 154.755 102.542C155.455 103.002 156.246 103.483 157.079 103.957C156.778 105.378 154.699 115.702 152.053 140.805C149.953 160.413 151.871 179.923 153.817 192.839C154.973 200.766 156.566 208.631 158.591 216.402C158.605 216.453 158.637 216.498 158.681 216.531C158.726 216.563 158.78 216.58 158.836 216.58H158.899C158.964 216.563 159.018 216.523 159.052 216.469C159.086 216.415 159.096 216.351 159.081 216.29C157.061 208.535 155.472 200.685 154.321 192.773C152.375 179.89 150.492 160.426 152.557 140.864C155.119 116.557 157.149 106.128 157.541 104.2C164.032 107.821 171.442 109.73 178.989 109.727C186.83 109.634 194.524 107.722 201.389 104.161C201.739 105.832 203.79 116.202 206.394 140.91C208.459 160.472 206.576 179.936 204.63 192.819C203.48 200.731 201.891 208.581 199.87 216.336C199.855 216.397 199.866 216.462 199.9 216.515C199.934 216.569 199.988 216.609 200.052 216.626H200.115C200.171 216.626 200.226 216.609 200.27 216.577C200.315 216.544 200.346 216.499 200.36 216.448C202.385 208.677 203.979 200.812 205.134 192.885C207.108 179.949 208.998 160.439 206.926 140.831Z" fill="#407BFF"/>
<path d="M178.987 167.987C175.133 167.989 171.366 166.916 168.161 164.904C164.957 162.892 162.459 160.032 160.983 156.686C159.508 153.34 159.122 149.657 159.873 146.104C160.624 142.551 162.48 139.288 165.205 136.727C167.93 134.165 171.402 132.421 175.181 131.715C178.961 131.008 182.878 131.371 186.438 132.758C189.998 134.145 193.041 136.493 195.181 139.506C197.321 142.518 198.462 146.059 198.461 149.682C198.455 154.535 196.402 159.188 192.751 162.62C189.1 166.052 184.15 167.982 178.987 167.987ZM178.987 131.85C175.235 131.85 171.567 132.896 168.448 134.855C165.328 136.815 162.897 139.599 161.461 142.858C160.025 146.116 159.65 149.702 160.382 153.161C161.113 156.62 162.92 159.797 165.573 162.291C168.226 164.785 171.606 166.483 175.286 167.171C178.966 167.859 182.78 167.506 186.247 166.156C189.713 164.807 192.676 162.521 194.76 159.589C196.844 156.656 197.957 153.209 197.957 149.682C197.951 144.954 195.951 140.422 192.395 137.079C188.838 133.736 184.016 131.855 178.987 131.85Z" fill="#407BFF"/>
<path d="M193.736 149.675C193.736 153.352 192.182 156.878 189.416 159.478C186.65 162.078 182.899 163.539 178.987 163.539H178.644C176.148 163.492 173.706 162.844 171.553 161.657C169.888 160.742 168.428 159.53 167.255 158.091C165.29 155.677 164.229 152.721 164.238 149.682C164.239 149.143 164.272 148.605 164.336 148.07C164.726 144.973 166.214 142.091 168.559 139.886C170.905 137.682 173.971 136.283 177.265 135.916C177.837 135.856 178.411 135.825 178.987 135.824C182.836 135.828 186.532 137.246 189.286 139.774C192.04 142.302 193.634 145.742 193.729 149.359C193.736 149.465 193.736 149.57 193.736 149.675Z" fill="#407BFF"/>
<path opacity="0.1" d="M187.926 138.68L167.255 158.111C165.29 155.697 164.229 152.741 164.238 149.702C164.239 149.163 164.272 148.625 164.336 148.09L177.265 135.936C177.837 135.876 178.411 135.845 178.987 135.844C182.217 135.841 185.359 136.837 187.926 138.68Z" fill="white"/>
<path opacity="0.1" d="M193.731 149.353L178.646 163.532C176.15 163.486 173.708 162.838 171.555 161.651L191.722 142.7C192.988 144.719 193.68 147.01 193.731 149.353Z" fill="white"/>
<path d="M175.46 271.227L172.877 274.971L166.395 284.374L163.637 288.368L156.266 299.054H153.389L160.879 284.374L163.637 278.965L165.373 275.556L167.585 271.227H175.46Z" fill="#407BFF"/>
<path opacity="0.2" d="M175.46 271.227L172.877 274.971L166.395 284.374L163.637 288.368L156.266 299.054H153.389L160.879 284.374L163.637 278.965L165.373 275.556L167.585 271.227H175.46Z" fill="black"/>
<path d="M206.282 271.227L205.449 272.438L197.217 284.374L194.459 288.368L187.088 299.054H184.218L191.701 284.374L194.459 278.965L197.476 273.056L198.407 271.227H206.282Z" fill="#407BFF"/>
<path opacity="0.2" d="M206.282 271.227L205.449 272.438L197.217 284.374L194.459 288.368L187.088 299.054H184.218L191.701 284.374L194.459 278.965L197.476 273.056L198.407 271.227H206.282Z" fill="black"/>
<path d="M209.251 261.324H148.211V271.227H209.251V261.324Z" fill="#407BFF"/>
<path opacity="0.2" d="M209.251 261.324H148.211V271.227H209.251V261.324Z" fill="white"/>
<path d="M173.886 299.054H171.009L163.638 288.368L160.88 284.374L155.343 276.339L151.815 271.227H159.69L162.035 275.813L163.638 278.965L166.396 284.374L173.886 299.054Z" fill="#407BFF"/>
<path d="M204.707 299.054H201.83L194.459 288.368L191.701 284.374L184.589 274.056L182.636 271.227H190.511L191.673 273.503L194.459 278.965L197.217 284.374L204.707 299.054Z" fill="#407BFF"/>
<path d="M275.514 137.93C273.2 142.365 270.564 146.646 267.625 150.741C267.079 151.472 266.533 152.182 265.973 152.853C263.117 156.308 260.121 158.835 257.748 158.236C244.539 154.906 236.195 144.418 236.195 144.418L238.673 141.786C238.673 141.786 254.605 147.622 255.851 147.51C257.097 147.399 264.951 128.922 264.951 128.922L275.514 137.93Z" fill="#002BDD"/>
<path opacity="0.2" d="M268.842 146.214L267.624 150.741C267.078 151.471 266.532 152.182 265.972 152.853C265.908 151.526 265.641 150.214 265.181 148.957C264.194 146.385 260.596 143.141 262.15 139.745C263.325 137.03 264.262 134.228 264.95 131.369L268.842 146.214Z" fill="black"/>
<path d="M257.943 149.603L240.87 149.274C240.33 149.253 239.81 149.073 239.383 148.76C238.956 148.448 238.644 148.018 238.49 147.53L233.163 126.474C233.1 126.265 233.093 126.045 233.143 125.833C233.192 125.621 233.297 125.424 233.447 125.259C233.598 125.094 233.789 124.967 234.005 124.888C234.22 124.81 234.453 124.783 234.682 124.81L251.755 125.145C252.295 125.165 252.815 125.343 253.242 125.655C253.668 125.966 253.981 126.396 254.135 126.882L259.462 147.938C259.525 148.147 259.532 148.367 259.482 148.58C259.433 148.792 259.328 148.989 259.178 149.154C259.027 149.319 258.836 149.446 258.621 149.524C258.405 149.603 258.172 149.63 257.943 149.603Z" fill="#263238"/>
<path opacity="0.2" d="M257.943 149.603L240.87 149.274C240.33 149.253 239.81 149.073 239.383 148.76C238.956 148.448 238.644 148.018 238.49 147.53L233.163 126.474C233.1 126.265 233.093 126.045 233.143 125.833C233.192 125.621 233.297 125.424 233.447 125.259C233.598 125.094 233.789 124.967 234.005 124.888C234.22 124.81 234.453 124.783 234.682 124.81L251.755 125.145C252.295 125.165 252.815 125.343 253.242 125.655C253.668 125.966 253.981 126.396 254.135 126.882L259.462 147.938C259.525 148.147 259.532 148.367 259.482 148.58C259.433 148.792 259.328 148.989 259.178 149.154C259.027 149.319 258.836 149.446 258.621 149.524C258.405 149.603 258.172 149.63 257.943 149.603Z" fill="white"/>
<path d="M256.199 149.57L239.119 149.241C238.58 149.218 238.062 149.037 237.637 148.725C237.212 148.412 236.9 147.983 236.746 147.498L231.412 126.442C231.349 126.233 231.342 126.012 231.392 125.8C231.441 125.588 231.546 125.391 231.696 125.226C231.847 125.061 232.038 124.934 232.253 124.856C232.469 124.777 232.702 124.75 232.931 124.777L250.011 125.106C250.55 125.13 251.068 125.31 251.493 125.622C251.918 125.935 252.229 126.364 252.384 126.85L257.711 147.906C257.774 148.114 257.781 148.333 257.731 148.545C257.682 148.756 257.578 148.953 257.428 149.118C257.279 149.283 257.088 149.41 256.874 149.489C256.659 149.568 256.428 149.596 256.199 149.57Z" fill="#263238"/>
<path opacity="0.2" d="M241.392 137.745C241.576 138.36 241.959 138.905 242.489 139.304C243.019 139.703 243.669 139.935 244.346 139.969C244.636 139.997 244.928 139.957 245.197 139.853C245.467 139.75 245.704 139.585 245.89 139.374C246.075 139.163 246.203 138.913 246.261 138.645C246.319 138.377 246.306 138.1 246.222 137.838C246.042 137.222 245.66 136.676 245.131 136.276C244.602 135.876 243.953 135.642 243.275 135.607C242.985 135.581 242.693 135.622 242.424 135.727C242.155 135.832 241.917 135.997 241.731 136.207C241.546 136.418 241.418 136.669 241.359 136.937C241.3 137.205 241.311 137.482 241.392 137.745Z" fill="white"/>
<path d="M235.606 139.094C235.606 139.094 239.344 138.897 239.939 139.621C240.534 140.344 236.783 141.042 236.783 141.042C236.783 141.042 238.995 140.983 239.583 141.476C240.171 141.97 237.399 142.759 237.399 142.759C237.399 142.759 238.875 142.759 238.931 143.536C238.987 144.312 238.427 144.575 237.608 144.76C237.269 144.837 236.916 144.84 236.576 144.767C236.235 144.694 235.918 144.547 235.649 144.339C235.327 144.036 235.599 143.253 235.599 143.253C235.599 143.253 234.199 142.595 234.143 142.095C234.133 141.94 234.158 141.785 234.216 141.64C234.274 141.495 234.363 141.363 234.479 141.253C234.278 141.216 234.09 141.132 233.932 141.009C233.775 140.886 233.652 140.727 233.576 140.548C233.502 140.393 233.469 140.223 233.481 140.053C233.494 139.883 233.55 139.719 233.646 139.575C233.358 138.996 233.11 138.4 232.904 137.791C232.722 137.133 233.961 136.614 234.71 136.199C235.459 135.785 236.81 137.232 238.042 137.515C238.042 137.515 238.672 137.877 238 138.318C237.328 138.759 235.9 138.094 235.564 138.12C235.228 138.147 235.606 139.094 235.606 139.094Z" fill="#B55B52"/>
<path d="M267.398 98.1013C267.398 98.1013 262.757 99.8319 263.898 103.313C265.039 106.794 262.029 106.471 261.672 109.847C261.315 113.222 267.412 114.262 265.753 117.282C264.094 120.302 261.553 121.177 263.219 124.119C264.885 127.06 267.111 130.429 267.111 132.607C267.111 137.766 277.611 125.053 285.696 127.145C293.781 129.238 295.902 121.783 292.598 120.059C289.294 118.335 285.01 115.802 286.263 111.294C287.516 106.787 288.419 104.714 284.744 102.372C281.069 100.029 283.085 99.641 280.964 97.4894C279.053 95.5549 276.267 97.5486 273.264 96.7129C270.261 95.8773 267.398 98.1013 267.398 98.1013Z" fill="#263238"/>
<path d="M268.854 114.611C268.894 114.929 269.033 115.228 269.254 115.472C269.474 115.716 269.767 115.892 270.095 115.98C270.422 116.067 270.77 116.061 271.094 115.963C271.418 115.864 271.704 115.678 271.915 115.427C272.126 115.176 272.254 114.872 272.281 114.553C272.308 114.233 272.234 113.914 272.069 113.634C271.903 113.355 271.653 113.128 271.35 112.982C271.047 112.836 270.704 112.778 270.366 112.814C270.141 112.839 269.924 112.905 269.726 113.008C269.529 113.112 269.355 113.251 269.214 113.418C269.074 113.585 268.97 113.776 268.908 113.981C268.846 114.185 268.828 114.4 268.854 114.611Z" fill="white"/>
<path d="M265.454 285.901L263.585 293.146H259.525L259.336 285.901H265.454Z" fill="#B55B52"/>
<path d="M247.731 298.272C247.955 295.91 249.054 295.206 250.419 295.127C251.784 295.048 256.894 293.449 256.894 293.449C256.894 293.449 257.951 291.949 258.889 291.646C259.827 291.343 260.716 292.232 260.716 292.232L263.271 291.942C263.271 291.942 264.034 290.863 264.559 291.804C265.371 293.271 265.259 297.324 265.196 298.272H247.731Z" fill="#407BFF"/>
<path d="M248.063 297.653H251.227L265.08 297.587C265.255 297.587 265.22 297.331 265.045 297.337H264.107C264.107 297.337 264.107 297.337 264.107 297.305C263.915 297.025 263.786 296.711 263.729 296.382C263.673 296.053 263.689 295.717 263.777 295.394C263.865 295.072 264.023 294.77 264.241 294.507C264.459 294.245 264.733 294.028 265.045 293.87C265.192 293.797 265.045 293.574 264.884 293.653C264.551 293.824 264.259 294.057 264.025 294.337C263.79 294.618 263.619 294.94 263.522 295.285C263.424 295.629 263.402 295.989 263.457 296.342C263.512 296.695 263.643 297.033 263.841 297.337H261.888L248.035 297.403C247.846 297.403 247.881 297.66 248.063 297.653Z" fill="black"/>
<path d="M257.66 294.468C256.96 293.672 255.889 293.448 255.119 294.047C254.993 294.146 254.832 293.929 254.951 293.83C255.833 293.172 257.051 293.442 257.87 294.343C257.989 294.475 257.779 294.6 257.66 294.468Z" fill="white"/>
<path d="M256.2 294.896C255.5 294.1 254.429 293.87 253.659 294.475C253.54 294.567 253.372 294.35 253.498 294.258C254.373 293.567 255.598 293.863 256.417 294.765C256.536 294.896 256.319 295.021 256.2 294.896Z" fill="white"/>
<path d="M254.748 295.317C254.048 294.521 252.977 294.297 252.207 294.896C252.081 294.994 251.92 294.771 252.039 294.679C252.921 293.988 254.139 294.29 254.958 295.185C255.077 295.323 254.867 295.448 254.748 295.317Z" fill="white"/>
<path d="M282.252 190.952C281.054 200.679 279.254 210.333 276.862 219.864C276.008 223.4 275.038 227.168 273.95 231.169C276.939 254.37 265.242 287.888 265.242 287.888L258.977 287.757C258.977 287.757 258.193 250.297 258.928 230.688C260.132 198.558 264.297 167.955 264.297 167.955L281.363 167.889C281.363 167.889 284.31 172.719 282.252 190.952Z" fill="#263238"/>
<path opacity="0.2" d="M282.252 190.952C281.053 200.68 279.254 210.333 276.862 219.865C273.271 207.014 279.767 179.588 279.767 179.588L282.252 190.952Z" fill="black"/>
<path d="M258.257 289.145L258.061 286.618H266.419L265.943 289.145H258.257Z" fill="#263238"/>
<path d="M291.43 285.901L289.554 293.146H285.494L285.312 285.901H291.43Z" fill="#B55B52"/>
<path d="M284.078 289.145L283.882 286.618H292.24L291.764 289.145H284.078Z" fill="#263238"/>
<path d="M273.699 298.272C273.916 295.91 275.022 295.206 276.387 295.127C277.752 295.048 282.862 293.449 282.862 293.449C282.862 293.449 283.919 291.949 284.85 291.646C285.781 291.343 286.684 292.232 286.684 292.232L289.232 291.942C289.232 291.942 289.995 290.863 290.527 291.804C291.339 293.271 291.227 297.324 291.164 298.272H273.699Z" fill="#407BFF"/>
<path d="M274.036 297.653H277.207L291.06 297.587C291.235 297.587 291.2 297.331 291.018 297.337H290.087V297.305C289.896 297.024 289.769 296.71 289.713 296.381C289.658 296.052 289.675 295.716 289.763 295.394C289.852 295.071 290.01 294.77 290.229 294.507C290.447 294.245 290.721 294.028 291.032 293.87C291.179 293.797 291.032 293.574 290.871 293.653C290.538 293.823 290.245 294.056 290.01 294.336C289.775 294.616 289.603 294.939 289.505 295.283C289.407 295.628 289.384 295.988 289.439 296.341C289.493 296.694 289.623 297.033 289.821 297.337H287.868L274.022 297.403C273.826 297.403 273.861 297.66 274.036 297.653Z" fill="black"/>
<path d="M283.639 294.468C282.939 293.672 281.861 293.448 281.098 294.047C280.972 294.146 280.804 293.929 280.93 293.83C281.812 293.172 283.03 293.442 283.849 294.343C283.968 294.475 283.751 294.6 283.639 294.468Z" fill="white"/>
<path d="M282.205 294.896C281.505 294.1 280.434 293.87 279.664 294.475C279.545 294.567 279.377 294.35 279.496 294.258C280.378 293.567 281.596 293.863 282.415 294.765C282.541 294.896 282.324 295.021 282.205 294.896Z" fill="white"/>
<path d="M280.698 295.317C279.998 294.521 278.92 294.297 278.157 294.896C278.031 294.994 277.863 294.771 277.989 294.679C278.871 293.988 280.089 294.29 280.908 295.185C281.027 295.323 280.81 295.448 280.698 295.317Z" fill="white"/>
<path d="M276.379 169.186C276.379 169.186 279.564 213.541 280.579 231.169C281.776 251.311 284.457 285.638 284.814 287.882H291.289C290.547 288.54 299.605 257.752 295.951 232.663C299.374 208.672 303.539 191.104 298.17 168.508L276.379 169.186Z" fill="#263238"/>
<path d="M300.146 170.264C286.538 174.488 263.669 173.1 263.669 170.172C263.669 161.92 266.777 152.643 265.944 147.267C259.511 143.036 264.544 139.213 263.977 132.942C263.788 130.632 264.525 128.338 266.043 126.512C267.561 124.686 269.75 123.459 272.181 123.072C273.343 122.888 274.547 122.704 275.73 122.559L276.43 122.473C279.587 122.136 282.765 121.995 285.943 122.052C287.105 122.052 288.309 122.052 289.569 122.085C290.829 122.118 292.047 122.158 293.209 122.236C294.232 122.304 295.229 122.573 296.134 123.026C297.04 123.478 297.834 124.105 298.465 124.865C299.096 125.626 299.55 126.502 299.797 127.438C300.045 128.373 300.08 129.348 299.901 130.297C298.858 135.802 298.196 141.365 297.92 146.951C297.864 148.102 297.822 149.214 297.808 150.307C297.727 154.13 297.912 157.955 298.361 161.756C298.361 161.828 298.361 161.901 298.361 161.967C298.557 163.48 298.79 164.875 299.061 166.151C299.145 166.553 299.236 166.934 299.334 167.309C299.6 168.079 299.922 169.468 300.146 170.264Z" fill="#012BDD"/>
<path opacity="0.2" d="M275.43 133.034C275.43 133.116 275.404 133.196 275.355 133.264C275.307 133.333 275.238 133.386 275.157 133.417C275.077 133.449 274.988 133.457 274.903 133.441C274.817 133.425 274.738 133.385 274.677 133.327C274.615 133.269 274.573 133.195 274.556 133.115C274.539 133.035 274.548 132.951 274.581 132.876C274.615 132.8 274.671 132.735 274.744 132.689C274.816 132.644 274.901 132.62 274.989 132.62C275.106 132.62 275.218 132.663 275.3 132.741C275.383 132.819 275.43 132.924 275.43 133.034Z" fill="black"/>
<path opacity="0.2" d="M274.72 137.127C274.96 137.127 275.154 136.945 275.154 136.719C275.154 136.494 274.96 136.312 274.72 136.312C274.48 136.312 274.286 136.494 274.286 136.719C274.286 136.945 274.48 137.127 274.72 137.127Z" fill="black"/>
<path opacity="0.2" d="M274.72 140.878C274.96 140.878 275.154 140.695 275.154 140.47C275.154 140.244 274.96 140.062 274.72 140.062C274.48 140.062 274.286 140.244 274.286 140.47C274.286 140.695 274.48 140.878 274.72 140.878Z" fill="black"/>
<path d="M285.963 122.027C282.743 127.35 275.162 130.535 275.162 130.535C274.133 128.153 274.462 124.33 275.729 122.534L276.429 122.448C279.593 122.109 282.778 121.969 285.963 122.027Z" fill="#B55B52"/>
<path opacity="0.2" d="M299.123 166.126C285.718 164.737 272.796 152.854 272.796 152.854L297.954 160.75C298.065 161.166 298.217 161.571 298.409 161.96C298.605 163.461 298.843 164.849 299.123 166.126Z" fill="black"/>
<path opacity="0.2" d="M297.414 149.57C297.012 151.826 296.874 154.116 297.001 156.4C295.142 157.149 293.055 157.231 291.135 156.63C288.507 155.68 286.301 153.919 284.877 151.636C284.877 151.636 292.514 153.051 294.404 152.393C296.098 151.801 292.045 139.47 291.912 139.121L297.512 146.3C297.498 147.418 297.428 148.504 297.414 149.57Z" fill="black"/>
<path d="M275.645 124.118C275.616 124.204 275.576 124.285 275.526 124.362C274.427 125.987 275.617 127.468 277.507 127.342C277.688 127.329 277.868 127.304 278.046 127.27C278.725 127.143 279.345 126.819 279.817 126.342C281.266 124.879 282.835 123.524 284.507 122.289C281.707 120.861 280.643 115.788 280.377 112.616L275.974 117.88L275.155 119.032C275.558 119.671 275.878 120.354 276.107 121.065C276.301 121.571 276.36 122.114 276.28 122.646C276.199 123.178 275.981 123.684 275.645 124.118Z" fill="#B55B52"/>
<path d="M284.077 122.026C285.624 121.666 287.241 121.666 288.788 122.026L284.511 128.929C282.264 127.389 279.681 129.389 275.159 130.534C278.905 128.52 281.99 125.577 284.077 122.026Z" fill="#407BFF"/>
<path opacity="0.2" d="M284.077 122.026C285.624 121.666 287.241 121.666 288.788 122.026L284.511 128.929C282.264 127.389 279.681 129.389 275.159 130.534C278.905 128.52 281.99 125.577 284.077 122.026Z" fill="white"/>
<path d="M276.305 122.343C276.305 122.343 273.694 121.889 272.182 123.047C271.633 124.828 271.224 126.645 270.957 128.482C270.957 128.482 273.47 127.304 275.157 130.535C275.164 130.535 274.31 125.383 276.305 122.343Z" fill="#407BFF"/>
<path opacity="0.2" d="M276.305 122.343C276.305 122.343 273.694 121.889 272.182 123.047C271.633 124.828 271.224 126.645 270.957 128.482C270.957 128.482 273.47 127.304 275.157 130.535C275.164 130.535 274.31 125.383 276.305 122.343Z" fill="white"/>
<g opacity="0.2">
<path d="M276.113 121.064C275.884 120.353 275.564 119.67 275.161 119.031L275.98 117.88L278.78 117.939C278.284 119.23 277.346 120.329 276.113 121.064Z" fill="black"/>
</g>
<path d="M281.187 106.965C281.628 112.176 281.929 114.367 279.605 117.374C276.105 121.901 269.343 121.25 267.285 116.269C265.437 111.781 265.024 104.017 269.987 101.267C274.95 98.5161 280.746 101.76 281.187 106.965Z" fill="#B55B52"/>
<path d="M270.543 100.286C270.543 100.286 269.381 104.728 272.167 105.84C274.953 106.952 278.754 105.425 278.754 108.807C278.754 110.716 281.939 110.123 281.743 108.367C281.547 106.61 282.87 103.254 278.943 101.431C276.31 100.325 273.402 99.9286 270.543 100.286Z" fill="#263238"/>
<path d="M278.597 111.182C278.296 111.173 278.001 111.099 277.736 110.965C275.86 110.09 275.601 105.622 275.594 105.431H275.951C275.951 105.477 276.203 109.892 277.897 110.695C278.062 110.792 278.249 110.851 278.443 110.865C278.636 110.88 278.831 110.851 279.01 110.78C279.633 110.478 279.801 109.524 279.801 109.517L280.151 109.57C280.107 109.87 279.998 110.159 279.831 110.418C279.664 110.677 279.441 110.901 279.178 111.077C278.996 111.154 278.797 111.19 278.597 111.182Z" fill="#263238"/>
<path d="M270.813 101.739C270.813 101.739 267.74 106.345 265.612 105.26C263.484 104.174 268.552 99.0021 270.512 100.285C272.472 101.568 270.813 101.739 270.813 101.739Z" fill="#263238"/>
<path d="M269.598 114.993C269.598 114.993 272.293 113.848 272.888 112.742C272.888 112.742 273.287 114.716 271.873 115.447C271.502 115.654 271.063 115.722 270.641 115.638C270.219 115.554 269.847 115.323 269.598 114.993Z" fill="white"/>
<path d="M271.748 109.274C271.811 109.696 271.622 110.064 271.328 110.104C271.034 110.143 270.754 109.834 270.691 109.446C270.628 109.057 270.81 108.656 271.104 108.616C271.398 108.577 271.685 108.886 271.748 109.307" fill="#263238"/>
<path d="M267.249 109.985C267.312 110.406 267.123 110.774 266.836 110.814C266.549 110.853 266.255 110.544 266.192 110.123C266.129 109.702 266.311 109.333 266.605 109.294C266.899 109.254 267.186 109.564 267.249 109.952" fill="#263238"/>
<path d="M266.74 109.301L265.627 109.15C265.627 109.15 266.292 109.867 266.74 109.301Z" fill="#263238"/>
<path d="M269.196 109.899C269.196 109.899 268.594 111.11 267.901 112.189C267.851 112.272 267.82 112.363 267.812 112.458C267.803 112.552 267.816 112.647 267.85 112.737C267.883 112.826 267.938 112.908 268.008 112.976C268.079 113.043 268.164 113.096 268.258 113.13C268.732 113.267 269.22 113.353 269.714 113.387L269.196 109.899Z" fill="#A02724"/>
<path d="M283.675 110.287C283.537 110.744 283.298 111.169 282.972 111.532C282.646 111.895 282.241 112.188 281.785 112.393C280.616 112.873 279.818 111.695 279.972 110.373C280.112 109.182 280.882 107.497 282.142 107.583C283.402 107.669 284.074 109.083 283.675 110.287Z" fill="#B55B52"/>
<path d="M281.564 111.432H281.333V113.854H281.564V111.432Z" fill="white"/>
<path d="M281.49 115.157C282.008 115.157 282.428 114.762 282.428 114.276C282.428 113.789 282.008 113.394 281.49 113.394C280.972 113.394 280.552 113.789 280.552 114.276C280.552 114.762 280.972 115.157 281.49 115.157Z" fill="white"/>
<path d="M273.041 108.175C273.005 108.171 272.97 108.159 272.938 108.141C272.907 108.123 272.88 108.099 272.859 108.07C272.682 107.805 272.441 107.583 272.155 107.423C271.869 107.263 271.547 107.169 271.214 107.149C271.145 107.149 271.078 107.123 271.029 107.078C270.979 107.032 270.95 106.97 270.948 106.905C270.947 106.872 270.953 106.84 270.966 106.809C270.978 106.778 270.997 106.75 271.021 106.727C271.045 106.703 271.074 106.684 271.106 106.67C271.138 106.657 271.172 106.65 271.207 106.649C271.629 106.667 272.041 106.781 272.406 106.98C272.772 107.179 273.081 107.458 273.307 107.794C273.327 107.82 273.341 107.85 273.348 107.882C273.355 107.914 273.356 107.947 273.349 107.979C273.342 108.01 273.329 108.041 273.31 108.068C273.291 108.095 273.266 108.118 273.237 108.136C273.211 108.155 273.18 108.168 273.147 108.175C273.115 108.182 273.081 108.182 273.048 108.175" fill="#263238"/>
<path d="M265.446 108.359C265.413 108.363 265.379 108.361 265.346 108.351C265.313 108.342 265.283 108.327 265.257 108.307C265.203 108.265 265.168 108.205 265.16 108.14C265.153 108.075 265.172 108.009 265.215 107.958C265.472 107.644 265.805 107.392 266.186 107.224C266.567 107.056 266.986 106.976 267.406 106.991C267.444 106.989 267.482 106.995 267.517 107.009C267.552 107.022 267.584 107.042 267.61 107.068C267.636 107.094 267.656 107.125 267.668 107.159C267.681 107.192 267.685 107.228 267.682 107.264C267.678 107.299 267.667 107.333 267.648 107.364C267.629 107.395 267.604 107.422 267.573 107.443C267.542 107.464 267.507 107.478 267.47 107.485C267.433 107.492 267.394 107.492 267.357 107.484C267.024 107.479 266.695 107.547 266.394 107.683C266.094 107.819 265.832 108.019 265.628 108.267C265.609 108.295 265.582 108.319 265.55 108.335C265.518 108.351 265.482 108.359 265.446 108.359Z" fill="#263238"/>
<path d="M271.237 108.59L270.117 108.439C270.117 108.439 270.817 109.156 271.237 108.59Z" fill="#263238"/>
<path d="M299.55 126.645C299.55 126.645 309.175 151.228 307.635 159.275C305.101 172.521 273.384 154.774 272.775 152.261L275.61 148.438C275.61 148.438 296.134 155.459 297.261 154.787C298.388 154.116 290.786 135.238 290.786 135.238C290.786 135.238 291.899 123.829 299.55 126.645Z" fill="#012BDD"/>
<path d="M276.438 149.208C276.438 149.208 273.477 141.871 272.784 141.253C272.091 140.634 264.335 140.661 263.537 140.47C262.739 140.279 263.18 141.634 264.594 141.819C266.008 142.003 268.584 142.628 268.584 142.628C268.584 142.628 266.19 142.47 265.735 142.983C265.28 143.497 263.278 147.181 263.831 148.905C264.384 150.629 266.631 150.735 267.331 150.879C268.031 151.024 267.331 149.215 267.331 149.215C267.926 149.453 268.556 149.604 269.2 149.662C270.306 149.78 271.748 151.774 272.84 152.228C274.912 153.156 277.39 149.721 276.438 149.208Z" fill="#B55B52"/>
<path d="M270.514 142.892C269.903 142.777 269.28 142.737 268.659 142.773C268.428 142.773 268.386 142.451 268.617 142.438C269.273 142.395 269.932 142.434 270.577 142.556C270.62 142.567 270.658 142.593 270.683 142.63C270.707 142.666 270.716 142.709 270.708 142.751C270.7 142.793 270.676 142.831 270.64 142.857C270.604 142.883 270.559 142.895 270.514 142.892Z" fill="#994731"/>
<path d="M268.625 144.412C267.561 144.077 266.385 143.754 265.321 144.261C265.118 144.359 264.908 144.083 265.111 143.984C266.308 143.386 267.568 143.721 268.779 144.103C268.996 144.169 268.842 144.478 268.625 144.412Z" fill="#994731"/>
<path d="M267.622 145.919C267.145 145.7 266.619 145.595 266.089 145.614C265.559 145.632 265.042 145.773 264.584 146.024C264.388 146.136 264.178 145.859 264.381 145.747C264.889 145.462 265.465 145.3 266.056 145.276C266.648 145.252 267.236 145.366 267.769 145.609C267.806 145.631 267.833 145.665 267.846 145.704C267.859 145.744 267.856 145.786 267.838 145.824C267.82 145.861 267.789 145.892 267.749 145.909C267.709 145.927 267.664 145.93 267.622 145.919Z" fill="#994731"/>
<path d="M267.273 149.451C266.925 149.267 266.622 149.018 266.381 148.719C266.14 148.421 265.967 148.078 265.873 147.714C265.824 147.504 266.16 147.385 266.216 147.596C266.289 147.916 266.432 148.218 266.636 148.484C266.84 148.751 267.099 148.974 267.399 149.142C267.602 149.247 267.448 149.557 267.252 149.451H267.273Z" fill="#994731"/>
<path d="M266.256 148.642C266.072 148.582 265.873 148.574 265.684 148.621C265.496 148.668 265.327 148.767 265.199 148.906C265.045 149.07 264.772 148.853 264.926 148.689C265.105 148.494 265.344 148.356 265.609 148.293C265.874 148.229 266.154 148.243 266.41 148.333C266.627 148.412 266.473 148.721 266.256 148.642Z" fill="#994731"/>
<path d="M266.698 113.36C266.46 113.341 266.23 113.272 266.024 113.158C265.818 113.044 265.642 112.888 265.508 112.702C265.07 112.179 264.786 111.558 264.682 110.899C264.423 109.419 264.983 108.09 265.928 107.945C266.873 107.8 267.867 108.879 268.126 110.36C268.26 111.019 268.207 111.7 267.972 112.334C267.9 112.576 267.761 112.796 267.569 112.972C267.377 113.148 267.14 113.272 266.88 113.334L266.698 113.36ZM266.11 108.096H265.963C265.109 108.228 264.612 109.465 264.857 110.853C264.953 111.485 265.223 112.081 265.641 112.584C265.774 112.767 265.956 112.913 266.169 113.009C266.381 113.105 266.617 113.147 266.852 113.13C267.08 113.075 267.289 112.964 267.457 112.808C267.624 112.651 267.744 112.456 267.804 112.242C268.026 111.641 268.076 110.997 267.951 110.373C267.706 109.11 266.901 108.129 266.096 108.129L266.11 108.096Z" fill="white"/>
<path d="M271.515 112.598C270.619 112.598 269.737 111.558 269.492 110.17C269.247 108.781 269.793 107.36 270.738 107.215C271.683 107.07 272.677 108.15 272.936 109.63C273.07 110.289 273.017 110.97 272.782 111.604C272.708 111.846 272.569 112.065 272.377 112.241C272.186 112.416 271.949 112.542 271.69 112.604L271.515 112.598ZM270.92 107.334H270.773C269.919 107.465 269.422 108.702 269.667 110.091C269.912 111.479 270.822 112.499 271.662 112.367C271.89 112.312 272.099 112.201 272.266 112.045C272.434 111.889 272.554 111.693 272.614 111.479C272.839 110.879 272.89 110.234 272.761 109.61C272.53 108.347 271.725 107.367 270.899 107.367L270.92 107.334Z" fill="white"/>
<path d="M264.814 110.978L264.695 110.853C265.066 110.573 265.521 110.41 265.997 110.386V110.557C265.566 110.583 265.154 110.73 264.814 110.978Z" fill="white"/>
<path d="M267.983 110.104L267.843 110.005C268.04 109.76 268.327 109.593 268.648 109.537C268.969 109.481 269.301 109.54 269.579 109.702L269.488 109.847C269.248 109.704 268.961 109.651 268.682 109.699C268.403 109.746 268.153 109.891 267.983 110.104Z" fill="white"/>
<path d="M272.83 109.418L272.746 109.267C272.781 109.267 276.589 107.352 280.565 107.997V108.168C276.624 107.53 272.865 109.399 272.83 109.418Z" fill="white"/>
<path d="M136.505 286.454L128.014 287.053L112.18 253.008L104.452 234.906L124.346 226.359L126.754 239.058L126.824 239.269L136.505 286.454Z" fill="#263238"/>
<path d="M128.686 285.395L131.738 292.935H135.959L135.042 285.395H128.686Z" fill="#B55B52"/>
<path d="M137.82 288.968L137.463 285.119H126.158L127.215 288.968H137.82Z" fill="#263238"/>
<path d="M148.986 298.271C148.398 295.817 147.138 295.08 145.717 294.981C144.296 294.882 138.717 293.237 138.717 293.237C138.717 293.237 137.387 291.678 136.372 291.362C136.039 291.295 135.693 291.317 135.372 291.425C135.052 291.533 134.77 291.723 134.559 291.974L131.871 291.665C131.871 291.665 130.919 290.553 130.471 291.527C130.002 292.652 130.156 297.495 130.184 298.258L148.986 298.271Z" fill="#407BFF"/>
<path d="M148.542 297.634H145.252L130.86 297.568C130.823 297.568 130.788 297.554 130.761 297.529C130.735 297.505 130.72 297.471 130.72 297.436C130.72 297.401 130.735 297.368 130.761 297.343C130.788 297.318 130.823 297.305 130.86 297.305H131.84C131.836 297.294 131.836 297.282 131.84 297.272C132.54 295.85 131.721 294.416 130.335 293.699C130.174 293.62 130.335 293.39 130.475 293.475C131.216 293.798 131.797 294.373 132.103 295.084C132.408 295.795 132.415 296.589 132.12 297.305H134.15L148.542 297.377C148.573 297.384 148.601 297.4 148.621 297.423C148.64 297.447 148.651 297.475 148.651 297.505C148.651 297.535 148.64 297.564 148.621 297.587C148.601 297.611 148.573 297.627 148.542 297.634Z" fill="black"/>
<path d="M138.092 294.317C138.22 294.118 138.391 293.947 138.594 293.815C138.797 293.684 139.028 293.594 139.271 293.552C139.514 293.511 139.763 293.518 140.003 293.574C140.242 293.629 140.467 293.733 140.661 293.876C140.808 293.975 140.948 293.751 140.801 293.652C140.575 293.491 140.315 293.377 140.039 293.316C139.763 293.255 139.476 293.25 139.198 293.3C138.919 293.35 138.655 293.455 138.422 293.608C138.189 293.76 137.993 293.957 137.847 294.185C137.742 294.317 137.987 294.448 138.092 294.317Z" fill="white"/>
<path d="M139.638 294.758C139.766 294.559 139.938 294.388 140.142 294.256C140.346 294.125 140.577 294.035 140.82 293.993C141.064 293.952 141.314 293.959 141.554 294.015C141.794 294.071 142.019 294.174 142.214 294.317C142.354 294.416 142.494 294.192 142.354 294.094C142.128 293.932 141.869 293.817 141.593 293.756C141.317 293.695 141.031 293.689 140.752 293.739C140.473 293.788 140.209 293.892 139.976 294.044C139.743 294.196 139.547 294.392 139.4 294.62C139.295 294.758 139.54 294.89 139.638 294.758Z" fill="white"/>
<path d="M141.242 295.192C141.371 294.995 141.544 294.825 141.748 294.694C141.952 294.564 142.183 294.475 142.427 294.434C142.67 294.393 142.919 294.401 143.159 294.457C143.399 294.512 143.623 294.615 143.818 294.758C143.958 294.857 144.098 294.633 143.958 294.528C143.731 294.368 143.472 294.254 143.196 294.194C142.92 294.134 142.633 294.129 142.355 294.179C142.077 294.229 141.813 294.333 141.58 294.485C141.347 294.637 141.151 294.833 141.004 295.061C140.899 295.199 141.137 295.33 141.242 295.192Z" fill="white"/>
<path d="M109.849 258.035L111.284 267.089L111.788 270.353L116.058 297.726H113.496L107.357 270.353L106.629 267.089L104.599 258.035H109.849Z" fill="#407BFF"/>
<path d="M99.8305 258.035L101.258 267.089L101.769 270.353L106.039 297.726H103.47L97.3315 270.353L96.6035 267.089L94.5735 258.035H99.8305Z" fill="#407BFF"/>
<g opacity="0.2">
<path d="M99.8297 258.035L101.258 267.089L101.769 270.353L106.039 297.726H103.47L97.3307 270.353L96.6027 267.089L94.5728 258.035H99.8297Z" fill="black"/>
</g>
<path d="M52.1449 251.159L48.5749 267.089L47.8469 270.353L41.7079 297.726H39.1389L43.4159 270.353L43.9199 267.089L46.4399 251.159H52.1449Z" fill="#407BFF"/>
<path d="M62.171 251.159L58.601 267.089L57.866 270.353L51.734 297.726H49.165L53.435 270.353L53.946 267.089L56.466 251.159H62.171Z" fill="#407BFF"/>
<g opacity="0.2">
<path d="M62.1703 251.158L58.6003 267.088L57.8653 270.352L51.7333 297.725H49.1643L53.4343 270.352L53.9453 267.088L56.4653 251.158H62.1703Z" fill="black"/>
</g>
<path d="M46.398 258.16H109.993L108.726 253.469C106.626 245.606 100.62 240.309 93.886 240.309H41.561L46.398 258.16Z" fill="#407BFF"/>
<path d="M38.0614 227.918L44.0884 248.974L104.715 249.04L100.977 235.966C98.4854 227.24 90.2534 220.831 80.6774 220.674H80.6214C79.9214 218.153 73.0614 194.354 57.6824 194.788C41.4424 195.242 44.9634 220.674 44.9634 220.674H42.2194C39.2024 220.693 37.0534 224.391 38.0614 227.918Z" fill="#407BFF"/>
<g opacity="0.2">
<path d="M38.0624 227.918L44.0894 248.974L104.716 249.04L100.978 235.965C98.4864 227.24 90.2544 220.831 80.6784 220.673H80.6224C79.9224 218.153 73.0624 194.353 57.6834 194.788C41.4434 195.242 44.9644 220.673 44.9644 220.673H42.2204C39.2034 220.693 37.0544 224.391 38.0624 227.918Z" fill="black"/>
</g>
<path d="M67.7148 193.058C67.7148 193.058 69.4368 213.383 72.1808 219.884C78.4808 234.801 89.4638 216.502 89.4638 216.502L82.1908 206.705L80.0908 191.636L67.7148 193.058Z" fill="#FF8B7B"/>
<path d="M81.7855 206.585L79.1955 207.099C79.1259 207.114 79.0654 207.154 79.0273 207.21C78.9892 207.267 78.9767 207.336 78.9925 207.401C79.0083 207.467 79.0511 207.524 79.1115 207.559C79.1718 207.595 79.2449 207.607 79.3145 207.592L81.9045 207.112C81.9741 207.098 82.035 207.058 82.0737 207.002C82.1124 206.946 82.1259 206.878 82.111 206.812C82.0961 206.747 82.0542 206.69 81.9945 206.653C81.9348 206.617 81.8621 206.604 81.7925 206.618L81.7855 206.585Z" fill="#742823"/>
<path d="M98.1347 188.781C98.1347 188.781 105.233 208.257 107.753 213.127C110.273 217.996 100.27 220.884 94.1867 219.292C88.1037 217.7 89.0627 193.63 89.0627 193.63L98.1347 188.781Z" fill="#FF8B7B"/>
<path d="M84.2621 167.816C84.2621 167.816 76.1631 186.089 80.4471 197.729L100.747 192.518C100.747 192.518 100.845 183.964 98.3461 177.153C94.4401 166.461 84.2621 167.816 84.2621 167.816Z" fill="#012BDD"/>
<path d="M52.6363 231.571C48.4363 228.939 48.3313 217.575 49.1363 207.225C49.1783 204.593 49.2973 201.599 49.5353 198.401C49.7733 195.203 50.1443 191.821 50.6903 188.347C51.4572 183.22 52.6604 178.159 54.2883 173.213C55.3733 169.988 61.0083 166.633 66.1183 165.007C69.6771 164.002 73.4154 163.684 77.1083 164.073C79.8378 164.711 82.5296 165.484 85.1723 166.389C91.8573 168.62 96.0923 171.699 95.6723 173.436C95.4343 174.384 95.6723 179.483 94.4193 185.688C93.7543 189.038 93.3273 192.657 92.7323 196.295C92.7323 196.295 92.7323 196.328 92.7323 196.361C92.7323 196.394 92.7323 196.651 92.6973 196.92C92.5223 199.914 92.1233 212.805 97.2683 221.688C105.003 235.012 58.6423 235.407 52.6363 231.571Z" fill="#002BDD"/>
<g opacity="0.2">
<path d="M52.6329 231.571C48.4329 228.939 48.3279 217.575 49.1329 207.225C49.1749 204.593 49.2939 201.599 49.5319 198.401C49.7699 195.203 50.1409 191.821 50.6869 188.347C51.4538 183.22 52.657 178.159 54.2849 173.213C55.3699 169.988 61.0049 166.633 66.1149 165.007C69.6736 164.002 73.412 163.684 77.1049 164.073C79.8344 164.711 82.5261 165.484 85.1689 166.389C91.8539 168.62 96.0889 171.699 95.6689 173.436C95.4309 174.384 95.6689 179.483 94.4159 185.688C93.7509 189.038 93.3239 192.657 92.7289 196.295C92.7289 196.295 92.7289 196.328 92.7289 196.361C92.7289 196.394 92.7289 196.651 92.6939 196.92C92.5189 199.914 92.1199 212.805 97.2649 221.688C105 235.012 58.6389 235.407 52.6329 231.571Z" fill="#012BDD"/>
</g>
<path d="M96.2539 287.158L88.0219 286.731L100.202 245.586C100.202 245.586 98.5569 245.889 95.9179 246.29C86.9859 247.606 66.6369 250.034 59.8119 245.27C50.0119 238.401 50.7119 229.261 50.7119 229.261C50.7119 229.261 128.503 207.869 130.512 228.485C131.415 237.736 96.2539 287.158 96.2539 287.158Z" fill="#263238"/>
<path d="M89.0417 285.657L88.2017 292.935H92.4157L95.3907 285.657H89.0417Z" fill="#B55B52"/>
<path d="M86.6067 288.968L86.9707 285.119H98.2687L97.2117 288.968H86.6067Z" fill="#263238"/>
<path d="M106.276 298.271C105.688 295.817 104.435 295.08 103.007 294.981C101.579 294.882 96.0072 293.237 96.0072 293.237C96.0072 293.237 94.6842 291.678 93.6692 291.362C93.3364 291.295 92.9903 291.317 92.6699 291.425C92.3496 291.533 92.0678 291.723 91.8562 291.974L89.1612 291.665C89.1612 291.665 88.2162 290.553 87.8032 291.527C87.3272 292.652 87.4882 297.495 87.5162 298.258L106.276 298.271Z" fill="#407BFF"/>
<path d="M105.843 297.634H102.553L88.1538 297.568C88.1167 297.568 88.0811 297.554 88.0548 297.529C88.0286 297.505 88.0138 297.471 88.0138 297.436C88.0138 297.401 88.0286 297.368 88.0548 297.343C88.0811 297.318 88.1167 297.305 88.1538 297.305H89.1268C89.1231 297.294 89.1231 297.282 89.1268 297.272C89.8268 295.85 89.0008 294.416 87.6148 293.699C87.4538 293.62 87.6148 293.39 87.7548 293.475C88.4952 293.798 89.0776 294.373 89.3843 295.084C89.6909 295.794 89.699 296.588 89.4068 297.305H91.4368L105.829 297.377C105.86 297.382 105.889 297.397 105.91 297.419C105.931 297.442 105.944 297.47 105.945 297.5C105.947 297.53 105.938 297.559 105.919 297.584C105.9 297.608 105.874 297.626 105.843 297.634Z" fill="black"/>
<path d="M95.3862 294.317C95.5146 294.118 95.6864 293.947 95.8902 293.815C96.0941 293.683 96.3254 293.594 96.5688 293.552C96.8122 293.51 97.0623 293.518 97.3025 293.573C97.5427 293.629 97.7675 293.732 97.9622 293.876C98.1022 293.975 98.2422 293.751 98.1022 293.652C97.8766 293.49 97.617 293.375 97.3406 293.313C97.0642 293.252 96.7772 293.247 96.4983 293.297C96.2194 293.347 95.955 293.452 95.7223 293.605C95.4896 293.759 95.294 293.956 95.1482 294.185C95.0432 294.317 95.2812 294.448 95.3862 294.317Z" fill="white"/>
<path d="M96.9371 294.758C97.0648 294.559 97.2359 294.389 97.4391 294.257C97.6424 294.125 97.8731 294.035 98.1159 293.994C98.3588 293.952 98.6084 293.959 98.848 294.015C99.0877 294.071 99.312 294.174 99.5061 294.317C99.6531 294.416 99.7931 294.192 99.6461 294.094C99.4205 293.932 99.1613 293.817 98.8854 293.756C98.6095 293.695 98.323 293.689 98.0445 293.739C97.7659 293.788 97.5016 293.892 97.2687 294.044C97.0357 294.196 96.8393 294.392 96.6921 294.62C96.5871 294.758 96.8321 294.89 96.9371 294.758Z" fill="white"/>
<path d="M98.5404 295.192C98.6687 294.994 98.8402 294.824 99.0437 294.693C99.2472 294.561 99.478 294.472 99.7209 294.431C99.9637 294.39 100.213 294.398 100.452 294.454C100.692 294.511 100.916 294.614 101.109 294.758C101.256 294.857 101.389 294.633 101.249 294.528C101.023 294.368 100.763 294.254 100.487 294.194C100.211 294.134 99.925 294.129 99.6467 294.179C99.3685 294.229 99.1045 294.333 98.8718 294.485C98.639 294.637 98.4427 294.833 98.2954 295.061C98.1904 295.199 98.4354 295.33 98.5404 295.192Z" fill="white"/>
<path opacity="0.2" d="M105.782 233.169L100.182 245.599C100.182 245.599 98.5374 245.901 95.8984 246.303C99.2024 241.769 105.509 233.505 105.782 233.169Z" fill="black"/>
<path d="M66.4219 186.86C66.4219 186.86 63.7899 207.916 65.2529 210.824C66.7159 213.732 95.9059 215.555 95.9059 215.555L97.3059 217.088C97.3059 217.088 66.7649 225.142 55.8589 217.141C49.4259 212.43 50.7559 184.563 50.7559 184.563L66.4219 186.86Z" fill="#FF8B7B"/>
<path d="M54.647 172.482C50.972 177.489 49.439 186.057 48.76 194.064L68.605 193.031C68.605 193.031 70.789 184.741 70.005 177.562C69.529 173.028 67.142 170.883 64.461 169.936C60.205 168.409 57.258 168.949 54.647 172.482Z" fill="#012BDD"/>
<path d="M78.1587 221.64H128.062L129.483 217.146H79.5797L78.1587 221.64Z" fill="#407BFF"/>
<g opacity="0.5">
<path d="M78.158 221.641H128.061L129.482 217.147H79.579L78.158 221.641Z" fill="white"/>
</g>
<path d="M97.0092 219.319H124.904C125.382 219.322 125.848 219.176 126.229 218.903C126.609 218.63 126.882 218.246 127.004 217.812L132.604 197.999C132.689 197.698 132.699 197.382 132.633 197.076C132.567 196.77 132.427 196.483 132.224 196.236C132.021 195.989 131.76 195.789 131.462 195.653C131.164 195.516 130.836 195.445 130.504 195.446H102.203C101.58 195.444 100.975 195.637 100.481 195.994C99.9882 196.352 99.6359 196.853 99.4802 197.42L94.2582 215.996C94.1441 216.39 94.1291 216.804 94.2145 217.204C94.2999 217.605 94.4833 217.981 94.7502 218.303C95.0171 218.626 95.3602 218.885 95.7523 219.062C96.1444 219.238 96.5747 219.326 97.0092 219.319Z" fill="#407BFF"/>
<g opacity="0.5">
<path d="M97.0107 219.319H124.906C125.384 219.322 125.85 219.176 126.23 218.903C126.61 218.63 126.883 218.246 127.006 217.812L132.606 197.999C132.691 197.698 132.7 197.382 132.635 197.076C132.569 196.77 132.429 196.483 132.226 196.236C132.023 195.989 131.762 195.789 131.464 195.653C131.165 195.516 130.838 195.445 130.506 195.446H102.205C101.582 195.444 100.976 195.637 100.483 195.994C99.9897 196.352 99.6374 196.853 99.4817 197.42L94.2597 215.996C94.1455 216.39 94.1306 216.804 94.216 217.204C94.3014 217.605 94.4848 217.981 94.7517 218.303C95.0186 218.626 95.3616 218.885 95.7537 219.062C96.1458 219.238 96.5762 219.326 97.0107 219.319Z" fill="white"/>
</g>
<path d="M99.3019 219.319H127.197C127.675 219.322 128.141 219.176 128.521 218.903C128.901 218.63 129.174 218.246 129.297 217.812L134.897 197.999C134.982 197.698 134.992 197.382 134.926 197.076C134.86 196.77 134.72 196.483 134.517 196.236C134.314 195.989 134.053 195.789 133.755 195.653C133.457 195.516 133.129 195.445 132.797 195.446H104.524C103.901 195.444 103.295 195.637 102.802 195.994C102.309 196.352 101.957 196.853 101.801 197.42L96.5999 215.996C96.4869 216.386 96.4712 216.796 96.554 217.193C96.6367 217.59 96.8158 217.963 97.0771 218.285C97.3385 218.606 97.6752 218.867 98.061 219.046C98.4469 219.225 98.8715 219.319 99.3019 219.319Z" fill="#407BFF"/>
<g opacity="0.8">
<path d="M99.306 219.319H127.201C127.679 219.322 128.145 219.176 128.525 218.903C128.906 218.63 129.178 218.246 129.301 217.812L134.901 197.999C134.986 197.698 134.996 197.382 134.93 197.076C134.864 196.77 134.724 196.483 134.521 196.236C134.318 195.989 134.057 195.789 133.759 195.653C133.461 195.516 133.133 195.445 132.801 195.446H104.528C103.905 195.444 103.299 195.637 102.806 195.994C102.313 196.352 101.961 196.853 101.805 197.42L96.604 215.996C96.4911 216.386 96.4754 216.796 96.5581 217.193C96.6409 217.59 96.8199 217.963 97.0813 218.285C97.3427 218.606 97.6793 218.867 98.0652 219.046C98.451 219.225 98.8756 219.319 99.306 219.319Z" fill="white"/>
</g>
<path d="M113.332 207.6C113.24 207.948 113.234 208.311 113.315 208.662C113.395 209.012 113.56 209.341 113.796 209.622C114.033 209.904 114.335 210.13 114.679 210.285C115.023 210.44 115.4 210.519 115.782 210.515C116.629 210.469 117.434 210.156 118.069 209.627C118.704 209.099 119.131 208.385 119.282 207.6C119.374 207.252 119.379 206.888 119.299 206.537C119.218 206.187 119.054 205.858 118.817 205.576C118.581 205.294 118.279 205.067 117.935 204.911C117.591 204.756 117.214 204.676 116.832 204.679C115.985 204.726 115.179 205.04 114.544 205.57C113.91 206.1 113.483 206.815 113.332 207.6Z" fill="#407BFF"/>
<g opacity="0.5">
<path d="M113.337 207.599C113.245 207.947 113.239 208.31 113.319 208.661C113.4 209.011 113.565 209.34 113.801 209.621C114.038 209.902 114.34 210.129 114.684 210.284C115.028 210.439 115.405 210.517 115.787 210.514C116.634 210.467 117.439 210.155 118.074 209.626C118.709 209.097 119.136 208.383 119.287 207.599C119.379 207.25 119.384 206.887 119.304 206.536C119.223 206.185 119.059 205.856 118.822 205.575C118.586 205.293 118.284 205.065 117.94 204.91C117.596 204.754 117.219 204.675 116.837 204.677C115.989 204.725 115.184 205.039 114.549 205.569C113.914 206.099 113.487 206.814 113.337 207.599Z" fill="white"/>
</g>
<path d="M96.3657 146.978C96.0927 147.702 94.9657 147.866 94.9657 147.866C94.9657 147.866 96.0297 149.123 95.4977 149.544C94.9657 149.965 93.8107 149.544 93.8107 149.544C93.9405 149.738 94.0256 149.955 94.0606 150.182C94.0956 150.408 94.0796 150.639 94.0137 150.86C93.7687 151.59 93.4537 151.314 93.4537 151.314L76.4017 148.741C76.7032 147.494 76.7032 146.199 76.4017 144.951C75.8627 143.221 75.1277 140.852 76.0167 140.431C76.9057 140.01 77.3327 140.431 77.3327 140.431C77.3327 140.431 77.2627 138.654 78.1797 138.509C78.4208 138.463 78.6694 138.464 78.9102 138.511C79.151 138.559 79.3788 138.652 79.5797 138.786C79.5797 138.786 79.6917 137.535 80.5247 137.424C80.7646 137.402 81.0049 137.46 81.2042 137.588C81.4035 137.715 81.5494 137.904 81.6167 138.121C81.6167 138.121 82.5757 136.891 83.5207 136.871C84.4657 136.851 84.5917 137.864 84.5917 137.864C84.5917 137.864 86.1037 136.706 86.8037 137.16C87.2447 137.5 87.5827 137.942 87.7837 138.444C87.7837 138.444 89.2537 137.022 89.8837 137.786C90.2799 138.304 90.4996 138.924 90.5137 139.562C90.5137 139.562 92.4107 138.246 92.9147 139.069C93.2128 139.637 93.3086 140.281 93.1877 140.904C93.1877 140.904 94.8117 140.069 95.2877 141.128C95.4154 141.458 95.4503 141.813 95.3889 142.158C95.3276 142.504 95.1722 142.829 94.9377 143.102C94.9377 143.102 96.4497 143.273 96.3937 144.109C96.3377 144.945 94.9937 145.682 94.9937 145.682C94.9937 145.682 96.6037 146.247 96.3657 146.978Z" fill="#263238"/>
<path d="M83.7012 162.829V162.882L82.5112 165.303C82.3531 165.803 82.2476 166.317 82.1962 166.836C82.1499 167.256 82.1382 167.678 82.1612 168.099C82.6162 168.968 82.5672 170.731 80.4532 170.409C77.7862 169.981 73.5792 165.5 73.6142 164.362C75.4902 161.144 77.2822 157.308 77.6952 154.005L80.1592 157.604L83.7012 162.829Z" fill="#FF8B7B"/>
<g opacity="0.2">
<path d="M83.6687 162.887L82.4787 165.309C80.9387 164.315 79.4897 162.479 79.3987 160.742C79.3497 159.492 80.1407 158.465 80.6657 158.485L83.6687 162.887Z" fill="black"/>
</g>
<path d="M78.2548 147.814C78.5669 146.6 79.2021 145.481 80.1006 144.562C80.9992 143.643 82.1316 142.954 83.3914 142.559C84.6513 142.164 85.9973 142.077 87.3028 142.305C88.6084 142.534 89.8307 143.071 90.8548 143.866C95.5308 147.485 93.7458 154.749 90.5608 160.269C87.7608 165.132 80.5088 163.974 77.6738 158.776C75.7908 155.328 76.8478 153.091 78.2198 147.846" fill="#FF8B7B"/>
<path d="M88.2039 158.558C88.2039 158.558 85.6209 157.9 84.4239 156.275C84.4239 156.275 84.3119 158.196 85.4669 159.275C86.6219 160.355 88.2039 158.558 88.2039 158.558Z" fill="white"/>
<path d="M78.0996 148.3C78.0996 148.3 79.7866 148.655 79.6046 150.037C79.4226 151.419 79.2336 151.577 79.2336 151.577L81.1726 152.307C81.1726 152.307 81.5856 146.984 83.0416 147.287C84.4976 147.589 83.3426 144.984 84.2876 144.786C86.5136 144.326 92.1906 145.207 93.7796 148.774C93.7796 148.774 93.7796 145.484 91.4206 143.372C89.0616 141.26 83.7206 139.976 81.0536 142.115C78.3866 144.253 78.0996 148.3 78.0996 148.3Z" fill="#263238"/>
<path d="M74.7626 150.557C74.7411 151.915 75.2923 153.226 76.2956 154.203C77.6326 155.519 79.2566 154.578 79.6836 152.887C80.0616 151.399 79.8306 148.939 78.1016 148.281C76.3726 147.623 74.8116 148.873 74.7626 150.537" fill="#FF8B7B"/>
<path d="M85.6405 152.788C85.5005 153.209 85.6405 153.617 85.9135 153.703C86.1865 153.788 86.5505 153.519 86.6905 153.104C86.8305 152.689 86.6905 152.275 86.4175 152.189C86.1445 152.104 85.7735 152.374 85.6405 152.788Z" fill="#263238"/>
<path d="M90.5397 154.17C90.3997 154.591 90.5397 154.999 90.8127 155.085C91.0857 155.17 91.4567 154.9 91.5967 154.479C91.7367 154.058 91.5967 153.65 91.3167 153.565C91.0367 153.479 90.6797 153.749 90.5397 154.17Z" fill="black"/>
<path d="M92.8667 152.807C92.8291 152.793 92.7956 152.771 92.7689 152.742C92.7421 152.714 92.7229 152.68 92.7127 152.643C92.6888 152.493 92.6331 152.35 92.549 152.221C92.4648 152.092 92.3538 151.98 92.2227 151.893C91.9398 151.751 91.6136 151.704 91.2987 151.761C91.2394 151.773 91.1774 151.764 91.1253 151.735C91.0733 151.705 91.0351 151.658 91.0187 151.603C91.0114 151.576 91.01 151.548 91.0146 151.52C91.0191 151.492 91.0295 151.466 91.0452 151.442C91.0608 151.418 91.0814 151.397 91.1057 151.381C91.13 151.364 91.1575 151.353 91.1867 151.347C91.6233 151.261 92.0783 151.326 92.4677 151.531C92.6534 151.647 92.8115 151.799 92.932 151.975C93.0525 152.152 93.1327 152.35 93.1677 152.557C93.1748 152.585 93.1759 152.613 93.1709 152.641C93.1658 152.668 93.1547 152.695 93.1383 152.718C93.1218 152.742 93.1004 152.762 93.0754 152.777C93.0503 152.793 93.0222 152.803 92.9927 152.807C92.9515 152.818 92.9079 152.818 92.8667 152.807Z" fill="#263238"/>
<path d="M85.2276 150.715C85.1906 150.705 85.1569 150.686 85.13 150.66C85.103 150.634 85.0837 150.602 85.0738 150.566C85.064 150.531 85.0639 150.494 85.0737 150.459C85.0835 150.424 85.1027 150.392 85.1296 150.366C85.4438 150.07 85.862 149.893 86.3056 149.866C86.5277 149.869 86.7467 149.915 86.949 150.001C87.1513 150.087 87.3326 150.211 87.4816 150.366C87.5091 150.384 87.532 150.408 87.5487 150.435C87.5654 150.463 87.5755 150.493 87.5784 150.525C87.5812 150.556 87.5767 150.588 87.5652 150.618C87.5536 150.648 87.5353 150.674 87.5115 150.697C87.4878 150.719 87.4591 150.736 87.4275 150.747C87.3959 150.758 87.3621 150.762 87.3286 150.76C87.2951 150.757 87.2626 150.747 87.2334 150.732C87.2042 150.716 87.1791 150.695 87.1596 150.669C87.0533 150.557 86.9242 150.466 86.78 150.401C86.6357 150.337 86.4792 150.3 86.3196 150.294C85.9949 150.316 85.6894 150.446 85.4586 150.662C85.4293 150.69 85.392 150.71 85.3512 150.72C85.3103 150.729 85.2675 150.727 85.2276 150.715Z" fill="#263238"/>
<path d="M88.9863 153.005C88.94 153.928 89.1834 154.844 89.6863 155.637C90.5053 156.855 88.0413 156.986 88.0413 156.986L88.9863 153.005Z" fill="#BA4D3C"/>
</g>
<defs>
<clipPath id="clip0_579_5260">
<rect width="350" height="329" fill="white" transform="translate(0 0.5)"/>
</clipPath>
</defs>
</svg>
