<svg width="24" height="25" viewBox="0 0 24 25" fill="none" xmlns="http://www.w3.org/2000/svg">
<g clip-path="url(#clip0_1163_3366)">
<path d="M10.8587 4.03126C11.218 2.92569 12.782 2.92569 13.1413 4.03126L14.4248 7.98142C14.5854 8.47584 15.0461 8.81059 15.566 8.81059H19.7195C20.8819 8.81059 21.3653 10.2981 20.4248 10.9814L17.0646 13.4227C16.644 13.7283 16.468 14.27 16.6287 14.7644L17.9122 18.7145C18.2714 19.8201 17.006 20.7395 16.0655 20.0562L12.7053 17.6149C12.2848 17.3093 11.7152 17.3093 11.2947 17.6149L7.93446 20.0562C6.994 20.7395 5.72862 19.8201 6.08784 18.7145L7.37133 14.7644C7.53198 14.27 7.35599 13.7283 6.9354 13.4227L3.5752 10.9814C2.63474 10.2981 3.11807 8.81059 4.28054 8.81059H8.43398C8.95385 8.81059 9.4146 8.47584 9.57525 7.98141L10.8587 4.03126Z" fill="#111827"/>
</g>
<defs>
<clipPath id="clip0_1163_3366">
<rect width="24" height="24" fill="white" transform="translate(0 0.518799)"/>
</clipPath>
</defs>
</svg>
