<svg width="26" height="27" viewBox="0 0 26 27" fill="none" xmlns="http://www.w3.org/2000/svg">
<path fill-rule="evenodd" clip-rule="evenodd" d="M6.5001 5.72095C4.34619 5.72095 2.6001 7.46704 2.6001 9.62095V17.4209C2.6001 19.5749 4.34619 21.3209 6.5001 21.3209H19.5001C21.654 21.3209 23.4001 19.5749 23.4001 17.4209V9.62095C23.4001 7.46704 21.654 5.72095 19.5001 5.72095H6.5001ZM5.2001 17.4209V16.1209H11.7001V18.7209H6.5001C5.78213 18.7209 5.2001 18.1389 5.2001 17.4209ZM14.3001 18.7209H19.5001C20.2181 18.7209 20.8001 18.1389 20.8001 17.4209V16.1209H14.3001V18.7209ZM14.3001 13.5209H20.8001V10.9209H14.3001V13.5209ZM11.7001 10.9209H5.2001V13.5209H11.7001V10.9209Z" fill="#111827"/>
</svg>
