<svg width="350" height="396" viewBox="0 0 350 396" fill="none" xmlns="http://www.w3.org/2000/svg">
<g clip-path="url(#clip0_579_5669)">
<path d="M350 302.862H0V303.06H350V302.862Z" fill="#EBEBEB"/>
<path d="M314.931 315.605H291.747V315.803H314.931V315.605Z" fill="#EBEBEB"/>
<path d="M231.855 317.759H225.772V317.957H231.855V317.759Z" fill="#EBEBEB"/>
<path d="M291.046 308.255H277.613V308.453H291.046V308.255Z" fill="#EBEBEB"/>
<path d="M66.9557 309.585H36.7227V309.783H66.9557V309.585Z" fill="#EBEBEB"/>
<path d="M77.6219 309.585H73.1909V309.783H77.6219V309.585Z" fill="#EBEBEB"/>
<path d="M157.604 312.928H92.0281V313.126H157.604V312.928Z" fill="#EBEBEB"/>
<path d="M165.901 267.538H30.7376C29.6787 267.536 28.6638 267.059 27.9158 266.211C27.1677 265.363 26.7476 264.214 26.7476 263.016V48.0433C26.7568 46.8521 27.181 45.7132 27.9281 44.8739C28.6751 44.0345 29.6847 43.5626 30.7376 43.5605H165.901C166.961 43.5605 167.977 44.037 168.727 44.8851C169.476 45.7332 169.898 46.8835 169.898 48.0829V263.016C169.898 264.215 169.476 265.366 168.727 266.214C167.977 267.062 166.961 267.538 165.901 267.538ZM30.7376 43.7189C29.7251 43.721 28.7548 44.1776 28.0395 44.9883C27.3243 45.799 26.9226 46.8978 26.9226 48.0433V263.016C26.9226 264.161 27.3243 265.26 28.0395 266.071C28.7548 266.882 29.7251 267.338 30.7376 267.34H165.901C166.914 267.338 167.885 266.882 168.601 266.071C169.317 265.261 169.721 264.162 169.723 263.016V48.0433C169.721 46.897 169.317 45.7983 168.601 44.9878C167.885 44.1773 166.914 43.721 165.901 43.7189H30.7376Z" fill="#EBEBEB"/>
<path d="M317.317 267.538H182.147C181.087 267.536 180.072 267.059 179.323 266.211C178.573 265.364 178.152 264.215 178.15 263.016V48.0433C178.161 46.8514 178.587 45.7125 179.335 44.8734C180.083 44.0342 181.093 43.5626 182.147 43.5605H317.317C318.369 43.5647 319.376 44.0375 320.122 44.8766C320.867 45.7157 321.291 46.8535 321.3 48.0433V263.016C321.3 264.212 320.881 265.36 320.134 266.208C319.388 267.056 318.375 267.534 317.317 267.538ZM182.147 43.7189C181.134 43.721 180.163 44.1773 179.446 44.9878C178.73 45.7983 178.327 46.897 178.325 48.0433V263.016C178.327 264.162 178.73 265.261 179.446 266.071C180.163 266.882 181.134 267.338 182.147 267.34H317.317C318.33 267.338 319.301 266.882 320.017 266.071C320.734 265.261 321.137 264.162 321.139 263.016V48.0433C321.137 46.897 320.734 45.7983 320.017 44.9878C319.301 44.1773 318.33 43.721 317.317 43.7189H182.147Z" fill="#EBEBEB"/>
<path d="M104.6 157.205H99.8894V303.06H104.6V157.205Z" fill="#F5F5F5"/>
<path d="M123.227 175.722H118.516V303.059H123.227V175.722Z" fill="#F5F5F5"/>
<path d="M141.681 194.239H136.97V303.059H141.681V194.239Z" fill="#F5F5F5"/>
<path d="M160.138 181.891H155.427V303.059H160.138V181.891Z" fill="#F5F5F5"/>
<path d="M178.598 175.722H173.887V303.059H178.598V175.722Z" fill="#F5F5F5"/>
<path d="M197.05 163.375H192.339V303.06H197.05V163.375Z" fill="#F5F5F5"/>
<path d="M215.509 169.552H210.798V303.059H215.509V169.552Z" fill="#F5F5F5"/>
<path d="M233.969 163.375H229.258V303.06H233.969V163.375Z" fill="#F5F5F5"/>
<path d="M252.421 151.027H247.71V303.052H252.421V151.027Z" fill="#F5F5F5"/>
<path d="M270.878 138.688H266.167V303.06H270.878V138.688Z" fill="#F5F5F5"/>
<path d="M289.332 126.34H284.621V303.059H289.332V126.34Z" fill="#F5F5F5"/>
<path d="M139.3 185.566C139.037 185.554 138.788 185.433 138.6 185.226L99.1619 141.721C98.9623 141.501 98.8483 141.199 98.845 140.884C98.8418 140.568 98.9494 140.264 99.1444 140.038C99.3393 139.812 99.6055 139.683 99.8845 139.68C100.163 139.676 100.432 139.798 100.632 140.018L139.433 182.826L194.082 137.682C194.293 137.511 194.553 137.435 194.811 137.467C195.069 137.499 195.308 137.638 195.482 137.856L213.374 160.777L287.434 112.766C287.554 112.688 287.686 112.638 287.823 112.619C287.96 112.599 288.099 112.61 288.233 112.651C288.366 112.692 288.491 112.763 288.6 112.859C288.709 112.954 288.8 113.073 288.869 113.209C288.937 113.345 288.982 113.495 288.999 113.65C289.016 113.805 289.006 113.962 288.97 114.113C288.934 114.264 288.871 114.405 288.787 114.528C288.702 114.652 288.597 114.755 288.477 114.833L213.675 163.335C213.465 163.469 213.22 163.518 212.982 163.473C212.744 163.429 212.526 163.293 212.366 163.089L194.544 140.28L139.944 185.337C139.757 185.491 139.531 185.572 139.3 185.566Z" fill="#F0F0F0"/>
<path d="M134.855 302.148L100.436 148.572L102.158 140.897H100.366V97.0361H95.746V140.897H93.954L95.676 148.572L61.25 302.148H66.017L95.746 169.504V302.956H100.366V169.504L130.095 302.148H134.855Z" fill="#E0E0E0"/>
<path d="M123.991 147.046C127.372 130.839 118.501 114.6 104.176 110.775C89.852 106.95 75.4992 116.987 72.1184 133.194C68.7375 149.401 77.6089 165.64 91.9332 169.465C106.257 173.291 120.61 163.253 123.991 147.046Z" fill="#E6E6E6"/>
<path d="M98.0547 165.869C110.619 165.869 120.805 154.345 120.805 140.129C120.805 125.913 110.619 114.389 98.0547 114.389C85.4902 114.389 75.3047 125.913 75.3047 140.129C75.3047 154.345 85.4902 165.869 98.0547 165.869Z" fill="#F5F5F5"/>
<path d="M98.0565 160.278C107.892 160.278 115.865 151.257 115.865 140.129C115.865 129.001 107.892 119.981 98.0565 119.981C88.2214 119.981 80.2485 129.001 80.2485 140.129C80.2485 151.257 88.2214 160.278 98.0565 160.278Z" fill="#E6E6E6"/>
<path d="M103.645 155.382C111.092 151.892 114.629 142.232 111.544 133.806C108.459 125.38 99.9218 121.379 92.4747 124.869C85.0277 128.359 81.4913 138.019 84.576 146.445C87.6606 154.871 96.1983 158.872 103.645 155.382Z" fill="#F5F5F5"/>
<path d="M107.911 142.753C109.196 136.593 105.824 130.42 100.379 128.966C94.9348 127.512 89.4794 131.328 88.1944 137.488C86.9094 143.648 90.2813 149.82 95.7258 151.274C101.17 152.728 106.626 148.913 107.911 142.753Z" fill="#E6E6E6"/>
<path d="M100.844 147.728C104.555 145.989 106.317 141.175 104.78 136.977C103.243 132.778 98.9885 130.784 95.2775 132.523C91.5665 134.262 89.8042 139.076 91.3414 143.275C92.8785 147.474 97.133 149.467 100.844 147.728Z" fill="#F5F5F5"/>
<path d="M101.354 140.129C101.354 140.869 101.16 141.592 100.797 142.207C100.433 142.822 99.917 143.301 99.3129 143.584C98.7087 143.866 98.044 143.94 97.4029 143.795C96.7618 143.65 96.1731 143.293 95.7113 142.77C95.2495 142.246 94.9354 141.579 94.8087 140.854C94.682 140.128 94.7485 139.376 94.9996 138.693C95.2507 138.01 95.6753 137.427 96.2196 137.017C96.7638 136.607 97.4033 136.389 98.0571 136.391C98.4907 136.391 98.92 136.488 99.3204 136.676C99.7209 136.864 100.085 137.139 100.391 137.486C100.697 137.833 100.94 138.246 101.105 138.699C101.27 139.153 101.355 139.639 101.354 140.129Z" fill="#E6E6E6"/>
<path d="M63.854 115.26L64.575 120.709L59.563 122.618L64.575 125.596L69.573 123.608L68.698 118.238L63.854 115.26Z" fill="#E6E6E6"/>
<path d="M98.0558 140.921C97.9441 140.92 97.8341 140.89 97.7338 140.834L61.8728 120.036C61.7132 119.937 61.5941 119.772 61.5406 119.575C61.4872 119.378 61.5036 119.165 61.5865 118.982C61.6694 118.798 61.8121 118.658 61.9845 118.592C62.1569 118.526 62.3453 118.538 62.5098 118.627L98.3708 139.393C98.5357 139.488 98.6606 139.653 98.7184 139.851C98.7761 140.05 98.7619 140.267 98.6788 140.454C98.6246 140.591 98.5373 140.707 98.4271 140.79C98.3168 140.872 98.1881 140.918 98.0558 140.921Z" fill="#E0E0E0"/>
<path d="M147.405 106.255C147.401 105.165 147.624 104.09 148.055 103.115C148.486 102.141 149.113 101.294 149.886 100.644C150.659 99.9937 151.556 99.5578 152.505 99.3713C153.454 99.1849 154.428 99.2531 155.35 99.5705C155.076 97.469 155.206 95.3255 155.731 93.286C156.255 91.2465 157.163 89.359 158.39 87.7519C159.618 86.1449 161.137 84.8562 162.845 83.9736C164.553 83.091 166.408 82.6353 168.286 82.6375C169.091 82.6372 169.895 82.722 170.687 82.891C171.975 80.4956 173.917 78.6392 176.219 77.6018C178.522 76.5643 181.06 76.4022 183.451 77.1397C185.842 77.8773 187.956 79.4746 189.475 81.6906C190.993 83.9066 191.833 86.6213 191.869 89.425H192.065C194.857 89.425 197.535 90.6799 199.509 92.9138C201.484 95.1477 202.593 98.1775 202.593 101.337C202.593 104.496 201.484 107.526 199.509 109.759C197.535 111.993 194.857 113.248 192.065 113.248H153.397C151.789 113.197 150.263 112.437 149.144 111.13C148.025 109.824 147.401 108.074 147.405 106.255Z" fill="#F0F0F0"/>
<path d="M257.228 102.422C257.228 101.529 257.542 100.673 258.1 100.041C258.658 99.4102 259.414 99.0556 260.203 99.0556C260.492 99.0585 260.78 99.1065 261.057 99.1981C261.013 98.8572 260.989 98.5131 260.987 98.1685C260.987 97.1208 261.191 96.0858 261.584 95.1373C261.977 94.1887 262.551 93.35 263.263 92.6807C263.976 92.0115 264.81 91.5281 265.706 91.2652C266.603 91.0022 267.539 90.9661 268.449 91.1593C269.073 90.0076 270.01 89.1162 271.12 88.6194C272.23 88.1226 273.453 88.0471 274.604 88.4045C275.756 88.7618 276.773 89.5326 277.504 90.6008C278.234 91.669 278.638 92.9768 278.655 94.3273H278.746C280.092 94.3273 281.383 94.9323 282.335 96.0091C283.287 97.0859 283.821 98.5464 283.821 100.069C283.821 101.592 283.287 103.053 282.335 104.13C281.383 105.206 280.092 105.811 278.746 105.811H260.119C259.341 105.789 258.601 105.42 258.06 104.786C257.52 104.152 257.221 103.303 257.228 102.422Z" fill="#F0F0F0"/>
<path d="M66.3038 106.612C66.3038 106.315 66.3557 106.02 66.4564 105.746C66.5571 105.472 66.7046 105.222 66.8906 105.013C67.0766 104.803 67.2974 104.637 67.5402 104.524C67.7831 104.411 68.0433 104.353 68.3058 104.354C68.5003 104.354 68.6937 104.386 68.8798 104.449C68.8493 104.219 68.833 103.986 68.8308 103.753C68.84 102.495 69.2854 101.293 70.0711 100.404C70.8568 99.5148 71.9198 99.0109 73.0308 99.0005C73.294 99.0017 73.5565 99.0309 73.8148 99.0876C74.2303 98.3089 74.8588 97.7047 75.6052 97.3665C76.3515 97.0284 77.175 96.9749 77.9506 97.214C78.7263 97.4531 79.4119 97.9718 79.9035 98.6915C80.3951 99.4113 80.6659 100.293 80.6748 101.202H80.7378C81.6162 101.247 82.4453 101.674 83.0528 102.393C83.6602 103.112 83.9992 104.069 83.9992 105.063C83.9992 106.058 83.6602 107.014 83.0528 107.734C82.4453 108.453 81.6162 108.879 80.7378 108.924H68.2498C67.9878 108.917 67.7296 108.852 67.49 108.731C67.2504 108.611 67.034 108.439 66.8533 108.224C66.6726 108.009 66.5311 107.756 66.4368 107.48C66.3425 107.203 66.2973 106.908 66.3038 106.612Z" fill="#F0F0F0"/>
<path d="M175.001 338.628C249.958 338.628 310.724 334.614 310.724 329.662C310.724 324.711 249.958 320.697 175.001 320.697C100.043 320.697 39.2776 324.711 39.2776 329.662C39.2776 334.614 100.043 338.628 175.001 338.628Z" fill="#F5F5F5"/>
<path d="M96.8682 178.644L101.67 175.54C101.67 175.54 103.518 172.316 104.071 172.166C104.624 172.015 110.714 172.166 110.714 172.166C110.714 172.166 109.797 176.633 109.699 177.512C109.601 178.391 103.791 177.512 103.791 177.512L99.0872 180.68L96.8682 178.644Z" fill="#EBB376"/>
<path d="M52.143 323.137L47.117 322.004C47.0273 322.004 46.9401 322.038 46.87 322.101C46.7999 322.165 46.7512 322.253 46.732 322.353L45.381 328.039C45.3525 328.234 45.3891 328.433 45.4836 328.598C45.5781 328.764 45.7237 328.884 45.892 328.934H46.039C47.817 328.934 49.112 328.776 51.338 328.776C52.738 328.776 56.854 328.942 58.751 328.942C60.648 328.942 60.9 326.82 60.151 326.629C56.651 325.766 54.047 324.578 52.934 323.461C52.7184 323.24 52.4342 323.123 52.143 323.137Z" fill="#263238"/>
<path d="M113.653 322.946H108.165C108.075 322.944 107.987 322.978 107.917 323.042C107.846 323.105 107.798 323.195 107.78 323.295L106.884 327.888C106.858 328.082 106.896 328.281 106.992 328.445C107.088 328.609 107.234 328.726 107.402 328.775H107.549C109.327 328.736 110.615 328.617 112.848 328.617C114.248 328.617 118.364 328.775 120.261 328.775C122.158 328.775 122.403 326.661 121.626 326.463C118.126 325.607 115.522 324.411 114.409 323.295C114.31 323.182 114.192 323.093 114.062 323.033C113.933 322.973 113.793 322.944 113.653 322.946Z" fill="#263238"/>
<path d="M61.8322 218.331L85.0722 211.662C90.3432 224.683 109.684 278.143 114.374 322.622L106.506 324.879C106.506 324.879 92.5762 259.285 80.8932 240.135C80.8932 240.135 80.2702 269.249 79.0032 273.486C77.9602 276.971 54.0412 323.596 54.0412 323.596L46.2712 322.606C46.2712 322.606 65.8012 275.022 66.9492 269.09C67.7612 265.051 64.2052 235.383 64.2052 235.383C63.5822 232.737 62.6442 221.784 62.6442 221.784C62.6442 221.784 61.9442 218.877 61.8322 218.331Z" fill="#002BDD"/>
<path opacity="0.2" d="M80.9006 240.151C82.8727 243.526 84.5936 247.081 86.0456 250.779C84.4356 240.531 79.4446 230.607 79.4446 230.607L80.9006 240.151Z" fill="#012BDD"/>
<path d="M102.236 179.096C102.236 179.096 91.6381 187.19 88.8451 187.618C87.7321 187.792 85.4361 187.365 83.0631 186.826C79.4651 185.955 75.7131 184.735 75.7131 184.735L75.2441 180.72L74.7471 176.427C75.5871 176.11 86.5491 181.179 88.1871 181.971C89.8251 182.763 100.416 175.635 100.416 175.635L102.236 179.096Z" fill="#263238"/>
<path d="M69.4626 216.478L70.1486 219.519L62.6446 221.784L61.9446 218.632L69.4626 216.478Z" fill="black"/>
<path d="M81.2994 213.08L81.9504 215.963L70.9814 219.274L70.2954 216.24L81.2994 213.08Z" fill="black"/>
<path d="M86.2696 214.664L82.7766 215.718L82.1326 212.843L85.3386 211.924L86.2696 214.664Z" fill="black"/>
<path d="M75.3317 217.963L79.6606 216.721L78.8691 213.189L74.5402 214.431L75.3317 217.963Z" fill="white"/>
<path d="M85.3324 211.916L61.9384 218.633C60.7974 215.14 59.6354 211.623 58.5014 208.194C57.6684 205.683 56.8494 203.22 56.0514 200.836C55.8507 200.224 55.6477 199.622 55.4424 199.031L54.7424 196.924C54.2244 195.382 53.725 193.896 53.2444 192.465L51.9564 188.655L51.3474 186.85L50.1924 183.444L74.7554 176.395C82.8544 192.386 85.3324 211.916 85.3324 211.916Z" fill="#263238"/>
<path d="M59.1103 182.762C61.6373 184.133 66.2993 181.717 66.2993 181.717C66.2993 181.717 67.8463 179.784 66.9223 178.929C65.0463 179.206 65.1653 178.509 64.4863 177.424C64.0981 176.739 63.8318 175.975 63.7023 175.175C63.6184 174.733 63.5553 174.286 63.5133 173.837L56.1423 170.843C57.8153 173.9 60.4123 179.689 59.1103 182.762Z" fill="#EBB376"/>
<path opacity="0.2" d="M58.3818 173.575C59.7118 177.575 62.9738 177.694 64.4858 177.424C64.0976 176.739 63.8313 175.975 63.7018 175.175L58.3818 173.575Z" fill="black"/>
<path d="M67.9857 158.4C67.9857 158.4 69.9107 164.974 67.1317 168.182C64.3527 171.389 62.4697 158.82 62.4697 158.82L67.9857 158.4Z" fill="#263238"/>
<path d="M58.7442 175.341C59.5758 176.323 60.6689 176.969 61.8561 177.181C63.0433 177.393 64.2591 177.158 65.3172 176.514C66.7045 175.702 67.7661 174.323 68.2852 172.657C68.3552 172.435 68.4182 172.197 68.4742 171.96C69.4122 167.532 68.8242 160.222 64.5612 158.258C63.6216 157.82 62.5986 157.661 61.5893 157.796C60.5801 157.932 59.6183 158.357 58.7953 159.032C57.9724 159.706 57.3157 160.608 56.8877 161.651C56.4597 162.694 56.2747 163.843 56.3502 164.99C56.6022 169.924 56.5462 172.823 58.7442 175.341Z" fill="#EBB376"/>
<path d="M62.9509 166.392C62.9509 166.788 63.1329 167.112 63.3709 167.112C63.6089 167.112 63.7839 166.788 63.7909 166.392C63.7979 165.996 63.6019 165.663 63.3709 165.663C63.1399 165.663 62.9509 165.988 62.9509 166.392Z" fill="#263238"/>
<path d="M66.9568 166.392C66.9568 166.796 67.1458 167.121 67.3768 167.121C67.6078 167.121 67.7898 166.788 67.7968 166.392C67.8038 165.996 67.6008 165.671 67.3768 165.671C67.1528 165.671 66.9568 166.012 66.9568 166.392Z" fill="#263238"/>
<path d="M65.6829 166.59C66.1015 167.817 66.6693 168.971 67.3699 170.02C67.1269 170.217 66.8485 170.351 66.5545 170.412C66.2606 170.474 65.9582 170.462 65.6689 170.376L65.6829 166.59Z" fill="#D58745"/>
<path d="M68.4189 164.539C68.3853 164.558 68.3481 164.569 68.3104 164.569C68.2726 164.569 68.2354 164.558 68.2019 164.539C67.9948 164.359 67.7533 164.236 67.4967 164.181C67.2402 164.126 66.9758 164.14 66.7249 164.222C66.6738 164.244 66.6171 164.242 66.5672 164.217C66.5173 164.192 66.4784 164.145 66.4589 164.088C66.4394 164.03 66.441 163.966 66.4633 163.909C66.4856 163.853 66.5268 163.809 66.5779 163.787C66.8918 163.674 67.225 163.65 67.5492 163.714C67.8734 163.779 68.1789 163.932 68.4399 164.159C68.4628 164.176 68.4825 164.197 68.4978 164.223C68.5131 164.249 68.5237 164.277 68.5289 164.308C68.5341 164.338 68.5339 164.369 68.5282 164.399C68.5225 164.43 68.5115 164.458 68.4959 164.484C68.4724 164.506 68.4465 164.524 68.4189 164.539Z" fill="#263238"/>
<path d="M62.1603 164.594C62.1203 164.588 62.082 164.572 62.0483 164.546C62.0098 164.502 61.9883 164.442 61.9883 164.38C61.9883 164.318 62.0098 164.258 62.0483 164.214C62.293 163.96 62.5881 163.777 62.9087 163.681C63.2292 163.584 63.5657 163.577 63.8893 163.659C63.9404 163.678 63.9834 163.717 64.0094 163.77C64.0354 163.823 64.0425 163.886 64.0293 163.944C64.013 164.004 63.9772 164.055 63.929 164.086C63.8809 164.117 63.8241 164.126 63.7703 164.111C63.515 164.053 63.2511 164.064 63.0004 164.144C62.7497 164.224 62.5194 164.37 62.3283 164.57C62.3033 164.587 62.2754 164.598 62.2465 164.602C62.2176 164.606 62.1882 164.603 62.1603 164.594Z" fill="#263238"/>
<path d="M59.5432 158.876L59.9632 159.787C58.5632 160.397 58.9132 162.266 59.2632 163.097C59.9632 164.887 59.1582 167.762 57.9752 168.958C57.9752 168.958 57.8982 168.166 57.3172 168.388C56.7362 168.61 57.0722 172.712 58.3042 174.613C58.3042 174.613 56.4912 172.926 55.3292 168.665C54.2582 164.705 54.0062 161.402 54.6712 159.818L59.5432 158.876Z" fill="#263238"/>
<path d="M54.4484 169.045C54.6865 169.598 55.0187 170.092 55.4258 170.5C55.833 170.908 56.3072 171.221 56.8214 171.421C58.2214 171.944 58.9214 170.573 58.6414 169.045C58.3474 167.706 57.2904 165.766 55.8414 165.916C55.5358 165.955 55.2436 166.079 54.9912 166.278C54.7388 166.476 54.5342 166.743 54.3959 167.054C54.2575 167.364 54.1899 167.709 54.1991 168.057C54.2082 168.404 54.2939 168.744 54.4484 169.045Z" fill="#EBB376"/>
<path d="M59.5 177.322C61.558 178.953 65.569 179.484 67.536 176.53C69.503 173.576 68.873 168.832 68.873 168.832C68.6471 169.891 68.2168 170.881 67.613 171.73C66.5 170.21 64.61 171.073 64.61 171.073C64.2118 170.486 63.6403 170.082 63 169.932C62.083 169.829 59.5 170.004 59.5 170.004C58.674 169.41 58.639 166.764 58.639 166.764L58.135 167.24C58.135 167.24 57.435 175.682 59.5 177.322Z" fill="#263238"/>
<path d="M65.003 160.555C65.003 160.555 69.903 157.862 69.322 155.169C68.741 152.476 67.313 155.549 67.313 155.549C67.313 155.549 67.971 153.506 66.683 153.173C65.395 152.841 65.801 154.147 65.101 154.931C64.401 155.716 57.611 154.575 55.42 156.112C53.229 157.648 54.902 162.962 54.902 162.962C56.196 161.493 57.8409 160.482 59.6351 160.054C61.4293 159.626 63.2948 159.8 65.003 160.555Z" fill="#263238"/>
<path opacity="0.2" d="M59.5 177.322C61.558 178.953 65.569 179.484 67.536 176.53C69.503 173.576 68.873 168.832 68.873 168.832C68.6471 169.891 68.2168 170.881 67.613 171.73C66.5 170.21 64.61 171.073 64.61 171.073C64.2118 170.486 63.6403 170.082 63 169.932C62.083 169.829 59.5 170.004 59.5 170.004C58.674 169.41 58.639 166.764 58.639 166.764L58.135 167.24C58.135 167.24 57.435 175.682 59.5 177.322Z" fill="white"/>
<path d="M64.8199 172.578C64.4432 173.148 64.104 173.749 63.8049 174.376L63.4899 174.241C62.0899 173.663 61.5859 172.871 61.4739 172.158C61.4286 171.813 61.455 171.46 61.5509 171.129C61.6019 170.936 61.6749 170.753 61.7679 170.582C62.5042 171.377 63.3826 171.985 64.3439 172.364C64.6309 172.507 64.8199 172.578 64.8199 172.578Z" fill="#263238"/>
<path d="M64.3438 172.372L64.0288 172.895C62.6988 172.348 61.8238 171.762 61.5508 171.136C61.6018 170.944 61.6747 170.761 61.7678 170.59C62.5041 171.385 63.3825 171.993 64.3438 172.372Z" fill="white"/>
<path d="M63.4904 174.24C62.0904 173.662 61.5864 172.87 61.4744 172.157C62.009 172.393 62.5038 172.73 62.9374 173.155C63.2179 173.442 63.4114 173.822 63.4904 174.24Z" fill="#DE5753"/>
<path d="M67.2219 181.725L66.8089 185.827L74.3689 204.051L73.6199 206.467L71.1489 205.176L65.7589 186.588L61.7969 183.554L64.6809 181.764L67.2219 181.725Z" fill="#002BDD"/>
<path d="M59.2764 178.921L64.2814 181.258L64.4844 177.425L68.1734 178.454L68.4884 184.291L64.9394 182.652L63.4554 186.39L57.1484 181.622L59.2764 178.921Z" fill="#263238"/>
<path opacity="0.2" d="M59.2764 178.921L64.2814 181.258L64.4844 177.425L68.1734 178.454L68.4884 184.291L64.9394 182.652L63.4554 186.39L57.1484 181.622L59.2764 178.921Z" fill="white"/>
<path opacity="0.2" d="M54.7329 196.923C54.2149 195.382 53.7156 193.895 53.2349 192.464L51.9469 188.655L51.3379 186.849C52.0379 186.461 53.8229 186.691 54.3199 187.641C56.1399 191.237 54.7329 196.923 54.7329 196.923Z" fill="black"/>
<path opacity="0.2" d="M63.5062 200.947C63.2072 202.503 62.6019 203.963 61.7354 205.217C60.8688 206.472 59.7633 207.49 58.5012 208.194C57.6682 205.683 56.8492 203.22 56.0512 200.836C55.8505 200.224 55.6475 199.622 55.4422 199.031L54.7422 196.924L62.8482 198.088L63.5062 200.947Z" fill="black"/>
<path opacity="0.2" d="M83.0636 186.794C79.4656 185.923 75.7136 184.703 75.7136 184.703L75.2446 180.688C75.2446 180.688 81.8596 181.488 83.0636 186.794Z" fill="black"/>
<path d="M50.1836 280.369C49.9642 280.377 49.748 280.307 49.5654 280.169C49.3828 280.031 49.2431 279.832 49.1658 279.599C49.0885 279.367 49.0776 279.113 49.1347 278.873C49.1917 278.633 49.3137 278.419 49.4836 278.262C61.1666 267.412 60.9426 250.407 60.7256 233.957C60.5576 221.555 60.4036 209.833 65.5626 201.866C72.8006 190.667 101.914 172.902 106.737 172.395C110.188 172.007 215.447 138.91 270.628 121.462C270.896 121.377 271.183 121.416 271.426 121.57C271.669 121.725 271.847 121.982 271.923 122.286C271.998 122.589 271.963 122.914 271.827 123.189C271.69 123.463 271.463 123.666 271.195 123.751C264.664 125.818 111.259 174.312 106.933 174.763C102.782 175.199 73.9626 192.892 67.2566 203.275C62.5176 210.601 62.6646 221.935 62.8256 233.926C63.0356 250.146 63.2806 268.536 50.8136 280.107C50.6351 280.271 50.4135 280.363 50.1836 280.369Z" fill="#263238"/>
<path opacity="0.4" d="M271.229 123.742L256.837 128.304C217.252 140.802 110.537 174.399 106.967 174.771C102.816 175.206 73.997 192.9 67.291 203.283C62.552 210.609 62.699 221.942 62.86 233.933C63.07 250.153 63.315 268.544 50.848 280.115C50.6519 280.299 50.4027 280.395 50.148 280.384C49.9286 280.392 49.7123 280.323 49.5298 280.185C49.3472 280.047 49.2074 279.847 49.1301 279.615C49.0529 279.382 49.042 279.128 49.099 278.888C49.156 278.648 49.2781 278.435 49.448 278.277C61.131 267.427 60.907 250.423 60.69 233.973C60.522 221.57 60.368 209.849 65.527 201.881C72.765 190.682 101.878 172.918 106.701 172.411C109.949 172.046 203.203 142.758 260.197 124.764L270.592 121.477C270.86 121.392 271.147 121.431 271.39 121.586C271.633 121.74 271.812 121.997 271.887 122.301C271.962 122.604 271.928 122.929 271.791 123.204C271.655 123.479 271.427 123.681 271.159 123.766L271.229 123.742Z" fill="white"/>
<path opacity="0.2" d="M271.229 123.743L256.837 128.305C257.846 126.966 258.998 125.774 260.267 124.756L270.662 121.47C270.93 121.385 271.218 121.424 271.46 121.578C271.703 121.732 271.882 121.99 271.957 122.293C272.032 122.597 271.998 122.922 271.861 123.197C271.725 123.471 271.497 123.673 271.229 123.759V123.743Z" fill="black"/>
<path d="M57.3372 198.635L62.8392 198.088C62.8392 198.088 65.7162 196.029 66.2692 196.164C66.8222 196.298 72.3032 199.332 72.3032 199.332C72.3032 199.332 69.8182 202.951 69.4052 203.703C68.9922 204.456 64.0432 200.908 64.0432 200.908L58.5902 201.565L57.3372 198.635Z" fill="#EBB376"/>
<path d="M50.1842 183.444C47.6852 185.463 41.1752 201.929 41.8682 204.471C42.5612 207.014 62.8192 202 62.8192 202L61.9232 197.715H51.0242L53.6142 193.09C53.6142 193.09 55.2102 191.332 54.2302 187.245C53.5232 184.299 50.1842 183.444 50.1842 183.444Z" fill="#263238"/>
<path d="M261.247 185.099L257.096 182.873C257.096 182.873 254.996 178.327 254.38 177.599C253.764 176.87 250.789 179.698 250.789 180.189C250.789 180.68 252.945 185.273 253.505 185.55C254.338 185.689 255.185 185.689 256.018 185.55L259.966 187.713L261.247 185.099Z" fill="#9F5B53"/>
<path d="M270.936 156.927L271.769 153.561C271.769 153.561 273.085 149.174 272.945 148.16C272.687 146.96 272.355 145.782 271.951 144.635C271.951 144.635 268.311 149.649 268.311 150.275C268.311 150.9 269.753 153.173 269.753 153.173L269.053 156.927H270.936Z" fill="#9F5B53"/>
<path d="M274.135 182.002C274.135 182.002 270.999 177.59 270.075 173.488C269.151 169.385 271.944 156.064 271.944 156.064L268.997 155.177C268.997 155.177 265.497 168.807 265.378 173.781C265.259 178.755 271.797 193.351 271.797 193.351L274.135 182.002Z" fill="#002BDD"/>
<path opacity="0.2" d="M272.239 191.157L271.791 193.32C271.791 193.32 269.537 188.29 267.696 183.126C269.611 184.684 271.056 186.871 271.833 189.391C272.01 189.966 272.146 190.557 272.239 191.157Z" fill="#002BDD"/>
<path d="M290.738 191.665C290.699 192.585 290.6 193.501 290.444 194.405C290.122 196.385 289.576 198.721 288.953 201.295C288.617 202.65 288.253 204.099 287.931 205.628C286.37 212.494 285.523 215.227 284.368 223.994L262.213 218.046C263.411 210.541 265.236 203.182 267.666 196.068C268.31 194.175 269.066 192.282 269.829 190.413C271.052 187.483 272.493 184.674 274.134 182.018C274.134 182.018 277.718 185.725 288.974 187.95C290.339 188.188 290.808 189.534 290.738 191.665Z" fill="#002BDD"/>
<path opacity="0.2" d="M287.954 188.805C287.954 189.597 290.607 193.367 290.446 194.349C290.145 194.579 289.788 194.832 289.382 195.141C281.885 200.075 272.05 197.573 267.682 196.044C268.326 194.151 269.782 190.674 270.538 188.805L275.795 190.128C275.795 190.128 284.391 187.91 287.954 188.805Z" fill="black"/>
<path d="M278.945 183.515C279.75 183.166 286.359 185.028 285.869 185.186C285.379 185.344 282.915 193.898 279.464 193.256C276.013 192.615 276.075 184.75 278.945 183.515Z" fill="#002BDD"/>
<path d="M249.025 323.659L244.867 324.681L242.438 313.862L246.603 312.84L249.025 323.659Z" fill="#9F5B53"/>
<path d="M243.833 322.717H249.006C249.09 322.717 249.172 322.75 249.237 322.81C249.302 322.871 249.347 322.956 249.363 323.049L250.203 327.334C250.221 327.425 250.224 327.52 250.209 327.613C250.195 327.705 250.164 327.794 250.119 327.873C250.074 327.952 250.016 328.02 249.947 328.073C249.879 328.126 249.801 328.163 249.72 328.181H249.58C247.907 328.181 246.689 328.031 244.589 328.031C243.294 328.031 239.388 328.181 237.589 328.181C235.79 328.181 235.573 326.185 236.301 326.003C239.584 325.211 242.055 324.071 243.105 323.01C243.203 322.909 243.318 322.831 243.443 322.78C243.568 322.73 243.701 322.708 243.833 322.717Z" fill="#263238"/>
<path d="M242.426 323.564C242.136 323.589 241.848 323.502 241.607 323.319C241.528 323.246 241.468 323.152 241.431 323.045C241.394 322.938 241.382 322.823 241.397 322.709C241.394 322.642 241.408 322.576 241.438 322.518C241.467 322.46 241.512 322.414 241.565 322.384C242.041 322.107 243.413 323.065 243.567 323.176C243.585 323.186 243.599 323.202 243.608 323.222C243.617 323.243 243.619 323.265 243.616 323.287C243.613 323.31 243.605 323.332 243.591 323.349C243.577 323.366 243.559 323.377 243.539 323.382C243.175 323.49 242.802 323.551 242.426 323.564ZM241.789 322.567C241.748 322.551 241.704 322.551 241.663 322.567C241.663 322.567 241.6 322.606 241.593 322.701C241.586 322.776 241.595 322.852 241.619 322.923C241.643 322.993 241.682 323.056 241.733 323.105C242.209 323.351 242.749 323.382 243.245 323.192C242.8 322.879 242.305 322.667 241.789 322.567Z" fill="#407BFF"/>
<path d="M243.511 323.39H243.462C243.028 323.12 242.174 322.059 242.258 321.552C242.274 321.467 242.315 321.391 242.375 321.336C242.435 321.281 242.51 321.251 242.587 321.251C242.664 321.24 242.741 321.247 242.815 321.273C242.889 321.299 242.957 321.343 243.014 321.402C243.504 321.853 243.609 323.239 243.616 323.303C243.617 323.323 243.613 323.344 243.604 323.362C243.596 323.38 243.583 323.395 243.567 323.406C243.557 323.409 243.547 323.409 243.537 323.406C243.527 323.404 243.518 323.398 243.511 323.39ZM242.657 321.433H242.608C242.475 321.433 242.468 321.521 242.461 321.552C242.405 321.869 242.951 322.669 243.385 323.041C243.361 322.501 243.193 321.982 242.902 321.552C242.87 321.515 242.832 321.485 242.79 321.464C242.748 321.444 242.703 321.433 242.657 321.433Z" fill="#407BFF"/>
<path d="M284.551 224.651C284.551 224.651 280.96 244.024 272.56 249.203C271.596 249.817 270.54 250.222 269.445 250.399C269.445 250.399 260.926 254.359 253.562 258.105C249.082 260.394 245.029 262.628 243.58 263.879C239.744 267.182 249.138 318.741 249.138 318.741L242.754 318.82C242.754 318.82 229.321 273.169 231.554 261.186C233.787 249.203 257.895 230.861 257.895 230.861L261.605 219.313L284.551 224.651Z" fill="#263238"/>
<path opacity="0.2" d="M272.56 249.227C271.596 249.84 270.539 250.246 269.445 250.423C269.445 250.423 260.926 254.383 253.562 258.129C258.301 248.269 266.75 241.861 266.75 241.861L272.56 249.227Z" fill="black"/>
<path d="M302.548 323.659L298.39 324.681L295.961 313.862L300.126 312.84L302.548 323.659Z" fill="#9F5B53"/>
<path d="M297.353 322.717H302.526C302.61 322.717 302.692 322.75 302.757 322.81C302.822 322.871 302.867 322.956 302.883 323.049L303.723 327.334C303.741 327.425 303.743 327.52 303.729 327.613C303.715 327.705 303.684 327.794 303.639 327.873C303.594 327.952 303.536 328.02 303.467 328.073C303.398 328.126 303.321 328.163 303.24 328.181H303.1C301.427 328.181 300.209 328.031 298.109 328.031C296.814 328.031 292.908 328.181 291.109 328.181C289.31 328.181 289.093 326.185 289.821 326.003C293.104 325.211 295.575 324.071 296.625 323.01C296.723 322.909 296.838 322.831 296.963 322.78C297.088 322.73 297.22 322.708 297.353 322.717Z" fill="#263238"/>
<path d="M295.948 323.564C295.659 323.589 295.37 323.502 295.129 323.319C295.051 323.246 294.99 323.152 294.954 323.045C294.917 322.938 294.905 322.823 294.919 322.709C294.916 322.642 294.93 322.576 294.96 322.518C294.99 322.46 295.034 322.414 295.087 322.384C295.563 322.107 296.935 323.065 297.089 323.176C297.107 323.186 297.122 323.202 297.13 323.222C297.139 323.243 297.142 323.265 297.138 323.287C297.136 323.31 297.127 323.332 297.113 323.349C297.1 323.366 297.081 323.377 297.061 323.382C296.698 323.49 296.324 323.551 295.948 323.564ZM295.311 322.567C295.271 322.551 295.226 322.551 295.185 322.567C295.185 322.567 295.122 322.606 295.115 322.701C295.108 322.776 295.117 322.852 295.141 322.923C295.166 322.993 295.205 323.056 295.255 323.105C295.731 323.351 296.272 323.382 296.767 323.192C296.322 322.879 295.828 322.667 295.311 322.567Z" fill="#407BFF"/>
<path d="M297.031 323.39H296.982C296.548 323.12 295.694 322.059 295.778 321.552C295.794 321.467 295.835 321.391 295.895 321.336C295.955 321.281 296.03 321.251 296.107 321.251C296.183 321.24 296.261 321.247 296.335 321.273C296.409 321.299 296.477 321.343 296.534 321.402C297.024 321.853 297.129 323.239 297.136 323.303C297.137 323.323 297.133 323.344 297.124 323.362C297.116 323.38 297.103 323.395 297.087 323.406C297.077 323.409 297.067 323.409 297.057 323.406C297.047 323.404 297.038 323.398 297.031 323.39ZM296.177 321.433H296.1C295.967 321.433 295.96 321.521 295.953 321.552C295.897 321.869 296.443 322.669 296.877 323.041C296.85 322.493 296.674 321.967 296.373 321.536C296.319 321.479 296.25 321.442 296.177 321.433Z" fill="#407BFF"/>
<path d="M285.985 187.618C284.942 188.41 280.133 188.109 280.133 188.109L277.9 190.873L277.683 186.303C277.683 186.303 276.178 185.598 276.591 185.107C277.115 185.151 277.641 185.076 278.138 184.887C278.636 184.698 279.095 184.399 279.489 184.006C280.462 182.929 280.651 181.194 280.637 179.476C280.637 179.476 280.637 179.428 280.637 179.412L284.746 177.036L287.588 175.381C286.251 178.644 284.34 184.766 285.985 187.618Z" fill="#9F5B53"/>
<path opacity="0.2" d="M286.105 178.121C284.747 182.01 281.205 183.744 279.462 183.998C280.435 182.92 280.624 181.186 280.61 179.467C280.613 179.444 280.613 179.42 280.61 179.396L284.719 177.02C284.726 177.654 286.301 177.527 286.105 178.121Z" fill="black"/>
<path d="M288.716 177.963C288.716 177.963 291.383 179.547 292.272 177.654C293.161 175.761 291.894 175.65 293.203 174.969C294.512 174.288 296.374 173.813 295.947 172.379C295.52 170.946 294.197 170.795 295.667 169.211C297.137 167.627 297.459 165.394 295.261 164.958C293.063 164.523 293.903 162.582 293.791 161.79C293.679 160.998 292.447 160.444 291.11 160.761C289.773 161.077 289.213 158.836 288.387 158.139C287.561 157.442 286.42 158.298 286.119 159.24C285.818 160.183 285.027 158.931 283.851 158.773C282.675 158.614 282.948 160.016 282.584 161.323C282.22 162.63 281.499 161.782 280.659 162.859C279.819 163.937 279.742 171.286 288.716 177.963Z" fill="#263238"/>
<path d="M289.877 173.448C287.868 177.012 286.727 179.364 284.473 180.521C284.169 180.679 283.856 180.811 283.535 180.917C279.153 182.374 275.541 177.598 276.696 172.87C276.916 172.017 277.197 171.185 277.536 170.383C279.104 166.669 282.121 162.867 285.726 163.366C286.479 163.463 287.207 163.728 287.869 164.144C288.532 164.56 289.115 165.12 289.586 165.792C290.056 166.464 290.405 167.234 290.613 168.058C290.82 168.883 290.882 169.746 290.794 170.597C290.688 171.615 290.374 172.591 289.877 173.448Z" fill="#9F5B53"/>
<path d="M283.712 171.073C283.565 171.429 283.25 171.588 283.054 171.469C282.858 171.35 282.837 170.962 282.998 170.629C283.159 170.297 283.467 170.114 283.656 170.233C283.845 170.352 283.88 170.748 283.712 171.073Z" fill="#263238"/>
<path d="M280.315 168.958C280.272 169.107 280.179 169.231 280.056 169.303C279.933 169.376 279.79 169.391 279.657 169.346C279.468 169.219 279.44 168.847 279.608 168.506C279.776 168.166 280.07 167.992 280.266 168.118C280.462 168.245 280.476 168.633 280.315 168.958Z" fill="#263238"/>
<path d="M281.318 169.805C280.448 170.614 279.485 171.286 278.455 171.801C278.578 172.098 278.758 172.36 278.98 172.569C279.203 172.779 279.463 172.93 279.743 173.013L281.318 169.805Z" fill="#892B29"/>
<path d="M285.741 170.186C285.705 170.192 285.667 170.187 285.633 170.172C285.598 170.157 285.568 170.131 285.545 170.098C285.403 169.862 285.214 169.667 284.992 169.529C284.771 169.391 284.524 169.315 284.271 169.306C284.242 169.313 284.212 169.312 284.183 169.303C284.154 169.295 284.127 169.279 284.104 169.258C284.081 169.236 284.063 169.209 284.05 169.178C284.037 169.148 284.031 169.115 284.031 169.081C284.031 169.047 284.037 169.014 284.05 168.983C284.063 168.953 284.081 168.926 284.104 168.904C284.127 168.882 284.154 168.867 284.183 168.858C284.212 168.85 284.242 168.849 284.271 168.855C284.59 168.857 284.904 168.947 285.186 169.117C285.467 169.287 285.708 169.531 285.888 169.829C285.905 169.852 285.917 169.879 285.924 169.908C285.931 169.936 285.933 169.966 285.93 169.996C285.927 170.026 285.918 170.054 285.905 170.08C285.892 170.106 285.874 170.128 285.853 170.146C285.819 170.169 285.781 170.183 285.741 170.186Z" fill="#263238"/>
<path d="M280.561 175.135C281.031 175.308 281.531 175.35 282.019 175.258C282.506 175.165 282.967 174.941 283.361 174.605C283.379 174.582 283.389 174.552 283.389 174.521C283.389 174.491 283.379 174.461 283.361 174.438C283.342 174.416 283.315 174.404 283.288 174.404C283.26 174.404 283.234 174.416 283.214 174.438C282.841 174.742 282.409 174.943 281.955 175.026C281.5 175.108 281.035 175.07 280.596 174.913C280.584 174.907 280.571 174.904 280.557 174.904C280.544 174.905 280.53 174.908 280.518 174.915C280.506 174.922 280.496 174.932 280.487 174.944C280.479 174.956 280.473 174.97 280.47 174.985C280.465 174.999 280.462 175.014 280.462 175.029C280.463 175.044 280.466 175.059 280.472 175.073C280.478 175.087 280.487 175.099 280.497 175.108C280.508 175.117 280.52 175.124 280.533 175.127L280.561 175.135Z" fill="#263238"/>
<path d="M280 165.671C279.989 165.627 279.989 165.58 280 165.536C280.023 165.482 280.063 165.44 280.113 165.419C280.163 165.399 280.218 165.401 280.266 165.425C280.56 165.574 280.817 165.801 281.017 166.086C281.217 166.371 281.353 166.707 281.414 167.065C281.42 167.124 281.405 167.184 281.372 167.232C281.34 167.279 281.292 167.31 281.239 167.318C281.186 167.325 281.133 167.308 281.091 167.271C281.049 167.234 281.022 167.18 281.015 167.12C280.96 166.841 280.848 166.58 280.687 166.358C280.527 166.137 280.322 165.961 280.091 165.845C280.066 165.825 280.045 165.799 280.029 165.769C280.014 165.739 280.004 165.705 280 165.671Z" fill="#263238"/>
<path d="M282.885 163.699C283.907 163.841 284.411 165.283 284.411 165.283C285.647 165.794 286.841 166.424 287.981 167.168C288.329 167.489 288.59 167.913 288.736 168.393C288.882 168.873 288.907 169.389 288.807 169.884C288.772 170.264 287.946 170.613 287.946 170.613C287.946 170.613 286.434 174.652 286.021 175.769L286.231 179.499C289.01 177.511 291.235 174.675 292.65 171.318C295.037 165.695 285.076 160.745 285.076 160.745L282.885 163.699Z" fill="#263238"/>
<path d="M289.277 179.088C288.346 179.664 287.251 179.801 286.232 179.468C284.881 179.008 284.958 177.44 285.959 176.434C286.855 175.563 288.654 174.7 289.697 175.714C289.925 175.934 290.101 176.216 290.207 176.534C290.313 176.852 290.347 177.195 290.305 177.531C290.263 177.867 290.147 178.186 289.967 178.458C289.788 178.731 289.55 178.947 289.277 179.088Z" fill="#9F5B53"/>
<path d="M285.866 185.186L280.301 186.999L277.9 190.682L278.551 186.176C278.551 186.176 277.956 185.138 278.943 183.515L275.555 184.307L273.511 188.172L277.487 187.118L277.76 191.609L280.077 188.52L281.974 191.91L287.616 187.863L285.866 185.186Z" fill="#002BDD"/>
<path d="M262.507 215.424L261.639 219.337L284.543 224.651L284.886 220.303L262.507 215.424Z" fill="black"/>
<path d="M272.736 217.475C272.554 217.182 267.458 215.939 266.975 216.351C266.975 216.351 265.988 220.208 266.156 220.612C266.324 221.016 271.28 221.8 271.756 221.911C272.232 222.022 272.918 217.8 272.736 217.475ZM271.336 221.435C270.958 221.348 266.884 220.707 266.744 220.374C266.604 220.042 267.444 216.874 267.444 216.874C267.843 216.533 272.029 217.555 272.176 217.792C272.323 218.03 271.714 221.483 271.336 221.396V221.435Z" fill="white"/>
<path d="M271.53 218.79L270.515 218.553C270.422 218.533 270.327 218.553 270.246 218.608C270.166 218.664 270.107 218.751 270.081 218.854C270.066 218.911 270.063 218.971 270.07 219.03C270.077 219.089 270.095 219.146 270.123 219.197C270.15 219.247 270.187 219.291 270.23 219.325C270.274 219.358 270.323 219.381 270.375 219.392L271.39 219.614C271.488 219.636 271.59 219.613 271.674 219.55C271.757 219.487 271.815 219.389 271.834 219.277C271.854 219.166 271.833 219.051 271.778 218.956C271.722 218.862 271.635 218.797 271.537 218.775L271.53 218.79Z" fill="white"/>
<path d="M284.545 224.651C284.545 224.651 284.986 253.955 284.258 262.509C283.53 271.063 302.402 317.878 302.402 317.878H296.291C296.291 317.878 277.776 283.6 273.534 273.05C269.292 262.501 266.156 237.331 266.156 237.331L284.545 224.651Z" fill="#263238"/>
<path d="M290.816 189.605C289.871 187.182 275.36 190.769 274.051 190.35C272.742 189.93 259.12 183.475 259.12 183.475L257.937 186.912C257.937 186.912 270.152 194.832 272.826 196.084C275.5 197.335 286.189 196.733 288.926 195.395C289.394 195.166 289.816 194.832 290.167 194.414C290.518 193.995 290.79 193.5 290.967 192.958C291.144 192.417 291.222 191.84 291.196 191.264C291.169 190.688 291.04 190.123 290.816 189.605Z" fill="#002BDD"/>
<path d="M288.245 126.664L283.849 94.9844L260.693 113.509L268.393 117.2C260.959 136.477 236.844 192.955 195.348 234.598C142.365 287.781 68.2073 313.949 67.4653 314.202L71.5673 329.353C74.7173 328.26 149.323 301.966 204.665 246.423C248.765 202.166 273.559 143.795 281.343 123.362L288.245 126.664Z" fill="#012BDD"/>
<path d="M279.998 128.003C279.889 128.004 279.78 127.985 279.676 127.948L266.229 123.029C266.091 122.989 265.961 122.916 265.848 122.817C265.735 122.718 265.641 122.593 265.572 122.451C265.503 122.31 265.461 122.153 265.447 121.992C265.434 121.831 265.449 121.668 265.493 121.514C265.537 121.36 265.608 121.218 265.703 121.096C265.797 120.974 265.912 120.876 266.042 120.806C266.171 120.737 266.311 120.698 266.454 120.692C266.597 120.686 266.74 120.713 266.873 120.772L280.32 125.682C280.56 125.768 280.764 125.948 280.896 126.19C281.028 126.431 281.079 126.719 281.04 126.999C281.001 127.28 280.875 127.536 280.684 127.72C280.492 127.904 280.249 128.004 279.998 128.003Z" fill="#263238"/>
<path opacity="0.4" d="M279.998 128.003C279.889 128.004 279.78 127.985 279.676 127.948L266.229 123.029C266.091 122.989 265.961 122.916 265.848 122.817C265.735 122.718 265.641 122.593 265.572 122.451C265.503 122.31 265.461 122.153 265.447 121.992C265.434 121.831 265.449 121.668 265.493 121.514C265.537 121.36 265.608 121.218 265.703 121.096C265.797 120.974 265.912 120.876 266.042 120.806C266.171 120.737 266.311 120.698 266.454 120.692C266.597 120.686 266.74 120.713 266.873 120.772L280.32 125.682C280.56 125.768 280.764 125.948 280.896 126.19C281.028 126.431 281.079 126.719 281.04 126.999C281.001 127.28 280.875 127.536 280.684 127.72C280.492 127.904 280.249 128.004 279.998 128.003Z" fill="white"/>
<path d="M118.95 276.265C118.672 276.265 118.405 276.14 118.208 275.918C118.011 275.695 117.9 275.393 117.9 275.077C117.9 237.267 127.609 232.309 129.429 231.7L160.299 207.266L160.369 207.219L278.963 127.655C279.203 127.5 279.486 127.459 279.752 127.538C280.018 127.618 280.246 127.813 280.386 128.081C280.527 128.349 280.569 128.668 280.503 128.971C280.437 129.273 280.269 129.534 280.034 129.698L161.496 209.239L130.479 233.791C130.347 233.894 130.197 233.965 130.038 233.996C129.961 233.996 120 236.768 120 275.101C119.995 275.412 119.882 275.708 119.686 275.926C119.489 276.144 119.225 276.266 118.95 276.265Z" fill="#263238"/>
<path opacity="0.4" d="M118.95 276.265C118.672 276.265 118.405 276.14 118.208 275.918C118.011 275.695 117.9 275.393 117.9 275.077C117.9 237.267 127.609 232.309 129.429 231.7L160.299 207.266L160.369 207.219L278.963 127.655C279.203 127.5 279.486 127.459 279.752 127.538C280.018 127.618 280.246 127.813 280.386 128.081C280.527 128.349 280.569 128.668 280.503 128.971C280.437 129.273 280.269 129.534 280.034 129.698L161.496 209.239L130.479 233.791C130.347 233.894 130.197 233.965 130.038 233.996C129.961 233.996 120 236.768 120 275.101C119.995 275.412 119.882 275.708 119.686 275.926C119.489 276.144 119.225 276.266 118.95 276.265Z" fill="white"/>
<path d="M127.014 237.03C127.014 237.03 121.617 240.99 117.515 242.186C116.502 242.573 115.416 242.641 114.372 242.384C111.32 241.291 113.133 234.606 114.953 230.385C115.247 229.696 115.541 229.078 115.814 228.555L121.148 232.286C121.148 232.286 117.914 237.505 118.285 237.83C118.656 238.154 123.64 235.01 123.885 234.907C124.13 234.804 127.014 237.03 127.014 237.03Z" fill="#002BDD"/>
<path opacity="0.2" d="M127.014 237.03C127.014 237.03 121.617 240.99 117.515 242.186C116.376 238.338 115.519 234.391 114.953 230.385C115.247 229.696 115.541 229.078 115.814 228.555L121.148 232.286C121.148 232.286 117.914 237.505 118.285 237.83C118.656 238.154 123.64 235.01 123.885 234.907C124.13 234.804 127.014 237.03 127.014 237.03Z" fill="black"/>
<path d="M153.3 214.046L156.464 210.878C156.717 209.974 157.064 209.107 157.5 208.296C157.843 207.971 163.604 207.465 163.604 207.465C163.604 207.465 163.716 210.91 163.261 211.805C162.806 212.7 158.102 213.088 158.102 213.088L155.582 215.836L153.3 214.046Z" fill="#EEC1BB"/>
<path d="M170.154 289.12C169.251 303.819 166.836 324.681 166.836 324.681L163.728 325.473C163.728 325.473 160.858 308.009 161.313 291.805C161.395 288.272 161.689 284.75 162.195 281.263C162.195 281.263 151.429 276.582 143.953 272.393C140.383 270.397 137.562 268.504 137.023 267.284C135.357 263.522 142.931 254.684 142.931 254.684C143.169 254.897 147.74 258.192 153.06 262.097C160.123 267.276 168.502 273.533 169.86 275.093C170.672 275.988 170.602 281.786 170.154 289.12Z" fill="#EEC1BB"/>
<path opacity="0.2" d="M170.155 289.12C167.282 290.298 164.324 291.191 161.314 291.789C161.395 288.256 161.69 284.734 162.196 281.247C162.196 281.247 151.43 276.566 143.954 272.377L153.054 262.081C160.117 267.26 168.496 273.517 169.854 275.078C170.673 275.988 170.603 281.786 170.155 289.12Z" fill="black"/>
<path d="M145.922 252.228C145.922 252.228 175.791 271.656 179.851 276.043C183.911 280.431 207.347 321.433 207.347 321.433L205.373 323.563C205.373 323.563 185.913 304.666 178.15 286.704L145.95 269.098L145.922 252.228Z" fill="#EEC1BB"/>
<path d="M123.199 216.359C123.247 216.396 123.298 216.428 123.353 216.454C124.086 216.924 124.895 217.223 125.733 217.333C128.169 217.578 129.737 216.961 130.633 215.583C131.879 213.539 131.851 210.276 131.165 206.435C130.937 204.898 130.496 203.411 129.856 202.031C129.856 202.031 129.856 201.976 129.856 201.968L129.772 201.81C129.382 201.037 128.827 200.387 128.158 199.919C127.49 199.452 126.728 199.181 125.943 199.133C125.259 199.069 124.571 199.09 123.892 199.196C117.242 200.17 117.599 212.858 123.199 216.359Z" fill="#EEC1BB"/>
<path opacity="0.2" d="M123.383 216.454C124.118 216.898 124.925 217.167 125.756 217.246C128.185 217.491 129.746 216.778 130.656 215.392C129.294 216.006 127.793 216.103 126.379 215.67C125.86 215.534 125.32 215.533 124.801 215.669C124.281 215.805 123.796 216.073 123.383 216.454Z" fill="black"/>
<path d="M122.932 222.648C122.351 224.77 124.752 225.895 124.752 225.895C128.952 224.311 129.897 221.99 129.897 221.99C126.677 219.614 128.091 214.118 128.091 214.118L127.391 214.434L122.491 215.021C122.491 215.021 123.604 218.054 123.73 218.735C124.346 222.307 122.932 222.648 122.932 222.648Z" fill="#EBB376"/>
<path d="M129.897 201.96C129.897 201.96 130.919 207.195 126.768 210.165C126.768 210.165 125.543 215.971 122.75 216.501C118.942 217.214 114.819 211.599 115.365 205.12C116.079 196.741 126.873 194.357 129.897 201.96Z" fill="#263238"/>
<path d="M128.799 208.296C128.694 207.504 127.938 206.174 126.825 206.546C125.712 206.918 125.425 210.3 128.407 210.577C128.862 210.672 129.044 210.038 128.799 208.296Z" fill="#EBB376"/>
<path d="M206.046 318.915L202.826 321.719C202.76 321.779 202.714 321.862 202.695 321.956C202.676 322.049 202.685 322.147 202.721 322.234L204.359 326.194C204.394 326.277 204.444 326.353 204.505 326.415C204.566 326.477 204.637 326.525 204.714 326.556C204.792 326.587 204.874 326.6 204.956 326.595C205.038 326.59 205.118 326.566 205.192 326.526C205.234 326.504 205.274 326.478 205.311 326.447C206.613 325.267 206.655 325.085 208.314 323.643C209.329 322.756 212.514 320.19 213.914 318.963C215.314 317.735 214.432 316 213.76 316.357C210.736 317.941 208.16 318.788 206.76 318.67C206.503 318.647 206.248 318.735 206.046 318.915Z" fill="#263238"/>
<path d="M206.744 318.843C206.726 318.853 206.706 318.856 206.686 318.853C206.667 318.849 206.649 318.839 206.634 318.824C206.62 318.808 206.61 318.788 206.606 318.766C206.602 318.744 206.603 318.721 206.611 318.7C206.674 318.51 207.248 316.808 207.766 316.705C207.823 316.691 207.883 316.696 207.938 316.72C207.993 316.744 208.04 316.785 208.074 316.839C208.146 316.92 208.198 317.019 208.226 317.129C208.254 317.238 208.257 317.354 208.235 317.465C208.152 317.788 207.971 318.069 207.724 318.257C207.418 318.494 207.09 318.691 206.744 318.843ZM206.891 318.518C207.385 318.329 207.796 317.932 208.039 317.41C208.053 317.335 208.05 317.257 208.03 317.184C208.011 317.11 207.975 317.044 207.927 316.99C207.871 316.926 207.822 316.911 207.801 316.934C207.757 316.944 207.716 316.966 207.682 316.998C207.335 317.443 207.067 317.959 206.891 318.518Z" fill="#407BFF"/>
<path d="M206.737 318.883C206.72 318.883 206.703 318.879 206.687 318.871C206.671 318.863 206.657 318.851 206.646 318.835C206.646 318.78 205.946 317.616 206.093 316.919C206.11 316.834 206.142 316.754 206.186 316.683C206.231 316.612 206.287 316.552 206.352 316.507C206.412 316.453 206.486 316.423 206.562 316.423C206.639 316.423 206.713 316.453 206.772 316.507C207.115 316.847 207.01 318.265 206.807 318.78L206.772 318.819L206.737 318.883ZM206.268 316.934C206.267 317.482 206.41 318.017 206.681 318.471C206.849 317.879 206.824 317.238 206.611 316.665C206.611 316.665 206.534 316.578 206.436 316.665H206.394C206.325 316.735 206.28 316.83 206.268 316.934Z" fill="#407BFF"/>
<path d="M167.384 322.344L163.317 322.431C163.233 322.436 163.154 322.472 163.09 322.534C163.027 322.595 162.983 322.679 162.967 322.772L162.204 327.056C162.181 327.235 162.22 327.417 162.312 327.565C162.405 327.712 162.544 327.814 162.701 327.848C162.747 327.856 162.794 327.856 162.841 327.848C164.5 327.777 164.633 327.658 166.726 327.611C168.014 327.611 171.899 327.65 173.677 327.611C175.455 327.571 175.651 325.575 174.923 325.409C171.64 324.68 169.169 323.619 168.105 322.581C167.9 322.401 167.642 322.316 167.384 322.344Z" fill="#263238"/>
<path d="M167.746 322.851C167.726 322.847 167.707 322.836 167.693 322.819C167.679 322.801 167.671 322.779 167.669 322.756C167.664 322.735 167.665 322.712 167.673 322.692C167.68 322.672 167.694 322.655 167.711 322.645C167.858 322.534 169.209 321.552 169.685 321.813C169.739 321.841 169.785 321.885 169.818 321.941C169.85 321.998 169.867 322.063 169.867 322.13C169.881 322.243 169.87 322.358 169.834 322.464C169.799 322.571 169.741 322.666 169.664 322.74C169.429 322.932 169.142 323.024 168.852 323.001C168.48 322.999 168.109 322.948 167.746 322.851ZM168.033 322.685C168.53 322.864 169.069 322.822 169.538 322.566C169.588 322.514 169.625 322.45 169.647 322.378C169.669 322.306 169.675 322.229 169.664 322.154C169.664 322.067 169.622 322.027 169.601 322.027C169.558 322.016 169.512 322.016 169.468 322.027C168.958 322.142 168.471 322.365 168.033 322.685Z" fill="#407BFF"/>
<path d="M167.721 322.875C167.705 322.865 167.691 322.85 167.683 322.832C167.674 322.813 167.67 322.792 167.672 322.772C167.672 322.708 167.749 321.33 168.232 320.863C168.289 320.804 168.357 320.76 168.431 320.734C168.505 320.709 168.583 320.701 168.659 320.713C168.736 320.711 168.81 320.739 168.87 320.792C168.93 320.846 168.972 320.921 168.988 321.006C169.079 321.504 168.288 322.59 167.819 322.859H167.77C167.756 322.871 167.739 322.877 167.721 322.875ZM168.365 320.998C168.077 321.437 167.911 321.964 167.889 322.51C168.323 322.13 168.848 321.314 168.785 321.006C168.785 321.006 168.785 320.895 168.638 320.895H168.589C168.506 320.896 168.426 320.933 168.365 320.998Z" fill="#407BFF"/>
<path d="M145.088 247.025L130.269 254.066C124.144 236.84 115.814 228.556 115.814 228.556C121.75 220.501 132.712 216.794 132.712 216.794C134.331 218.285 135.728 220.061 136.849 222.053C138.085 224.218 139.162 226.493 140.069 228.857C142.271 234.709 143.952 240.795 145.088 247.025Z" fill="#002BDD"/>
<path d="M129.759 205.461C129.759 205.461 134.414 200.091 129.955 196.551C125.496 193.011 121.072 197.739 121.072 197.739C121.072 197.739 110.481 200.756 112.805 208.716C115.129 216.675 116.613 217.333 113.288 221.467C109.963 225.601 106.575 231.7 110.047 235.541C113.519 239.382 125.489 235.264 129.08 229.371C132.671 223.479 126.133 210.989 129.759 205.461Z" fill="#263238"/>
<path d="M144.011 241.861L127.911 248.11C127.911 248.11 131.474 267.949 134.057 271.268C136.64 274.586 153.909 289.951 156.352 288.739C158.795 287.528 175 271.268 175 271.268L147.581 249.995L144.011 241.861Z" fill="#263238"/>
<path d="M141.665 245.591L145.088 244.308L144.241 242.391L141 243.682L141.665 245.591Z" fill="black"/>
<path d="M131.432 247.492L127.925 248.886L128.394 250.581L131.824 249.29L131.432 247.492Z" fill="black"/>
<path d="M132.559 249.013L140.98 245.853L140.35 243.936L132.097 247.223L132.559 249.013Z" fill="black"/>
<path opacity="0.2" d="M140.071 228.888C136.529 228.421 134.534 222.394 134.534 222.394C135.3 222.238 136.074 222.135 136.851 222.085C138.087 224.249 139.164 226.524 140.071 228.888Z" fill="black"/>
<path d="M132.714 216.794C136.564 216.145 145.174 219.677 145.923 219.638C146.672 219.598 155.023 212.169 155.023 212.169L157.193 214.331C157.193 214.331 148.443 224.54 146.644 224.627C144.845 224.714 135.444 223.946 135.444 223.946C135.444 223.946 133.141 223.02 132.7 220.667C132.431 219.394 132.436 218.066 132.714 216.794Z" fill="#002BDD"/>
</g>
<defs>
<clipPath id="clip0_579_5669">
<rect width="350" height="396" fill="white"/>
</clipPath>
</defs>
</svg>
