<svg width="350" height="374" viewBox="0 0 350 374" fill="none" xmlns="http://www.w3.org/2000/svg">
<g clip-path="url(#clip0_579_5669)">
<path d="M350 286.036H0V286.224H350V286.036Z" fill="#EBEBEB"/>
<path d="M314.931 298.071H291.747V298.26H314.931V298.071Z" fill="#EBEBEB"/>
<path d="M231.855 300.105H225.772V300.294H231.855V300.105Z" fill="#EBEBEB"/>
<path d="M291.046 291.129H277.613V291.318H291.046V291.129Z" fill="#EBEBEB"/>
<path d="M66.9557 292.386H36.7227V292.574H66.9557V292.386Z" fill="#EBEBEB"/>
<path d="M77.6219 292.386H73.1909V292.574H77.6219V292.386Z" fill="#EBEBEB"/>
<path d="M157.604 295.543H92.0281V295.731H157.604V295.543Z" fill="#EBEBEB"/>
<path d="M165.901 252.675H30.7376C29.6787 252.673 28.6638 252.222 27.9158 251.421C27.1677 250.62 26.7476 249.535 26.7476 248.404V45.3741C26.7568 44.2491 27.181 43.1734 27.9281 42.3807C28.6751 41.588 29.6847 41.1423 30.7376 41.1404H165.901C166.961 41.1404 167.977 41.5904 168.727 42.3914C169.476 43.1923 169.898 44.2787 169.898 45.4115V248.404C169.898 249.536 169.476 250.623 168.727 251.424C167.977 252.225 166.961 252.675 165.901 252.675ZM30.7376 41.29C29.7251 41.292 28.7548 41.7231 28.0395 42.4888C27.3243 43.2545 26.9226 44.2922 26.9226 45.3741V248.404C26.9226 249.486 27.3243 250.523 28.0395 251.289C28.7548 252.055 29.7251 252.486 30.7376 252.488H165.901C166.914 252.486 167.885 252.055 168.601 251.289C169.317 250.524 169.721 249.486 169.723 248.404V45.3741C169.721 44.2915 169.317 43.2538 168.601 42.4884C167.885 41.7229 166.914 41.292 165.901 41.29H30.7376Z" fill="#EBEBEB"/>
<path d="M317.317 252.675H182.147C181.087 252.673 180.072 252.222 179.323 251.422C178.573 250.621 178.152 249.536 178.15 248.404V45.3741C178.161 44.2484 178.587 43.1728 179.335 42.3803C180.083 41.5878 181.093 41.1423 182.147 41.1404H317.317C318.369 41.1443 319.376 41.5909 320.122 42.3834C320.867 43.1758 321.291 44.2504 321.3 45.3741V248.404C321.3 249.534 320.881 250.618 320.134 251.419C319.388 252.219 318.375 252.671 317.317 252.675ZM182.147 41.29C181.134 41.292 180.163 41.7229 179.446 42.4884C178.73 43.2538 178.327 44.2915 178.325 45.3741V248.404C178.327 249.486 178.73 250.524 179.446 251.289C180.163 252.055 181.134 252.486 182.147 252.488H317.317C318.33 252.486 319.301 252.055 320.017 251.289C320.734 250.524 321.137 249.486 321.139 248.404V45.3741C321.137 44.2915 320.734 43.2538 320.017 42.4884C319.301 41.7229 318.33 41.292 317.317 41.29H182.147Z" fill="#EBEBEB"/>
<path d="M104.6 148.471H99.8894V286.223H104.6V148.471Z" fill="#F5F5F5"/>
<path d="M123.227 165.959H118.516V286.223H123.227V165.959Z" fill="#F5F5F5"/>
<path d="M141.681 183.448H136.97V286.223H141.681V183.448Z" fill="#F5F5F5"/>
<path d="M160.138 171.786H155.427V286.223H160.138V171.786Z" fill="#F5F5F5"/>
<path d="M178.598 165.959H173.887V286.223H178.598V165.959Z" fill="#F5F5F5"/>
<path d="M197.05 154.298H192.339V286.223H197.05V154.298Z" fill="#F5F5F5"/>
<path d="M215.509 160.132H210.798V286.223H215.509V160.132Z" fill="#F5F5F5"/>
<path d="M233.969 154.298H229.258V286.223H233.969V154.298Z" fill="#F5F5F5"/>
<path d="M252.421 142.637H247.71V286.215H252.421V142.637Z" fill="#F5F5F5"/>
<path d="M270.878 130.983H266.167V286.223H270.878V130.983Z" fill="#F5F5F5"/>
<path d="M289.332 119.321H284.621V286.222H289.332V119.321Z" fill="#F5F5F5"/>
<path d="M139.3 175.257C139.037 175.246 138.788 175.131 138.6 174.935L99.1619 133.848C98.9623 133.639 98.8483 133.355 98.845 133.057C98.8418 132.759 98.9494 132.472 99.1444 132.258C99.3393 132.045 99.6055 131.923 99.8845 131.92C100.163 131.916 100.432 132.031 100.632 132.24L139.433 172.669L194.082 130.033C194.293 129.872 194.553 129.799 194.811 129.83C195.069 129.86 195.308 129.991 195.482 130.198L213.374 151.845L287.434 106.501C287.554 106.428 287.686 106.38 287.823 106.362C287.96 106.343 288.099 106.354 288.233 106.393C288.366 106.432 288.491 106.498 288.6 106.589C288.709 106.679 288.8 106.792 288.869 106.92C288.937 107.048 288.982 107.189 288.999 107.336C289.016 107.482 289.006 107.631 288.97 107.773C288.934 107.916 288.871 108.049 288.787 108.166C288.702 108.282 288.597 108.38 288.477 108.453L213.675 154.261C213.465 154.388 213.22 154.434 212.982 154.392C212.744 154.349 212.526 154.221 212.366 154.029L194.544 132.486L139.944 175.04C139.757 175.186 139.531 175.262 139.3 175.257Z" fill="#F0F0F0"/>
<path d="M134.855 285.362L100.436 140.317L102.158 133.069H100.366V91.645H95.746V133.069H93.954L95.676 140.317L61.25 285.362H66.017L95.746 160.087V286.125H100.366V160.087L130.095 285.362H134.855Z" fill="#E0E0E0"/>
<path d="M123.991 138.877C127.372 123.57 118.501 108.233 104.176 104.621C89.852 101.008 75.4992 110.488 72.1184 125.794C68.7375 141.101 77.6089 156.438 91.9332 160.05C106.257 163.663 120.61 154.183 123.991 138.877Z" fill="#E6E6E6"/>
<path d="M98.0547 156.654C110.619 156.654 120.805 145.77 120.805 132.344C120.805 118.918 110.619 108.034 98.0547 108.034C85.4902 108.034 75.3047 118.918 75.3047 132.344C75.3047 145.77 85.4902 156.654 98.0547 156.654Z" fill="#F5F5F5"/>
<path d="M98.0565 151.373C107.892 151.373 115.865 142.854 115.865 132.344C115.865 121.835 107.892 113.315 98.0565 113.315C88.2214 113.315 80.2485 121.835 80.2485 132.344C80.2485 142.854 88.2214 151.373 98.0565 151.373Z" fill="#E6E6E6"/>
<path d="M103.645 146.749C111.092 143.453 114.629 134.33 111.544 126.373C108.459 118.415 99.9218 114.636 92.4747 117.932C85.0277 121.228 81.4913 130.351 84.576 138.309C87.6606 146.267 96.1983 150.046 103.645 146.749Z" fill="#F5F5F5"/>
<path d="M107.911 134.822C109.196 129.004 105.824 123.174 100.379 121.801C94.9348 120.428 89.4794 124.031 88.1944 129.849C86.9094 135.667 90.2813 141.496 95.7258 142.87C101.17 144.243 106.626 140.64 107.911 134.822Z" fill="#E6E6E6"/>
<path d="M100.844 139.521C104.555 137.878 106.317 133.332 104.78 129.367C103.243 125.401 98.9885 123.518 95.2775 125.161C91.5665 126.803 89.8042 131.349 91.3414 135.315C92.8785 139.28 97.133 141.163 100.844 139.521Z" fill="#F5F5F5"/>
<path d="M101.354 132.344C101.354 133.043 101.16 133.726 100.797 134.306C100.433 134.887 99.917 135.34 99.3129 135.607C98.7087 135.874 98.044 135.943 97.4029 135.806C96.7618 135.669 96.1731 135.332 95.7113 134.838C95.2495 134.343 94.9354 133.714 94.8087 133.028C94.682 132.343 94.7485 131.633 94.9996 130.988C95.2507 130.343 95.6753 129.792 96.2196 129.405C96.7638 129.018 97.4033 128.812 98.0571 128.813C98.4907 128.813 98.92 128.905 99.3204 129.082C99.7209 129.26 100.085 129.52 100.391 129.848C100.697 130.176 100.94 130.565 101.105 130.994C101.27 131.422 101.355 131.881 101.354 132.344Z" fill="#E6E6E6"/>
<path d="M63.854 108.857L64.575 114.003L59.563 115.806L64.575 118.618L69.573 116.741L68.698 111.669L63.854 108.857Z" fill="#E6E6E6"/>
<path d="M98.0558 133.092C97.9441 133.091 97.8341 133.063 97.7338 133.01L61.8728 113.367C61.7132 113.274 61.5941 113.117 61.5406 112.931C61.4872 112.745 61.5036 112.544 61.5865 112.371C61.6694 112.198 61.8121 112.066 61.9845 112.003C62.1569 111.941 62.3453 111.952 62.5098 112.036L98.3708 131.648C98.5357 131.738 98.6606 131.894 98.7184 132.082C98.7761 132.269 98.7619 132.474 98.6788 132.651C98.6246 132.78 98.5373 132.89 98.4271 132.968C98.3168 133.046 98.1881 133.089 98.0558 133.092Z" fill="#E0E0E0"/>
<path d="M147.405 100.352C147.401 99.3225 147.624 98.3068 148.055 97.3864C148.486 96.466 149.113 95.6665 149.886 95.0524C150.659 94.4382 151.556 94.0266 152.505 93.8505C153.454 93.6744 154.428 93.7388 155.35 94.0386C155.076 92.0539 155.206 90.0294 155.731 88.1032C156.255 86.177 157.163 84.3943 158.39 82.8766C159.618 81.3589 161.137 80.1417 162.845 79.3082C164.553 78.4746 166.408 78.0442 168.286 78.0463C169.091 78.046 169.895 78.1261 170.687 78.2857C171.975 76.0234 173.917 74.2701 176.219 73.2903C178.522 72.3105 181.06 72.1574 183.451 72.8539C185.842 73.5505 187.956 75.0591 189.475 77.152C190.993 79.2449 191.833 81.8087 191.869 84.4567H192.065C194.857 84.4567 197.535 85.6419 199.509 87.7517C201.484 89.8615 202.593 92.7229 202.593 95.7066C202.593 98.6903 201.484 101.552 199.509 103.661C197.535 105.771 194.857 106.957 192.065 106.957H153.397C151.789 106.908 150.263 106.19 149.144 104.956C148.025 103.722 147.401 102.07 147.405 100.352Z" fill="#F0F0F0"/>
<path d="M257.228 96.7313C257.228 95.8882 257.542 95.0796 258.1 94.4834C258.658 93.8873 259.414 93.5523 260.203 93.5523C260.492 93.5551 260.78 93.6004 261.057 93.687C261.013 93.365 260.989 93.04 260.987 92.7146C260.987 91.725 261.191 90.7475 261.584 89.8517C261.977 88.9559 262.551 88.1637 263.263 87.5316C263.976 86.8996 264.81 86.4431 265.706 86.1947C266.603 85.9464 267.539 85.9122 268.449 86.0948C269.073 85.007 270.01 84.1652 271.12 83.6959C272.23 83.2267 273.453 83.1555 274.604 83.493C275.756 83.8305 276.773 84.5584 277.504 85.5673C278.234 86.5761 278.638 87.8113 278.655 89.0868H278.746C280.092 89.0868 281.383 89.6581 282.335 90.6751C283.287 91.6921 283.821 93.0715 283.821 94.5098C283.821 95.948 283.287 97.3274 282.335 98.3444C281.383 99.3614 280.092 99.9328 278.746 99.9328H260.119C259.341 99.9112 258.601 99.5635 258.06 98.9646C257.52 98.3657 257.221 97.5636 257.228 96.7313Z" fill="#F0F0F0"/>
<path d="M66.3038 100.689C66.3038 100.408 66.3557 100.13 66.4564 99.8713C66.5571 99.6121 66.7046 99.3768 66.8906 99.1787C67.0766 98.9807 67.2974 98.8238 67.5402 98.7171C67.7831 98.6104 68.0433 98.556 68.3058 98.557C68.5003 98.5564 68.6937 98.5867 68.8798 98.6468C68.8493 98.4288 68.833 98.2089 68.8308 97.9885C68.84 96.8012 69.2854 95.6654 70.0711 94.8258C70.8568 93.9863 71.9198 93.5103 73.0308 93.5005C73.294 93.5016 73.5565 93.5292 73.8148 93.5828C74.2303 92.8473 74.8588 92.2767 75.6052 91.9573C76.3515 91.638 77.175 91.5874 77.9506 91.8132C78.7263 92.039 79.4119 92.529 79.9035 93.2087C80.3951 93.8884 80.6659 94.7209 80.6748 95.5799H80.7378C81.6162 95.6225 82.4453 96.0252 83.0528 96.7044C83.6602 97.3836 83.9992 98.2869 83.9992 99.2264C83.9992 100.166 83.6602 101.069 83.0528 101.748C82.4453 102.428 81.6162 102.83 80.7378 102.873H68.2498C67.9878 102.866 67.7296 102.804 67.49 102.691C67.2504 102.577 67.034 102.415 66.8533 102.212C66.6726 102.009 66.5311 101.77 66.4368 101.509C66.3425 101.247 66.2973 100.969 66.3038 100.689Z" fill="#F0F0F0"/>
<path d="M175.001 319.815C249.958 319.815 310.724 316.024 310.724 311.348C310.724 306.671 249.958 302.88 175.001 302.88C100.043 302.88 39.2776 306.671 39.2776 311.348C39.2776 316.024 100.043 319.815 175.001 319.815Z" fill="#F5F5F5"/>
<path d="M96.8682 168.719L101.67 165.787C101.67 165.787 103.518 162.743 104.071 162.601C104.624 162.459 110.714 162.601 110.714 162.601C110.714 162.601 109.797 166.819 109.699 167.65C109.601 168.48 103.791 167.65 103.791 167.65L99.0872 170.642L96.8682 168.719Z" fill="#EBB376"/>
<path d="M52.143 305.184L47.117 304.115C47.0273 304.114 46.9401 304.147 46.87 304.207C46.7999 304.266 46.7512 304.35 46.732 304.444L45.381 309.815C45.3525 309.998 45.3891 310.186 45.4836 310.343C45.5781 310.499 45.7237 310.612 45.892 310.66H46.039C47.817 310.66 49.112 310.51 51.338 310.51C52.738 310.51 56.854 310.667 58.751 310.667C60.648 310.667 60.9 308.663 60.151 308.483C56.651 307.668 54.047 306.546 52.934 305.491C52.7184 305.281 52.4342 305.171 52.143 305.184Z" fill="#263238"/>
<path d="M113.653 305.005H108.165C108.075 305.003 107.987 305.034 107.917 305.095C107.846 305.155 107.798 305.239 107.78 305.334L106.884 309.672C106.858 309.855 106.896 310.043 106.992 310.198C107.088 310.352 107.234 310.464 107.402 310.51H107.549C109.327 310.472 110.615 310.36 112.848 310.36C114.248 310.36 118.364 310.51 120.261 310.51C122.158 310.51 122.403 308.513 121.626 308.326C118.126 307.518 115.522 306.388 114.409 305.334C114.31 305.227 114.192 305.143 114.062 305.087C113.933 305.03 113.793 305.002 113.653 305.005Z" fill="#263238"/>
<path d="M61.8322 206.201L85.0722 199.903C90.3432 212.2 109.684 262.69 114.374 304.698L106.506 306.83C106.506 306.83 92.5762 244.881 80.8932 226.794C80.8932 226.794 80.2702 254.29 79.0032 258.292C77.9602 261.583 54.0412 305.618 54.0412 305.618L46.2712 304.683C46.2712 304.683 65.8012 259.743 66.9492 254.141C67.7612 250.326 64.2052 222.306 64.2052 222.306C63.5822 219.808 62.6442 209.463 62.6442 209.463C62.6442 209.463 61.9442 206.718 61.8322 206.201Z" fill="#002BDD"/>
<path opacity="0.2" d="M80.9006 226.809C82.8727 229.997 84.5936 233.354 86.0456 236.847C84.4356 227.168 79.4446 217.795 79.4446 217.795L80.9006 226.809Z" fill="#012BDD"/>
<path d="M102.236 169.146C102.236 169.146 91.6381 176.791 88.8451 177.194C87.7321 177.359 85.4361 176.955 83.0631 176.446C79.4651 175.624 75.7131 174.472 75.7131 174.472L75.2441 170.679L74.7471 166.625C75.5871 166.326 86.5491 171.113 88.1871 171.861C89.8251 172.609 100.416 165.877 100.416 165.877L102.236 169.146Z" fill="#263238"/>
<path d="M69.4626 204.451L70.1486 207.324L62.6446 209.463L61.9446 206.486L69.4626 204.451Z" fill="black"/>
<path d="M81.2994 201.242L81.9504 203.965L70.9814 207.092L70.2954 204.227L81.2994 201.242Z" fill="black"/>
<path d="M86.2696 202.738L82.7766 203.733L82.1326 201.018L85.3386 200.15L86.2696 202.738Z" fill="black"/>
<path d="M75.3317 205.854L79.6606 204.68L78.8691 201.345L74.5402 202.518L75.3317 205.854Z" fill="white"/>
<path d="M85.3324 200.143L61.9384 206.486C60.7974 203.187 59.6354 199.866 58.5014 196.627C57.6684 194.256 56.8494 191.93 56.0514 189.678C55.8507 189.1 55.6477 188.532 55.4424 187.973L54.7424 185.983C54.2244 184.527 53.725 183.124 53.2444 181.772L51.9564 178.174L51.3474 176.469L50.1924 173.252L74.7554 166.595C82.8544 181.697 85.3324 200.143 85.3324 200.143Z" fill="#263238"/>
<path d="M59.1103 172.609C61.6373 173.903 66.2993 171.621 66.2993 171.621C66.2993 171.621 67.8463 169.796 66.9223 168.988C65.0463 169.25 65.1653 168.592 64.4863 167.567C64.0981 166.92 63.8318 166.199 63.7023 165.443C63.6184 165.025 63.5553 164.603 63.5133 164.179L56.1423 161.351C57.8153 164.239 60.4123 169.706 59.1103 172.609Z" fill="#EBB376"/>
<path opacity="0.2" d="M58.3818 163.932C59.7118 167.71 62.9738 167.822 64.4858 167.567C64.0976 166.921 63.8313 166.199 63.7018 165.443L58.3818 163.932Z" fill="black"/>
<path d="M67.9857 149.6C67.9857 149.6 69.9107 155.809 67.1317 158.838C64.3527 161.867 62.4697 149.997 62.4697 149.997L67.9857 149.6Z" fill="#263238"/>
<path d="M58.7442 165.6C59.5758 166.527 60.6689 167.138 61.8561 167.337C63.0433 167.537 64.2591 167.316 65.3172 166.707C66.7045 165.941 67.7661 164.638 68.2852 163.064C68.3552 162.855 68.4182 162.63 68.4742 162.406C69.4122 158.225 68.8242 151.321 64.5612 149.466C63.6216 149.052 62.5986 148.902 61.5893 149.029C60.5801 149.157 59.6183 149.559 58.7953 150.196C57.9724 150.833 57.3157 151.685 56.8877 152.67C56.4597 153.655 56.2747 154.741 56.3502 155.824C56.6022 160.484 56.5462 163.221 58.7442 165.6Z" fill="#EBB376"/>
<path d="M62.9509 157.147C62.9509 157.521 63.1329 157.828 63.3709 157.828C63.6089 157.828 63.7839 157.521 63.7909 157.147C63.7979 156.773 63.6019 156.459 63.3709 156.459C63.1399 156.459 62.9509 156.766 62.9509 157.147Z" fill="#263238"/>
<path d="M66.9568 157.148C66.9568 157.529 67.1458 157.836 67.3768 157.836C67.6078 157.836 67.7898 157.522 67.7968 157.148C67.8038 156.774 67.6008 156.467 67.3768 156.467C67.1528 156.467 66.9568 156.789 66.9568 157.148Z" fill="#263238"/>
<path d="M65.6829 157.335C66.1015 158.493 66.6693 159.584 67.3699 160.574C67.1269 160.76 66.8485 160.887 66.5545 160.945C66.2606 161.003 65.9582 160.991 65.6689 160.911L65.6829 157.335Z" fill="#D58745"/>
<path d="M68.4189 155.398C68.3853 155.416 68.3481 155.426 68.3104 155.426C68.2726 155.426 68.2354 155.416 68.2019 155.398C67.9948 155.228 67.7533 155.112 67.4967 155.06C67.2402 155.008 66.9758 155.021 66.7249 155.099C66.6738 155.119 66.6171 155.118 66.5672 155.094C66.5173 155.07 66.4784 155.026 66.4589 154.971C66.4394 154.917 66.441 154.856 66.4633 154.803C66.4856 154.75 66.5268 154.708 66.5779 154.687C66.8918 154.581 67.225 154.558 67.5492 154.619C67.8734 154.68 68.1789 154.824 68.4399 155.039C68.4628 155.055 68.4825 155.075 68.4978 155.099C68.5131 155.123 68.5237 155.151 68.5289 155.179C68.5341 155.208 68.5339 155.237 68.5282 155.266C68.5225 155.294 68.5115 155.321 68.4959 155.345C68.4724 155.366 68.4465 155.384 68.4189 155.398Z" fill="#263238"/>
<path d="M62.1603 155.45C62.1203 155.444 62.082 155.429 62.0483 155.405C62.0098 155.363 61.9883 155.306 61.9883 155.248C61.9883 155.189 62.0098 155.132 62.0483 155.091C62.293 154.851 62.5881 154.679 62.9087 154.587C63.2292 154.496 63.5657 154.489 63.8893 154.567C63.9404 154.584 63.9834 154.622 64.0094 154.672C64.0354 154.722 64.0425 154.781 64.0293 154.836C64.013 154.893 63.9772 154.941 63.929 154.97C63.8809 154.999 63.8241 155.007 63.7703 154.993C63.515 154.938 63.2511 154.949 63.0004 155.025C62.7497 155.1 62.5194 155.238 62.3283 155.427C62.3033 155.443 62.2754 155.453 62.2465 155.457C62.2176 155.461 62.1882 155.459 62.1603 155.45Z" fill="#263238"/>
<path d="M59.5432 150.05L59.9632 150.91C58.5632 151.486 58.9132 153.251 59.2632 154.036C59.9632 155.727 59.1582 158.442 57.9752 159.572C57.9752 159.572 57.8982 158.824 57.3172 159.033C56.7362 159.242 57.0722 163.117 58.3042 164.912C58.3042 164.912 56.4912 163.319 55.3292 159.295C54.2582 155.555 54.0062 152.436 54.6712 150.94L59.5432 150.05Z" fill="#263238"/>
<path d="M54.4484 159.653C54.6865 160.176 55.0187 160.643 55.4258 161.028C55.833 161.413 56.3072 161.708 56.8214 161.897C58.2214 162.391 58.9214 161.097 58.6414 159.653C58.3474 158.389 57.2904 156.557 55.8414 156.699C55.5358 156.735 55.2436 156.852 54.9912 157.04C54.7388 157.228 54.5342 157.479 54.3959 157.773C54.2575 158.066 54.1899 158.392 54.1991 158.72C54.2082 159.049 54.2939 159.369 54.4484 159.653Z" fill="#EBB376"/>
<path d="M59.5 167.47C61.558 169.011 65.569 169.512 67.536 166.722C69.503 163.932 68.873 159.452 68.873 159.452C68.6471 160.452 68.2168 161.387 67.613 162.189C66.5 160.753 64.61 161.569 64.61 161.569C64.2118 161.015 63.6403 160.632 63 160.492C62.083 160.394 59.5 160.559 59.5 160.559C58.674 159.998 58.639 157.5 58.639 157.5L58.135 157.948C58.135 157.948 57.435 165.922 59.5 167.47Z" fill="#263238"/>
<path d="M65.003 151.635C65.003 151.635 69.903 149.092 69.322 146.548C68.741 144.005 67.313 146.907 67.313 146.907C67.313 146.907 67.971 144.978 66.683 144.663C65.395 144.349 65.801 145.584 65.101 146.324C64.401 147.065 57.611 145.987 55.42 147.439C53.229 148.89 54.902 153.909 54.902 153.909C56.196 152.521 57.8409 151.566 59.6351 151.162C61.4293 150.758 63.2948 150.922 65.003 151.635Z" fill="#263238"/>
<path opacity="0.2" d="M59.5 167.47C61.558 169.011 65.569 169.512 67.536 166.722C69.503 163.932 68.873 159.452 68.873 159.452C68.6471 160.452 68.2168 161.387 67.613 162.189C66.5 160.753 64.61 161.569 64.61 161.569C64.2118 161.015 63.6403 160.632 63 160.492C62.083 160.394 59.5 160.559 59.5 160.559C58.674 159.998 58.639 157.5 58.639 157.5L58.135 157.948C58.135 157.948 57.435 165.922 59.5 167.47Z" fill="white"/>
<path d="M64.8199 162.99C64.4432 163.529 64.104 164.096 63.8049 164.688L63.4899 164.561C62.0899 164.015 61.5859 163.267 61.4739 162.593C61.4286 162.267 61.455 161.934 61.5509 161.621C61.6019 161.44 61.6749 161.266 61.7679 161.105C62.5042 161.856 63.3826 162.43 64.3439 162.788C64.6309 162.923 64.8199 162.99 64.8199 162.99Z" fill="#263238"/>
<path d="M64.3438 162.795L64.0288 163.289C62.6988 162.773 61.8238 162.219 61.5508 161.628C61.6018 161.447 61.6747 161.274 61.7678 161.112C62.5041 161.863 63.3825 162.437 64.3438 162.795Z" fill="white"/>
<path d="M63.4904 164.56C62.0904 164.014 61.5864 163.266 61.4744 162.593C62.009 162.815 62.5038 163.134 62.9374 163.536C63.2179 163.806 63.4114 164.165 63.4904 164.56Z" fill="#DE5753"/>
<path d="M67.2219 171.629L66.8089 175.504L74.3689 192.715L73.6199 194.996L71.1489 193.777L65.7589 176.222L61.7969 173.357L64.6809 171.666L67.2219 171.629Z" fill="#002BDD"/>
<path d="M59.2764 168.981L64.2814 171.188L64.4844 167.568L68.1734 168.54L68.4884 174.053L64.9394 172.504L63.4554 176.035L57.1484 171.532L59.2764 168.981Z" fill="#263238"/>
<path opacity="0.2" d="M59.2764 168.981L64.2814 171.188L64.4844 167.568L68.1734 168.54L68.4884 174.053L64.9394 172.504L63.4554 176.035L57.1484 171.532L59.2764 168.981Z" fill="white"/>
<path opacity="0.2" d="M54.7329 185.983C54.2149 184.527 53.7156 183.123 53.2349 181.772L51.9469 178.174L51.3379 176.469C52.0379 176.102 53.8229 176.319 54.3199 177.217C56.1399 180.613 54.7329 185.983 54.7329 185.983Z" fill="black"/>
<path opacity="0.2" d="M63.5062 189.783C63.2072 191.253 62.6019 192.631 61.7354 193.816C60.8688 195.001 59.7633 195.962 58.5012 196.627C57.6682 194.256 56.8492 191.93 56.0512 189.679C55.8505 189.1 55.6475 188.532 55.4422 187.973L54.7422 185.983L62.8482 187.083L63.5062 189.783Z" fill="black"/>
<path opacity="0.2" d="M83.0636 176.416C79.4656 175.594 75.7136 174.442 75.7136 174.442L75.2446 170.649C75.2446 170.649 81.8596 171.405 83.0636 176.416Z" fill="black"/>
<path d="M50.1836 264.792C49.9642 264.8 49.748 264.734 49.5654 264.604C49.3828 264.474 49.2431 264.286 49.1658 264.066C49.0885 263.846 49.0776 263.606 49.1347 263.38C49.1917 263.153 49.3137 262.951 49.4836 262.803C61.1666 252.555 60.9426 236.496 60.7256 220.96C60.5576 209.246 60.4036 198.176 65.5626 190.651C72.8006 180.074 101.914 163.296 106.737 162.818C110.188 162.451 215.447 131.192 270.628 114.714C270.896 114.633 271.183 114.67 271.426 114.816C271.669 114.962 271.847 115.205 271.923 115.492C271.998 115.778 271.963 116.085 271.827 116.345C271.69 116.604 271.463 116.795 271.195 116.875C264.664 118.828 111.259 164.628 106.933 165.054C102.782 165.466 73.9626 182.176 67.2566 191.982C62.5176 198.901 62.6646 209.605 62.8256 220.93C63.0356 236.249 63.2806 253.617 50.8136 264.546C50.6351 264.7 50.4135 264.787 50.1836 264.792Z" fill="#263238"/>
<path opacity="0.4" d="M271.229 116.868L256.837 121.176C217.252 132.98 110.537 164.71 106.967 165.062C102.816 165.473 73.997 182.183 67.291 191.99C62.552 198.909 62.699 209.612 62.86 220.937C63.07 236.256 63.315 253.625 50.848 264.553C50.6519 264.727 50.4027 264.817 50.148 264.807C49.9286 264.815 49.7123 264.749 49.5298 264.619C49.3472 264.489 49.2074 264.3 49.1301 264.081C49.0529 263.861 49.042 263.621 49.099 263.395C49.156 263.168 49.2781 262.966 49.448 262.818C61.131 252.57 60.907 236.511 60.69 220.975C60.522 209.261 60.368 198.19 65.527 190.666C72.765 180.089 101.878 163.311 106.701 162.833C109.949 162.488 203.203 134.827 260.197 117.833L270.592 114.729C270.86 114.648 271.147 114.685 271.39 114.831C271.633 114.977 271.812 115.22 271.887 115.507C271.962 115.793 271.928 116.1 271.791 116.36C271.655 116.619 271.427 116.81 271.159 116.89L271.229 116.868Z" fill="white"/>
<path opacity="0.2" d="M271.229 116.868L256.837 121.177C257.846 119.912 258.998 118.786 260.267 117.826L270.662 114.721C270.93 114.641 271.218 114.678 271.46 114.824C271.703 114.97 271.882 115.213 271.957 115.499C272.032 115.786 271.998 116.093 271.861 116.352C271.725 116.612 271.497 116.803 271.229 116.883V116.868Z" fill="black"/>
<path d="M57.3372 187.599L62.8392 187.083C62.8392 187.083 65.7162 185.138 66.2692 185.265C66.8222 185.393 72.3032 188.257 72.3032 188.257C72.3032 188.257 69.8182 191.676 69.4052 192.386C68.9922 193.097 64.0432 189.746 64.0432 189.746L58.5902 190.367L57.3372 187.599Z" fill="#EBB376"/>
<path d="M50.1842 173.252C47.6852 175.159 41.1752 190.71 41.8682 193.111C42.5612 195.512 62.8192 190.778 62.8192 190.778L61.9232 186.731H51.0242L53.6142 182.363C53.6142 182.363 55.2102 180.702 54.2302 176.842C53.5232 174.06 50.1842 173.252 50.1842 173.252Z" fill="#263238"/>
<path d="M261.247 174.816L257.096 172.714C257.096 172.714 254.996 168.42 254.38 167.732C253.764 167.044 250.789 169.714 250.789 170.178C250.789 170.642 252.945 174.98 253.505 175.242C254.338 175.373 255.185 175.373 256.018 175.242L259.966 177.284L261.247 174.816Z" fill="#9F5B53"/>
<path d="M270.936 148.209L271.769 145.03C271.769 145.03 273.085 140.886 272.945 139.929C272.687 138.795 272.355 137.683 271.951 136.6C271.951 136.6 268.311 141.335 268.311 141.926C268.311 142.517 269.753 144.664 269.753 144.664L269.053 148.209H270.936Z" fill="#9F5B53"/>
<path d="M274.135 171.89C274.135 171.89 270.999 167.724 270.075 163.849C269.151 159.975 271.944 147.393 271.944 147.393L268.997 146.556C268.997 146.556 265.497 159.429 265.378 164.126C265.259 168.824 271.797 182.609 271.797 182.609L274.135 171.89Z" fill="#002BDD"/>
<path opacity="0.2" d="M272.239 180.537L271.791 182.579C271.791 182.579 269.537 177.83 267.696 172.953C269.611 174.423 271.056 176.489 271.833 178.869C272.01 179.413 272.146 179.97 272.239 180.537Z" fill="#002BDD"/>
<path d="M290.738 181.016C290.699 181.886 290.6 182.75 290.444 183.604C290.122 185.474 289.576 187.681 288.953 190.112C288.617 191.391 288.253 192.76 287.931 194.204C286.37 200.689 285.523 203.269 284.368 211.55L262.213 205.932C263.411 198.844 265.236 191.894 267.666 185.175C268.31 183.388 269.066 181.6 269.829 179.835C271.052 177.067 272.493 174.414 274.134 171.906C274.134 171.906 277.718 175.406 288.974 177.508C290.339 177.733 290.808 179.004 290.738 181.016Z" fill="#002BDD"/>
<path opacity="0.2" d="M287.954 178.316C287.954 179.064 290.607 182.624 290.446 183.552C290.145 183.769 289.788 184.008 289.382 184.3C281.885 188.96 272.05 186.596 267.682 185.152C268.326 183.365 269.782 180.081 270.538 178.316L275.795 179.565C275.795 179.565 284.391 177.47 287.954 178.316Z" fill="black"/>
<path d="M278.945 173.319C279.75 172.99 286.359 174.748 285.869 174.898C285.379 175.047 282.915 183.126 279.464 182.52C276.013 181.914 276.075 174.486 278.945 173.319Z" fill="#002BDD"/>
<path d="M249.025 305.678L244.867 306.643L242.438 296.425L246.603 295.46L249.025 305.678Z" fill="#9F5B53"/>
<path d="M243.833 304.788H249.006C249.09 304.788 249.172 304.819 249.237 304.876C249.302 304.934 249.347 305.013 249.363 305.102L250.203 309.149C250.221 309.235 250.224 309.325 250.209 309.412C250.195 309.499 250.164 309.583 250.119 309.657C250.074 309.732 250.016 309.796 249.947 309.846C249.879 309.896 249.801 309.931 249.72 309.949H249.58C247.907 309.949 246.689 309.807 244.589 309.807C243.294 309.807 239.388 309.949 237.589 309.949C235.79 309.949 235.573 308.064 236.301 307.892C239.584 307.144 242.055 306.067 243.105 305.064C243.203 304.969 243.318 304.896 243.443 304.848C243.568 304.8 243.701 304.78 243.833 304.788Z" fill="#263238"/>
<path d="M242.426 305.589C242.136 305.612 241.848 305.53 241.607 305.357C241.528 305.288 241.468 305.199 241.431 305.098C241.394 304.997 241.382 304.888 241.397 304.781C241.394 304.718 241.408 304.655 241.438 304.6C241.467 304.546 241.512 304.502 241.565 304.474C242.041 304.212 243.413 305.117 243.567 305.222C243.585 305.231 243.599 305.247 243.608 305.266C243.617 305.285 243.619 305.306 243.616 305.327C243.613 305.348 243.605 305.369 243.591 305.385C243.577 305.401 243.559 305.412 243.539 305.417C243.175 305.518 242.802 305.576 242.426 305.589ZM241.789 304.646C241.748 304.631 241.704 304.631 241.663 304.646C241.663 304.646 241.6 304.684 241.593 304.773C241.586 304.844 241.595 304.916 241.619 304.982C241.643 305.049 241.682 305.108 241.733 305.155C242.209 305.387 242.749 305.417 243.245 305.237C242.8 304.941 242.305 304.741 241.789 304.646Z" fill="#407BFF"/>
<path d="M243.511 305.423H243.462C243.028 305.169 242.174 304.167 242.258 303.688C242.274 303.608 242.315 303.535 242.375 303.484C242.435 303.432 242.51 303.404 242.587 303.404C242.664 303.393 242.741 303.4 242.815 303.425C242.889 303.449 242.957 303.491 243.014 303.546C243.504 303.972 243.609 305.281 243.616 305.341C243.617 305.361 243.613 305.38 243.604 305.397C243.596 305.414 243.583 305.429 243.567 305.438C243.557 305.442 243.547 305.442 243.537 305.439C243.527 305.437 243.518 305.431 243.511 305.423ZM242.657 303.576H242.608C242.475 303.576 242.468 303.658 242.461 303.688C242.405 303.987 242.951 304.743 243.385 305.094C243.361 304.584 243.193 304.094 242.902 303.688C242.87 303.653 242.832 303.624 242.79 303.605C242.748 303.586 242.703 303.576 242.657 303.576Z" fill="#407BFF"/>
<path d="M284.551 212.171C284.551 212.171 280.96 230.467 272.56 235.359C271.596 235.938 270.54 236.321 269.445 236.488C269.445 236.488 260.926 240.228 253.562 243.766C249.082 245.928 245.029 248.037 243.58 249.219C239.744 252.338 249.138 301.033 249.138 301.033L242.754 301.108C242.754 301.108 229.321 257.993 231.554 246.676C233.787 235.359 257.895 218.035 257.895 218.035L261.605 207.129L284.551 212.171Z" fill="#263238"/>
<path opacity="0.2" d="M272.56 235.381C271.596 235.96 270.539 236.343 269.445 236.51C269.445 236.51 260.926 240.25 253.562 243.788C258.301 234.476 266.75 228.424 266.75 228.424L272.56 235.381Z" fill="black"/>
<path d="M302.548 305.678L298.39 306.643L295.961 296.425L300.126 295.46L302.548 305.678Z" fill="#9F5B53"/>
<path d="M297.353 304.788H302.526C302.61 304.788 302.692 304.819 302.757 304.876C302.822 304.934 302.867 305.013 302.883 305.102L303.723 309.149C303.741 309.235 303.743 309.325 303.729 309.412C303.715 309.499 303.684 309.583 303.639 309.657C303.594 309.732 303.536 309.796 303.467 309.846C303.398 309.896 303.321 309.931 303.24 309.949H303.1C301.427 309.949 300.209 309.807 298.109 309.807C296.814 309.807 292.908 309.949 291.109 309.949C289.31 309.949 289.093 308.064 289.821 307.892C293.104 307.144 295.575 306.067 296.625 305.064C296.723 304.969 296.838 304.896 296.963 304.848C297.088 304.8 297.22 304.78 297.353 304.788Z" fill="#263238"/>
<path d="M295.948 305.589C295.659 305.612 295.37 305.53 295.129 305.357C295.051 305.288 294.99 305.199 294.954 305.098C294.917 304.997 294.905 304.888 294.919 304.781C294.916 304.718 294.93 304.655 294.96 304.6C294.99 304.546 295.034 304.502 295.087 304.474C295.563 304.212 296.935 305.117 297.089 305.222C297.107 305.231 297.122 305.247 297.13 305.266C297.139 305.285 297.142 305.306 297.138 305.327C297.136 305.348 297.127 305.369 297.113 305.385C297.1 305.401 297.081 305.412 297.061 305.417C296.698 305.518 296.324 305.576 295.948 305.589ZM295.311 304.646C295.271 304.631 295.226 304.631 295.185 304.646C295.185 304.646 295.122 304.684 295.115 304.773C295.108 304.844 295.117 304.916 295.141 304.982C295.166 305.049 295.205 305.108 295.255 305.155C295.731 305.387 296.272 305.417 296.767 305.237C296.322 304.941 295.828 304.741 295.311 304.646Z" fill="#407BFF"/>
<path d="M297.031 305.423H296.982C296.548 305.169 295.694 304.167 295.778 303.688C295.794 303.608 295.835 303.535 295.895 303.484C295.955 303.432 296.03 303.404 296.107 303.404C296.183 303.393 296.261 303.4 296.335 303.425C296.409 303.449 296.477 303.491 296.534 303.546C297.024 303.972 297.129 305.281 297.136 305.341C297.137 305.361 297.133 305.38 297.124 305.397C297.116 305.414 297.103 305.429 297.087 305.438C297.077 305.442 297.067 305.442 297.057 305.439C297.047 305.437 297.038 305.431 297.031 305.423ZM296.177 303.576H296.1C295.967 303.576 295.96 303.658 295.953 303.688C295.897 303.987 296.443 304.743 296.877 305.094C296.85 304.576 296.674 304.08 296.373 303.673C296.319 303.619 296.25 303.584 296.177 303.576Z" fill="#407BFF"/>
<path d="M285.985 177.194C284.942 177.942 280.133 177.658 280.133 177.658L277.9 180.269L277.683 175.953C277.683 175.953 276.178 175.287 276.591 174.823C277.115 174.865 277.641 174.794 278.138 174.616C278.636 174.437 279.095 174.154 279.489 173.783C280.462 172.766 280.651 171.128 280.637 169.505C280.637 169.505 280.637 169.46 280.637 169.445L284.746 167.201L287.588 165.638C286.251 168.719 284.34 174.501 285.985 177.194Z" fill="#9F5B53"/>
<path opacity="0.2" d="M286.105 168.225C284.747 171.898 281.205 173.536 279.462 173.775C280.435 172.758 280.624 171.12 280.61 169.497C280.613 169.475 280.613 169.452 280.61 169.43L284.719 167.186C284.726 167.784 286.301 167.664 286.105 168.225Z" fill="black"/>
<path d="M288.716 168.076C288.716 168.076 291.383 169.572 292.272 167.784C293.161 165.997 291.894 165.892 293.203 165.249C294.512 164.605 296.374 164.156 295.947 162.803C295.52 161.449 294.197 161.307 295.667 159.811C297.137 158.315 297.459 156.205 295.261 155.794C293.063 155.382 293.903 153.55 293.791 152.802C293.679 152.054 292.447 151.53 291.11 151.829C289.773 152.129 289.213 150.012 288.387 149.354C287.561 148.695 286.42 149.503 286.119 150.393C285.818 151.283 285.027 150.102 283.851 149.952C282.675 149.802 282.948 151.126 282.584 152.361C282.22 153.595 281.499 152.794 280.659 153.812C279.819 154.829 279.742 161.77 288.716 168.076Z" fill="#263238"/>
<path d="M289.877 163.812C287.868 167.178 286.727 169.4 284.473 170.492C284.169 170.641 283.856 170.766 283.535 170.866C279.153 172.242 275.541 167.732 276.696 163.266C276.916 162.46 277.197 161.675 277.536 160.917C279.104 157.409 282.121 153.819 285.726 154.29C286.479 154.382 287.207 154.632 287.869 155.025C288.532 155.418 289.115 155.947 289.586 156.581C290.056 157.216 290.405 157.943 290.613 158.722C290.82 159.5 290.882 160.315 290.794 161.119C290.688 162.081 290.374 163.003 289.877 163.812Z" fill="#9F5B53"/>
<path d="M283.712 161.569C283.565 161.905 283.25 162.055 283.054 161.943C282.858 161.831 282.837 161.464 282.998 161.15C283.159 160.836 283.467 160.664 283.656 160.776C283.845 160.888 283.88 161.262 283.712 161.569Z" fill="#263238"/>
<path d="M280.315 159.571C280.272 159.712 280.179 159.829 280.056 159.897C279.933 159.965 279.79 159.98 279.657 159.937C279.468 159.818 279.44 159.466 279.608 159.145C279.776 158.823 280.07 158.658 280.266 158.778C280.462 158.898 280.476 159.264 280.315 159.571Z" fill="#263238"/>
<path d="M281.318 160.372C280.448 161.136 279.485 161.77 278.455 162.257C278.578 162.537 278.758 162.784 278.98 162.982C279.203 163.18 279.463 163.323 279.743 163.401L281.318 160.372Z" fill="#892B29"/>
<path d="M285.741 160.731C285.705 160.737 285.667 160.732 285.633 160.718C285.598 160.703 285.568 160.679 285.545 160.648C285.403 160.425 285.214 160.24 284.992 160.11C284.771 159.98 284.524 159.908 284.271 159.9C284.242 159.906 284.212 159.905 284.183 159.897C284.154 159.889 284.127 159.874 284.104 159.854C284.081 159.834 284.063 159.808 284.05 159.779C284.037 159.751 284.031 159.719 284.031 159.687C284.031 159.655 284.037 159.624 284.05 159.595C284.063 159.566 284.081 159.541 284.104 159.52C284.127 159.5 284.154 159.485 284.183 159.477C284.212 159.469 284.242 159.468 284.271 159.474C284.59 159.476 284.904 159.561 285.186 159.721C285.467 159.882 285.708 160.112 285.888 160.394C285.905 160.416 285.917 160.441 285.924 160.468C285.931 160.495 285.933 160.524 285.93 160.552C285.927 160.579 285.918 160.606 285.905 160.631C285.892 160.655 285.874 160.676 285.853 160.693C285.819 160.715 285.781 160.728 285.741 160.731Z" fill="#263238"/>
<path d="M280.561 165.405C281.031 165.569 281.531 165.608 282.019 165.521C282.506 165.434 282.967 165.222 283.361 164.904C283.379 164.882 283.389 164.855 283.389 164.826C283.389 164.797 283.379 164.769 283.361 164.747C283.342 164.727 283.315 164.715 283.288 164.715C283.26 164.715 283.234 164.727 283.214 164.747C282.841 165.034 282.409 165.224 281.955 165.302C281.5 165.38 281.035 165.344 280.596 165.196C280.584 165.19 280.571 165.187 280.557 165.187C280.544 165.188 280.53 165.191 280.518 165.198C280.506 165.204 280.496 165.213 280.487 165.225C280.479 165.236 280.473 165.249 280.47 165.263C280.465 165.276 280.462 165.291 280.462 165.305C280.463 165.32 280.466 165.334 280.472 165.347C280.478 165.359 280.487 165.371 280.497 165.38C280.508 165.388 280.52 165.395 280.533 165.398L280.561 165.405Z" fill="#263238"/>
<path d="M280 156.467C279.989 156.425 279.989 156.381 280 156.34C280.023 156.289 280.063 156.249 280.113 156.229C280.163 156.21 280.218 156.212 280.266 156.235C280.56 156.375 280.817 156.589 281.017 156.859C281.217 157.129 281.353 157.446 281.414 157.783C281.42 157.84 281.405 157.896 281.372 157.941C281.34 157.986 281.292 158.015 281.239 158.023C281.186 158.029 281.133 158.013 281.091 157.978C281.049 157.943 281.022 157.892 281.015 157.836C280.96 157.572 280.848 157.325 280.687 157.116C280.527 156.907 280.322 156.741 280.091 156.631C280.066 156.612 280.045 156.588 280.029 156.559C280.014 156.531 280.004 156.499 280 156.467Z" fill="#263238"/>
<path d="M282.885 154.604C283.907 154.739 284.411 156.1 284.411 156.1C285.647 156.583 286.841 157.178 287.981 157.88C288.329 158.183 288.59 158.584 288.736 159.038C288.882 159.491 288.907 159.979 288.807 160.446C288.772 160.805 287.946 161.134 287.946 161.134C287.946 161.134 286.434 164.949 286.021 166.004L286.231 169.527C289.01 167.649 291.235 164.971 292.65 161.8C295.037 156.489 285.076 151.814 285.076 151.814L282.885 154.604Z" fill="#263238"/>
<path d="M289.277 169.138C288.346 169.683 287.251 169.812 286.232 169.497C284.881 169.063 284.958 167.582 285.959 166.632C286.855 165.81 288.654 164.994 289.697 165.952C289.925 166.16 290.101 166.427 290.207 166.727C290.313 167.027 290.347 167.35 290.305 167.668C290.263 167.986 290.147 168.287 289.967 168.544C289.788 168.801 289.55 169.005 289.277 169.138Z" fill="#9F5B53"/>
<path d="M285.866 174.898L280.301 176.611L277.9 180.089L278.551 175.833C278.551 175.833 277.956 174.853 278.943 173.319L275.555 174.067L273.511 177.718L277.487 176.723L277.76 180.964L280.077 178.047L281.974 181.248L287.616 177.426L285.866 174.898Z" fill="#002BDD"/>
<path d="M262.507 203.456L261.639 207.151L284.543 212.17L284.886 208.064L262.507 203.456Z" fill="black"/>
<path d="M272.736 205.394C272.554 205.117 267.458 203.942 266.975 204.331C266.975 204.331 265.988 207.974 266.156 208.356C266.324 208.737 271.28 209.478 271.756 209.582C272.232 209.687 272.918 205.7 272.736 205.394ZM271.336 209.134C270.958 209.051 266.884 208.445 266.744 208.131C266.604 207.817 267.444 204.825 267.444 204.825C267.843 204.503 272.029 205.468 272.176 205.693C272.323 205.917 271.714 209.178 271.336 209.096V209.134Z" fill="white"/>
<path d="M271.53 206.635L270.515 206.411C270.422 206.392 270.327 206.411 270.246 206.463C270.166 206.516 270.107 206.599 270.081 206.695C270.066 206.749 270.063 206.806 270.07 206.862C270.077 206.918 270.095 206.971 270.123 207.019C270.15 207.067 270.187 207.108 270.23 207.14C270.274 207.172 270.323 207.194 270.375 207.204L271.39 207.413C271.488 207.434 271.59 207.412 271.674 207.353C271.757 207.293 271.815 207.201 271.834 207.095C271.854 206.99 271.833 206.881 271.778 206.792C271.722 206.703 271.635 206.641 271.537 206.62L271.53 206.635Z" fill="white"/>
<path d="M284.545 212.171C284.545 212.171 284.986 239.847 284.258 247.925C283.53 256.003 302.402 300.218 302.402 300.218H296.291C296.291 300.218 277.776 267.844 273.534 257.881C269.292 247.918 266.156 224.146 266.156 224.146L284.545 212.171Z" fill="#263238"/>
<path d="M290.816 179.071C289.871 176.783 275.36 180.171 274.051 179.775C272.742 179.378 259.12 173.282 259.12 173.282L257.937 176.528C257.937 176.528 270.152 184.008 272.826 185.19C275.5 186.372 286.189 185.804 288.926 184.539C289.394 184.324 289.816 184.008 290.167 183.613C290.518 183.217 290.79 182.75 290.967 182.238C291.144 181.727 291.222 181.183 291.196 180.638C291.169 180.094 291.04 179.561 290.816 179.071Z" fill="#002BDD"/>
<path d="M288.245 119.628L283.849 89.7075L260.693 107.203L268.393 110.689C260.959 128.895 236.844 182.235 195.348 221.565C142.365 271.793 68.2073 296.507 67.4653 296.746L71.5673 311.056C74.7173 310.023 149.323 285.19 204.665 232.733C248.765 190.934 273.559 135.807 281.343 116.508L288.245 119.628Z" fill="#012BDD"/>
<path d="M279.998 120.892C279.889 120.893 279.78 120.875 279.676 120.839L266.229 116.194C266.091 116.156 265.961 116.088 265.848 115.994C265.735 115.9 265.641 115.783 265.572 115.649C265.503 115.515 265.461 115.367 265.447 115.215C265.434 115.062 265.449 114.909 265.493 114.763C265.537 114.618 265.608 114.484 265.703 114.369C265.797 114.254 265.912 114.16 266.042 114.095C266.171 114.029 266.311 113.992 266.454 113.987C266.597 113.981 266.74 114.007 266.873 114.062L280.32 118.7C280.56 118.781 280.764 118.951 280.896 119.179C281.028 119.407 281.079 119.679 281.04 119.944C281.001 120.209 280.875 120.45 280.684 120.624C280.492 120.798 280.249 120.893 279.998 120.892Z" fill="#263238"/>
<path opacity="0.4" d="M279.998 120.892C279.889 120.893 279.78 120.875 279.676 120.839L266.229 116.194C266.091 116.156 265.961 116.088 265.848 115.994C265.735 115.9 265.641 115.783 265.572 115.649C265.503 115.515 265.461 115.367 265.447 115.215C265.434 115.062 265.449 114.909 265.493 114.763C265.537 114.618 265.608 114.484 265.703 114.369C265.797 114.254 265.912 114.16 266.042 114.095C266.171 114.029 266.311 113.992 266.454 113.987C266.597 113.981 266.74 114.007 266.873 114.062L280.32 118.7C280.56 118.781 280.764 118.951 280.896 119.179C281.028 119.407 281.079 119.679 281.04 119.944C281.001 120.209 280.875 120.45 280.684 120.624C280.492 120.798 280.249 120.893 279.998 120.892Z" fill="white"/>
<path d="M118.95 260.917C118.672 260.917 118.405 260.799 118.208 260.589C118.011 260.378 117.9 260.093 117.9 259.795C117.9 224.086 127.609 219.403 129.429 218.827L160.299 195.752L160.369 195.707L278.963 120.563C279.203 120.417 279.486 120.378 279.752 120.453C280.018 120.528 280.246 120.712 280.386 120.965C280.527 121.218 280.569 121.52 280.503 121.806C280.437 122.091 280.269 122.338 280.034 122.493L161.496 197.614L130.479 220.802C130.347 220.9 130.197 220.967 130.038 220.997C129.961 220.997 120 223.615 120 259.818C119.995 260.112 119.882 260.391 119.686 260.597C119.489 260.802 119.225 260.917 118.95 260.917Z" fill="#263238"/>
<path opacity="0.4" d="M118.95 260.917C118.672 260.917 118.405 260.799 118.208 260.589C118.011 260.378 117.9 260.093 117.9 259.795C117.9 224.086 127.609 219.403 129.429 218.827L160.299 195.752L160.369 195.707L278.963 120.563C279.203 120.417 279.486 120.378 279.752 120.453C280.018 120.528 280.246 120.712 280.386 120.965C280.527 121.218 280.569 121.52 280.503 121.806C280.437 122.091 280.269 122.338 280.034 122.493L161.496 197.614L130.479 220.802C130.347 220.9 130.197 220.967 130.038 220.997C129.961 220.997 120 223.615 120 259.818C119.995 260.112 119.882 260.391 119.686 260.597C119.489 260.802 119.225 260.917 118.95 260.917Z" fill="white"/>
<path d="M127.014 223.862C127.014 223.862 121.617 227.602 117.515 228.731C116.502 229.097 115.416 229.161 114.372 228.918C111.32 227.886 113.133 221.573 114.953 217.586C115.247 216.935 115.541 216.352 115.814 215.858L121.148 219.381C121.148 219.381 117.914 224.31 118.285 224.617C118.656 224.924 123.64 221.954 123.885 221.857C124.13 221.76 127.014 223.862 127.014 223.862Z" fill="#002BDD"/>
<path opacity="0.2" d="M127.014 223.862C127.014 223.862 121.617 227.602 117.515 228.731C116.376 225.097 115.519 221.37 114.953 217.586C115.247 216.935 115.541 216.352 115.814 215.858L121.148 219.381C121.148 219.381 117.914 224.31 118.285 224.617C118.656 224.924 123.64 221.954 123.885 221.857C124.13 221.76 127.014 223.862 127.014 223.862Z" fill="black"/>
<path d="M153.3 202.155L156.464 199.163C156.717 198.308 157.064 197.49 157.5 196.724C157.843 196.417 163.604 195.939 163.604 195.939C163.604 195.939 163.716 199.193 163.261 200.038C162.806 200.883 158.102 201.25 158.102 201.25L155.582 203.845L153.3 202.155Z" fill="#EEC1BB"/>
<path d="M170.154 273.058C169.251 286.941 166.836 306.643 166.836 306.643L163.728 307.391C163.728 307.391 160.858 290.898 161.313 275.593C161.395 272.257 161.689 268.931 162.195 265.638C162.195 265.638 151.429 261.217 143.953 257.26C140.383 255.375 137.562 253.587 137.023 252.435C135.357 248.882 142.931 240.535 142.931 240.535C143.169 240.737 147.74 243.848 153.06 247.536C160.123 252.428 168.502 258.337 169.86 259.811C170.672 260.656 170.602 266.131 170.154 273.058Z" fill="#EEC1BB"/>
<path opacity="0.2" d="M170.155 273.057C167.282 274.171 164.324 275.014 161.314 275.578C161.395 272.242 161.69 268.916 162.196 265.622C162.196 265.622 151.43 261.202 143.954 257.245L153.054 247.521C160.117 252.413 168.496 258.322 169.854 259.795C170.673 260.656 170.603 266.131 170.155 273.057Z" fill="black"/>
<path d="M145.922 238.215C145.922 238.215 175.791 256.564 179.851 260.708C183.911 264.852 207.347 303.576 207.347 303.576L205.373 305.588C205.373 305.588 185.913 287.74 178.15 270.776L145.95 254.148L145.922 238.215Z" fill="#EEC1BB"/>
<path d="M123.199 204.339C123.247 204.374 123.298 204.404 123.353 204.428C124.086 204.873 124.895 205.155 125.733 205.259C128.169 205.491 129.737 204.907 130.633 203.606C131.879 201.676 131.851 198.594 131.165 194.966C130.937 193.515 130.496 192.111 129.856 190.807C129.856 190.807 129.856 190.755 129.856 190.748L129.772 190.598C129.382 189.868 128.827 189.254 128.158 188.813C127.49 188.371 126.728 188.116 125.943 188.07C125.259 188.009 124.571 188.029 123.892 188.13C117.242 189.05 117.599 201.033 123.199 204.339Z" fill="#EEC1BB"/>
<path opacity="0.2" d="M123.383 204.428C124.118 204.848 124.925 205.102 125.756 205.176C128.185 205.408 129.746 204.735 130.656 203.426C129.294 204.006 127.793 204.098 126.379 203.688C125.86 203.559 125.32 203.559 124.801 203.688C124.281 203.816 123.796 204.069 123.383 204.428Z" fill="black"/>
<path d="M122.932 210.278C122.351 212.283 124.752 213.345 124.752 213.345C128.952 211.849 129.897 209.657 129.897 209.657C126.677 207.413 128.091 202.222 128.091 202.222L127.391 202.521L122.491 203.075C122.491 203.075 123.604 205.94 123.73 206.583C124.346 209.956 122.932 210.278 122.932 210.278Z" fill="#EBB376"/>
<path d="M129.897 190.74C129.897 190.74 130.919 195.684 126.768 198.489C126.768 198.489 125.543 203.972 122.75 204.473C118.942 205.146 114.819 199.843 115.365 193.724C116.079 185.811 126.873 183.559 129.897 190.74Z" fill="#263238"/>
<path d="M128.799 196.724C128.694 195.976 127.938 194.719 126.825 195.071C125.712 195.423 125.425 198.617 128.407 198.878C128.862 198.968 129.044 198.37 128.799 196.724Z" fill="#EBB376"/>
<path d="M206.046 301.198L202.826 303.845C202.76 303.902 202.714 303.981 202.695 304.069C202.676 304.157 202.685 304.25 202.721 304.332L204.359 308.072C204.394 308.151 204.444 308.222 204.505 308.281C204.566 308.339 204.637 308.385 204.714 308.414C204.792 308.443 204.874 308.456 204.956 308.451C205.038 308.446 205.118 308.424 205.192 308.386C205.234 308.365 205.274 308.34 205.311 308.311C206.613 307.196 206.655 307.024 208.314 305.663C209.329 304.825 212.514 302.402 213.914 301.242C215.314 300.083 214.432 298.445 213.76 298.782C210.736 300.278 208.16 301.078 206.76 300.966C206.503 300.945 206.248 301.028 206.046 301.198Z" fill="#263238"/>
<path d="M206.744 301.13C206.726 301.139 206.706 301.142 206.686 301.139C206.667 301.135 206.649 301.126 206.634 301.111C206.62 301.097 206.61 301.078 206.606 301.057C206.602 301.036 206.603 301.015 206.611 300.995C206.674 300.815 207.248 299.207 207.766 299.11C207.823 299.097 207.883 299.102 207.938 299.124C207.993 299.147 208.04 299.186 208.074 299.237C208.146 299.313 208.198 299.407 208.226 299.51C208.254 299.614 208.257 299.723 208.235 299.828C208.152 300.134 207.971 300.398 207.724 300.576C207.418 300.8 207.09 300.986 206.744 301.13ZM206.891 300.823C207.385 300.644 207.796 300.269 208.039 299.776C208.053 299.705 208.05 299.632 208.03 299.562C208.011 299.493 207.975 299.43 207.927 299.379C207.871 299.319 207.822 299.304 207.801 299.327C207.757 299.336 207.716 299.356 207.682 299.387C207.335 299.807 207.067 300.295 206.891 300.823Z" fill="#407BFF"/>
<path d="M206.737 301.167C206.72 301.168 206.703 301.164 206.687 301.156C206.671 301.148 206.657 301.137 206.646 301.122C206.646 301.07 205.946 299.97 206.093 299.312C206.11 299.232 206.142 299.156 206.186 299.089C206.231 299.023 206.287 298.966 206.352 298.923C206.412 298.872 206.486 298.844 206.562 298.844C206.639 298.844 206.713 298.872 206.772 298.923C207.115 299.245 207.01 300.584 206.807 301.07L206.772 301.107L206.737 301.167ZM206.268 299.327C206.267 299.844 206.41 300.35 206.681 300.778C206.849 300.219 206.824 299.614 206.611 299.073C206.611 299.073 206.534 298.99 206.436 299.073H206.394C206.325 299.138 206.28 299.229 206.268 299.327Z" fill="#407BFF"/>
<path d="M167.384 304.436L163.317 304.518C163.233 304.523 163.154 304.557 163.09 304.615C163.027 304.673 162.983 304.752 162.967 304.84L162.204 308.886C162.181 309.055 162.22 309.227 162.312 309.367C162.405 309.506 162.544 309.602 162.701 309.634C162.747 309.642 162.794 309.642 162.841 309.634C164.5 309.567 164.633 309.455 166.726 309.41C168.014 309.41 171.899 309.447 173.677 309.41C175.455 309.373 175.651 307.488 174.923 307.331C171.64 306.642 169.169 305.64 168.105 304.66C167.9 304.49 167.642 304.409 167.384 304.436Z" fill="#263238"/>
<path d="M167.746 304.915C167.726 304.911 167.707 304.9 167.693 304.884C167.679 304.868 167.671 304.847 167.669 304.825C167.664 304.805 167.665 304.784 167.673 304.764C167.68 304.745 167.694 304.73 167.711 304.72C167.858 304.615 169.209 303.688 169.685 303.935C169.739 303.961 169.785 304.003 169.818 304.056C169.85 304.109 169.867 304.171 169.867 304.234C169.881 304.34 169.87 304.449 169.834 304.55C169.799 304.65 169.741 304.74 169.664 304.81C169.429 304.991 169.142 305.079 168.852 305.057C168.48 305.054 168.109 305.007 167.746 304.915ZM168.033 304.757C168.53 304.927 169.069 304.887 169.538 304.645C169.588 304.597 169.625 304.536 169.647 304.468C169.669 304.4 169.675 304.327 169.664 304.256C169.664 304.174 169.622 304.137 169.601 304.137C169.558 304.126 169.512 304.126 169.468 304.137C168.958 304.245 168.471 304.456 168.033 304.757Z" fill="#407BFF"/>
<path d="M167.721 304.937C167.705 304.928 167.691 304.914 167.683 304.897C167.674 304.88 167.67 304.86 167.672 304.84C167.672 304.78 167.749 303.479 168.232 303.037C168.289 302.982 168.357 302.941 168.431 302.916C168.505 302.892 168.583 302.884 168.659 302.895C168.736 302.893 168.81 302.92 168.87 302.971C168.93 303.021 168.972 303.092 168.988 303.172C169.079 303.643 168.288 304.668 167.819 304.922H167.77C167.756 304.934 167.739 304.939 167.721 304.937ZM168.365 303.165C168.077 303.579 167.911 304.077 167.889 304.593C168.323 304.234 168.848 303.464 168.785 303.172C168.785 303.172 168.785 303.067 168.638 303.067H168.589C168.506 303.069 168.426 303.104 168.365 303.165Z" fill="#407BFF"/>
<path d="M145.088 233.301L130.269 239.951C124.144 223.682 115.814 215.858 115.814 215.858C121.75 208.251 132.712 204.75 132.712 204.75C134.331 206.158 135.728 207.835 136.849 209.717C138.085 211.761 139.162 213.91 140.069 216.142C142.271 221.67 143.952 227.418 145.088 233.301Z" fill="#002BDD"/>
<path d="M129.759 194.046C129.759 194.046 134.414 188.975 129.955 185.631C125.496 182.288 121.072 186.753 121.072 186.753C121.072 186.753 110.481 189.603 112.805 197.121C115.129 204.638 116.613 205.259 113.288 209.163C109.963 213.068 106.575 218.828 110.047 222.455C113.519 226.083 125.489 222.194 129.08 216.628C132.671 211.063 126.133 199.267 129.759 194.046Z" fill="#263238"/>
<path d="M144.011 228.424L127.911 234.326C127.911 234.326 131.474 253.063 134.057 256.197C136.64 259.331 153.909 273.843 156.352 272.698C158.795 271.554 175 256.197 175 256.197L147.581 236.106L144.011 228.424Z" fill="#263238"/>
<path d="M141.665 231.947L145.088 230.735L144.241 228.925L141 230.145L141.665 231.947Z" fill="black"/>
<path d="M131.432 233.743L127.925 235.059L128.394 236.66L131.824 235.441L131.432 233.743Z" fill="black"/>
<path d="M132.559 235.179L140.98 232.194L140.35 230.384L132.097 233.488L132.559 235.179Z" fill="black"/>
<path opacity="0.2" d="M140.071 216.172C136.529 215.731 134.534 210.039 134.534 210.039C135.3 209.892 136.074 209.794 136.851 209.747C138.087 211.791 139.164 213.94 140.071 216.172Z" fill="black"/>
<path d="M132.714 204.75C136.564 204.137 145.174 207.473 145.923 207.436C146.672 207.398 155.023 200.382 155.023 200.382L157.193 202.424C157.193 202.424 148.443 212.066 146.644 212.148C144.845 212.23 135.444 211.505 135.444 211.505C135.444 211.505 133.141 210.63 132.7 208.408C132.431 207.205 132.436 205.951 132.714 204.75Z" fill="#002BDD"/>
</g>
<defs>
<clipPath id="clip0_579_5669">
<rect width="350" height="374" fill="white"/>
</clipPath>
</defs>
</svg>
