<svg width="18" height="18" viewBox="0 0 18 18" fill="none" xmlns="http://www.w3.org/2000/svg">
<path d="M11.6999 5.39995C11.6999 6.89112 10.4911 8.09995 8.9999 8.09995C7.50873 8.09995 6.2999 6.89112 6.2999 5.39995C6.2999 3.90878 7.50873 2.69995 8.9999 2.69995C10.4911 2.69995 11.6999 3.90878 11.6999 5.39995Z" fill="#012BDD"/>
<path d="M16.1999 7.19995C16.1999 8.19406 15.394 8.99995 14.3999 8.99995C13.4058 8.99995 12.5999 8.19406 12.5999 7.19995C12.5999 6.20584 13.4058 5.39995 14.3999 5.39995C15.394 5.39995 16.1999 6.20584 16.1999 7.19995Z" fill="#012BDD"/>
<path d="M12.5999 13.5C12.5999 11.5117 10.9881 9.89995 8.9999 9.89995C7.01168 9.89995 5.3999 11.5117 5.3999 13.5V16.2H12.5999V13.5Z" fill="#012BDD"/>
<path d="M5.3999 7.19995C5.3999 8.19406 4.59401 8.99995 3.5999 8.99995C2.60579 8.99995 1.7999 8.19406 1.7999 7.19995C1.7999 6.20584 2.60579 5.39995 3.5999 5.39995C4.59401 5.39995 5.3999 6.20584 5.3999 7.19995Z" fill="#012BDD"/>
<path d="M14.3999 16.2V13.5C14.3999 12.5512 14.1552 11.6596 13.7256 10.8848C13.9411 10.8294 14.1671 10.8 14.3999 10.8C15.8911 10.8 17.0999 12.0088 17.0999 13.5V16.2H14.3999Z" fill="#012BDD"/>
<path d="M4.27424 10.8848C3.84457 11.6596 3.5999 12.5512 3.5999 13.5V16.2H0.899902V13.5C0.899902 12.0088 2.10873 10.8 3.5999 10.8C3.83274 10.8 4.05869 10.8294 4.27424 10.8848Z" fill="#012BDD"/>
</svg>
