<svg width="22" height="22" viewBox="0 0 22 22" fill="none" xmlns="http://www.w3.org/2000/svg">
<path d="M11 4.44661C11.6282 3.73482 12.5474 3.28589 13.5714 3.28589C15.465 3.28589 17 4.82091 17 6.71446C17 8.60801 15.465 10.143 13.5714 10.143C12.5474 10.143 11.6282 9.6941 11 8.98231M13.5714 18.7145H3.28571V17.8573C3.28571 15.017 5.58824 12.7145 8.42856 12.7145C11.2689 12.7145 13.5714 15.017 13.5714 17.8573V18.7145ZM13.5714 18.7145H18.7143V17.8573C18.7143 15.017 16.4117 12.7145 13.5714 12.7145C12.6347 12.7145 11.7564 12.9649 11 13.4025M11.8571 6.71446C11.8571 8.60801 10.3221 10.143 8.42856 10.143C6.53502 10.143 4.99999 8.60801 4.99999 6.71446C4.99999 4.82091 6.53502 3.28589 8.42856 3.28589C10.3221 3.28589 11.8571 4.82091 11.8571 6.71446Z" stroke="#012BDD" stroke-width="2.28571" stroke-linecap="round" stroke-linejoin="round"/>
</svg>
