<svg width="18" height="19" viewBox="0 0 18 19" fill="none" xmlns="http://www.w3.org/2000/svg">
<path d="M11.6999 6.32891C11.6999 7.82008 10.4911 9.02891 8.9999 9.02891C7.50873 9.02891 6.2999 7.82008 6.2999 6.32891C6.2999 4.83774 7.50873 3.62891 8.9999 3.62891C10.4911 3.62891 11.6999 4.83774 11.6999 6.32891Z" fill="#012BDD"/>
<path d="M16.1999 8.12891C16.1999 9.12302 15.394 9.92891 14.3999 9.92891C13.4058 9.92891 12.5999 9.12302 12.5999 8.12891C12.5999 7.13479 13.4058 6.32891 14.3999 6.32891C15.394 6.32891 16.1999 7.13479 16.1999 8.12891Z" fill="#012BDD"/>
<path d="M12.5999 14.4289C12.5999 12.4407 10.9881 10.8289 8.9999 10.8289C7.01168 10.8289 5.3999 12.4407 5.3999 14.4289V17.1289H12.5999V14.4289Z" fill="#012BDD"/>
<path d="M5.3999 8.12891C5.3999 9.12302 4.59401 9.92891 3.5999 9.92891C2.60579 9.92891 1.7999 9.12302 1.7999 8.12891C1.7999 7.13479 2.60579 6.32891 3.5999 6.32891C4.59401 6.32891 5.3999 7.13479 5.3999 8.12891Z" fill="#012BDD"/>
<path d="M14.3999 17.1289V14.4289C14.3999 13.4802 14.1552 12.5886 13.7256 11.8138C13.9411 11.7584 14.1671 11.7289 14.3999 11.7289C15.8911 11.7289 17.0999 12.9377 17.0999 14.4289V17.1289H14.3999Z" fill="#012BDD"/>
<path d="M4.27424 11.8138C3.84457 12.5886 3.5999 13.4802 3.5999 14.4289V17.1289H0.899902V14.4289C0.899902 12.9377 2.10873 11.7289 3.5999 11.7289C3.83274 11.7289 4.05869 11.7584 4.27424 11.8138Z" fill="#012BDD"/>
</svg>
