<svg width="16" height="17" viewBox="0 0 16 17" fill="none" xmlns="http://www.w3.org/2000/svg">
<path d="M1.6001 3.71943C1.6001 3.27761 1.95827 2.91943 2.4001 2.91943H4.0001C4.44193 2.91943 4.8001 3.27761 4.8001 3.71943V13.3194C4.8001 13.7613 4.44193 14.1194 4.0001 14.1194H2.4001C1.95827 14.1194 1.6001 13.7613 1.6001 13.3194V3.71943Z" fill="#111827"/>
<path d="M6.4001 3.71943C6.4001 3.27761 6.75827 2.91943 7.2001 2.91943H8.8001C9.24193 2.91943 9.6001 3.27761 9.6001 3.71943V13.3194C9.6001 13.7613 9.24193 14.1194 8.8001 14.1194H7.2001C6.75827 14.1194 6.4001 13.7613 6.4001 13.3194V3.71943Z" fill="#111827"/>
<path d="M12.0001 2.91943C11.5583 2.91943 11.2001 3.27761 11.2001 3.71943V13.3194C11.2001 13.7613 11.5583 14.1194 12.0001 14.1194H13.6001C14.0419 14.1194 14.4001 13.7613 14.4001 13.3194V3.71943C14.4001 3.27761 14.0419 2.91943 13.6001 2.91943H12.0001Z" fill="#111827"/>
</svg>
